<svg width="524" height="313" viewBox="0 0 524 313" fill="none" xmlns="http://www.w3.org/2000/svg">
<path d="M0.00012207 0L0 270H524V138.325L279.302 44.5567L0.00012207 0Z" fill="#F85900"/>
<path d="M4.944 299.24C3.67467 299.24 2.70933 298.968 2.048 298.424C1.39733 297.869 1.072 297.117 1.072 296.168V291.08C1.072 290.76 1.232 290.6 1.552 290.6H2.048C2.21867 290.6 2.34133 290.643 2.416 290.728C2.49067 290.803 2.528 290.92 2.528 291.08V296.312C2.528 296.909 2.736 297.363 3.152 297.672C3.568 297.971 4.16533 298.12 4.944 298.12C5.72267 298.12 6.32 297.971 6.736 297.672C7.152 297.363 7.36 296.909 7.36 296.312V288.28C7.36 288.12 7.39733 288.003 7.472 287.928C7.54667 287.843 7.66933 287.8 7.84 287.8H8.32C8.65067 287.8 8.816 287.96 8.816 288.28V296.168C8.816 297.117 8.48533 297.869 7.824 298.424C7.17333 298.968 6.21333 299.24 4.944 299.24ZM1.22987 288.968C1.05921 288.968 0.941875 288.936 0.877874 288.872C0.803208 288.808 0.765875 288.691 0.765875 288.52V288.28C0.765875 288.12 0.803208 288.003 0.877874 287.928C0.941875 287.853 1.05921 287.816 1.22987 287.816H4.74987V286.328C4.74987 286.104 4.86187 285.992 5.08587 285.992H5.69387C5.91787 285.992 6.02987 286.104 6.02987 286.328V288.184C6.02987 288.483 5.97654 288.691 5.86987 288.808C5.76321 288.915 5.55521 288.968 5.24587 288.968H1.22987ZM17.8254 299C17.5267 299 17.3774 298.845 17.3774 298.536V298.024C17.3774 297.331 17.6547 296.637 18.2094 295.944C18.7747 295.24 19.5854 294.611 20.6414 294.056C21.4307 293.64 22.0227 293.293 22.4174 293.016C22.8227 292.728 23.116 292.424 23.2974 292.104C23.4894 291.784 23.5854 291.389 23.5854 290.92C23.5854 290.28 23.3614 289.8 22.9134 289.48C22.4654 289.16 21.852 289 21.0734 289C20.54 289 20.0334 289.064 19.5534 289.192C19.0734 289.32 18.6734 289.485 18.3534 289.688C18.3 289.731 18.2467 289.752 18.1934 289.752C18.1294 289.752 18.076 289.709 18.0334 289.624L17.6974 289.032C17.6654 288.968 17.6494 288.915 17.6494 288.872C17.6494 288.797 17.692 288.733 17.7774 288.68C18.1294 288.435 18.6094 288.243 19.2174 288.104C19.8254 287.955 20.4867 287.88 21.2014 287.88C22.332 287.88 23.2494 288.147 23.9534 288.68C24.668 289.213 25.0254 289.96 25.0254 290.92C25.0254 291.763 24.7587 292.472 24.2254 293.048C23.692 293.613 22.8654 294.179 21.7454 294.744C20.8174 295.224 20.1027 295.725 19.6014 296.248C19.1 296.76 18.8494 297.288 18.8494 297.832H24.4654C24.636 297.832 24.7534 297.869 24.8174 297.944C24.892 298.008 24.9294 298.125 24.9294 298.296V298.568C24.9294 298.728 24.892 298.84 24.8174 298.904C24.7534 298.968 24.636 299 24.4654 299H17.8254ZM30.2769 299.24C29.5622 299.24 28.8742 299.16 28.2129 299C27.5622 298.851 27.0555 298.653 26.6929 298.408C26.6075 298.355 26.5649 298.291 26.5649 298.216C26.5649 298.173 26.5809 298.12 26.6129 298.056L26.9649 297.464C27.0075 297.389 27.0555 297.352 27.1089 297.352C27.1622 297.352 27.2155 297.373 27.2689 297.416C27.5995 297.619 28.0262 297.789 28.5489 297.928C29.0822 298.056 29.6582 298.12 30.2769 298.12C31.3009 298.12 32.0742 297.907 32.5969 297.48C33.1195 297.043 33.3809 296.392 33.3809 295.528C33.3809 294.557 33.1569 293.88 32.7089 293.496C32.2609 293.101 31.5195 292.904 30.4849 292.904C29.5355 292.904 28.7302 293.064 28.0689 293.384C27.9302 293.437 27.7969 293.464 27.6689 293.464C27.4449 293.464 27.2582 293.4 27.1089 293.272C26.9702 293.133 26.9062 292.952 26.9169 292.728L27.1889 288.568C27.1995 288.419 27.2369 288.307 27.3009 288.232C27.3755 288.157 27.4982 288.12 27.6689 288.12H33.8449C34.0155 288.12 34.1382 288.152 34.2129 288.216C34.2875 288.28 34.3249 288.392 34.3249 288.552V288.824C34.3249 288.995 34.2875 289.117 34.2129 289.192C34.1382 289.256 34.0155 289.288 33.8449 289.288H28.4689L28.2769 292.2C28.9595 291.955 29.7809 291.832 30.7409 291.832C33.4609 291.832 34.8209 293.064 34.8209 295.528C34.8209 296.275 34.6342 296.931 34.2609 297.496C33.8982 298.051 33.3755 298.483 32.6929 298.792C32.0102 299.091 31.2049 299.24 30.2769 299.24ZM40.0581 299.24C39.3435 299.24 38.6555 299.16 37.9941 299C37.3435 298.851 36.8368 298.653 36.4741 298.408C36.3888 298.355 36.3461 298.291 36.3461 298.216C36.3461 298.173 36.3621 298.12 36.3941 298.056L36.7461 297.464C36.7888 297.389 36.8368 297.352 36.8901 297.352C36.9435 297.352 36.9968 297.373 37.0501 297.416C37.3808 297.619 37.8075 297.789 38.3301 297.928C38.8635 298.056 39.4395 298.12 40.0581 298.12C41.0821 298.12 41.8555 297.907 42.3781 297.48C42.9008 297.043 43.1621 296.392 43.1621 295.528C43.1621 294.557 42.9381 293.88 42.4901 293.496C42.0421 293.101 41.3008 292.904 40.2661 292.904C39.3168 292.904 38.5115 293.064 37.8501 293.384C37.7115 293.437 37.5781 293.464 37.4501 293.464C37.2261 293.464 37.0395 293.4 36.8901 293.272C36.7515 293.133 36.6875 292.952 36.6981 292.728L36.9701 288.568C36.9808 288.419 37.0181 288.307 37.0821 288.232C37.1568 288.157 37.2795 288.12 37.4501 288.12H43.6261C43.7968 288.12 43.9195 288.152 43.9941 288.216C44.0688 288.28 44.1061 288.392 44.1061 288.552V288.824C44.1061 288.995 44.0688 289.117 43.9941 289.192C43.9195 289.256 43.7968 289.288 43.6261 289.288H38.2501L38.0581 292.2C38.7408 291.955 39.5621 291.832 40.5221 291.832C43.2421 291.832 44.6021 293.064 44.6021 295.528C44.6021 296.275 44.4155 296.931 44.0421 297.496C43.6795 298.051 43.1568 298.483 42.4741 298.792C41.7915 299.091 40.9861 299.24 40.0581 299.24ZM50.4154 299.24C49.1354 299.24 48.0954 298.851 47.2954 298.072C46.506 297.293 46.1114 296.04 46.1114 294.312C46.1114 292.733 46.3354 291.469 46.7834 290.52C47.2314 289.56 47.8074 288.883 48.5114 288.488C49.2154 288.083 49.994 287.88 50.8474 287.88C52.0634 287.88 53.0394 288.136 53.7754 288.648C53.8607 288.701 53.9034 288.765 53.9034 288.84C53.9034 288.883 53.8874 288.936 53.8554 289L53.5354 289.544C53.4927 289.64 53.4394 289.688 53.3754 289.688C53.3434 289.688 53.29 289.661 53.2154 289.608C52.906 289.395 52.5647 289.24 52.1914 289.144C51.8287 289.048 51.3807 289 50.8474 289C49.898 289 49.1514 289.304 48.6074 289.912C48.074 290.509 47.722 291.411 47.5514 292.616C47.914 292.2 48.362 291.896 48.8954 291.704C49.4287 291.501 50.0687 291.4 50.8154 291.4C51.5834 291.4 52.2714 291.555 52.8794 291.864C53.4874 292.163 53.962 292.595 54.3034 293.16C54.6554 293.715 54.8314 294.36 54.8314 295.096C54.8314 296.451 54.442 297.48 53.6634 298.184C52.8847 298.888 51.802 299.24 50.4154 299.24ZM50.4154 298.12C52.41 298.12 53.4074 297.112 53.4074 295.096C53.4074 294.264 53.1354 293.613 52.5914 293.144C52.058 292.675 51.3594 292.44 50.4954 292.44C50.026 292.44 49.5674 292.536 49.1194 292.728C48.6714 292.92 48.298 293.219 47.9994 293.624C47.7114 294.029 47.5674 294.541 47.5674 295.16C47.5674 296.195 47.8287 296.947 48.3514 297.416C48.874 297.885 49.562 298.12 50.4154 298.12Z" fill="black"/>
<path d="M21.74 30.3C19.58 30.3 17.9867 29.9533 16.96 29.26C16.84 29.18 16.78 29.0867 16.78 28.98C16.78 28.9 16.8133 28.8067 16.88 28.7L17.46 27.72C17.54 27.5867 17.6133 27.52 17.68 27.52C17.7333 27.52 17.8267 27.5533 17.96 27.62C18.4 27.86 18.9067 28.0533 19.48 28.2C20.0667 28.3467 20.7 28.42 21.38 28.42C22.4733 28.42 23.2733 28.2133 23.78 27.8C24.3 27.3733 24.56 26.7867 24.56 26.04C24.56 24.6533 23.7133 23.96 22.02 23.96H20.34C20.0733 23.96 19.88 23.9067 19.76 23.8C19.6533 23.68 19.6 23.4933 19.6 23.24V22.72C19.6 22.48 19.6533 22.3067 19.76 22.2C19.88 22.0933 20.0733 22.04 20.34 22.04H21.98C22.7 22.04 23.24 21.8533 23.6 21.48C23.96 21.0933 24.14 20.6067 24.14 20.02C24.14 18.6733 23.1933 18 21.3 18C20.1267 18 19.0933 18.2467 18.2 18.74C18.0667 18.8067 17.9733 18.84 17.92 18.84C17.8533 18.84 17.78 18.78 17.7 18.66L17.14 17.72C17.0733 17.6133 17.04 17.52 17.04 17.44C17.04 17.3333 17.1 17.24 17.22 17.16C17.6867 16.8267 18.3067 16.5667 19.08 16.38C19.8533 16.1933 20.7133 16.1 21.66 16.1C22.6867 16.1 23.5733 16.26 24.32 16.58C25.08 16.9 25.66 17.3533 26.06 17.94C26.4733 18.5133 26.68 19.1867 26.68 19.96C26.68 20.5867 26.5267 21.1667 26.22 21.7C25.9267 22.2333 25.5 22.6467 24.94 22.94C25.66 23.2067 26.1933 23.62 26.54 24.18C26.9 24.7267 27.08 25.3733 27.08 26.12C27.08 27.3733 26.6133 28.3867 25.68 29.16C24.76 29.92 23.4467 30.3 21.74 30.3ZM35.2555 30.3C33.0688 30.3 31.4155 29.6933 30.2955 28.48C29.1888 27.2533 28.6355 25.4933 28.6355 23.2C28.6355 20.9067 29.1888 19.1533 30.2955 17.94C31.4155 16.7133 33.0688 16.1 35.2555 16.1C37.4288 16.1 39.0755 16.7133 40.1955 17.94C41.3155 19.1667 41.8755 20.92 41.8755 23.2C41.8755 25.48 41.3155 27.2333 40.1955 28.46C39.0755 29.6867 37.4288 30.3 35.2555 30.3ZM37.5155 18.6C36.9421 18.2 36.1888 18 35.2555 18C33.8688 18 32.8355 18.4333 32.1555 19.3C31.4888 20.1667 31.1555 21.4667 31.1555 23.2C31.1555 24.5733 31.4355 25.6333 31.9955 26.38L37.5155 18.6ZM35.2555 28.42C36.6421 28.42 37.6688 27.9867 38.3355 27.12C39.0021 26.2533 39.3355 24.9467 39.3355 23.2C39.3355 21.8533 39.0688 20.8 38.5355 20.04L32.9955 27.86C33.5955 28.2333 34.3488 28.42 35.2555 28.42ZM48.6402 30.3C47.8135 30.3 47.0602 30.2067 46.3802 30.02C45.7135 29.8467 45.1468 29.6067 44.6802 29.3C44.5602 29.22 44.5002 29.1267 44.5002 29.02C44.5002 28.94 44.5335 28.8467 44.6002 28.74L45.1602 27.78C45.2402 27.66 45.3135 27.6 45.3802 27.6C45.4335 27.6 45.5268 27.6333 45.6602 27.7C46.4602 28.18 47.4068 28.42 48.5002 28.42C49.6335 28.42 50.5068 28.12 51.1202 27.52C51.7335 26.92 52.1135 26 52.2602 24.76C51.8068 25.1867 51.2735 25.4933 50.6602 25.68C50.0602 25.8533 49.3468 25.94 48.5202 25.94C47.4802 25.94 46.5735 25.7533 45.8002 25.38C45.0402 24.9933 44.4535 24.4533 44.0402 23.76C43.6402 23.0667 43.4402 22.2733 43.4402 21.38C43.4402 19.62 43.9335 18.3 44.9202 17.42C45.9068 16.54 47.3135 16.1 49.1402 16.1C50.7935 16.1 52.1135 16.6133 53.1002 17.64C54.1002 18.6533 54.6002 20.22 54.6002 22.34C54.6002 25.1667 54.0402 27.2 52.9202 28.44C51.8135 29.68 50.3868 30.3 48.6402 30.3ZM49.0802 24.3C49.5868 24.3 50.0602 24.1933 50.5002 23.98C50.9535 23.7533 51.3202 23.4267 51.6002 23C51.8802 22.56 52.0202 22.0333 52.0202 21.42C52.0202 20.2867 51.7668 19.4333 51.2602 18.86C50.7535 18.2867 50.0402 18 49.1202 18C48.0668 18 47.2735 18.2667 46.7402 18.8C46.2202 19.3333 45.9602 20.18 45.9602 21.34C45.9602 22.3267 46.2202 23.0667 46.7402 23.56C47.2735 24.0533 48.0535 24.3 49.0802 24.3ZM56.855 30C56.415 30 56.195 29.7733 56.195 29.32V28.54C56.195 27.6867 56.5217 26.8467 57.175 26.02C57.8417 25.1933 58.835 24.4067 60.155 23.66C61.1017 23.1267 61.795 22.7067 62.235 22.4C62.675 22.08 62.995 21.7467 63.195 21.4C63.4083 21.04 63.515 20.6 63.515 20.08C63.515 19.4 63.275 18.8867 62.795 18.54C62.315 18.18 61.6417 18 60.775 18C60.1483 18 59.555 18.08 58.995 18.24C58.4483 18.3867 57.975 18.5733 57.575 18.8C57.4417 18.8667 57.355 18.9 57.315 18.9C57.235 18.9 57.155 18.84 57.075 18.72L56.515 17.74C56.4483 17.6333 56.415 17.54 56.415 17.46C56.415 17.3533 56.475 17.26 56.595 17.18C57.0617 16.8467 57.695 16.5867 58.495 16.4C59.295 16.2 60.1683 16.1 61.115 16.1C62.595 16.1 63.7883 16.44 64.695 17.12C65.6017 17.7867 66.055 18.7333 66.055 19.96C66.055 20.9867 65.735 21.8533 65.095 22.56C64.4683 23.2667 63.475 23.9933 62.115 24.74C61.115 25.26 60.3217 25.8067 59.735 26.38C59.1483 26.9533 58.835 27.5133 58.795 28.06H65.275C65.5417 28.06 65.7283 28.12 65.835 28.24C65.9417 28.3467 65.995 28.5267 65.995 28.78V29.32C65.995 29.56 65.9417 29.7333 65.835 29.84C65.7283 29.9467 65.5417 30 65.275 30H56.855ZM72.8589 30.3C72.0322 30.3 71.2789 30.2067 70.5989 30.02C69.9322 29.8467 69.3656 29.6067 68.8989 29.3C68.7789 29.22 68.7189 29.1267 68.7189 29.02C68.7189 28.94 68.7522 28.8467 68.8189 28.74L69.3789 27.78C69.4589 27.66 69.5322 27.6 69.5989 27.6C69.6522 27.6 69.7456 27.6333 69.8789 27.7C70.6789 28.18 71.6256 28.42 72.7189 28.42C73.8522 28.42 74.7256 28.12 75.3389 27.52C75.9522 26.92 76.3322 26 76.4789 24.76C76.0256 25.1867 75.4922 25.4933 74.8789 25.68C74.2789 25.8533 73.5656 25.94 72.7389 25.94C71.6989 25.94 70.7922 25.7533 70.0189 25.38C69.2589 24.9933 68.6722 24.4533 68.2589 23.76C67.8589 23.0667 67.6589 22.2733 67.6589 21.38C67.6589 19.62 68.1522 18.3 69.1389 17.42C70.1256 16.54 71.5322 16.1 73.3589 16.1C75.0122 16.1 76.3322 16.6133 77.3189 17.64C78.3189 18.6533 78.8189 20.22 78.8189 22.34C78.8189 25.1667 78.2589 27.2 77.1389 28.44C76.0322 29.68 74.6056 30.3 72.8589 30.3ZM73.2989 24.3C73.8056 24.3 74.2789 24.1933 74.7189 23.98C75.1722 23.7533 75.5389 23.4267 75.8189 23C76.0989 22.56 76.2389 22.0333 76.2389 21.42C76.2389 20.2867 75.9856 19.4333 75.4789 18.86C74.9722 18.2867 74.2589 18 73.3389 18C72.2856 18 71.4922 18.2667 70.9589 18.8C70.4389 19.3333 70.1789 20.18 70.1789 21.34C70.1789 22.3267 70.4389 23.0667 70.9589 23.56C71.4922 24.0533 72.2722 24.3 73.2989 24.3Z" fill="black"/>
<path d="M16 32H79.5989V33H16V32Z" fill="black"/>
<path d="M445.046 252C444.606 252 444.386 251.773 444.386 251.32V250.54C444.386 249.687 444.713 248.847 445.366 248.02C446.033 247.193 447.026 246.407 448.346 245.66C449.293 245.127 449.986 244.707 450.426 244.4C450.866 244.08 451.186 243.747 451.386 243.4C451.6 243.04 451.706 242.6 451.706 242.08C451.706 241.4 451.466 240.887 450.986 240.54C450.506 240.18 449.833 240 448.966 240C448.34 240 447.746 240.08 447.186 240.24C446.64 240.387 446.166 240.573 445.766 240.8C445.633 240.867 445.546 240.9 445.506 240.9C445.426 240.9 445.346 240.84 445.266 240.72L444.706 239.74C444.64 239.633 444.606 239.54 444.606 239.46C444.606 239.353 444.666 239.26 444.786 239.18C445.253 238.847 445.886 238.587 446.686 238.4C447.486 238.2 448.36 238.1 449.306 238.1C450.786 238.1 451.98 238.44 452.886 239.12C453.793 239.787 454.246 240.733 454.246 241.96C454.246 242.987 453.926 243.853 453.286 244.56C452.66 245.267 451.666 245.993 450.306 246.74C449.306 247.26 448.513 247.807 447.926 248.38C447.34 248.953 447.026 249.513 446.986 250.06H453.466C453.733 250.06 453.92 250.12 454.026 250.24C454.133 250.347 454.186 250.527 454.186 250.78V251.32C454.186 251.56 454.133 251.733 454.026 251.84C453.92 251.947 453.733 252 453.466 252H445.046ZM461.05 252.3C460.224 252.3 459.47 252.207 458.79 252.02C458.124 251.847 457.557 251.607 457.09 251.3C456.97 251.22 456.91 251.127 456.91 251.02C456.91 250.94 456.944 250.847 457.01 250.74L457.57 249.78C457.65 249.66 457.724 249.6 457.79 249.6C457.844 249.6 457.937 249.633 458.07 249.7C458.87 250.18 459.817 250.42 460.91 250.42C462.044 250.42 462.917 250.12 463.53 249.52C464.144 248.92 464.524 248 464.67 246.76C464.217 247.187 463.684 247.493 463.07 247.68C462.47 247.853 461.757 247.94 460.93 247.94C459.89 247.94 458.984 247.753 458.21 247.38C457.45 246.993 456.864 246.453 456.45 245.76C456.05 245.067 455.85 244.273 455.85 243.38C455.85 241.62 456.344 240.3 457.33 239.42C458.317 238.54 459.724 238.1 461.55 238.1C463.204 238.1 464.524 238.613 465.51 239.64C466.51 240.653 467.01 242.22 467.01 244.34C467.01 247.167 466.45 249.2 465.33 250.44C464.224 251.68 462.797 252.3 461.05 252.3ZM461.49 246.3C461.997 246.3 462.47 246.193 462.91 245.98C463.364 245.753 463.73 245.427 464.01 245C464.29 244.56 464.43 244.033 464.43 243.42C464.43 242.287 464.177 241.433 463.67 240.86C463.164 240.287 462.45 240 461.53 240C460.477 240 459.684 240.267 459.15 240.8C458.63 241.333 458.37 242.18 458.37 243.34C458.37 244.327 458.63 245.067 459.15 245.56C459.684 246.053 460.464 246.3 461.49 246.3ZM470.265 252C470.078 252 469.985 251.92 469.985 251.76C469.985 251.68 470.012 251.593 470.065 251.5L475.885 240.36H469.025C468.772 240.36 468.598 240.307 468.505 240.2C468.412 240.093 468.365 239.913 468.365 239.66V239.06C468.365 238.82 468.412 238.653 468.505 238.56C468.598 238.453 468.772 238.4 469.025 238.4H478.205C478.525 238.4 478.745 238.453 478.865 238.56C478.998 238.667 479.065 238.853 479.065 239.12C479.065 239.293 479.018 239.487 478.925 239.7C478.845 239.913 478.752 240.113 478.645 240.3C478.538 240.487 478.472 240.613 478.445 240.68L472.705 251.72C472.652 251.827 472.585 251.9 472.505 251.94C472.438 251.98 472.338 252 472.205 252H470.265ZM482.121 252C481.934 252 481.841 251.92 481.841 251.76C481.841 251.68 481.867 251.593 481.921 251.5L487.741 240.36H480.881C480.627 240.36 480.454 240.307 480.361 240.2C480.267 240.093 480.221 239.913 480.221 239.66V239.06C480.221 238.82 480.267 238.653 480.361 238.56C480.454 238.453 480.627 238.4 480.881 238.4H490.061C490.381 238.4 490.601 238.453 490.721 238.56C490.854 238.667 490.921 238.853 490.921 239.12C490.921 239.293 490.874 239.487 490.781 239.7C490.701 239.913 490.607 240.113 490.501 240.3C490.394 240.487 490.327 240.613 490.301 240.68L484.561 251.72C484.507 251.827 484.441 251.9 484.361 251.94C484.294 251.98 484.194 252 484.061 252H482.121ZM492.976 252C492.536 252 492.316 251.773 492.316 251.32V250.54C492.316 249.687 492.643 248.847 493.296 248.02C493.963 247.193 494.956 246.407 496.276 245.66C497.223 245.127 497.916 244.707 498.356 244.4C498.796 244.08 499.116 243.747 499.316 243.4C499.529 243.04 499.636 242.6 499.636 242.08C499.636 241.4 499.396 240.887 498.916 240.54C498.436 240.18 497.763 240 496.896 240C496.269 240 495.676 240.08 495.116 240.24C494.569 240.387 494.096 240.573 493.696 240.8C493.563 240.867 493.476 240.9 493.436 240.9C493.356 240.9 493.276 240.84 493.196 240.72L492.636 239.74C492.569 239.633 492.536 239.54 492.536 239.46C492.536 239.353 492.596 239.26 492.716 239.18C493.183 238.847 493.816 238.587 494.616 238.4C495.416 238.2 496.289 238.1 497.236 238.1C498.716 238.1 499.909 238.44 500.816 239.12C501.723 239.787 502.176 240.733 502.176 241.96C502.176 242.987 501.856 243.853 501.216 244.56C500.589 245.267 499.596 245.993 498.236 246.74C497.236 247.26 496.443 247.807 495.856 248.38C495.269 248.953 494.956 249.513 494.916 250.06H501.396C501.663 250.06 501.849 250.12 501.956 250.24C502.063 250.347 502.116 250.527 502.116 250.78V251.32C502.116 251.56 502.063 251.733 501.956 251.84C501.849 251.947 501.663 252 501.396 252H492.976Z" fill="black"/>
<path d="M443.566 254H502.996V255H443.566V254Z" fill="black"/>
<path d="M473.96 299.24C472.69 299.24 471.725 298.968 471.064 298.424C470.413 297.869 470.088 297.117 470.088 296.168V291.08C470.088 290.76 470.248 290.6 470.568 290.6H471.064C471.234 290.6 471.357 290.643 471.432 290.728C471.506 290.803 471.544 290.92 471.544 291.08V296.312C471.544 296.909 471.752 297.363 472.168 297.672C472.584 297.971 473.181 298.12 473.96 298.12C474.738 298.12 475.336 297.971 475.752 297.672C476.168 297.363 476.376 296.909 476.376 296.312V288.28C476.376 288.12 476.413 288.003 476.488 287.928C476.562 287.843 476.685 287.8 476.856 287.8H477.336C477.666 287.8 477.832 287.96 477.832 288.28V296.168C477.832 297.117 477.501 297.869 476.84 298.424C476.189 298.968 475.229 299.24 473.96 299.24ZM470.245 288.968C470.075 288.968 469.957 288.936 469.893 288.872C469.819 288.808 469.781 288.691 469.781 288.52V288.28C469.781 288.12 469.819 288.003 469.893 287.928C469.957 287.853 470.075 287.816 470.245 287.816H473.765V286.328C473.765 286.104 473.877 285.992 474.101 285.992H474.709C474.933 285.992 475.045 286.104 475.045 286.328V288.184C475.045 288.483 474.992 288.691 474.885 288.808C474.779 288.915 474.571 288.968 474.261 288.968H470.245ZM486.841 299C486.542 299 486.393 298.845 486.393 298.536V298.024C486.393 297.331 486.67 296.637 487.225 295.944C487.79 295.24 488.601 294.611 489.657 294.056C490.446 293.64 491.038 293.293 491.433 293.016C491.838 292.728 492.132 292.424 492.313 292.104C492.505 291.784 492.601 291.389 492.601 290.92C492.601 290.28 492.377 289.8 491.929 289.48C491.481 289.16 490.868 289 490.089 289C489.556 289 489.049 289.064 488.569 289.192C488.089 289.32 487.689 289.485 487.369 289.688C487.316 289.731 487.262 289.752 487.209 289.752C487.145 289.752 487.092 289.709 487.049 289.624L486.713 289.032C486.681 288.968 486.665 288.915 486.665 288.872C486.665 288.797 486.708 288.733 486.793 288.68C487.145 288.435 487.625 288.243 488.233 288.104C488.841 287.955 489.502 287.88 490.217 287.88C491.348 287.88 492.265 288.147 492.969 288.68C493.684 289.213 494.041 289.96 494.041 290.92C494.041 291.763 493.774 292.472 493.241 293.048C492.708 293.613 491.881 294.179 490.761 294.744C489.833 295.224 489.118 295.725 488.617 296.248C488.116 296.76 487.865 297.288 487.865 297.832H493.481C493.652 297.832 493.769 297.869 493.833 297.944C493.908 298.008 493.945 298.125 493.945 298.296V298.568C493.945 298.728 493.908 298.84 493.833 298.904C493.769 298.968 493.652 299 493.481 299H486.841ZM499.293 299.24C498.578 299.24 497.89 299.16 497.229 299C496.578 298.851 496.071 298.653 495.709 298.408C495.623 298.355 495.581 298.291 495.581 298.216C495.581 298.173 495.597 298.12 495.629 298.056L495.981 297.464C496.023 297.389 496.071 297.352 496.125 297.352C496.178 297.352 496.231 297.373 496.285 297.416C496.615 297.619 497.042 297.789 497.565 297.928C498.098 298.056 498.674 298.12 499.293 298.12C500.317 298.12 501.09 297.907 501.613 297.48C502.135 297.043 502.397 296.392 502.397 295.528C502.397 294.557 502.173 293.88 501.725 293.496C501.277 293.101 500.535 292.904 499.501 292.904C498.551 292.904 497.746 293.064 497.085 293.384C496.946 293.437 496.813 293.464 496.685 293.464C496.461 293.464 496.274 293.4 496.125 293.272C495.986 293.133 495.922 292.952 495.933 292.728L496.205 288.568C496.215 288.419 496.253 288.307 496.317 288.232C496.391 288.157 496.514 288.12 496.685 288.12H502.861C503.031 288.12 503.154 288.152 503.229 288.216C503.303 288.28 503.341 288.392 503.341 288.552V288.824C503.341 288.995 503.303 289.117 503.229 289.192C503.154 289.256 503.031 289.288 502.861 289.288H497.485L497.293 292.2C497.975 291.955 498.797 291.832 499.757 291.832C502.477 291.832 503.837 293.064 503.837 295.528C503.837 296.275 503.65 296.931 503.277 297.496C502.914 298.051 502.391 298.483 501.709 298.792C501.026 299.091 500.221 299.24 499.293 299.24ZM509.65 299.24C508.37 299.24 507.33 298.851 506.53 298.072C505.74 297.293 505.346 296.04 505.346 294.312C505.346 292.733 505.57 291.469 506.018 290.52C506.466 289.56 507.042 288.883 507.746 288.488C508.45 288.083 509.228 287.88 510.082 287.88C511.298 287.88 512.274 288.136 513.01 288.648C513.095 288.701 513.138 288.765 513.138 288.84C513.138 288.883 513.122 288.936 513.09 289L512.77 289.544C512.727 289.64 512.674 289.688 512.61 289.688C512.578 289.688 512.524 289.661 512.45 289.608C512.14 289.395 511.799 289.24 511.426 289.144C511.063 289.048 510.615 289 510.082 289C509.132 289 508.386 289.304 507.842 289.912C507.308 290.509 506.956 291.411 506.786 292.616C507.148 292.2 507.596 291.896 508.13 291.704C508.663 291.501 509.303 291.4 510.05 291.4C510.818 291.4 511.506 291.555 512.114 291.864C512.722 292.163 513.196 292.595 513.538 293.16C513.89 293.715 514.066 294.36 514.066 295.096C514.066 296.451 513.676 297.48 512.898 298.184C512.119 298.888 511.036 299.24 509.65 299.24ZM509.65 298.12C511.644 298.12 512.642 297.112 512.642 295.096C512.642 294.264 512.37 293.613 511.826 293.144C511.292 292.675 510.594 292.44 509.73 292.44C509.26 292.44 508.802 292.536 508.354 292.728C507.906 292.92 507.532 293.219 507.234 293.624C506.946 294.029 506.802 294.541 506.802 295.16C506.802 296.195 507.063 296.947 507.586 297.416C508.108 297.885 508.796 298.12 509.65 298.12ZM516.029 299C515.73 299 515.581 298.845 515.581 298.536V298.024C515.581 297.331 515.858 296.637 516.413 295.944C516.978 295.24 517.789 294.611 518.845 294.056C519.634 293.64 520.226 293.293 520.621 293.016C521.026 292.728 521.319 292.424 521.501 292.104C521.693 291.784 521.789 291.389 521.789 290.92C521.789 290.28 521.565 289.8 521.117 289.48C520.669 289.16 520.055 289 519.277 289C518.743 289 518.237 289.064 517.757 289.192C517.277 289.32 516.877 289.485 516.557 289.688C516.503 289.731 516.45 289.752 516.397 289.752C516.333 289.752 516.279 289.709 516.237 289.624L515.901 289.032C515.869 288.968 515.853 288.915 515.853 288.872C515.853 288.797 515.895 288.733 515.981 288.68C516.333 288.435 516.813 288.243 517.421 288.104C518.029 287.955 518.69 287.88 519.405 287.88C520.535 287.88 521.453 288.147 522.157 288.68C522.871 289.213 523.229 289.96 523.229 290.92C523.229 291.763 522.962 292.472 522.429 293.048C521.895 293.613 521.069 294.179 519.949 294.744C519.021 295.224 518.306 295.725 517.805 296.248C517.303 296.76 517.053 297.288 517.053 297.832H522.669C522.839 297.832 522.957 297.869 523.021 297.944C523.095 298.008 523.133 298.125 523.133 298.296V298.568C523.133 298.728 523.095 298.84 523.021 298.904C522.957 298.968 522.839 299 522.669 299H516.029Z" fill="black"/>
</svg>
