<svg width="609" height="276" viewBox="0 0 609 276" fill="none" xmlns="http://www.w3.org/2000/svg">
<path d="M362.167 207.45V190.444H364.167V179.266L370.055 174.616L368.816 173.046L378.124 165.696L379.364 167.265L392.661 156.764L391.422 155.195L400.73 147.844L401.97 149.414L415.267 138.913L414.028 137.343L423.336 129.993L424.576 131.562L429.985 127.291L435.394 131.562L436.634 129.993L445.942 137.343L444.703 138.913L458 149.414L459.24 147.844L468.548 155.195L467.309 156.764L480.606 167.265L481.846 165.696L491.154 173.046L489.915 174.616L495.803 179.266V190.444H497.803V207.45H495.803V231.745H497.803V248.751H495.803V258.898H487.83V260.898H473.867V258.898H453.921V260.898H439.958V258.898H420.012V260.898H406.049V258.898H386.103V260.898H372.14V258.898H364.167V248.751H362.167V231.745H364.167V207.45H362.167Z" stroke="#393939" stroke-width="4" stroke-dasharray="20 14"/>
<path d="M334.156 165.577V151.96H336.156V145.148L341.784 140.703L340.544 139.134L351.724 130.305L352.964 131.874L365.741 121.784L364.502 120.215L375.682 111.386L376.921 112.956L389.699 102.866L388.459 101.296L399.639 92.4672L400.879 94.0368L413.656 83.9468L412.416 82.3772L423.597 73.5484L424.836 75.118L429.985 71.0518L435.134 75.118L436.374 73.5484L447.554 82.3772L446.315 83.9468L459.092 94.0368L460.331 92.4672L471.511 101.296L470.272 102.866L483.049 112.956L484.289 111.386L495.469 120.215L494.229 121.784L507.007 131.874L508.246 130.305L519.426 139.134L518.187 140.703L523.815 145.148V151.96H525.815V165.577H523.815V181.14H525.815V194.757H523.815V210.319H525.815V223.937H523.815V239.499H525.815V253.117H523.815V258.898H517.297V260.898H502.39V258.898H485.354V260.898H470.447V258.898H453.41V260.898H438.503V258.898H421.467V260.898H406.56V258.898H389.524V260.898H374.617V258.898H357.581V260.898H342.674V258.898H336.156V253.117H334.156V239.499H336.156V223.937H334.156V210.319H336.156V194.757H334.156V181.14H336.156V165.577H334.156Z" stroke="#393939" stroke-width="4" stroke-dasharray="16 14"/>
<path d="M309 135.152V121.399H311V114.509L316.692 110.014L315.453 108.444L326.744 99.5273L327.984 101.097L340.889 90.906L339.65 89.3364L350.941 80.4194L352.181 81.989L365.086 71.7981L363.847 70.2285L375.138 61.3114L376.378 62.881L389.283 52.6901L388.044 51.1205L399.336 42.2034L400.575 43.773L413.48 33.5821L412.241 32.0125L423.533 23.0955L424.772 24.6651L429.985 20.5484L435.198 24.6651L436.438 23.0955L447.73 32.0125L446.49 33.5821L459.395 43.773L460.635 42.2034L471.927 51.1205L470.687 52.6901L483.592 62.881L484.832 61.3114L496.124 70.2285L494.884 71.7981L507.789 81.989L509.029 80.4194L520.321 89.3364L519.081 90.906L531.986 101.097L533.226 99.5273L544.518 108.444L543.278 110.014L548.97 114.509V121.399H550.97V135.152H548.97V150.871H550.97V164.624H548.97V180.342H550.97V194.096H548.97V209.814H550.97V223.567H548.97V239.285H550.97V253.039H548.97V258.898H542.904V260.898H528.79V258.898H512.658V260.898H498.543V258.898H482.412V260.898H468.297V258.898H452.166V260.898H438.051V258.898H421.919V260.898H407.804V258.898H391.673V260.898H377.558V258.898H361.427V260.898H347.312V258.898H331.181V260.898H317.066V258.898H311V253.039H309V239.285H311V223.567H309V209.814H311V194.096H309V180.342H311V164.624H309V150.871H311V135.152H309Z" stroke="#393939" stroke-width="4" stroke-dasharray="16 14"/>
<path d="M385.664 206.915L429.985 171.915L474.306 206.915V260.897H385.664V206.915Z" fill="#F85900"/>
<path d="M410.609 230.989C410.225 230.989 409.953 230.917 409.793 230.773C409.649 230.613 409.577 230.357 409.577 230.005V229.093C409.577 228.741 409.649 228.485 409.793 228.325C409.953 228.165 410.225 228.085 410.609 228.085H412.673V218.893L410.969 219.949C410.889 220.013 410.785 220.045 410.657 220.045C410.497 220.045 410.377 219.973 410.297 219.829L409.169 218.101C409.105 217.989 409.073 217.885 409.073 217.789C409.073 217.629 409.161 217.501 409.337 217.405L413.489 214.909C413.633 214.813 413.769 214.749 413.897 214.717C414.025 214.685 414.209 214.669 414.449 214.669H415.577C415.961 214.669 416.233 214.757 416.393 214.933C416.569 215.109 416.657 215.373 416.657 215.725V228.085H418.745C419.129 228.085 419.393 228.165 419.537 228.325C419.681 228.469 419.753 228.725 419.753 229.093V230.005C419.753 230.357 419.681 230.613 419.537 230.773C419.393 230.917 419.129 230.989 418.745 230.989H410.609ZM421.776 230.989C421.152 230.989 420.84 230.669 420.84 230.029V228.925C420.84 227.933 421.208 226.973 421.944 226.045C422.696 225.101 423.864 224.141 425.448 223.165C426.568 222.493 427.344 222.005 427.776 221.701C428.224 221.381 428.552 221.037 428.76 220.669C428.984 220.301 429.096 219.837 429.096 219.277C429.096 218.589 428.856 218.069 428.376 217.717C427.896 217.349 427.208 217.165 426.312 217.165C425.032 217.165 423.832 217.469 422.712 218.077C422.552 218.173 422.416 218.221 422.304 218.221C422.192 218.221 422.08 218.133 421.968 217.957L421.128 216.493C421.032 216.349 420.984 216.213 420.984 216.085C420.984 215.925 421.064 215.789 421.224 215.677C421.832 215.261 422.632 214.933 423.624 214.693C424.632 214.437 425.728 214.309 426.912 214.309C428.768 214.309 430.256 214.717 431.376 215.533C432.496 216.349 433.056 217.509 433.056 219.013C433.056 220.229 432.688 221.261 431.952 222.109C431.232 222.941 430.08 223.813 428.496 224.725C427.504 225.269 426.68 225.837 426.024 226.429C425.368 227.005 424.992 227.549 424.896 228.061H432.024C432.408 228.061 432.672 228.141 432.816 228.301C432.96 228.461 433.032 228.725 433.032 229.093V229.981C433.032 230.349 432.96 230.613 432.816 230.773C432.672 230.917 432.408 230.989 432.024 230.989H421.776ZM442.78 231.349C440.076 231.349 438.036 230.621 436.66 229.165C435.3 227.693 434.62 225.581 434.62 222.829C434.62 220.077 435.3 217.973 436.66 216.517C438.036 215.045 440.076 214.309 442.78 214.309C445.468 214.309 447.492 215.045 448.852 216.517C450.228 217.973 450.916 220.077 450.916 222.829C450.916 225.581 450.228 227.693 448.852 229.165C447.492 230.621 445.468 231.349 442.78 231.349ZM444.94 217.717C444.348 217.349 443.628 217.165 442.78 217.165C441.324 217.165 440.252 217.629 439.564 218.557C438.892 219.485 438.556 220.909 438.556 222.829C438.556 224.077 438.78 225.045 439.228 225.733L444.94 217.717ZM442.78 228.493C444.236 228.493 445.3 228.029 445.972 227.101C446.644 226.173 446.98 224.749 446.98 222.829C446.98 221.629 446.764 220.645 446.332 219.877L440.572 227.989C441.148 228.325 441.884 228.493 442.78 228.493Z" fill="white"/>
<path d="M408.305 233.389H451.66V234.589H408.305V233.389Z" fill="white"/>
<path d="M419.562 162.278C418.367 162.278 417.397 161.924 416.65 161.214C415.913 160.505 415.544 159.394 415.544 157.882C415.544 156.604 415.749 155.549 416.16 154.718C416.58 153.888 417.121 153.286 417.784 152.912C418.456 152.53 419.179 152.338 419.954 152.338C421.111 152.338 422.068 152.595 422.824 153.108C422.917 153.174 422.964 153.248 422.964 153.332C422.964 153.407 422.936 153.486 422.88 153.57L422.404 154.396C422.339 154.508 422.273 154.564 422.208 154.564C422.161 154.564 422.082 154.532 421.97 154.466C421.709 154.308 421.429 154.191 421.13 154.116C420.841 154.042 420.509 154.004 420.136 154.004C419.473 154.004 418.951 154.172 418.568 154.508C418.195 154.844 417.915 155.372 417.728 156.09C418.045 155.838 418.4 155.666 418.792 155.572C419.193 155.47 419.655 155.418 420.178 155.418C420.897 155.418 421.517 155.554 422.04 155.824C422.572 156.086 422.978 156.454 423.258 156.93C423.538 157.406 423.678 157.943 423.678 158.54C423.678 159.772 423.314 160.706 422.586 161.34C421.867 161.966 420.859 162.278 419.562 162.278ZM419.562 160.612C420.169 160.612 420.621 160.454 420.92 160.136C421.228 159.81 421.382 159.306 421.382 158.624C421.382 158.027 421.223 157.574 420.906 157.266C420.598 156.949 420.164 156.79 419.604 156.79C419.109 156.79 418.694 156.944 418.358 157.252C418.022 157.56 417.854 158.027 417.854 158.652C417.854 159.959 418.423 160.612 419.562 160.612ZM429.3 162.278C427.723 162.278 426.533 161.854 425.73 161.004C424.937 160.146 424.54 158.914 424.54 157.308C424.54 155.703 424.937 154.476 425.73 153.626C426.533 152.768 427.723 152.338 429.3 152.338C430.868 152.338 432.049 152.768 432.842 153.626C433.645 154.476 434.046 155.703 434.046 157.308C434.046 158.914 433.645 160.146 432.842 161.004C432.049 161.854 430.868 162.278 429.3 162.278ZM430.56 154.326C430.215 154.112 429.795 154.004 429.3 154.004C428.451 154.004 427.826 154.275 427.424 154.816C427.032 155.358 426.836 156.188 426.836 157.308C426.836 158.036 426.967 158.601 427.228 159.002L430.56 154.326ZM429.3 160.612C430.15 160.612 430.77 160.342 431.162 159.8C431.554 159.259 431.75 158.428 431.75 157.308C431.75 156.608 431.624 156.034 431.372 155.586L428.012 160.318C428.348 160.514 428.778 160.612 429.3 160.612ZM439.677 162.278C438.1 162.278 436.91 161.854 436.107 161.004C435.314 160.146 434.917 158.914 434.917 157.308C434.917 155.703 435.314 154.476 436.107 153.626C436.91 152.768 438.1 152.338 439.677 152.338C441.245 152.338 442.426 152.768 443.219 153.626C444.022 154.476 444.423 155.703 444.423 157.308C444.423 158.914 444.022 160.146 443.219 161.004C442.426 161.854 441.245 162.278 439.677 162.278ZM440.937 154.326C440.592 154.112 440.172 154.004 439.677 154.004C438.828 154.004 438.202 154.275 437.801 154.816C437.409 155.358 437.213 156.188 437.213 157.308C437.213 158.036 437.344 158.601 437.605 159.002L440.937 154.326ZM439.677 160.612C440.526 160.612 441.147 160.342 441.539 159.8C441.931 159.259 442.127 158.428 442.127 157.308C442.127 156.608 442.001 156.034 441.749 155.586L438.389 160.318C438.725 160.514 439.154 160.612 439.677 160.612Z" fill="#393939"/>
<path d="M415.11 163.468H444.857V164.168H415.11V163.468Z" fill="#393939"/>
<path d="M411.348 107.958C411.124 107.958 410.965 107.916 410.872 107.832C410.788 107.738 410.746 107.589 410.746 107.384V106.852C410.746 106.646 410.788 106.497 410.872 106.404C410.965 106.31 411.124 106.264 411.348 106.264H412.552V100.902L411.558 101.518C411.511 101.555 411.45 101.574 411.376 101.574C411.282 101.574 411.212 101.532 411.166 101.448L410.508 100.44C410.47 100.374 410.452 100.314 410.452 100.258C410.452 100.164 410.503 100.09 410.606 100.034L413.028 98.5775C413.112 98.5215 413.191 98.4842 413.266 98.4655C413.34 98.4469 413.448 98.4375 413.588 98.4375H414.246C414.47 98.4375 414.628 98.4889 414.722 98.5915C414.824 98.6942 414.876 98.8482 414.876 99.0535V106.264H416.094C416.318 106.264 416.472 106.31 416.556 106.404C416.64 106.488 416.682 106.637 416.682 106.852V107.384C416.682 107.589 416.64 107.738 416.556 107.832C416.472 107.916 416.318 107.958 416.094 107.958H411.348ZM417.582 109.624C417.376 109.624 417.274 109.544 417.274 109.386C417.274 109.358 417.283 109.306 417.302 109.232L418.03 106.824C418.086 106.646 418.151 106.53 418.226 106.474C418.31 106.418 418.445 106.39 418.632 106.39H419.556C419.845 106.39 419.99 106.474 419.99 106.642C419.99 106.726 419.962 106.838 419.906 106.978L418.898 109.344C418.86 109.437 418.804 109.507 418.73 109.554C418.655 109.6 418.552 109.624 418.422 109.624H417.582ZM424.496 108.168C423.796 108.168 423.133 108.093 422.508 107.944C421.882 107.785 421.378 107.57 420.996 107.3C420.902 107.234 420.856 107.16 420.856 107.076C420.856 107.001 420.884 106.922 420.94 106.838L421.444 105.97C421.5 105.867 421.565 105.816 421.64 105.816C421.686 105.816 421.766 105.848 421.878 105.914C422.186 106.091 422.55 106.236 422.97 106.348C423.399 106.45 423.87 106.502 424.384 106.502C425.056 106.502 425.569 106.362 425.924 106.082C426.288 105.792 426.47 105.363 426.47 104.794C426.47 104.159 426.316 103.716 426.008 103.464C425.709 103.212 425.242 103.086 424.608 103.086C423.898 103.086 423.306 103.193 422.83 103.408C422.624 103.482 422.419 103.52 422.214 103.52C421.906 103.52 421.654 103.44 421.458 103.282C421.262 103.114 421.173 102.876 421.192 102.568L421.416 98.9835C421.434 98.7969 421.486 98.6615 421.57 98.5775C421.663 98.4842 421.817 98.4375 422.032 98.4375H427.716C427.94 98.4375 428.094 98.4842 428.178 98.5775C428.271 98.6709 428.318 98.8202 428.318 99.0255V99.5435C428.318 99.7582 428.271 99.9122 428.178 100.006C428.094 100.099 427.94 100.146 427.716 100.146H423.32L423.222 101.756C423.446 101.69 423.716 101.639 424.034 101.602C424.36 101.555 424.678 101.532 424.986 101.532C426.19 101.532 427.123 101.788 427.786 102.302C428.448 102.815 428.78 103.646 428.78 104.794C428.78 105.484 428.598 106.086 428.234 106.6C427.879 107.104 427.375 107.491 426.722 107.762C426.078 108.032 425.336 108.168 424.496 108.168ZM434.407 108.168C432.829 108.168 431.639 107.743 430.837 106.894C430.043 106.035 429.647 104.803 429.647 103.198C429.647 101.592 430.043 100.365 430.837 99.5155C431.639 98.6569 432.829 98.2275 434.407 98.2275C435.975 98.2275 437.155 98.6569 437.949 99.5155C438.751 100.365 439.153 101.592 439.153 103.198C439.153 104.803 438.751 106.035 437.949 106.894C437.155 107.743 435.975 108.168 434.407 108.168ZM435.667 100.216C435.321 100.001 434.901 99.8935 434.407 99.8935C433.557 99.8935 432.932 100.164 432.531 100.706C432.139 101.247 431.943 102.078 431.943 103.198C431.943 103.926 432.073 104.49 432.335 104.892L435.667 100.216ZM434.407 106.502C435.256 106.502 435.877 106.231 436.269 105.69C436.661 105.148 436.857 104.318 436.857 103.198C436.857 102.498 436.731 101.924 436.479 101.476L433.119 106.208C433.455 106.404 433.884 106.502 434.407 106.502ZM444.784 108.168C443.206 108.168 442.016 107.743 441.214 106.894C440.42 106.035 440.024 104.803 440.024 103.198C440.024 101.592 440.42 100.365 441.214 99.5155C442.016 98.6569 443.206 98.2275 444.784 98.2275C446.352 98.2275 447.532 98.6569 448.326 99.5155C449.128 100.365 449.53 101.592 449.53 103.198C449.53 104.803 449.128 106.035 448.326 106.894C447.532 107.743 446.352 108.168 444.784 108.168ZM446.044 100.216C445.698 100.001 445.278 99.8935 444.784 99.8935C443.934 99.8935 443.309 100.164 442.908 100.706C442.516 101.247 442.32 102.078 442.32 103.198C442.32 103.926 442.45 104.49 442.712 104.892L446.044 100.216ZM444.784 106.502C445.633 106.502 446.254 106.231 446.646 105.69C447.038 105.148 447.234 104.318 447.234 103.198C447.234 102.498 447.108 101.924 446.856 101.476L443.496 106.208C443.832 106.404 444.261 106.502 444.784 106.502Z" fill="#393939"/>
<path d="M410.004 109.358H449.964V110.058H410.004V109.358Z" fill="#393939"/>
<path d="M408.06 57.4541C407.836 57.4541 407.677 57.4121 407.584 57.3281C407.5 57.2348 407.458 57.0854 407.458 56.8801V56.3481C407.458 56.1428 407.5 55.9934 407.584 55.9001C407.677 55.8068 407.836 55.7601 408.06 55.7601H409.264V50.3981L408.27 51.0141C408.223 51.0514 408.162 51.0701 408.088 51.0701C407.994 51.0701 407.924 51.0281 407.878 50.9441L407.22 49.9361C407.182 49.8708 407.164 49.8101 407.164 49.7541C407.164 49.6608 407.215 49.5861 407.318 49.5301L409.74 48.0741C409.824 48.0181 409.903 47.9808 409.978 47.9621C410.052 47.9434 410.16 47.9341 410.3 47.9341H410.958C411.182 47.9341 411.34 47.9854 411.434 48.0881C411.536 48.1908 411.588 48.3448 411.588 48.5501V55.7601H412.806C413.03 55.7601 413.184 55.8068 413.268 55.9001C413.352 55.9841 413.394 56.1334 413.394 56.3481V56.8801C413.394 57.0854 413.352 57.2348 413.268 57.3281C413.184 57.4121 413.03 57.4541 412.806 57.4541H408.06ZM414.294 59.1201C414.088 59.1201 413.986 59.0408 413.986 58.8821C413.986 58.8541 413.995 58.8028 414.014 58.7281L414.742 56.3201C414.798 56.1428 414.863 56.0261 414.938 55.9701C415.022 55.9141 415.157 55.8861 415.344 55.8861H416.268C416.557 55.8861 416.702 55.9701 416.702 56.1381C416.702 56.2221 416.674 56.3341 416.618 56.4741L415.61 58.8401C415.572 58.9334 415.516 59.0034 415.442 59.0501C415.367 59.0968 415.264 59.1201 415.134 59.1201H414.294ZM421.208 57.6641C420.508 57.6641 419.845 57.5894 419.22 57.4401C418.594 57.2814 418.09 57.0668 417.708 56.7961C417.614 56.7308 417.568 56.6561 417.568 56.5721C417.568 56.4974 417.596 56.4181 417.652 56.3341L418.156 55.4661C418.212 55.3634 418.277 55.3121 418.352 55.3121C418.398 55.3121 418.478 55.3448 418.59 55.4101C418.898 55.5874 419.262 55.7321 419.682 55.8441C420.111 55.9468 420.582 55.9981 421.096 55.9981C421.768 55.9981 422.281 55.8581 422.636 55.5781C423 55.2888 423.182 54.8594 423.182 54.2901C423.182 53.6554 423.028 53.2121 422.72 52.9601C422.421 52.7081 421.954 52.5821 421.32 52.5821C420.61 52.5821 420.018 52.6894 419.542 52.9041C419.336 52.9788 419.131 53.0161 418.926 53.0161C418.618 53.0161 418.366 52.9368 418.17 52.7781C417.974 52.6101 417.885 52.3721 417.904 52.0641L418.128 48.4801C418.146 48.2934 418.198 48.1581 418.282 48.0741C418.375 47.9808 418.529 47.9341 418.744 47.9341H424.428C424.652 47.9341 424.806 47.9808 424.89 48.0741C424.983 48.1674 425.03 48.3168 425.03 48.5221V49.0401C425.03 49.2548 424.983 49.4088 424.89 49.5021C424.806 49.5954 424.652 49.6421 424.428 49.6421H420.032L419.934 51.2521C420.158 51.1868 420.428 51.1354 420.746 51.0981C421.072 51.0514 421.39 51.0281 421.698 51.0281C422.902 51.0281 423.835 51.2848 424.498 51.7981C425.16 52.3114 425.492 53.1421 425.492 54.2901C425.492 54.9808 425.31 55.5828 424.946 56.0961C424.591 56.6001 424.087 56.9874 423.434 57.2581C422.79 57.5288 422.048 57.6641 421.208 57.6641ZM431.119 57.6641C429.541 57.6641 428.351 57.2394 427.549 56.3901C426.755 55.5314 426.359 54.2994 426.359 52.6941C426.359 51.0888 426.755 49.8614 427.549 49.0121C428.351 48.1534 429.541 47.7241 431.119 47.7241C432.687 47.7241 433.867 48.1534 434.661 49.0121C435.463 49.8614 435.865 51.0888 435.865 52.6941C435.865 54.2994 435.463 55.5314 434.661 56.3901C433.867 57.2394 432.687 57.6641 431.119 57.6641ZM432.379 49.7121C432.033 49.4974 431.613 49.3901 431.119 49.3901C430.269 49.3901 429.644 49.6608 429.243 50.2021C428.851 50.7434 428.655 51.5741 428.655 52.6941C428.655 53.4221 428.785 53.9868 429.047 54.3881L432.379 49.7121ZM431.119 55.9981C431.968 55.9981 432.589 55.7274 432.981 55.1861C433.373 54.6448 433.569 53.8141 433.569 52.6941C433.569 51.9941 433.443 51.4201 433.191 50.9721L429.831 55.7041C430.167 55.9001 430.596 55.9981 431.119 55.9981ZM441.496 57.6641C439.918 57.6641 438.728 57.2394 437.926 56.3901C437.132 55.5314 436.736 54.2994 436.736 52.6941C436.736 51.0888 437.132 49.8614 437.926 49.0121C438.728 48.1534 439.918 47.7241 441.496 47.7241C443.064 47.7241 444.244 48.1534 445.038 49.0121C445.84 49.8614 446.242 51.0888 446.242 52.6941C446.242 54.2994 445.84 55.5314 445.038 56.3901C444.244 57.2394 443.064 57.6641 441.496 57.6641ZM442.756 49.7121C442.41 49.4974 441.99 49.3901 441.496 49.3901C440.646 49.3901 440.021 49.6608 439.62 50.2021C439.228 50.7434 439.032 51.5741 439.032 52.6941C439.032 53.4221 439.162 53.9868 439.424 54.3881L442.756 49.7121ZM441.496 55.9981C442.345 55.9981 442.966 55.7274 443.358 55.1861C443.75 54.6448 443.946 53.8141 443.946 52.6941C443.946 51.9941 443.82 51.4201 443.568 50.9721L440.208 55.7041C440.544 55.9001 440.973 55.9981 441.496 55.9981ZM449.576 55.7601C449.352 55.7601 449.203 55.7228 449.128 55.6481C449.063 55.5734 449.03 55.4381 449.03 55.2421V54.0941H447.714C447.49 54.0941 447.332 54.0614 447.238 53.9961C447.154 53.9214 447.112 53.7721 447.112 53.5481V52.9321C447.112 52.7081 447.154 52.5634 447.238 52.4981C447.332 52.4234 447.49 52.3861 447.714 52.3861H449.03V51.2241C449.03 51.0281 449.063 50.8928 449.128 50.8181C449.203 50.7434 449.352 50.7061 449.576 50.7061H450.332C450.556 50.7061 450.701 50.7434 450.766 50.8181C450.841 50.8928 450.878 51.0281 450.878 51.2241V52.3861H452.222C452.446 52.3861 452.6 52.4234 452.684 52.4981C452.778 52.5634 452.824 52.7081 452.824 52.9321V53.5481C452.824 53.7721 452.778 53.9214 452.684 53.9961C452.6 54.0614 452.446 54.0941 452.222 54.0941H450.878V55.2421C450.878 55.4381 450.841 55.5734 450.766 55.6481C450.701 55.7228 450.556 55.7601 450.332 55.7601H449.576Z" fill="#393939"/>
<path d="M406.716 58.8541H453.258V59.5541H406.716V58.8541Z" fill="#393939"/>
<rect x="562.416" y="253.523" width="30.1425" height="7.47693" fill="#364881"/>
<rect x="581.598" y="193.708" width="59.8154" height="8.22069" transform="rotate(90 581.598 193.708)" fill="#364881"/>
<rect x="609" y="219.129" width="27.4023" height="22.4308" transform="rotate(-180 609 219.129)" fill="#364881"/>
<circle cx="148.003" cy="148.017" r="126.997" fill="#F8D105"/>
<rect x="121.728" width="88.4597" height="89.3355" fill="#F85900"/>
<rect x="148.004" y="64.8115" width="88.4597" height="88.4597" transform="rotate(90 148.004 64.8115)" fill="#F85900"/>
<path d="M183.913 98.0938L175.253 113.094L192.573 113.094L183.913 98.0938ZM183.913 166.409L192.573 151.409L175.253 151.409L183.913 166.409ZM182.413 111.594L182.413 152.909L185.413 152.909L185.413 111.594L182.413 111.594Z" fill="black"/>
<path d="M48.4682 237.332C46.6202 237.332 44.8562 237.116 43.1762 236.684C41.4962 236.252 40.1162 235.664 39.0362 234.92C38.7722 234.752 38.6402 234.536 38.6402 234.272C38.6402 234.104 38.7242 233.852 38.8922 233.516L40.4402 230.852C40.6082 230.54 40.8002 230.384 41.0162 230.384C41.2082 230.384 41.4602 230.48 41.7722 230.672C43.5242 231.68 45.6122 232.184 48.0362 232.184C49.4762 232.184 50.5922 231.872 51.3842 231.248C52.2002 230.624 52.6082 229.7 52.6082 228.476C52.6082 227.132 52.2722 226.196 51.6002 225.668C50.9282 225.116 49.9562 224.84 48.6842 224.84C47.9162 224.84 47.1602 224.912 46.4162 225.056C45.6722 225.176 45.0482 225.344 44.5442 225.56C43.9442 225.776 43.3082 225.884 42.6362 225.884C41.7002 225.884 40.9322 225.644 40.3322 225.164C39.7322 224.684 39.4562 223.988 39.5042 223.076L40.0802 213.932C40.1282 213.38 40.2722 212.972 40.5122 212.708C40.7762 212.444 41.2442 212.312 41.9162 212.312H56.8922C57.5642 212.312 58.0202 212.456 58.2602 212.744C58.5242 213.008 58.6562 213.464 58.6562 214.112V215.804C58.6562 216.452 58.5242 216.92 58.2602 217.208C58.0202 217.472 57.5642 217.604 56.8922 217.604H45.9842L45.8042 220.52C46.2842 220.4 46.9202 220.304 47.7122 220.232C48.5042 220.136 49.2122 220.088 49.8362 220.088C53.0282 220.088 55.5002 220.736 57.2522 222.032C59.0042 223.328 59.8802 225.476 59.8802 228.476C59.8802 230.3 59.3882 231.884 58.4042 233.228C57.4442 234.548 56.1002 235.568 54.3722 236.288C52.6442 236.984 50.6762 237.332 48.4682 237.332ZM63.435 236.792C62.883 236.792 62.427 236.6 62.067 236.216C61.707 235.808 61.527 235.328 61.527 234.776V233.984C61.527 233.408 61.695 232.928 62.031 232.544C62.391 232.136 62.859 231.932 63.435 231.932H64.299C64.851 231.932 65.307 232.136 65.667 232.544C66.027 232.928 66.207 233.408 66.207 233.984V234.776C66.207 235.328 66.027 235.808 65.667 236.216C65.307 236.6 64.851 236.792 64.299 236.792H63.435ZM78.6551 237.332C75.2711 237.332 72.6191 236.648 70.6991 235.28C68.8031 233.912 67.8551 231.98 67.8551 229.484C67.8551 228.308 68.1551 227.24 68.7551 226.28C69.3551 225.296 70.1831 224.552 71.2391 224.048C70.3271 223.544 69.6311 222.896 69.1511 222.104C68.6951 221.288 68.4671 220.388 68.4671 219.404C68.4671 216.956 69.3431 215.072 71.0951 213.752C72.8471 212.432 75.3671 211.772 78.6551 211.772C81.9431 211.772 84.4511 212.432 86.1791 213.752C87.9311 215.072 88.8071 216.956 88.8071 219.404C88.8071 220.388 88.5791 221.288 88.1231 222.104C87.6671 222.896 86.9831 223.544 86.0711 224.048C87.1271 224.576 87.9551 225.332 88.5551 226.316C89.1551 227.276 89.4551 228.332 89.4551 229.484C89.4551 231.98 88.4951 233.912 86.5751 235.28C84.6551 236.648 82.0151 237.332 78.6551 237.332ZM78.6551 221.636C80.5751 221.636 81.5351 220.904 81.5351 219.44C81.5351 218.552 81.2951 217.916 80.8151 217.532C80.3591 217.148 79.6391 216.956 78.6551 216.956C77.6711 216.956 76.9391 217.148 76.4591 217.532C75.9791 217.916 75.7391 218.552 75.7391 219.44C75.7391 220.904 76.7111 221.636 78.6551 221.636ZM78.6551 232.184C81.0311 232.184 82.2191 231.272 82.2191 229.448C82.2191 228.536 81.9191 227.84 81.3191 227.36C80.7191 226.88 79.8311 226.64 78.6551 226.64C76.2791 226.64 75.0911 227.576 75.0911 229.448C75.0911 231.272 76.2791 232.184 78.6551 232.184ZM123.243 235.424C123.411 235.616 123.495 235.832 123.495 236.072C123.495 236.288 123.423 236.468 123.279 236.612C123.135 236.732 122.943 236.792 122.703 236.792H117.123C116.787 236.792 116.535 236.768 116.367 236.72C116.223 236.648 116.067 236.516 115.899 236.324L111.003 229.664V234.992C111.003 235.616 110.859 236.072 110.571 236.36C110.283 236.648 109.791 236.792 109.095 236.792H105.603C104.907 236.792 104.415 236.648 104.127 236.36C103.863 236.072 103.731 235.616 103.731 234.992V214.148C103.731 213.524 103.875 213.068 104.163 212.78C104.451 212.468 104.931 212.312 105.603 212.312H109.095C109.791 212.312 110.283 212.468 110.571 212.78C110.859 213.068 111.003 213.524 111.003 214.148V226.208L115.755 220.016C115.899 219.824 116.055 219.692 116.223 219.62C116.391 219.548 116.643 219.512 116.979 219.512H122.559C122.799 219.512 122.979 219.584 123.099 219.728C123.243 219.848 123.315 220.016 123.315 220.232C123.315 220.472 123.231 220.688 123.063 220.88L116.907 227.936L123.243 235.424ZM127.085 236.792C126.389 236.792 125.897 236.648 125.609 236.36C125.321 236.072 125.177 235.616 125.177 234.992V220.628C125.177 220.196 125.249 219.908 125.393 219.764C125.561 219.596 125.897 219.512 126.401 219.512H129.821C130.109 219.512 130.325 219.56 130.469 219.656C130.637 219.728 130.733 219.872 130.757 220.088L130.937 221.204C131.609 220.508 132.365 219.968 133.205 219.584C134.045 219.176 135.029 218.972 136.157 218.972C137.165 218.972 138.029 219.152 138.749 219.512C139.469 219.872 140.081 220.424 140.585 221.168C141.233 220.472 141.977 219.932 142.817 219.548C143.681 219.164 144.713 218.972 145.913 218.972C147.761 218.972 149.201 219.512 150.233 220.592C151.265 221.648 151.781 223.256 151.781 225.416V234.992C151.781 235.616 151.637 236.072 151.349 236.36C151.061 236.648 150.569 236.792 149.873 236.792H146.957C146.261 236.792 145.769 236.648 145.481 236.36C145.193 236.072 145.049 235.616 145.049 234.992V225.884C145.049 225.188 144.917 224.684 144.653 224.372C144.413 224.06 144.041 223.904 143.537 223.904C142.961 223.904 142.505 224.096 142.169 224.48C141.857 224.84 141.701 225.356 141.701 226.028V234.992C141.701 235.616 141.557 236.072 141.269 236.36C140.981 236.648 140.489 236.792 139.793 236.792H137.165C136.469 236.792 135.977 236.648 135.689 236.36C135.401 236.072 135.257 235.616 135.257 234.992V225.812C135.257 224.54 134.765 223.904 133.781 223.904C133.181 223.904 132.713 224.096 132.377 224.48C132.041 224.864 131.873 225.392 131.873 226.064V234.992C131.873 235.616 131.729 236.072 131.441 236.36C131.177 236.648 130.697 236.792 130.001 236.792H127.085Z" fill="black"/>
<path d="M37.8122 240.392H153.149V242.192H37.8122V240.392Z" fill="black"/>
<path d="M42.8556 197.101C42.5996 197.101 42.4236 197.053 42.3276 196.957C42.2316 196.861 42.1836 196.685 42.1836 196.429V195.373C42.1836 195.133 42.2316 194.965 42.3276 194.869C42.4236 194.773 42.5916 194.725 42.8316 194.725H43.5516C43.7436 194.725 43.8716 194.693 43.9356 194.629C43.9996 194.565 44.0316 194.429 44.0316 194.221V189.181L43.0716 187.717C42.9276 187.493 42.8556 187.261 42.8556 187.021C42.8556 186.813 42.9596 186.613 43.1676 186.421C43.9036 185.765 44.7916 185.221 45.8316 184.789C46.8716 184.357 48.0556 184.141 49.3836 184.141C51.4956 184.141 53.0396 184.605 54.0156 185.533C55.0076 186.461 55.5036 187.701 55.5036 189.253V196.237C55.5036 196.541 55.4396 196.765 55.3116 196.909C55.1836 197.037 54.9596 197.101 54.6396 197.101H53.2956C52.9756 197.101 52.7516 197.037 52.6236 196.909C52.4956 196.765 52.4316 196.541 52.4316 196.237V189.301C52.4316 188.341 52.1836 187.629 51.6876 187.165C51.2076 186.685 50.4476 186.445 49.4076 186.445C48.1116 186.445 47.0236 186.805 46.1436 187.525L46.6716 188.341C46.8476 188.613 46.9596 188.861 47.0076 189.085C47.0716 189.293 47.1036 189.605 47.1036 190.021V195.805C47.1036 196.285 47.0236 196.621 46.8636 196.813C46.7196 197.005 46.4076 197.101 45.9276 197.101H42.8556ZM63.6529 197.101C63.1089 197.101 62.8369 196.837 62.8369 196.309V188.749C62.8369 187.917 62.6769 187.325 62.3569 186.973C62.0529 186.605 61.5009 186.421 60.7009 186.421C60.3009 186.421 59.8849 186.469 59.4529 186.565C59.0209 186.661 58.6609 186.781 58.3729 186.925C58.2609 186.989 58.1569 187.021 58.0609 187.021C57.9489 187.021 57.8529 186.933 57.7729 186.757L57.1969 185.461C57.1649 185.333 57.1489 185.261 57.1489 185.245C57.1489 185.133 57.2609 185.013 57.4849 184.885C58.4289 184.389 59.6289 184.141 61.0849 184.141C62.7169 184.141 63.9249 184.509 64.7089 185.245C65.5089 185.981 65.9089 187.117 65.9089 188.653V196.309C65.9089 196.837 65.6289 197.101 65.0689 197.101H63.6529ZM74.3471 197.461C72.5231 197.461 71.0511 197.133 69.9311 196.477C68.8271 195.805 68.2751 194.781 68.2751 193.405C68.2751 191.837 68.9311 190.829 70.2431 190.381C69.6031 190.093 69.1311 189.717 68.8271 189.253C68.5231 188.789 68.3711 188.205 68.3711 187.501C68.3711 186.893 68.5231 186.333 68.8271 185.821C69.1311 185.309 69.5631 184.901 70.1231 184.597C70.6991 184.293 71.3631 184.141 72.1151 184.141C73.0751 184.141 73.9071 184.317 74.6111 184.669C74.8191 184.781 74.9231 184.909 74.9231 185.053L74.8751 185.269L74.5391 186.229C74.4751 186.405 74.3711 186.493 74.2271 186.493C74.1471 186.493 74.0831 186.477 74.0351 186.445C73.6991 186.253 73.2911 186.157 72.8111 186.157C72.3311 186.157 71.9551 186.301 71.6831 186.589C71.4271 186.877 71.2991 187.261 71.2991 187.741C71.2991 188.317 71.4751 188.749 71.8271 189.037C72.1951 189.309 72.7471 189.445 73.4831 189.445H73.9871C74.1791 189.445 74.3151 189.485 74.3951 189.565C74.4751 189.629 74.5151 189.757 74.5151 189.949V190.789C74.5151 191.157 74.3311 191.341 73.9631 191.341H73.5791C72.7791 191.341 72.1951 191.493 71.8271 191.797C71.4751 192.085 71.2991 192.573 71.2991 193.261C71.2991 194.557 72.3071 195.205 74.3231 195.205C75.4271 195.205 76.2191 194.941 76.6991 194.413C77.1951 193.885 77.4431 193.053 77.4431 191.917V185.389C77.4431 185.085 77.5071 184.861 77.6351 184.717C77.7791 184.573 78.0111 184.501 78.3311 184.501H79.5791C79.8991 184.501 80.1311 184.573 80.2751 184.717C80.4191 184.861 80.4911 185.085 80.4911 185.389V191.917C80.4911 195.613 78.4431 197.461 74.3471 197.461ZM86.4527 197.101C85.8607 197.101 85.4367 196.965 85.1807 196.693C84.9407 196.421 84.8207 196.005 84.8207 195.445V188.653C84.8207 188.077 84.9647 187.549 85.2527 187.069C85.5407 186.589 85.9487 186.053 86.4767 185.461C86.9727 184.885 87.3407 184.405 87.5807 184.021C87.8207 183.637 87.9407 183.221 87.9407 182.773C87.9407 181.845 87.3807 181.381 86.2607 181.381C84.9327 181.381 84.2687 181.981 84.2687 183.181C84.2687 183.325 84.2447 183.421 84.1967 183.469C84.1487 183.517 84.0527 183.541 83.9087 183.541H81.9647C81.8527 183.541 81.7807 183.517 81.7487 183.469C81.7007 183.405 81.6767 183.309 81.6767 183.181C81.6767 182.381 81.8687 181.677 82.2527 181.069C82.6367 180.445 83.1807 179.965 83.8847 179.629C84.5887 179.277 85.3967 179.101 86.3087 179.101C87.7807 179.101 88.9087 179.413 89.6927 180.037C90.4927 180.645 90.8927 181.541 90.8927 182.725C90.8927 183.333 90.7567 183.869 90.4847 184.333C90.2287 184.797 89.8367 185.341 89.3087 185.965C88.8287 186.525 88.4687 187.005 88.2287 187.405C88.0047 187.805 87.8927 188.253 87.8927 188.749V194.101C87.8927 194.341 87.9247 194.509 87.9887 194.605C88.0687 194.685 88.2207 194.725 88.4447 194.725H89.0927C89.3487 194.725 89.5247 194.773 89.6207 194.869C89.7167 194.965 89.7647 195.133 89.7647 195.373V196.429C89.7647 196.701 89.7007 196.885 89.5727 196.981C89.4447 197.061 89.2047 197.101 88.8527 197.101H86.4527ZM97.1768 197.461C95.7688 197.461 94.6408 197.077 93.7928 196.309C92.9448 195.525 92.5208 194.397 92.5208 192.925V185.389C92.5208 185.085 92.5848 184.861 92.7128 184.717C92.8568 184.573 93.0888 184.501 93.4088 184.501H94.6568C95.2808 184.501 95.5928 184.797 95.5928 185.389V192.877C95.5928 193.693 95.7928 194.293 96.1928 194.677C96.6088 195.045 97.2328 195.229 98.0648 195.229C98.6408 195.229 99.1848 195.109 99.6968 194.869C100.209 194.629 100.617 194.317 100.921 193.933C101.225 193.549 101.377 193.149 101.377 192.733V185.389C101.377 185.085 101.441 184.861 101.569 184.717C101.713 184.573 101.945 184.501 102.265 184.501H103.537C103.857 184.501 104.089 184.573 104.233 184.717C104.377 184.861 104.449 185.085 104.449 185.389V196.309C104.449 196.581 104.393 196.781 104.281 196.909C104.169 197.037 103.969 197.101 103.681 197.101H102.505C102.265 197.101 102.097 197.061 102.001 196.981C101.905 196.885 101.849 196.733 101.833 196.525V195.565C100.777 196.829 99.2248 197.461 97.1768 197.461ZM112.302 197.461C111.358 197.461 110.446 197.373 109.566 197.197C108.686 197.037 107.918 196.797 107.262 196.477C106.974 196.333 106.83 196.189 106.83 196.045C106.83 195.981 106.854 195.901 106.902 195.805L107.526 194.581C107.622 194.421 107.718 194.341 107.814 194.341C107.846 194.341 107.958 194.373 108.15 194.437C108.646 194.677 109.246 194.885 109.95 195.061C110.67 195.221 111.35 195.301 111.99 195.301C112.838 195.301 113.486 195.197 113.934 194.989C114.398 194.765 114.63 194.397 114.63 193.885C114.63 193.565 114.55 193.309 114.39 193.117C114.23 192.925 113.99 192.765 113.67 192.637C113.366 192.493 112.854 192.293 112.134 192.037C111.878 191.925 111.55 191.805 111.15 191.677C109.854 191.197 108.87 190.669 108.198 190.093C107.542 189.501 107.214 188.725 107.214 187.765C107.214 186.581 107.694 185.685 108.654 185.077C109.63 184.453 110.966 184.141 112.662 184.141C113.558 184.141 114.35 184.221 115.038 184.381C115.726 184.525 116.39 184.757 117.03 185.077C117.302 185.221 117.438 185.373 117.438 185.533C117.438 185.613 117.406 185.709 117.342 185.821L116.79 186.853C116.71 187.045 116.606 187.141 116.478 187.141C116.382 187.141 116.278 187.109 116.166 187.045C115.734 186.821 115.214 186.645 114.606 186.517C114.014 186.389 113.398 186.325 112.758 186.325C111.894 186.325 111.246 186.437 110.814 186.661C110.398 186.869 110.19 187.237 110.19 187.765C110.19 188.117 110.31 188.413 110.55 188.653C110.79 188.877 111.102 189.077 111.486 189.253C111.886 189.413 112.494 189.629 113.31 189.901C113.486 189.949 113.686 190.013 113.91 190.093C114.902 190.429 115.662 190.765 116.19 191.101C116.734 191.421 117.118 191.797 117.342 192.229C117.566 192.661 117.678 193.213 117.678 193.885C117.678 194.973 117.206 195.845 116.262 196.501C115.318 197.141 113.998 197.461 112.302 197.461ZM113.004 182.053C112.38 182.053 111.948 181.917 111.708 181.645C111.452 181.373 111.324 180.925 111.324 180.301V178.933C111.324 178.597 111.388 178.373 111.516 178.261C111.628 178.133 111.852 178.069 112.188 178.069H113.052C113.356 178.069 113.572 178.133 113.7 178.261C113.812 178.373 113.868 178.597 113.868 178.933V180.133C114.684 180.053 115.668 179.981 116.82 179.917C117.956 179.853 118.796 179.821 119.34 179.821C119.66 179.821 119.868 179.877 119.964 179.989C120.076 180.085 120.132 180.277 120.132 180.565V181.285C120.132 181.573 120.076 181.773 119.964 181.885C119.868 181.997 119.66 182.053 119.34 182.053H113.004ZM120.924 197.101C120.604 197.101 120.372 197.029 120.228 196.885C120.1 196.741 120.036 196.525 120.036 196.237V189.013C120.036 187.509 120.548 186.325 121.572 185.461C122.596 184.581 124.084 184.141 126.036 184.141C127.076 184.141 127.948 184.277 128.652 184.549C129.068 184.277 129.508 184.021 129.972 183.781C130.436 183.541 130.796 183.389 131.052 183.325C131.26 183.261 131.444 183.229 131.604 183.229C131.828 183.229 131.98 183.341 132.06 183.565L132.516 184.789C132.548 184.853 132.564 184.933 132.564 185.029C132.564 185.189 132.46 185.317 132.252 185.413L130.908 185.989C131.66 186.741 132.036 187.749 132.036 189.013V196.237C132.036 196.525 131.964 196.741 131.82 196.885C131.676 197.029 131.436 197.101 131.1 197.101H129.876C129.556 197.101 129.324 197.029 129.18 196.885C129.036 196.741 128.964 196.525 128.964 196.237V188.965C128.964 188.133 128.716 187.509 128.22 187.093C127.724 186.661 126.996 186.445 126.036 186.445C124.084 186.445 123.108 187.285 123.108 188.965V191.653C123.62 190.821 124.412 190.405 125.484 190.405H126.252C126.428 190.405 126.548 190.445 126.612 190.525C126.692 190.589 126.732 190.709 126.732 190.885V192.205C126.732 192.413 126.692 192.557 126.612 192.637C126.532 192.717 126.404 192.757 126.228 192.757H125.412C124.66 192.757 124.084 193.005 123.684 193.501C123.3 193.997 123.108 194.645 123.108 195.445V196.237C123.108 196.525 123.036 196.741 122.892 196.885C122.764 197.029 122.532 197.101 122.196 197.101H120.924ZM142.191 197.461C140.175 197.461 138.623 196.829 137.535 195.565V196.525C137.535 196.733 137.479 196.885 137.367 196.981C137.271 197.061 137.111 197.101 136.887 197.101H135.687C135.415 197.101 135.223 197.037 135.111 196.909C134.999 196.781 134.943 196.581 134.943 196.309V185.389C134.943 185.085 135.015 184.861 135.159 184.717C135.303 184.573 135.535 184.501 135.855 184.501H137.103C137.423 184.501 137.655 184.573 137.799 184.717C137.943 184.861 138.015 185.085 138.015 185.389V192.733C138.015 193.149 138.159 193.549 138.447 193.933C138.751 194.317 139.151 194.629 139.647 194.869C140.159 195.109 140.711 195.229 141.303 195.229C142.199 195.229 142.839 195.045 143.223 194.677C143.607 194.309 143.799 193.709 143.799 192.877V185.389C143.799 185.085 143.871 184.861 144.015 184.717C144.159 184.573 144.391 184.501 144.711 184.501H145.983C146.303 184.501 146.527 184.573 146.655 184.717C146.799 184.861 146.871 185.085 146.871 185.389V192.925C146.871 194.397 146.439 195.525 145.575 196.309C144.727 197.077 143.599 197.461 142.191 197.461ZM137.276 182.053C136.956 182.053 136.732 181.989 136.604 181.861C136.476 181.733 136.412 181.517 136.412 181.213V180.661C136.412 180.357 136.476 180.141 136.604 180.013C136.732 179.869 136.956 179.797 137.276 179.797H144.356V177.973C144.356 177.717 144.412 177.541 144.524 177.445C144.636 177.333 144.82 177.277 145.076 177.277H146.18C146.436 177.277 146.62 177.333 146.732 177.445C146.844 177.541 146.9 177.717 146.9 177.973V180.829C146.9 181.293 146.82 181.613 146.66 181.789C146.484 181.965 146.156 182.053 145.676 182.053H137.276Z" fill="black"/>
<rect x="164.017" y="181.546" width="84.4597" height="84.4597" stroke="#F85900" stroke-width="4" stroke-dasharray="5 5"/>
</svg>
