<svg width="376" height="130" viewBox="0 0 376 130" fill="none" xmlns="http://www.w3.org/2000/svg">
<path d="M0 120.922V105.104H2V103.104V96.998L7.0699 93.0097L8.64181 91.7731L7.40524 90.2012L20.5948 79.8255L21.8313 81.3974L23.4032 80.1608L28 76.5447L32.5968 80.1608L34.1687 81.3974L35.4052 79.8255L48.5948 90.2012L47.3582 91.7731L48.9301 93.0097L54 96.998V103.104V105.104H56V120.922H54V122.922V128H50.1667H48.1667V130H35.8333V128H33.8333H22.1667H20.1667V130H7.83333V128H5.83333H2V122.922V120.922H0Z" stroke="#FF511A" stroke-width="4" stroke-linecap="square" stroke-dasharray="10 14"/>
<path d="M68 77.8267L111 44L154 77.8267V130H68V77.8267Z" fill="#FF511A"/>
<path d="M166 51.1333L231 0L296 51.1333V130H166V51.1333Z" fill="#FF511A"/>
<rect x="308" y="120" width="44" height="10" fill="#1A68FF"/>
<rect x="336" y="40" width="80" height="12" transform="rotate(90 336 40)" fill="#1A68FF"/>
<rect x="376" y="74" width="40" height="30" transform="rotate(-180 376 74)" fill="#1A68FF"/>
</svg>
