<svg width="604" height="209" viewBox="0 0 604 209" fill="none" xmlns="http://www.w3.org/2000/svg">
<path d="M0 174.001V162.071H2V160.071V155.352L5.92247 152.264L7.49389 151.027L6.2567 149.455L16.2327 141.601L17.4698 143.173L19.0413 141.935L28.4118 134.558L29.9832 133.321L28.7461 131.749L38.722 123.895L39.9592 125.467L41.5306 124.229L44.9787 121.515L48.4268 124.229L49.9982 125.467L51.2354 123.895L61.2114 131.749L59.9742 133.321L61.5456 134.558L70.9162 141.935L72.4876 143.173L73.7248 141.601L83.7007 149.455L82.4635 151.027L84.035 152.264L87.9574 155.352V160.071V162.071H89.9574V174.001H87.9574V176.001V187.38V189.38H89.9574V201.31H87.9574V203.31V207H85.2721H83.2721V209H74.1534V207H72.1534H62.7828H60.7828V209H51.664V207H49.664H40.2934H38.2934V209H29.1746V207H27.1746H17.8041H15.8041V209H6.68528V207H4.68528H2V203.31V201.31H0V189.38H2V187.38V176.001V174.001H0Z" stroke="#F85900" stroke-width="4" stroke-linecap="square" stroke-dasharray="10 14"/>
<path d="M109.234 125.121L178.308 70.7384L247.383 125.121V209H109.234V125.121Z" fill="#F85900"/>
<path d="M266.66 82.2066L371.075 0L475.489 82.2066V209H266.66V82.2066Z" fill="#F85900"/>
<rect x="494.766" y="192.923" width="70.6808" height="16.0769" fill="#364881"/>
<rect x="539.745" y="64.3077" width="128.615" height="19.2766" transform="rotate(90 539.745 64.3077)" fill="#364881"/>
<rect x="604" y="118.969" width="64.2553" height="48.2307" transform="rotate(-180 604 118.969)" fill="#364881"/>
</svg>
