<svg width="540" height="313" viewBox="0 0 540 313" fill="none" xmlns="http://www.w3.org/2000/svg">
<path d="M0.00012207 0L0 270H540V138.325L287.83 44.5567L0.00012207 0Z" fill="#F85900"/>
<path d="M4.944 299.24C3.67467 299.24 2.70933 298.968 2.048 298.424C1.39733 297.869 1.072 297.117 1.072 296.168V291.08C1.072 290.76 1.232 290.6 1.552 290.6H2.048C2.21867 290.6 2.34133 290.643 2.416 290.728C2.49067 290.803 2.528 290.92 2.528 291.08V296.312C2.528 296.909 2.736 297.363 3.152 297.672C3.568 297.971 4.16533 298.12 4.944 298.12C5.72267 298.12 6.32 297.971 6.736 297.672C7.152 297.363 7.36 296.909 7.36 296.312V288.28C7.36 288.12 7.39733 288.003 7.472 287.928C7.54667 287.843 7.66933 287.8 7.84 287.8H8.32C8.65067 287.8 8.816 287.96 8.816 288.28V296.168C8.816 297.117 8.48533 297.869 7.824 298.424C7.17333 298.968 6.21333 299.24 4.944 299.24ZM1.22987 288.968C1.05921 288.968 0.941875 288.936 0.877874 288.872C0.803208 288.808 0.765875 288.691 0.765875 288.52V288.28C0.765875 288.12 0.803208 288.003 0.877874 287.928C0.941875 287.853 1.05921 287.816 1.22987 287.816H4.74987V286.328C4.74987 286.104 4.86187 285.992 5.08587 285.992H5.69387C5.91787 285.992 6.02987 286.104 6.02987 286.328V288.184C6.02987 288.483 5.97654 288.691 5.86987 288.808C5.76321 288.915 5.55521 288.968 5.24587 288.968H1.22987ZM17.8254 299C17.5267 299 17.3774 298.845 17.3774 298.536V298.024C17.3774 297.331 17.6547 296.637 18.2094 295.944C18.7747 295.24 19.5854 294.611 20.6414 294.056C21.4307 293.64 22.0227 293.293 22.4174 293.016C22.8227 292.728 23.116 292.424 23.2974 292.104C23.4894 291.784 23.5854 291.389 23.5854 290.92C23.5854 290.28 23.3614 289.8 22.9134 289.48C22.4654 289.16 21.852 289 21.0734 289C20.54 289 20.0334 289.064 19.5534 289.192C19.0734 289.32 18.6734 289.485 18.3534 289.688C18.3 289.731 18.2467 289.752 18.1934 289.752C18.1294 289.752 18.076 289.709 18.0334 289.624L17.6974 289.032C17.6654 288.968 17.6494 288.915 17.6494 288.872C17.6494 288.797 17.692 288.733 17.7774 288.68C18.1294 288.435 18.6094 288.243 19.2174 288.104C19.8254 287.955 20.4867 287.88 21.2014 287.88C22.332 287.88 23.2494 288.147 23.9534 288.68C24.668 289.213 25.0254 289.96 25.0254 290.92C25.0254 291.763 24.7587 292.472 24.2254 293.048C23.692 293.613 22.8654 294.179 21.7454 294.744C20.8174 295.224 20.1027 295.725 19.6014 296.248C19.1 296.76 18.8494 297.288 18.8494 297.832H24.4654C24.636 297.832 24.7534 297.869 24.8174 297.944C24.892 298.008 24.9294 298.125 24.9294 298.296V298.568C24.9294 298.728 24.892 298.84 24.8174 298.904C24.7534 298.968 24.636 299 24.4654 299H17.8254ZM30.2769 299.24C29.5622 299.24 28.8742 299.16 28.2129 299C27.5622 298.851 27.0555 298.653 26.6929 298.408C26.6075 298.355 26.5649 298.291 26.5649 298.216C26.5649 298.173 26.5809 298.12 26.6129 298.056L26.9649 297.464C27.0075 297.389 27.0555 297.352 27.1089 297.352C27.1622 297.352 27.2155 297.373 27.2689 297.416C27.5995 297.619 28.0262 297.789 28.5489 297.928C29.0822 298.056 29.6582 298.12 30.2769 298.12C31.3009 298.12 32.0742 297.907 32.5969 297.48C33.1195 297.043 33.3809 296.392 33.3809 295.528C33.3809 294.557 33.1569 293.88 32.7089 293.496C32.2609 293.101 31.5195 292.904 30.4849 292.904C29.5355 292.904 28.7302 293.064 28.0689 293.384C27.9302 293.437 27.7969 293.464 27.6689 293.464C27.4449 293.464 27.2582 293.4 27.1089 293.272C26.9702 293.133 26.9062 292.952 26.9169 292.728L27.1889 288.568C27.1995 288.419 27.2369 288.307 27.3009 288.232C27.3755 288.157 27.4982 288.12 27.6689 288.12H33.8449C34.0155 288.12 34.1382 288.152 34.2129 288.216C34.2875 288.28 34.3249 288.392 34.3249 288.552V288.824C34.3249 288.995 34.2875 289.117 34.2129 289.192C34.1382 289.256 34.0155 289.288 33.8449 289.288H28.4689L28.2769 292.2C28.9595 291.955 29.7809 291.832 30.7409 291.832C33.4609 291.832 34.8209 293.064 34.8209 295.528C34.8209 296.275 34.6342 296.931 34.2609 297.496C33.8982 298.051 33.3755 298.483 32.6929 298.792C32.0102 299.091 31.2049 299.24 30.2769 299.24ZM40.0581 299.24C39.3435 299.24 38.6555 299.16 37.9941 299C37.3435 298.851 36.8368 298.653 36.4741 298.408C36.3888 298.355 36.3461 298.291 36.3461 298.216C36.3461 298.173 36.3621 298.12 36.3941 298.056L36.7461 297.464C36.7888 297.389 36.8368 297.352 36.8901 297.352C36.9435 297.352 36.9968 297.373 37.0501 297.416C37.3808 297.619 37.8075 297.789 38.3301 297.928C38.8635 298.056 39.4395 298.12 40.0581 298.12C41.0821 298.12 41.8555 297.907 42.3781 297.48C42.9008 297.043 43.1621 296.392 43.1621 295.528C43.1621 294.557 42.9381 293.88 42.4901 293.496C42.0421 293.101 41.3008 292.904 40.2661 292.904C39.3168 292.904 38.5115 293.064 37.8501 293.384C37.7115 293.437 37.5781 293.464 37.4501 293.464C37.2261 293.464 37.0395 293.4 36.8901 293.272C36.7515 293.133 36.6875 292.952 36.6981 292.728L36.9701 288.568C36.9808 288.419 37.0181 288.307 37.0821 288.232C37.1568 288.157 37.2795 288.12 37.4501 288.12H43.6261C43.7968 288.12 43.9195 288.152 43.9941 288.216C44.0688 288.28 44.1061 288.392 44.1061 288.552V288.824C44.1061 288.995 44.0688 289.117 43.9941 289.192C43.9195 289.256 43.7968 289.288 43.6261 289.288H38.2501L38.0581 292.2C38.7408 291.955 39.5621 291.832 40.5221 291.832C43.2421 291.832 44.6021 293.064 44.6021 295.528C44.6021 296.275 44.4155 296.931 44.0421 297.496C43.6795 298.051 43.1568 298.483 42.4741 298.792C41.7915 299.091 40.9861 299.24 40.0581 299.24ZM50.4154 299.24C49.1354 299.24 48.0954 298.851 47.2954 298.072C46.506 297.293 46.1114 296.04 46.1114 294.312C46.1114 292.733 46.3354 291.469 46.7834 290.52C47.2314 289.56 47.8074 288.883 48.5114 288.488C49.2154 288.083 49.994 287.88 50.8474 287.88C52.0634 287.88 53.0394 288.136 53.7754 288.648C53.8607 288.701 53.9034 288.765 53.9034 288.84C53.9034 288.883 53.8874 288.936 53.8554 289L53.5354 289.544C53.4927 289.64 53.4394 289.688 53.3754 289.688C53.3434 289.688 53.29 289.661 53.2154 289.608C52.906 289.395 52.5647 289.24 52.1914 289.144C51.8287 289.048 51.3807 289 50.8474 289C49.898 289 49.1514 289.304 48.6074 289.912C48.074 290.509 47.722 291.411 47.5514 292.616C47.914 292.2 48.362 291.896 48.8954 291.704C49.4287 291.501 50.0687 291.4 50.8154 291.4C51.5834 291.4 52.2714 291.555 52.8794 291.864C53.4874 292.163 53.962 292.595 54.3034 293.16C54.6554 293.715 54.8314 294.36 54.8314 295.096C54.8314 296.451 54.442 297.48 53.6634 298.184C52.8847 298.888 51.802 299.24 50.4154 299.24ZM50.4154 298.12C52.41 298.12 53.4074 297.112 53.4074 295.096C53.4074 294.264 53.1354 293.613 52.5914 293.144C52.058 292.675 51.3594 292.44 50.4954 292.44C50.026 292.44 49.5674 292.536 49.1194 292.728C48.6714 292.92 48.298 293.219 47.9994 293.624C47.7114 294.029 47.5674 294.541 47.5674 295.16C47.5674 296.195 47.8287 296.947 48.3514 297.416C48.874 297.885 49.562 298.12 50.4154 298.12Z" fill="black"/>
<path d="M18.74 30.3C16.58 30.3 14.9867 29.9533 13.96 29.26C13.84 29.18 13.78 29.0867 13.78 28.98C13.78 28.9 13.8133 28.8067 13.88 28.7L14.46 27.72C14.54 27.5867 14.6133 27.52 14.68 27.52C14.7333 27.52 14.8267 27.5533 14.96 27.62C15.4 27.86 15.9067 28.0533 16.48 28.2C17.0667 28.3467 17.7 28.42 18.38 28.42C19.4733 28.42 20.2733 28.2133 20.78 27.8C21.3 27.3733 21.56 26.7867 21.56 26.04C21.56 24.6533 20.7133 23.96 19.02 23.96H17.34C17.0733 23.96 16.88 23.9067 16.76 23.8C16.6533 23.68 16.6 23.4933 16.6 23.24V22.72C16.6 22.48 16.6533 22.3067 16.76 22.2C16.88 22.0933 17.0733 22.04 17.34 22.04H18.98C19.7 22.04 20.24 21.8533 20.6 21.48C20.96 21.0933 21.14 20.6067 21.14 20.02C21.14 18.6733 20.1933 18 18.3 18C17.1267 18 16.0933 18.2467 15.2 18.74C15.0667 18.8067 14.9733 18.84 14.92 18.84C14.8533 18.84 14.78 18.78 14.7 18.66L14.14 17.72C14.0733 17.6133 14.04 17.52 14.04 17.44C14.04 17.3333 14.1 17.24 14.22 17.16C14.6867 16.8267 15.3067 16.5667 16.08 16.38C16.8533 16.1933 17.7133 16.1 18.66 16.1C19.6867 16.1 20.5733 16.26 21.32 16.58C22.08 16.9 22.66 17.3533 23.06 17.94C23.4733 18.5133 23.68 19.1867 23.68 19.96C23.68 20.5867 23.5267 21.1667 23.22 21.7C22.9267 22.2333 22.5 22.6467 21.94 22.94C22.66 23.2067 23.1933 23.62 23.54 24.18C23.9 24.7267 24.08 25.3733 24.08 26.12C24.08 27.3733 23.6133 28.3867 22.68 29.16C21.76 29.92 20.4467 30.3 18.74 30.3ZM32.2555 30.3C30.0688 30.3 28.4155 29.6933 27.2955 28.48C26.1888 27.2533 25.6355 25.4933 25.6355 23.2C25.6355 20.9067 26.1888 19.1533 27.2955 17.94C28.4155 16.7133 30.0688 16.1 32.2555 16.1C34.4288 16.1 36.0755 16.7133 37.1955 17.94C38.3155 19.1667 38.8755 20.92 38.8755 23.2C38.8755 25.48 38.3155 27.2333 37.1955 28.46C36.0755 29.6867 34.4288 30.3 32.2555 30.3ZM34.5155 18.6C33.9421 18.2 33.1888 18 32.2555 18C30.8688 18 29.8355 18.4333 29.1555 19.3C28.4888 20.1667 28.1555 21.4667 28.1555 23.2C28.1555 24.5733 28.4355 25.6333 28.9955 26.38L34.5155 18.6ZM32.2555 28.42C33.6421 28.42 34.6688 27.9867 35.3355 27.12C36.0021 26.2533 36.3355 24.9467 36.3355 23.2C36.3355 21.8533 36.0688 20.8 35.5355 20.04L29.9955 27.86C30.5955 28.2333 31.3488 28.42 32.2555 28.42ZM45.6402 30.3C44.8135 30.3 44.0602 30.2067 43.3802 30.02C42.7135 29.8467 42.1468 29.6067 41.6802 29.3C41.5602 29.22 41.5002 29.1267 41.5002 29.02C41.5002 28.94 41.5335 28.8467 41.6002 28.74L42.1602 27.78C42.2402 27.66 42.3135 27.6 42.3802 27.6C42.4335 27.6 42.5268 27.6333 42.6602 27.7C43.4602 28.18 44.4068 28.42 45.5002 28.42C46.6335 28.42 47.5068 28.12 48.1202 27.52C48.7335 26.92 49.1135 26 49.2602 24.76C48.8068 25.1867 48.2735 25.4933 47.6602 25.68C47.0602 25.8533 46.3468 25.94 45.5202 25.94C44.4802 25.94 43.5735 25.7533 42.8002 25.38C42.0402 24.9933 41.4535 24.4533 41.0402 23.76C40.6402 23.0667 40.4402 22.2733 40.4402 21.38C40.4402 19.62 40.9335 18.3 41.9202 17.42C42.9068 16.54 44.3135 16.1 46.1402 16.1C47.7935 16.1 49.1135 16.6133 50.1002 17.64C51.1002 18.6533 51.6002 20.22 51.6002 22.34C51.6002 25.1667 51.0402 27.2 49.9202 28.44C48.8135 29.68 47.3868 30.3 45.6402 30.3ZM46.0802 24.3C46.5868 24.3 47.0602 24.1933 47.5002 23.98C47.9535 23.7533 48.3202 23.4267 48.6002 23C48.8802 22.56 49.0202 22.0333 49.0202 21.42C49.0202 20.2867 48.7668 19.4333 48.2602 18.86C47.7535 18.2867 47.0402 18 46.1202 18C45.0668 18 44.2735 18.2667 43.7402 18.8C43.2202 19.3333 42.9602 20.18 42.9602 21.34C42.9602 22.3267 43.2202 23.0667 43.7402 23.56C44.2735 24.0533 45.0535 24.3 46.0802 24.3ZM53.855 30C53.415 30 53.195 29.7733 53.195 29.32V28.54C53.195 27.6867 53.5217 26.8467 54.175 26.02C54.8417 25.1933 55.835 24.4067 57.155 23.66C58.1017 23.1267 58.795 22.7067 59.235 22.4C59.675 22.08 59.995 21.7467 60.195 21.4C60.4083 21.04 60.515 20.6 60.515 20.08C60.515 19.4 60.275 18.8867 59.795 18.54C59.315 18.18 58.6417 18 57.775 18C57.1483 18 56.555 18.08 55.995 18.24C55.4483 18.3867 54.975 18.5733 54.575 18.8C54.4417 18.8667 54.355 18.9 54.315 18.9C54.235 18.9 54.155 18.84 54.075 18.72L53.515 17.74C53.4483 17.6333 53.415 17.54 53.415 17.46C53.415 17.3533 53.475 17.26 53.595 17.18C54.0617 16.8467 54.695 16.5867 55.495 16.4C56.295 16.2 57.1683 16.1 58.115 16.1C59.595 16.1 60.7883 16.44 61.695 17.12C62.6017 17.7867 63.055 18.7333 63.055 19.96C63.055 20.9867 62.735 21.8533 62.095 22.56C61.4683 23.2667 60.475 23.9933 59.115 24.74C58.115 25.26 57.3217 25.8067 56.735 26.38C56.1483 26.9533 55.835 27.5133 55.795 28.06H62.275C62.5417 28.06 62.7283 28.12 62.835 28.24C62.9417 28.3467 62.995 28.5267 62.995 28.78V29.32C62.995 29.56 62.9417 29.7333 62.835 29.84C62.7283 29.9467 62.5417 30 62.275 30H53.855ZM69.8589 30.3C69.0322 30.3 68.2789 30.2067 67.5989 30.02C66.9322 29.8467 66.3656 29.6067 65.8989 29.3C65.7789 29.22 65.7189 29.1267 65.7189 29.02C65.7189 28.94 65.7522 28.8467 65.8189 28.74L66.3789 27.78C66.4589 27.66 66.5322 27.6 66.5989 27.6C66.6522 27.6 66.7456 27.6333 66.8789 27.7C67.6789 28.18 68.6256 28.42 69.7189 28.42C70.8522 28.42 71.7256 28.12 72.3389 27.52C72.9522 26.92 73.3322 26 73.4789 24.76C73.0256 25.1867 72.4922 25.4933 71.8789 25.68C71.2789 25.8533 70.5656 25.94 69.7389 25.94C68.6989 25.94 67.7922 25.7533 67.0189 25.38C66.2589 24.9933 65.6722 24.4533 65.2589 23.76C64.8589 23.0667 64.6589 22.2733 64.6589 21.38C64.6589 19.62 65.1522 18.3 66.1389 17.42C67.1256 16.54 68.5322 16.1 70.3589 16.1C72.0122 16.1 73.3322 16.6133 74.3189 17.64C75.3189 18.6533 75.8189 20.22 75.8189 22.34C75.8189 25.1667 75.2589 27.2 74.1389 28.44C73.0322 29.68 71.6056 30.3 69.8589 30.3ZM70.2989 24.3C70.8056 24.3 71.2789 24.1933 71.7189 23.98C72.1722 23.7533 72.5389 23.4267 72.8189 23C73.0989 22.56 73.2389 22.0333 73.2389 21.42C73.2389 20.2867 72.9856 19.4333 72.4789 18.86C71.9722 18.2867 71.2589 18 70.3389 18C69.2856 18 68.4922 18.2667 67.9589 18.8C67.4389 19.3333 67.1789 20.18 67.1789 21.34C67.1789 22.3267 67.4389 23.0667 67.9589 23.56C68.4922 24.0533 69.2722 24.3 70.2989 24.3Z" fill="black"/>
<path d="M13 32H76.5989V33H13V32Z" fill="black"/>
<path d="M468.046 254C467.606 254 467.386 253.773 467.386 253.32V252.54C467.386 251.687 467.713 250.847 468.366 250.02C469.033 249.193 470.026 248.407 471.346 247.66C472.293 247.127 472.986 246.707 473.426 246.4C473.866 246.08 474.186 245.747 474.386 245.4C474.6 245.04 474.706 244.6 474.706 244.08C474.706 243.4 474.466 242.887 473.986 242.54C473.506 242.18 472.833 242 471.966 242C471.34 242 470.746 242.08 470.186 242.24C469.64 242.387 469.166 242.573 468.766 242.8C468.633 242.867 468.546 242.9 468.506 242.9C468.426 242.9 468.346 242.84 468.266 242.72L467.706 241.74C467.64 241.633 467.606 241.54 467.606 241.46C467.606 241.353 467.666 241.26 467.786 241.18C468.253 240.847 468.886 240.587 469.686 240.4C470.486 240.2 471.36 240.1 472.306 240.1C473.786 240.1 474.98 240.44 475.886 241.12C476.793 241.787 477.246 242.733 477.246 243.96C477.246 244.987 476.926 245.853 476.286 246.56C475.66 247.267 474.666 247.993 473.306 248.74C472.306 249.26 471.513 249.807 470.926 250.38C470.34 250.953 470.026 251.513 469.986 252.06H476.466C476.733 252.06 476.92 252.12 477.026 252.24C477.133 252.347 477.186 252.527 477.186 252.78V253.32C477.186 253.56 477.133 253.733 477.026 253.84C476.92 253.947 476.733 254 476.466 254H468.046ZM484.05 254.3C483.224 254.3 482.47 254.207 481.79 254.02C481.124 253.847 480.557 253.607 480.09 253.3C479.97 253.22 479.91 253.127 479.91 253.02C479.91 252.94 479.944 252.847 480.01 252.74L480.57 251.78C480.65 251.66 480.724 251.6 480.79 251.6C480.844 251.6 480.937 251.633 481.07 251.7C481.87 252.18 482.817 252.42 483.91 252.42C485.044 252.42 485.917 252.12 486.53 251.52C487.144 250.92 487.524 250 487.67 248.76C487.217 249.187 486.684 249.493 486.07 249.68C485.47 249.853 484.757 249.94 483.93 249.94C482.89 249.94 481.984 249.753 481.21 249.38C480.45 248.993 479.864 248.453 479.45 247.76C479.05 247.067 478.85 246.273 478.85 245.38C478.85 243.62 479.344 242.3 480.33 241.42C481.317 240.54 482.724 240.1 484.55 240.1C486.204 240.1 487.524 240.613 488.51 241.64C489.51 242.653 490.01 244.22 490.01 246.34C490.01 249.167 489.45 251.2 488.33 252.44C487.224 253.68 485.797 254.3 484.05 254.3ZM484.49 248.3C484.997 248.3 485.47 248.193 485.91 247.98C486.364 247.753 486.73 247.427 487.01 247C487.29 246.56 487.43 246.033 487.43 245.42C487.43 244.287 487.177 243.433 486.67 242.86C486.164 242.287 485.45 242 484.53 242C483.477 242 482.684 242.267 482.15 242.8C481.63 243.333 481.37 244.18 481.37 245.34C481.37 246.327 481.63 247.067 482.15 247.56C482.684 248.053 483.464 248.3 484.49 248.3ZM493.265 254C493.078 254 492.985 253.92 492.985 253.76C492.985 253.68 493.012 253.593 493.065 253.5L498.885 242.36H492.025C491.772 242.36 491.598 242.307 491.505 242.2C491.412 242.093 491.365 241.913 491.365 241.66V241.06C491.365 240.82 491.412 240.653 491.505 240.56C491.598 240.453 491.772 240.4 492.025 240.4H501.205C501.525 240.4 501.745 240.453 501.865 240.56C501.998 240.667 502.065 240.853 502.065 241.12C502.065 241.293 502.018 241.487 501.925 241.7C501.845 241.913 501.752 242.113 501.645 242.3C501.538 242.487 501.472 242.613 501.445 242.68L495.705 253.72C495.652 253.827 495.585 253.9 495.505 253.94C495.438 253.98 495.338 254 495.205 254H493.265ZM505.121 254C504.934 254 504.841 253.92 504.841 253.76C504.841 253.68 504.867 253.593 504.921 253.5L510.741 242.36H503.881C503.627 242.36 503.454 242.307 503.361 242.2C503.267 242.093 503.221 241.913 503.221 241.66V241.06C503.221 240.82 503.267 240.653 503.361 240.56C503.454 240.453 503.627 240.4 503.881 240.4H513.061C513.381 240.4 513.601 240.453 513.721 240.56C513.854 240.667 513.921 240.853 513.921 241.12C513.921 241.293 513.874 241.487 513.781 241.7C513.701 241.913 513.607 242.113 513.501 242.3C513.394 242.487 513.327 242.613 513.301 242.68L507.561 253.72C507.507 253.827 507.441 253.9 507.361 253.94C507.294 253.98 507.194 254 507.061 254H505.121ZM515.976 254C515.536 254 515.316 253.773 515.316 253.32V252.54C515.316 251.687 515.643 250.847 516.296 250.02C516.963 249.193 517.956 248.407 519.276 247.66C520.223 247.127 520.916 246.707 521.356 246.4C521.796 246.08 522.116 245.747 522.316 245.4C522.529 245.04 522.636 244.6 522.636 244.08C522.636 243.4 522.396 242.887 521.916 242.54C521.436 242.18 520.763 242 519.896 242C519.269 242 518.676 242.08 518.116 242.24C517.569 242.387 517.096 242.573 516.696 242.8C516.563 242.867 516.476 242.9 516.436 242.9C516.356 242.9 516.276 242.84 516.196 242.72L515.636 241.74C515.569 241.633 515.536 241.54 515.536 241.46C515.536 241.353 515.596 241.26 515.716 241.18C516.183 240.847 516.816 240.587 517.616 240.4C518.416 240.2 519.289 240.1 520.236 240.1C521.716 240.1 522.909 240.44 523.816 241.12C524.723 241.787 525.176 242.733 525.176 243.96C525.176 244.987 524.856 245.853 524.216 246.56C523.589 247.267 522.596 247.993 521.236 248.74C520.236 249.26 519.443 249.807 518.856 250.38C518.269 250.953 517.956 251.513 517.916 252.06H524.396C524.663 252.06 524.849 252.12 524.956 252.24C525.063 252.347 525.116 252.527 525.116 252.78V253.32C525.116 253.56 525.063 253.733 524.956 253.84C524.849 253.947 524.663 254 524.396 254H515.976Z" fill="black"/>
<path d="M466.566 256H525.996V257H466.566V256Z" fill="black"/>
<path d="M489.96 299.24C488.69 299.24 487.725 298.968 487.064 298.424C486.413 297.869 486.088 297.117 486.088 296.168V291.08C486.088 290.76 486.248 290.6 486.568 290.6H487.064C487.234 290.6 487.357 290.643 487.432 290.728C487.506 290.803 487.544 290.92 487.544 291.08V296.312C487.544 296.909 487.752 297.363 488.168 297.672C488.584 297.971 489.181 298.12 489.96 298.12C490.738 298.12 491.336 297.971 491.752 297.672C492.168 297.363 492.376 296.909 492.376 296.312V288.28C492.376 288.12 492.413 288.003 492.488 287.928C492.562 287.843 492.685 287.8 492.856 287.8H493.336C493.666 287.8 493.832 287.96 493.832 288.28V296.168C493.832 297.117 493.501 297.869 492.84 298.424C492.189 298.968 491.229 299.24 489.96 299.24ZM486.245 288.968C486.075 288.968 485.957 288.936 485.893 288.872C485.819 288.808 485.781 288.691 485.781 288.52V288.28C485.781 288.12 485.819 288.003 485.893 287.928C485.957 287.853 486.075 287.816 486.245 287.816H489.765V286.328C489.765 286.104 489.877 285.992 490.101 285.992H490.709C490.933 285.992 491.045 286.104 491.045 286.328V288.184C491.045 288.483 490.992 288.691 490.885 288.808C490.779 288.915 490.571 288.968 490.261 288.968H486.245ZM502.841 299C502.542 299 502.393 298.845 502.393 298.536V298.024C502.393 297.331 502.67 296.637 503.225 295.944C503.79 295.24 504.601 294.611 505.657 294.056C506.446 293.64 507.038 293.293 507.433 293.016C507.838 292.728 508.132 292.424 508.313 292.104C508.505 291.784 508.601 291.389 508.601 290.92C508.601 290.28 508.377 289.8 507.929 289.48C507.481 289.16 506.868 289 506.089 289C505.556 289 505.049 289.064 504.569 289.192C504.089 289.32 503.689 289.485 503.369 289.688C503.316 289.731 503.262 289.752 503.209 289.752C503.145 289.752 503.092 289.709 503.049 289.624L502.713 289.032C502.681 288.968 502.665 288.915 502.665 288.872C502.665 288.797 502.708 288.733 502.793 288.68C503.145 288.435 503.625 288.243 504.233 288.104C504.841 287.955 505.502 287.88 506.217 287.88C507.348 287.88 508.265 288.147 508.969 288.68C509.684 289.213 510.041 289.96 510.041 290.92C510.041 291.763 509.774 292.472 509.241 293.048C508.708 293.613 507.881 294.179 506.761 294.744C505.833 295.224 505.118 295.725 504.617 296.248C504.116 296.76 503.865 297.288 503.865 297.832H509.481C509.652 297.832 509.769 297.869 509.833 297.944C509.908 298.008 509.945 298.125 509.945 298.296V298.568C509.945 298.728 509.908 298.84 509.833 298.904C509.769 298.968 509.652 299 509.481 299H502.841ZM515.293 299.24C514.578 299.24 513.89 299.16 513.229 299C512.578 298.851 512.071 298.653 511.709 298.408C511.623 298.355 511.581 298.291 511.581 298.216C511.581 298.173 511.597 298.12 511.629 298.056L511.981 297.464C512.023 297.389 512.071 297.352 512.125 297.352C512.178 297.352 512.231 297.373 512.285 297.416C512.615 297.619 513.042 297.789 513.565 297.928C514.098 298.056 514.674 298.12 515.293 298.12C516.317 298.12 517.09 297.907 517.613 297.48C518.135 297.043 518.397 296.392 518.397 295.528C518.397 294.557 518.173 293.88 517.725 293.496C517.277 293.101 516.535 292.904 515.501 292.904C514.551 292.904 513.746 293.064 513.085 293.384C512.946 293.437 512.813 293.464 512.685 293.464C512.461 293.464 512.274 293.4 512.125 293.272C511.986 293.133 511.922 292.952 511.933 292.728L512.205 288.568C512.215 288.419 512.253 288.307 512.317 288.232C512.391 288.157 512.514 288.12 512.685 288.12H518.861C519.031 288.12 519.154 288.152 519.229 288.216C519.303 288.28 519.341 288.392 519.341 288.552V288.824C519.341 288.995 519.303 289.117 519.229 289.192C519.154 289.256 519.031 289.288 518.861 289.288H513.485L513.293 292.2C513.975 291.955 514.797 291.832 515.757 291.832C518.477 291.832 519.837 293.064 519.837 295.528C519.837 296.275 519.65 296.931 519.277 297.496C518.914 298.051 518.391 298.483 517.709 298.792C517.026 299.091 516.221 299.24 515.293 299.24ZM525.65 299.24C524.37 299.24 523.33 298.851 522.53 298.072C521.74 297.293 521.346 296.04 521.346 294.312C521.346 292.733 521.57 291.469 522.018 290.52C522.466 289.56 523.042 288.883 523.746 288.488C524.45 288.083 525.228 287.88 526.082 287.88C527.298 287.88 528.274 288.136 529.01 288.648C529.095 288.701 529.138 288.765 529.138 288.84C529.138 288.883 529.122 288.936 529.09 289L528.77 289.544C528.727 289.64 528.674 289.688 528.61 289.688C528.578 289.688 528.524 289.661 528.45 289.608C528.14 289.395 527.799 289.24 527.426 289.144C527.063 289.048 526.615 289 526.082 289C525.132 289 524.386 289.304 523.842 289.912C523.308 290.509 522.956 291.411 522.786 292.616C523.148 292.2 523.596 291.896 524.13 291.704C524.663 291.501 525.303 291.4 526.05 291.4C526.818 291.4 527.506 291.555 528.114 291.864C528.722 292.163 529.196 292.595 529.538 293.16C529.89 293.715 530.066 294.36 530.066 295.096C530.066 296.451 529.676 297.48 528.898 298.184C528.119 298.888 527.036 299.24 525.65 299.24ZM525.65 298.12C527.644 298.12 528.642 297.112 528.642 295.096C528.642 294.264 528.37 293.613 527.826 293.144C527.292 292.675 526.594 292.44 525.73 292.44C525.26 292.44 524.802 292.536 524.354 292.728C523.906 292.92 523.532 293.219 523.234 293.624C522.946 294.029 522.802 294.541 522.802 295.16C522.802 296.195 523.063 296.947 523.586 297.416C524.108 297.885 524.796 298.12 525.65 298.12ZM532.029 299C531.73 299 531.581 298.845 531.581 298.536V298.024C531.581 297.331 531.858 296.637 532.413 295.944C532.978 295.24 533.789 294.611 534.845 294.056C535.634 293.64 536.226 293.293 536.621 293.016C537.026 292.728 537.319 292.424 537.501 292.104C537.693 291.784 537.789 291.389 537.789 290.92C537.789 290.28 537.565 289.8 537.117 289.48C536.669 289.16 536.055 289 535.277 289C534.743 289 534.237 289.064 533.757 289.192C533.277 289.32 532.877 289.485 532.557 289.688C532.503 289.731 532.45 289.752 532.397 289.752C532.333 289.752 532.279 289.709 532.237 289.624L531.901 289.032C531.869 288.968 531.853 288.915 531.853 288.872C531.853 288.797 531.895 288.733 531.981 288.68C532.333 288.435 532.813 288.243 533.421 288.104C534.029 287.955 534.69 287.88 535.405 287.88C536.535 287.88 537.453 288.147 538.157 288.68C538.871 289.213 539.229 289.96 539.229 290.92C539.229 291.763 538.962 292.472 538.429 293.048C537.895 293.613 537.069 294.179 535.949 294.744C535.021 295.224 534.306 295.725 533.805 296.248C533.303 296.76 533.053 297.288 533.053 297.832H538.669C538.839 297.832 538.957 297.869 539.021 297.944C539.095 298.008 539.133 298.125 539.133 298.296V298.568C539.133 298.728 539.095 298.84 539.021 298.904C538.957 298.968 538.839 299 538.669 299H532.029Z" fill="black"/>
<path d="M98.6848 126.9C94.4048 126.9 91.2248 126.04 89.1448 124.32C87.1048 122.56 86.0848 120.44 86.0848 117.96V116.64H84.4048C83.5648 116.64 82.9848 116.48 82.6648 116.16C82.3848 115.84 82.2448 115.28 82.2448 114.48V110.22C82.2448 109.46 82.4048 108.92 82.7248 108.6C83.0448 108.24 83.6048 108.06 84.4048 108.06H92.7448C93.9048 108.06 94.7248 108.3 95.2048 108.78C95.6848 109.26 95.9248 110.02 95.9248 111.06V115.68C95.9248 116.56 96.1448 117.22 96.5848 117.66C97.0648 118.06 97.7648 118.26 98.6848 118.26C99.9648 118.26 100.885 117.68 101.445 116.52C102.005 115.32 102.285 113.3 102.285 110.46C102.285 107.5 101.685 105.4 100.485 104.16C99.2848 102.88 97.3048 102.24 94.5448 102.24C93.0248 102.24 91.6648 102.4 90.4648 102.72C89.3048 103.04 88.1448 103.48 86.9848 104.04C86.4248 104.32 86.0048 104.46 85.7248 104.46C85.3648 104.46 85.0248 104.2 84.7048 103.68L82.1848 99.3C81.9048 98.74 81.7648 98.32 81.7648 98.04C81.7648 97.64 82.0048 97.26 82.4848 96.9C84.0848 95.82 86.1648 95 88.7248 94.44C91.2848 93.88 94.1048 93.6 97.1848 93.6C103.265 93.6 107.645 95.06 110.325 97.98C113.045 100.9 114.405 105.06 114.405 110.46C114.405 115.94 113.025 120.06 110.265 122.82C107.545 125.54 103.685 126.9 98.6848 126.9ZM107.075 91.44C104.635 91.44 102.695 90.74 101.255 89.34C99.7754 87.9 99.0354 86.02 99.0354 83.7C99.0354 81.38 99.7754 79.5 101.255 78.06C102.735 76.62 104.675 75.9 107.075 75.9C109.515 75.9 111.495 76.62 113.015 78.06C114.495 79.5 115.235 81.38 115.235 83.7C115.235 86.02 114.495 87.9 113.015 89.34C111.495 90.74 109.515 91.44 107.075 91.44ZM107.075 86.04C107.755 86.04 108.335 85.82 108.815 85.38C109.255 84.94 109.475 84.38 109.475 83.7C109.475 83.02 109.255 82.46 108.815 82.02C108.335 81.58 107.755 81.36 107.075 81.36C106.395 81.36 105.815 81.58 105.335 82.02C104.855 82.46 104.615 83.02 104.615 83.7C104.615 84.38 104.855 84.94 105.335 85.38C105.815 85.82 106.395 86.04 107.075 86.04ZM130.955 126C129.115 126 128.195 125.12 128.195 123.36V106.74C128.195 105.1 127.875 103.94 127.235 103.26C126.595 102.58 125.555 102.24 124.115 102.24C122.595 102.24 121.195 102.56 119.915 103.2C119.515 103.44 119.155 103.56 118.835 103.56C118.435 103.56 118.175 103.32 118.055 102.84L116.555 97.14L116.435 96.3C116.435 96.1 116.475 95.94 116.555 95.82C116.675 95.7 116.855 95.58 117.095 95.46C119.775 94.22 122.935 93.6 126.575 93.6C131.255 93.6 134.715 94.6 136.955 96.6C139.235 98.6 140.375 101.68 140.375 105.84V123.36C140.375 125.12 139.455 126 137.615 126H130.955ZM157.423 126.9C153.823 126.9 150.943 125.96 148.783 124.08C146.623 122.2 145.543 119.4 145.543 115.68V97.56C145.543 96.52 145.783 95.76 146.263 95.28C146.743 94.76 147.543 94.5 148.663 94.5H154.483C155.643 94.5 156.463 94.76 156.943 95.28C157.423 95.76 157.663 96.52 157.663 97.56V115.2C157.663 117.52 158.923 118.68 161.443 118.68C162.723 118.68 163.783 118.34 164.623 117.66C165.463 116.98 165.883 116.12 165.883 115.08V97.56C165.883 96.52 166.123 95.76 166.603 95.28C167.083 94.76 167.903 94.5 169.063 94.5H174.883C176.043 94.5 176.863 94.76 177.343 95.28C177.823 95.76 178.063 96.52 178.063 97.56V123.36C178.063 125.12 177.163 126 175.363 126H169.963C168.883 126 168.283 125.56 168.163 124.68L167.923 122.88C166.763 124.16 165.363 125.16 163.723 125.88C162.083 126.56 159.983 126.9 157.423 126.9ZM195.219 126.9C192.259 126.9 189.759 126.64 187.719 126.12C185.719 125.6 183.859 124.78 182.139 123.66C181.659 123.38 181.419 123 181.419 122.52C181.419 122.12 181.559 121.7 181.839 121.26L184.359 116.94C184.719 116.34 185.079 116.04 185.439 116.04C185.679 116.04 186.059 116.2 186.579 116.52C187.619 117.16 188.679 117.62 189.759 117.9C190.839 118.18 192.059 118.32 193.419 118.32C195.899 118.32 197.779 117.72 199.059 116.52C200.339 115.32 200.979 113.26 200.979 110.34C200.979 107.42 200.359 105.34 199.119 104.1C197.919 102.86 196.099 102.24 193.659 102.24C191.139 102.24 188.859 102.84 186.819 104.04C186.299 104.36 185.899 104.52 185.619 104.52C185.179 104.52 184.819 104.24 184.539 103.68L182.079 99.3C181.799 98.74 181.659 98.32 181.659 98.04C181.659 97.64 181.899 97.26 182.379 96.9C184.059 95.82 185.919 95 187.959 94.44C190.039 93.88 192.519 93.6 195.399 93.6C201.199 93.6 205.599 95.02 208.599 97.86C211.599 100.66 213.099 104.82 213.099 110.34C213.099 115.82 211.559 119.96 208.479 122.76C205.439 125.52 201.019 126.9 195.219 126.9ZM228.966 126.9C225.366 126.9 222.486 125.96 220.326 124.08C218.166 122.2 217.086 119.4 217.086 115.68V97.56C217.086 96.52 217.326 95.76 217.806 95.28C218.286 94.76 219.086 94.5 220.206 94.5H226.026C227.186 94.5 228.006 94.76 228.486 95.28C228.966 95.76 229.206 96.52 229.206 97.56V115.2C229.206 117.52 230.466 118.68 232.986 118.68C234.266 118.68 235.326 118.34 236.166 117.66C237.006 116.98 237.426 116.12 237.426 115.08V97.56C237.426 96.52 237.666 95.76 238.146 95.28C238.626 94.76 239.446 94.5 240.606 94.5H246.426C247.586 94.5 248.406 94.76 248.886 95.28C249.366 95.76 249.606 96.52 249.606 97.56V123.36C249.606 125.12 248.706 126 246.906 126H241.506C240.426 126 239.826 125.56 239.706 124.68L239.466 122.88C238.306 124.16 236.906 125.16 235.266 125.88C233.626 126.56 231.526 126.9 228.966 126.9ZM260.522 126C258.082 126 256.862 124.74 256.862 122.22V98.64C256.862 97.48 256.762 96.54 256.562 95.82C256.362 95.1 256.082 94.5 255.722 94.02C255.402 93.54 254.862 92.92 254.102 92.16C253.742 91.88 253.382 91.52 253.022 91.08L251.822 89.76C251.462 89.36 251.222 88.98 251.102 88.62C250.942 88.22 250.862 87.7 250.862 87.06V84.48C250.862 83.56 251.082 82.92 251.522 82.56C251.962 82.16 252.682 81.96 253.682 81.96H272.042C272.882 81.96 273.462 82.14 273.782 82.5C274.102 82.82 274.262 83.38 274.262 84.18V88.56C274.262 89.36 274.102 89.92 273.782 90.24C273.462 90.56 272.882 90.72 272.042 90.72H265.262C266.822 91.96 267.842 93.16 268.322 94.32C268.802 95.48 269.042 97.08 269.042 99.12V116.1C269.042 116.54 269.122 116.84 269.282 117C269.442 117.16 269.682 117.24 270.002 117.24H271.142C271.822 117.24 272.262 117.36 272.462 117.6C272.662 117.84 272.762 118.34 272.762 119.1V123.84C272.762 124.56 272.642 125.08 272.402 125.4C272.202 125.68 271.842 125.86 271.322 125.94C270.842 125.98 270.002 126 268.802 126H260.522ZM291.182 126.9C285.422 126.9 280.782 125.92 277.262 123.96C276.822 123.72 276.502 123.5 276.302 123.3C276.142 123.1 276.062 122.86 276.062 122.58C276.062 122.42 276.162 122.14 276.362 121.74L278.882 117.12C279.122 116.68 279.402 116.46 279.722 116.46C280.002 116.46 280.362 116.58 280.802 116.82C281.882 117.38 283.322 117.9 285.122 118.38C286.962 118.86 288.602 119.1 290.042 119.1C291.282 119.1 292.162 118.94 292.682 118.62C293.242 118.3 293.522 117.82 293.522 117.18C293.522 116.42 293.142 115.82 292.382 115.38C291.622 114.9 290.162 114.26 288.002 113.46L286.382 112.86C283.142 111.62 280.782 110.3 279.302 108.9C277.862 107.5 277.142 105.64 277.142 103.32C277.142 100.32 278.422 97.96 280.982 96.24C283.582 94.48 287.042 93.6 291.362 93.6C294.042 93.6 296.342 93.82 298.262 94.26C300.182 94.7 302.022 95.38 303.782 96.3C304.582 96.7 304.982 97.16 304.982 97.68C304.982 97.92 304.842 98.28 304.562 98.76L302.162 102.66C301.842 103.14 301.562 103.38 301.322 103.38C301.122 103.38 300.782 103.26 300.302 103.02C299.342 102.54 298.202 102.16 296.882 101.88C295.602 101.56 294.362 101.4 293.162 101.4C291.682 101.4 290.582 101.54 289.862 101.82C289.182 102.06 288.842 102.5 288.842 103.14C288.842 103.94 289.322 104.62 290.282 105.18C291.282 105.7 293.142 106.46 295.862 107.46C296.022 107.5 296.642 107.72 297.722 108.12C300.682 109.24 302.742 110.48 303.902 111.84C305.102 113.16 305.702 114.94 305.702 117.18C305.702 120.06 304.462 122.4 301.982 124.2C299.502 126 295.902 126.9 291.182 126.9ZM325.984 126.9C321.984 126.9 318.904 126.14 316.744 124.62C314.624 123.1 313.064 120.8 312.064 117.72L308.824 107.46C308.624 106.86 308.524 106.42 308.524 106.14C308.524 105.58 308.944 105.16 309.784 104.88L316.984 102.42C317.504 102.22 317.924 102.12 318.244 102.12C318.924 102.12 319.404 102.64 319.684 103.68L323.344 115.26C323.704 116.38 324.124 117.16 324.604 117.6C325.084 118.04 325.844 118.26 326.884 118.26C328.244 118.26 329.224 117.6 329.824 116.28C330.424 114.92 330.724 112.78 330.724 109.86C330.724 107.18 330.424 105.24 329.824 104.04C329.264 102.84 328.324 102.24 327.004 102.24C326.484 102.24 325.664 102.44 324.544 102.84C324.384 102.92 324.144 102.96 323.824 102.96C323.384 102.96 323.044 102.66 322.804 102.06L320.944 97.2C320.824 96.88 320.764 96.62 320.764 96.42C320.764 96.02 321.004 95.72 321.484 95.52C322.804 94.84 324.084 94.36 325.324 94.08C326.604 93.76 328.084 93.6 329.764 93.6C333.884 93.6 337.064 95.04 339.304 97.92C341.584 100.8 342.724 104.78 342.724 109.86C342.724 115.38 341.264 119.6 338.344 122.52C335.424 125.44 331.304 126.9 325.984 126.9ZM350.355 126C347.915 126 346.695 124.74 346.695 122.22V97.56C346.695 96.48 346.935 95.7 347.415 95.22C347.935 94.74 348.815 94.5 350.055 94.5H355.515C356.755 94.5 357.615 94.74 358.095 95.22C358.615 95.7 358.875 96.48 358.875 97.56V116.1C358.875 116.58 358.935 116.9 359.055 117.06C359.175 117.18 359.395 117.24 359.715 117.24H360.975C361.655 117.24 362.095 117.36 362.295 117.6C362.495 117.84 362.595 118.34 362.595 119.1V123.84C362.595 124.56 362.475 125.08 362.235 125.4C362.035 125.68 361.675 125.86 361.155 125.94C360.675 125.98 359.835 126 358.635 126H350.355ZM380.42 126.9C374.66 126.9 370.02 125.92 366.5 123.96C366.06 123.72 365.74 123.5 365.54 123.3C365.38 123.1 365.3 122.86 365.3 122.58C365.3 122.42 365.4 122.14 365.6 121.74L368.12 117.12C368.36 116.68 368.64 116.46 368.96 116.46C369.24 116.46 369.6 116.58 370.04 116.82C371.12 117.38 372.56 117.9 374.36 118.38C376.2 118.86 377.84 119.1 379.28 119.1C380.52 119.1 381.4 118.94 381.92 118.62C382.48 118.3 382.76 117.82 382.76 117.18C382.76 116.42 382.38 115.82 381.62 115.38C380.86 114.9 379.4 114.26 377.24 113.46L375.62 112.86C372.38 111.62 370.02 110.3 368.54 108.9C367.1 107.5 366.38 105.64 366.38 103.32C366.38 100.32 367.66 97.96 370.22 96.24C372.82 94.48 376.28 93.6 380.6 93.6C383.28 93.6 385.58 93.82 387.5 94.26C389.42 94.7 391.26 95.38 393.02 96.3C393.82 96.7 394.22 97.16 394.22 97.68C394.22 97.92 394.08 98.28 393.8 98.76L391.4 102.66C391.08 103.14 390.8 103.38 390.56 103.38C390.36 103.38 390.02 103.26 389.54 103.02C388.58 102.54 387.44 102.16 386.12 101.88C384.84 101.56 383.6 101.4 382.4 101.4C380.92 101.4 379.82 101.54 379.1 101.82C378.42 102.06 378.08 102.5 378.08 103.14C378.08 103.94 378.56 104.62 379.52 105.18C380.52 105.7 382.38 106.46 385.1 107.46C385.26 107.5 385.88 107.72 386.96 108.12C389.92 109.24 391.98 110.48 393.14 111.84C394.34 113.16 394.94 114.94 394.94 117.18C394.94 120.06 393.7 122.4 391.22 124.2C388.74 126 385.14 126.9 380.42 126.9ZM368.842 90.84C367.642 90.84 366.862 90.66 366.502 90.3C366.142 89.9 365.962 89.08 365.962 87.84V85.56C365.962 84.32 366.142 83.52 366.502 83.16C366.862 82.76 367.642 82.56 368.842 82.56H384.262V80.1C384.262 79.02 384.502 78.28 384.982 77.88C385.422 77.48 386.142 77.28 387.142 77.28H390.862C391.862 77.28 392.602 77.48 393.082 77.88C393.522 78.28 393.742 79.02 393.742 80.1V87.54C393.742 88.74 393.522 89.6 393.082 90.12C392.642 90.6 391.782 90.84 390.502 90.84H368.842ZM414.202 126.9C409.162 126.9 405.142 126.02 402.142 124.26C399.182 122.46 397.702 119.82 397.702 116.34C397.702 112.82 398.982 110.46 401.542 109.26C400.302 108.46 399.382 107.52 398.782 106.44C398.222 105.32 397.942 103.96 397.942 102.36C397.942 99.76 398.862 97.66 400.702 96.06C402.582 94.42 404.982 93.6 407.902 93.6C410.982 93.6 413.562 94.18 415.642 95.34C416.122 95.62 416.362 95.96 416.362 96.36C416.362 96.56 416.302 96.82 416.182 97.14L414.742 100.92C414.542 101.36 414.302 101.58 414.022 101.58C413.862 101.58 413.662 101.52 413.422 101.4C413.182 101.28 412.922 101.18 412.642 101.1C412.402 100.98 412.102 100.92 411.742 100.92C411.062 100.92 410.522 101.16 410.122 101.64C409.762 102.12 409.582 102.74 409.582 103.5C409.582 104.42 409.802 105.1 410.242 105.54C410.722 105.94 411.462 106.14 412.462 106.14H413.662C414.542 106.14 414.982 106.58 414.982 107.46V111.36C414.982 112.28 414.522 112.74 413.602 112.74H412.522C411.522 112.74 410.782 112.96 410.302 113.4C409.822 113.84 409.582 114.54 409.582 115.5C409.582 117.34 411.122 118.26 414.202 118.26C415.962 118.26 417.222 117.86 417.982 117.06C418.782 116.26 419.182 114.94 419.182 113.1V97.56C419.182 96.52 419.422 95.76 419.902 95.28C420.382 94.76 421.182 94.5 422.302 94.5H428.122C429.282 94.5 430.102 94.76 430.582 95.28C431.102 95.76 431.362 96.52 431.362 97.56V112.44C431.362 116.84 430.022 120.36 427.342 123C424.662 125.6 420.282 126.9 414.202 126.9ZM448.399 126.9C444.799 126.9 441.919 125.96 439.759 124.08C437.599 122.2 436.519 119.4 436.519 115.68V97.56C436.519 96.52 436.759 95.76 437.239 95.28C437.719 94.76 438.519 94.5 439.639 94.5H445.459C446.619 94.5 447.439 94.76 447.919 95.28C448.399 95.76 448.639 96.52 448.639 97.56V115.2C448.639 117.52 449.899 118.68 452.419 118.68C453.699 118.68 454.759 118.34 455.599 117.66C456.439 116.98 456.859 116.12 456.859 115.08V97.56C456.859 96.52 457.099 95.76 457.579 95.28C458.059 94.76 458.879 94.5 460.039 94.5H465.859C467.019 94.5 467.839 94.76 468.319 95.28C468.799 95.76 469.039 96.52 469.039 97.56V123.36C469.039 125.12 468.139 126 466.339 126H460.939C459.859 126 459.259 125.56 459.139 124.68L458.899 122.88C457.739 124.16 456.339 125.16 454.699 125.88C453.059 126.56 450.959 126.9 448.399 126.9ZM109.841 198.9C106.641 198.9 104.101 198.02 102.221 196.26C100.341 194.46 99.4015 192.12 99.4015 189.24C99.4015 185.48 100.641 182.8 103.121 181.2C105.601 179.6 109.161 178.8 113.801 178.8H120.941V178.14C120.941 176.74 120.461 175.72 119.501 175.08C118.541 174.4 116.801 174.06 114.281 174.06C112.881 174.06 111.481 174.22 110.081 174.54C108.721 174.82 107.541 175.2 106.541 175.68C105.981 175.96 105.581 176.1 105.341 176.1C104.941 176.1 104.601 175.84 104.321 175.32L101.621 170.58C101.421 170.26 101.321 169.98 101.321 169.74C101.321 169.38 101.601 169.04 102.161 168.72C103.841 167.72 105.941 166.96 108.461 166.44C111.021 165.88 113.761 165.6 116.681 165.6C122.241 165.6 126.341 166.74 128.981 169.02C131.621 171.3 132.941 174.72 132.941 179.28V195C132.941 196.04 132.701 196.8 132.221 197.28C131.741 197.76 130.921 198 129.761 198H124.121C122.961 198 122.141 197.76 121.661 197.28C121.181 196.8 120.941 196.04 120.941 195V186.66H114.341C113.061 186.66 112.121 186.84 111.521 187.2C110.961 187.56 110.681 188.18 110.681 189.06C110.681 189.9 110.881 190.5 111.281 190.86C111.721 191.22 112.421 191.4 113.381 191.4C114.061 191.4 114.841 191.24 115.721 190.92C115.841 190.88 115.981 190.86 116.141 190.86C116.581 190.86 116.861 191.14 116.981 191.7L117.881 196.26C117.921 196.38 117.941 196.54 117.941 196.74C117.941 197.02 117.861 197.24 117.701 197.4C117.541 197.56 117.261 197.72 116.861 197.88C114.941 198.56 112.601 198.9 109.841 198.9ZM149.561 198.9C145.521 198.9 142.401 197.54 140.201 194.82C138.001 192.06 136.901 188.28 136.901 183.48C136.901 177.72 138.441 173.3 141.521 170.22C144.641 167.14 149.201 165.6 155.201 165.6C161.001 165.6 165.281 166.86 168.041 169.38C170.801 171.86 172.181 175.22 172.181 179.46V195C172.181 196.04 171.941 196.8 171.461 197.28C170.981 197.76 170.161 198 169.001 198H163.181C162.021 198 161.201 197.76 160.721 197.28C160.241 196.8 160.001 196.04 160.001 195V179.88C160.001 178.04 159.621 176.64 158.861 175.68C158.141 174.72 156.921 174.24 155.201 174.24C153.081 174.24 151.501 175 150.461 176.52C149.461 178 148.961 180.44 148.961 183.84C148.961 186.16 149.241 187.82 149.801 188.82C150.401 189.78 151.341 190.26 152.621 190.26C153.421 190.26 154.181 190.1 154.901 189.78C155.021 189.74 155.161 189.72 155.321 189.72C155.761 189.72 156.041 190 156.161 190.56L157.361 196.2C157.401 196.32 157.421 196.48 157.421 196.68C157.421 196.96 157.341 197.18 157.181 197.34C157.021 197.5 156.741 197.66 156.341 197.82C155.341 198.18 154.341 198.44 153.341 198.6C152.341 198.8 151.081 198.9 149.561 198.9ZM186.599 198.9C183.399 198.9 180.859 198.02 178.979 196.26C177.099 194.46 176.159 192.12 176.159 189.24C176.159 185.48 177.399 182.8 179.879 181.2C182.359 179.6 185.919 178.8 190.559 178.8H197.699V178.14C197.699 176.74 197.219 175.72 196.259 175.08C195.299 174.4 193.559 174.06 191.039 174.06C189.639 174.06 188.239 174.22 186.839 174.54C185.479 174.82 184.299 175.2 183.299 175.68C182.739 175.96 182.339 176.1 182.099 176.1C181.699 176.1 181.359 175.84 181.079 175.32L178.379 170.58C178.179 170.26 178.079 169.98 178.079 169.74C178.079 169.38 178.359 169.04 178.919 168.72C180.599 167.72 182.699 166.96 185.219 166.44C187.779 165.88 190.519 165.6 193.439 165.6C198.999 165.6 203.099 166.74 205.739 169.02C208.379 171.3 209.699 174.72 209.699 179.28V195C209.699 196.04 209.459 196.8 208.979 197.28C208.499 197.76 207.679 198 206.519 198H200.879C199.719 198 198.899 197.76 198.419 197.28C197.939 196.8 197.699 196.04 197.699 195V186.66H191.099C189.819 186.66 188.879 186.84 188.279 187.2C187.719 187.56 187.439 188.18 187.439 189.06C187.439 189.9 187.639 190.5 188.039 190.86C188.479 191.22 189.179 191.4 190.139 191.4C190.819 191.4 191.599 191.24 192.479 190.92C192.599 190.88 192.739 190.86 192.899 190.86C193.339 190.86 193.619 191.14 193.739 191.7L194.639 196.26C194.679 196.38 194.699 196.54 194.699 196.74C194.699 197.02 194.619 197.24 194.459 197.4C194.299 197.56 194.019 197.72 193.619 197.88C191.699 198.56 189.359 198.9 186.599 198.9ZM231.179 198.9C227.179 198.9 224.099 198.14 221.939 196.62C219.819 195.1 218.259 192.8 217.259 189.72L214.019 179.46C213.819 178.86 213.719 178.42 213.719 178.14C213.719 177.58 214.139 177.16 214.979 176.88L222.179 174.42C222.699 174.22 223.119 174.12 223.439 174.12C224.119 174.12 224.599 174.64 224.879 175.68L228.539 187.26C228.899 188.38 229.319 189.16 229.799 189.6C230.279 190.04 231.039 190.26 232.079 190.26C233.439 190.26 234.419 189.6 235.019 188.28C235.619 186.92 235.919 184.78 235.919 181.86C235.919 179.18 235.619 177.24 235.019 176.04C234.459 174.84 233.519 174.24 232.199 174.24C231.679 174.24 230.859 174.44 229.739 174.84C229.579 174.92 229.339 174.96 229.019 174.96C228.579 174.96 228.239 174.66 227.999 174.06L226.139 169.2C226.019 168.88 225.959 168.62 225.959 168.42C225.959 168.02 226.199 167.72 226.679 167.52C227.999 166.84 229.279 166.36 230.519 166.08C231.799 165.76 233.279 165.6 234.959 165.6C239.079 165.6 242.259 167.04 244.499 169.92C246.779 172.8 247.919 176.78 247.919 181.86C247.919 187.38 246.459 191.6 243.539 194.52C240.619 197.44 236.499 198.9 231.179 198.9ZM263.351 198.9C259.311 198.9 256.191 197.54 253.991 194.82C251.791 192.06 250.691 188.28 250.691 183.48C250.691 179.76 251.191 176.56 252.191 173.88C253.231 171.16 254.671 169.1 256.511 167.7C258.391 166.3 260.571 165.6 263.051 165.6C265.571 165.6 267.531 166.56 268.931 168.48C269.651 167.6 270.651 166.9 271.931 166.38C273.251 165.86 274.651 165.6 276.131 165.6C279.451 165.6 281.911 166.4 283.511 168C285.151 169.56 285.971 171.72 285.971 174.48V195C285.971 196.04 285.731 196.8 285.251 197.28C284.771 197.76 283.951 198 282.791 198H276.971C275.811 198 274.991 197.76 274.511 197.28C274.031 196.8 273.791 196.04 273.791 195V176.46C273.791 174.98 273.191 174.24 271.991 174.24C271.311 174.24 270.691 174.6 270.131 175.32C269.931 175.56 269.731 175.74 269.531 175.86C269.371 175.94 269.151 175.98 268.871 175.98C268.551 175.98 268.291 175.94 268.091 175.86C267.931 175.74 267.751 175.56 267.551 175.32C267.271 174.92 267.011 174.64 266.771 174.48C266.571 174.32 266.271 174.24 265.871 174.24C264.911 174.24 264.151 175 263.591 176.52C263.031 178.04 262.751 180.36 262.751 183.48C262.751 185.92 263.031 187.66 263.591 188.7C264.191 189.74 265.131 190.26 266.411 190.26C267.211 190.26 267.971 190.1 268.691 189.78C268.811 189.74 268.951 189.72 269.111 189.72C269.551 189.72 269.831 190 269.951 190.56L271.151 196.2C271.191 196.32 271.211 196.48 271.211 196.68C271.211 196.96 271.131 197.18 270.971 197.34C270.811 197.5 270.531 197.66 270.131 197.82C269.131 198.18 268.131 198.44 267.131 198.6C266.131 198.8 264.871 198.9 263.351 198.9ZM277.708 162.84C276.588 162.84 275.808 162.64 275.368 162.24C274.888 161.84 274.648 161.08 274.648 159.96V153.06C274.648 151.9 274.888 151.12 275.368 150.72C275.808 150.32 276.588 150.12 277.708 150.12H282.808C283.928 150.12 284.728 150.32 285.208 150.72C285.648 151.12 285.868 151.9 285.868 153.06V159.96C285.868 161.08 285.648 161.84 285.208 162.24C284.728 162.64 283.928 162.84 282.808 162.84H277.708ZM305.248 198.9C295.048 198.9 289.948 194.84 289.948 186.72V182.34C289.948 181.34 290.168 180.6 290.608 180.12C291.088 179.64 291.888 179.4 293.008 179.4H302.608C303.408 179.4 303.948 179.56 304.228 179.88C304.548 180.2 304.708 180.76 304.708 181.56V184.5C304.708 185.3 304.548 185.86 304.228 186.18C303.948 186.5 303.388 186.66 302.548 186.66H300.508V187.62C300.508 188.34 300.888 188.96 301.648 189.48C302.408 190 303.608 190.26 305.248 190.26C307.288 190.26 308.668 189.64 309.388 188.4C310.148 187.16 310.528 185.06 310.528 182.1C310.528 179.18 309.968 177.14 308.848 175.98C307.768 174.82 305.828 174.24 303.028 174.24C301.588 174.24 300.188 174.4 298.828 174.72C297.508 175.04 296.328 175.46 295.288 175.98C294.728 176.26 294.328 176.4 294.088 176.4C293.688 176.4 293.348 176.14 293.068 175.62L290.548 171.24C290.268 170.68 290.128 170.24 290.128 169.92C290.128 169.48 290.348 169.12 290.788 168.84C292.428 167.8 294.568 167 297.208 166.44C299.888 165.88 302.708 165.6 305.668 165.6C316.988 165.6 322.648 171.1 322.648 182.1C322.648 187.66 321.128 191.86 318.088 194.7C315.048 197.5 310.768 198.9 305.248 198.9ZM330.258 198C327.818 198 326.598 196.74 326.598 194.22V169.56C326.598 168.48 326.838 167.7 327.318 167.22C327.838 166.74 328.718 166.5 329.958 166.5H335.418C336.658 166.5 337.518 166.74 337.998 167.22C338.518 167.7 338.778 168.48 338.778 169.56V188.1C338.778 188.58 338.838 188.9 338.958 189.06C339.078 189.18 339.298 189.24 339.618 189.24H340.878C341.558 189.24 341.998 189.36 342.198 189.6C342.398 189.84 342.498 190.34 342.498 191.1V195.84C342.498 196.56 342.378 197.08 342.138 197.4C341.938 197.68 341.578 197.86 341.058 197.94C340.578 197.98 339.738 198 338.538 198H330.258ZM358.282 198.9C354.682 198.9 351.802 197.96 349.642 196.08C347.482 194.2 346.402 191.4 346.402 187.68V169.56C346.402 168.52 346.642 167.76 347.122 167.28C347.602 166.76 348.402 166.5 349.522 166.5H355.342C356.502 166.5 357.322 166.76 357.802 167.28C358.282 167.76 358.522 168.52 358.522 169.56V187.2C358.522 189.52 359.782 190.68 362.302 190.68C363.582 190.68 364.642 190.34 365.482 189.66C366.322 188.98 366.742 188.12 366.742 187.08V169.56C366.742 168.52 366.982 167.76 367.462 167.28C367.942 166.76 368.762 166.5 369.922 166.5H375.742C376.902 166.5 377.722 166.76 378.202 167.28C378.682 167.76 378.922 168.52 378.922 169.56V195.36C378.922 197.12 378.022 198 376.222 198H370.822C369.742 198 369.142 197.56 369.022 196.68L368.782 194.88C367.622 196.16 366.222 197.16 364.582 197.88C362.942 198.56 360.842 198.9 358.282 198.9ZM354.018 162.84C352.778 162.84 351.978 162.66 351.618 162.3C351.258 161.9 351.078 161.08 351.078 159.84V157.56C351.078 156.32 351.258 155.52 351.618 155.16C351.978 154.76 352.778 154.56 354.018 154.56H360.618V152.1C360.618 151.02 360.858 150.28 361.338 149.88C361.778 149.48 362.498 149.28 363.498 149.28H365.538C366.538 149.28 367.278 149.48 367.758 149.88C368.198 150.28 368.418 151.02 368.418 152.1V154.56H371.118V152.1C371.118 151.02 371.358 150.28 371.838 149.88C372.278 149.48 372.998 149.28 373.998 149.28H376.038C377.038 149.28 377.778 149.48 378.258 149.88C378.698 150.28 378.918 151.02 378.918 152.1V159.54C378.918 160.74 378.698 161.6 378.258 162.12C377.818 162.6 376.958 162.84 375.678 162.84H354.018ZM372.558 147.24C371.478 147.24 370.718 147.04 370.278 146.64C369.798 146.24 369.558 145.46 369.558 144.3V139.56C369.558 138.4 369.798 137.62 370.278 137.22C370.718 136.82 371.478 136.62 372.558 136.62H375.738C376.818 136.62 377.598 136.82 378.078 137.22C378.558 137.62 378.798 138.4 378.798 139.56V144.3C378.798 145.46 378.558 146.24 378.078 146.64C377.598 147.04 376.818 147.24 375.738 147.24H372.558ZM398.178 198.9C387.978 198.9 382.878 194.84 382.878 186.72V182.34C382.878 181.34 383.098 180.6 383.538 180.12C384.018 179.64 384.818 179.4 385.938 179.4H395.538C396.338 179.4 396.878 179.56 397.158 179.88C397.478 180.2 397.638 180.76 397.638 181.56V184.5C397.638 185.3 397.478 185.86 397.158 186.18C396.878 186.5 396.318 186.66 395.478 186.66H393.438V187.62C393.438 188.34 393.818 188.96 394.578 189.48C395.338 190 396.538 190.26 398.178 190.26C400.218 190.26 401.598 189.64 402.318 188.4C403.078 187.16 403.458 185.06 403.458 182.1C403.458 179.18 402.898 177.14 401.778 175.98C400.698 174.82 398.758 174.24 395.958 174.24C394.518 174.24 393.118 174.4 391.758 174.72C390.438 175.04 389.258 175.46 388.218 175.98C387.658 176.26 387.258 176.4 387.018 176.4C386.618 176.4 386.278 176.14 385.998 175.62L383.478 171.24C383.198 170.68 383.058 170.24 383.058 169.92C383.058 169.48 383.278 169.12 383.718 168.84C385.358 167.8 387.498 167 390.138 166.44C392.818 165.88 395.638 165.6 398.598 165.6C409.918 165.6 415.578 171.1 415.578 182.1C415.578 187.66 414.058 191.86 411.018 194.7C407.978 197.5 403.698 198.9 398.178 198.9ZM435.847 198.9C431.847 198.9 428.767 198.14 426.607 196.62C424.487 195.1 422.927 192.8 421.927 189.72L418.687 179.46C418.487 178.86 418.387 178.42 418.387 178.14C418.387 177.58 418.807 177.16 419.647 176.88L426.847 174.42C427.367 174.22 427.787 174.12 428.107 174.12C428.787 174.12 429.267 174.64 429.547 175.68L433.207 187.26C433.567 188.38 433.987 189.16 434.467 189.6C434.947 190.04 435.707 190.26 436.747 190.26C438.107 190.26 439.087 189.6 439.687 188.28C440.287 186.92 440.587 184.78 440.587 181.86C440.587 179.18 440.287 177.24 439.687 176.04C439.127 174.84 438.187 174.24 436.867 174.24C436.347 174.24 435.527 174.44 434.407 174.84C434.247 174.92 434.007 174.96 433.687 174.96C433.247 174.96 432.907 174.66 432.667 174.06L430.807 169.2C430.687 168.88 430.627 168.62 430.627 168.42C430.627 168.02 430.867 167.72 431.347 167.52C432.667 166.84 433.947 166.36 435.187 166.08C436.467 165.76 437.947 165.6 439.627 165.6C443.747 165.6 446.927 167.04 449.167 169.92C451.447 172.8 452.587 176.78 452.587 181.86C452.587 187.38 451.127 191.6 448.207 194.52C445.287 197.44 441.167 198.9 435.847 198.9Z" fill="black"/>
<path d="M80.3848 132H471.619V135H80.3848V132ZM98.0215 204H453.967V207H98.0215V204Z" fill="black"/>
</svg>
