<svg width="540" height="313" viewBox="0 0 540 313" fill="none" xmlns="http://www.w3.org/2000/svg">
<path d="M266.838 15.8702L0 0V269H540V79.351L266.838 15.8702Z" fill="#F8D105"/>
<path d="M271.256 151L0 194.054V269H540V225.946L449.581 233.919L364.186 214.784L271.256 151Z" fill="#F85900"/>
<path d="M4.944 299.24C3.67467 299.24 2.70933 298.968 2.048 298.424C1.39733 297.869 1.072 297.117 1.072 296.168V291.08C1.072 290.76 1.232 290.6 1.552 290.6H2.048C2.21867 290.6 2.34133 290.643 2.416 290.728C2.49067 290.803 2.528 290.92 2.528 291.08V296.312C2.528 296.909 2.736 297.363 3.152 297.672C3.568 297.971 4.16533 298.12 4.944 298.12C5.72267 298.12 6.32 297.971 6.736 297.672C7.152 297.363 7.36 296.909 7.36 296.312V288.28C7.36 288.12 7.39733 288.003 7.472 287.928C7.54667 287.843 7.66933 287.8 7.84 287.8H8.32C8.65067 287.8 8.816 287.96 8.816 288.28V296.168C8.816 297.117 8.48533 297.869 7.824 298.424C7.17333 298.968 6.21333 299.24 4.944 299.24ZM1.22987 288.968C1.05921 288.968 0.941875 288.936 0.877874 288.872C0.803208 288.808 0.765875 288.691 0.765875 288.52V288.28C0.765875 288.12 0.803208 288.003 0.877874 287.928C0.941875 287.853 1.05921 287.816 1.22987 287.816H4.74987V286.328C4.74987 286.104 4.86187 285.992 5.08587 285.992H5.69387C5.91787 285.992 6.02987 286.104 6.02987 286.328V288.184C6.02987 288.483 5.97654 288.691 5.86987 288.808C5.76321 288.915 5.55521 288.968 5.24587 288.968H1.22987ZM17.8254 299C17.5267 299 17.3774 298.845 17.3774 298.536V298.024C17.3774 297.331 17.6547 296.637 18.2094 295.944C18.7747 295.24 19.5854 294.611 20.6414 294.056C21.4307 293.64 22.0227 293.293 22.4174 293.016C22.8227 292.728 23.116 292.424 23.2974 292.104C23.4894 291.784 23.5854 291.389 23.5854 290.92C23.5854 290.28 23.3614 289.8 22.9134 289.48C22.4654 289.16 21.852 289 21.0734 289C20.54 289 20.0334 289.064 19.5534 289.192C19.0734 289.32 18.6734 289.485 18.3534 289.688C18.3 289.731 18.2467 289.752 18.1934 289.752C18.1294 289.752 18.076 289.709 18.0334 289.624L17.6974 289.032C17.6654 288.968 17.6494 288.915 17.6494 288.872C17.6494 288.797 17.692 288.733 17.7774 288.68C18.1294 288.435 18.6094 288.243 19.2174 288.104C19.8254 287.955 20.4867 287.88 21.2014 287.88C22.332 287.88 23.2494 288.147 23.9534 288.68C24.668 289.213 25.0254 289.96 25.0254 290.92C25.0254 291.763 24.7587 292.472 24.2254 293.048C23.692 293.613 22.8654 294.179 21.7454 294.744C20.8174 295.224 20.1027 295.725 19.6014 296.248C19.1 296.76 18.8494 297.288 18.8494 297.832H24.4654C24.636 297.832 24.7534 297.869 24.8174 297.944C24.892 298.008 24.9294 298.125 24.9294 298.296V298.568C24.9294 298.728 24.892 298.84 24.8174 298.904C24.7534 298.968 24.636 299 24.4654 299H17.8254ZM30.2769 299.24C29.5622 299.24 28.8742 299.16 28.2129 299C27.5622 298.851 27.0555 298.653 26.6929 298.408C26.6075 298.355 26.5649 298.291 26.5649 298.216C26.5649 298.173 26.5809 298.12 26.6129 298.056L26.9649 297.464C27.0075 297.389 27.0555 297.352 27.1089 297.352C27.1622 297.352 27.2155 297.373 27.2689 297.416C27.5995 297.619 28.0262 297.789 28.5489 297.928C29.0822 298.056 29.6582 298.12 30.2769 298.12C31.3009 298.12 32.0742 297.907 32.5969 297.48C33.1195 297.043 33.3809 296.392 33.3809 295.528C33.3809 294.557 33.1569 293.88 32.7089 293.496C32.2609 293.101 31.5195 292.904 30.4849 292.904C29.5355 292.904 28.7302 293.064 28.0689 293.384C27.9302 293.437 27.7969 293.464 27.6689 293.464C27.4449 293.464 27.2582 293.4 27.1089 293.272C26.9702 293.133 26.9062 292.952 26.9169 292.728L27.1889 288.568C27.1995 288.419 27.2369 288.307 27.3009 288.232C27.3755 288.157 27.4982 288.12 27.6689 288.12H33.8449C34.0155 288.12 34.1382 288.152 34.2129 288.216C34.2875 288.28 34.3249 288.392 34.3249 288.552V288.824C34.3249 288.995 34.2875 289.117 34.2129 289.192C34.1382 289.256 34.0155 289.288 33.8449 289.288H28.4689L28.2769 292.2C28.9595 291.955 29.7809 291.832 30.7409 291.832C33.4609 291.832 34.8209 293.064 34.8209 295.528C34.8209 296.275 34.6342 296.931 34.2609 297.496C33.8982 298.051 33.3755 298.483 32.6929 298.792C32.0102 299.091 31.2049 299.24 30.2769 299.24ZM40.0581 299.24C39.3435 299.24 38.6555 299.16 37.9941 299C37.3435 298.851 36.8368 298.653 36.4741 298.408C36.3888 298.355 36.3461 298.291 36.3461 298.216C36.3461 298.173 36.3621 298.12 36.3941 298.056L36.7461 297.464C36.7888 297.389 36.8368 297.352 36.8901 297.352C36.9435 297.352 36.9968 297.373 37.0501 297.416C37.3808 297.619 37.8075 297.789 38.3301 297.928C38.8635 298.056 39.4395 298.12 40.0581 298.12C41.0821 298.12 41.8555 297.907 42.3781 297.48C42.9008 297.043 43.1621 296.392 43.1621 295.528C43.1621 294.557 42.9381 293.88 42.4901 293.496C42.0421 293.101 41.3008 292.904 40.2661 292.904C39.3168 292.904 38.5115 293.064 37.8501 293.384C37.7115 293.437 37.5781 293.464 37.4501 293.464C37.2261 293.464 37.0395 293.4 36.8901 293.272C36.7515 293.133 36.6875 292.952 36.6981 292.728L36.9701 288.568C36.9808 288.419 37.0181 288.307 37.0821 288.232C37.1568 288.157 37.2795 288.12 37.4501 288.12H43.6261C43.7968 288.12 43.9195 288.152 43.9941 288.216C44.0688 288.28 44.1061 288.392 44.1061 288.552V288.824C44.1061 288.995 44.0688 289.117 43.9941 289.192C43.9195 289.256 43.7968 289.288 43.6261 289.288H38.2501L38.0581 292.2C38.7408 291.955 39.5621 291.832 40.5221 291.832C43.2421 291.832 44.6021 293.064 44.6021 295.528C44.6021 296.275 44.4155 296.931 44.0421 297.496C43.6795 298.051 43.1568 298.483 42.4741 298.792C41.7915 299.091 40.9861 299.24 40.0581 299.24ZM50.4154 299.24C49.1354 299.24 48.0954 298.851 47.2954 298.072C46.506 297.293 46.1114 296.04 46.1114 294.312C46.1114 292.733 46.3354 291.469 46.7834 290.52C47.2314 289.56 47.8074 288.883 48.5114 288.488C49.2154 288.083 49.994 287.88 50.8474 287.88C52.0634 287.88 53.0394 288.136 53.7754 288.648C53.8607 288.701 53.9034 288.765 53.9034 288.84C53.9034 288.883 53.8874 288.936 53.8554 289L53.5354 289.544C53.4927 289.64 53.4394 289.688 53.3754 289.688C53.3434 289.688 53.29 289.661 53.2154 289.608C52.906 289.395 52.5647 289.24 52.1914 289.144C51.8287 289.048 51.3807 289 50.8474 289C49.898 289 49.1514 289.304 48.6074 289.912C48.074 290.509 47.722 291.411 47.5514 292.616C47.914 292.2 48.362 291.896 48.8954 291.704C49.4287 291.501 50.0687 291.4 50.8154 291.4C51.5834 291.4 52.2714 291.555 52.8794 291.864C53.4874 292.163 53.962 292.595 54.3034 293.16C54.6554 293.715 54.8314 294.36 54.8314 295.096C54.8314 296.451 54.442 297.48 53.6634 298.184C52.8847 298.888 51.802 299.24 50.4154 299.24ZM50.4154 298.12C52.41 298.12 53.4074 297.112 53.4074 295.096C53.4074 294.264 53.1354 293.613 52.5914 293.144C52.058 292.675 51.3594 292.44 50.4954 292.44C50.026 292.44 49.5674 292.536 49.1194 292.728C48.6714 292.92 48.298 293.219 47.9994 293.624C47.7114 294.029 47.5674 294.541 47.5674 295.16C47.5674 296.195 47.8287 296.947 48.3514 297.416C48.874 297.885 49.562 298.12 50.4154 298.12Z" fill="black"/>
<path d="M12.74 30.3C10.58 30.3 8.98667 29.9533 7.96 29.26C7.84 29.18 7.78 29.0867 7.78 28.98C7.78 28.9 7.81333 28.8067 7.88 28.7L8.46 27.72C8.54 27.5867 8.61333 27.52 8.68 27.52C8.73333 27.52 8.82667 27.5533 8.96 27.62C9.4 27.86 9.90667 28.0533 10.48 28.2C11.0667 28.3467 11.7 28.42 12.38 28.42C13.4733 28.42 14.2733 28.2133 14.78 27.8C15.3 27.3733 15.56 26.7867 15.56 26.04C15.56 24.6533 14.7133 23.96 13.02 23.96H11.34C11.0733 23.96 10.88 23.9067 10.76 23.8C10.6533 23.68 10.6 23.4933 10.6 23.24V22.72C10.6 22.48 10.6533 22.3067 10.76 22.2C10.88 22.0933 11.0733 22.04 11.34 22.04H12.98C13.7 22.04 14.24 21.8533 14.6 21.48C14.96 21.0933 15.14 20.6067 15.14 20.02C15.14 18.6733 14.1933 18 12.3 18C11.1267 18 10.0933 18.2467 9.2 18.74C9.06667 18.8067 8.97333 18.84 8.92 18.84C8.85333 18.84 8.78 18.78 8.7 18.66L8.14 17.72C8.07333 17.6133 8.04 17.52 8.04 17.44C8.04 17.3333 8.1 17.24 8.22 17.16C8.68667 16.8267 9.30667 16.5667 10.08 16.38C10.8533 16.1933 11.7133 16.1 12.66 16.1C13.6867 16.1 14.5733 16.26 15.32 16.58C16.08 16.9 16.66 17.3533 17.06 17.94C17.4733 18.5133 17.68 19.1867 17.68 19.96C17.68 20.5867 17.5267 21.1667 17.22 21.7C16.9267 22.2333 16.5 22.6467 15.94 22.94C16.66 23.2067 17.1933 23.62 17.54 24.18C17.9 24.7267 18.08 25.3733 18.08 26.12C18.08 27.3733 17.6133 28.3867 16.68 29.16C15.76 29.92 14.4467 30.3 12.74 30.3ZM26.2555 30.3C24.0688 30.3 22.4155 29.6933 21.2955 28.48C20.1888 27.2533 19.6355 25.4933 19.6355 23.2C19.6355 20.9067 20.1888 19.1533 21.2955 17.94C22.4155 16.7133 24.0688 16.1 26.2555 16.1C28.4288 16.1 30.0755 16.7133 31.1955 17.94C32.3155 19.1667 32.8755 20.92 32.8755 23.2C32.8755 25.48 32.3155 27.2333 31.1955 28.46C30.0755 29.6867 28.4288 30.3 26.2555 30.3ZM28.5155 18.6C27.9421 18.2 27.1888 18 26.2555 18C24.8688 18 23.8355 18.4333 23.1555 19.3C22.4888 20.1667 22.1555 21.4667 22.1555 23.2C22.1555 24.5733 22.4355 25.6333 22.9955 26.38L28.5155 18.6ZM26.2555 28.42C27.6421 28.42 28.6688 27.9867 29.3355 27.12C30.0021 26.2533 30.3355 24.9467 30.3355 23.2C30.3355 21.8533 30.0688 20.8 29.5355 20.04L23.9955 27.86C24.5955 28.2333 25.3488 28.42 26.2555 28.42ZM39.6402 30.3C38.8135 30.3 38.0602 30.2067 37.3802 30.02C36.7135 29.8467 36.1468 29.6067 35.6802 29.3C35.5602 29.22 35.5002 29.1267 35.5002 29.02C35.5002 28.94 35.5335 28.8467 35.6002 28.74L36.1602 27.78C36.2402 27.66 36.3135 27.6 36.3802 27.6C36.4335 27.6 36.5268 27.6333 36.6602 27.7C37.4602 28.18 38.4068 28.42 39.5002 28.42C40.6335 28.42 41.5068 28.12 42.1202 27.52C42.7335 26.92 43.1135 26 43.2602 24.76C42.8068 25.1867 42.2735 25.4933 41.6602 25.68C41.0602 25.8533 40.3468 25.94 39.5202 25.94C38.4802 25.94 37.5735 25.7533 36.8002 25.38C36.0402 24.9933 35.4535 24.4533 35.0402 23.76C34.6402 23.0667 34.4402 22.2733 34.4402 21.38C34.4402 19.62 34.9335 18.3 35.9202 17.42C36.9068 16.54 38.3135 16.1 40.1402 16.1C41.7935 16.1 43.1135 16.6133 44.1002 17.64C45.1002 18.6533 45.6002 20.22 45.6002 22.34C45.6002 25.1667 45.0402 27.2 43.9202 28.44C42.8135 29.68 41.3868 30.3 39.6402 30.3ZM40.0802 24.3C40.5868 24.3 41.0602 24.1933 41.5002 23.98C41.9535 23.7533 42.3202 23.4267 42.6002 23C42.8802 22.56 43.0202 22.0333 43.0202 21.42C43.0202 20.2867 42.7668 19.4333 42.2602 18.86C41.7535 18.2867 41.0402 18 40.1202 18C39.0668 18 38.2735 18.2667 37.7402 18.8C37.2202 19.3333 36.9602 20.18 36.9602 21.34C36.9602 22.3267 37.2202 23.0667 37.7402 23.56C38.2735 24.0533 39.0535 24.3 40.0802 24.3ZM47.855 30C47.415 30 47.195 29.7733 47.195 29.32V28.54C47.195 27.6867 47.5217 26.8467 48.175 26.02C48.8417 25.1933 49.835 24.4067 51.155 23.66C52.1017 23.1267 52.795 22.7067 53.235 22.4C53.675 22.08 53.995 21.7467 54.195 21.4C54.4083 21.04 54.515 20.6 54.515 20.08C54.515 19.4 54.275 18.8867 53.795 18.54C53.315 18.18 52.6417 18 51.775 18C51.1483 18 50.555 18.08 49.995 18.24C49.4483 18.3867 48.975 18.5733 48.575 18.8C48.4417 18.8667 48.355 18.9 48.315 18.9C48.235 18.9 48.155 18.84 48.075 18.72L47.515 17.74C47.4483 17.6333 47.415 17.54 47.415 17.46C47.415 17.3533 47.475 17.26 47.595 17.18C48.0617 16.8467 48.695 16.5867 49.495 16.4C50.295 16.2 51.1683 16.1 52.115 16.1C53.595 16.1 54.7883 16.44 55.695 17.12C56.6017 17.7867 57.055 18.7333 57.055 19.96C57.055 20.9867 56.735 21.8533 56.095 22.56C55.4683 23.2667 54.475 23.9933 53.115 24.74C52.115 25.26 51.3217 25.8067 50.735 26.38C50.1483 26.9533 49.835 27.5133 49.795 28.06H56.275C56.5417 28.06 56.7283 28.12 56.835 28.24C56.9417 28.3467 56.995 28.5267 56.995 28.78V29.32C56.995 29.56 56.9417 29.7333 56.835 29.84C56.7283 29.9467 56.5417 30 56.275 30H47.855ZM63.8589 30.3C63.0322 30.3 62.2789 30.2067 61.5989 30.02C60.9322 29.8467 60.3656 29.6067 59.8989 29.3C59.7789 29.22 59.7189 29.1267 59.7189 29.02C59.7189 28.94 59.7522 28.8467 59.8189 28.74L60.3789 27.78C60.4589 27.66 60.5322 27.6 60.5989 27.6C60.6522 27.6 60.7456 27.6333 60.8789 27.7C61.6789 28.18 62.6256 28.42 63.7189 28.42C64.8522 28.42 65.7256 28.12 66.3389 27.52C66.9522 26.92 67.3322 26 67.4789 24.76C67.0256 25.1867 66.4922 25.4933 65.8789 25.68C65.2789 25.8533 64.5656 25.94 63.7389 25.94C62.6989 25.94 61.7922 25.7533 61.0189 25.38C60.2589 24.9933 59.6722 24.4533 59.2589 23.76C58.8589 23.0667 58.6589 22.2733 58.6589 21.38C58.6589 19.62 59.1522 18.3 60.1389 17.42C61.1256 16.54 62.5322 16.1 64.3589 16.1C66.0122 16.1 67.3322 16.6133 68.3189 17.64C69.3189 18.6533 69.8189 20.22 69.8189 22.34C69.8189 25.1667 69.2589 27.2 68.1389 28.44C67.0322 29.68 65.6056 30.3 63.8589 30.3ZM64.2989 24.3C64.8056 24.3 65.2789 24.1933 65.7189 23.98C66.1722 23.7533 66.5389 23.4267 66.8189 23C67.0989 22.56 67.2389 22.0333 67.2389 21.42C67.2389 20.2867 66.9856 19.4333 66.4789 18.86C65.9722 18.2867 65.2589 18 64.3389 18C63.2856 18 62.4922 18.2667 61.9589 18.8C61.4389 19.3333 61.1789 20.18 61.1789 21.34C61.1789 22.3267 61.4389 23.0667 61.9589 23.56C62.4922 24.0533 63.2722 24.3 64.2989 24.3Z" fill="black"/>
<path d="M7 32H70.5989V33H7V32Z" fill="black"/>
<path d="M8.86 221C8.59333 221 8.40667 220.953 8.3 220.86C8.19333 220.753 8.14 220.58 8.14 220.34V219.76C8.14 219.507 8.19333 219.327 8.3 219.22C8.40667 219.113 8.59333 219.06 8.86 219.06H10.82V210.2L9.1 211.24C8.99333 211.307 8.9 211.34 8.82 211.34C8.7 211.34 8.6 211.273 8.52 211.14L7.88 210.14C7.82667 210.047 7.8 209.96 7.8 209.88C7.8 209.747 7.87333 209.64 8.02 209.56L11.32 207.58C11.4133 207.513 11.5067 207.467 11.6 207.44C11.6933 207.413 11.82 207.4 11.98 207.4H12.64C13.1467 207.4 13.4 207.647 13.4 208.14V219.06H15.36C15.6267 219.06 15.8133 219.113 15.92 219.22C16.0267 219.327 16.08 219.507 16.08 219.76V220.34C16.08 220.58 16.0267 220.753 15.92 220.86C15.8133 220.953 15.6267 221 15.36 221H8.86ZM22.1531 221.3C21.2198 221.3 20.3265 221.2 19.4731 221C18.6198 220.787 17.9331 220.507 17.4131 220.16C17.2931 220.08 17.2331 219.993 17.2331 219.9C17.2331 219.82 17.2665 219.727 17.3331 219.62L17.9131 218.62C17.9798 218.5 18.0531 218.44 18.1331 218.44C18.1998 218.44 18.2931 218.48 18.4131 218.56C18.8398 218.813 19.3665 219.02 19.9931 219.18C20.6331 219.34 21.3265 219.42 22.0731 219.42C23.1931 219.42 24.0465 219.187 24.6331 218.72C25.2198 218.24 25.5131 217.527 25.5131 216.58C25.5131 215.527 25.2598 214.787 24.7531 214.36C24.2598 213.933 23.4665 213.72 22.3731 213.72C21.2798 213.72 20.3531 213.893 19.5931 214.24C19.3131 214.333 19.0798 214.38 18.8931 214.38C18.5465 214.38 18.2531 214.28 18.0131 214.08C17.7865 213.88 17.6798 213.6 17.6931 213.24L18.0331 208.08C18.0465 207.84 18.1065 207.667 18.2131 207.56C18.3198 207.453 18.5065 207.4 18.7731 207.4H26.6931C26.9598 207.4 27.1465 207.453 27.2531 207.56C27.3598 207.667 27.4131 207.847 27.4131 208.1V208.64C27.4131 208.893 27.3598 209.08 27.2531 209.2C27.1465 209.307 26.9598 209.36 26.6931 209.36H20.1931L19.9931 212.32C20.7798 212.067 21.7131 211.94 22.7931 211.94C26.2998 211.94 28.0531 213.487 28.0531 216.58C28.0531 217.54 27.8065 218.38 27.3131 219.1C26.8331 219.807 26.1465 220.353 25.2531 220.74C24.3731 221.113 23.3398 221.3 22.1531 221.3ZM34.5759 221.3C32.4159 221.3 30.8226 220.953 29.7959 220.26C29.6759 220.18 29.6159 220.087 29.6159 219.98C29.6159 219.9 29.6493 219.807 29.7159 219.7L30.2959 218.72C30.3759 218.587 30.4493 218.52 30.5159 218.52C30.5693 218.52 30.6626 218.553 30.7959 218.62C31.2359 218.86 31.7426 219.053 32.3159 219.2C32.9026 219.347 33.5359 219.42 34.2159 219.42C35.3093 219.42 36.1093 219.213 36.6159 218.8C37.1359 218.373 37.3959 217.787 37.3959 217.04C37.3959 215.653 36.5493 214.96 34.8559 214.96H33.1759C32.9093 214.96 32.7159 214.907 32.5959 214.8C32.4893 214.68 32.4359 214.493 32.4359 214.24V213.72C32.4359 213.48 32.4893 213.307 32.5959 213.2C32.7159 213.093 32.9093 213.04 33.1759 213.04H34.8159C35.5359 213.04 36.0759 212.853 36.4359 212.48C36.7959 212.093 36.9759 211.607 36.9759 211.02C36.9759 209.673 36.0293 209 34.1359 209C32.9626 209 31.9293 209.247 31.0359 209.74C30.9026 209.807 30.8093 209.84 30.7559 209.84C30.6893 209.84 30.6159 209.78 30.5359 209.66L29.9759 208.72C29.9093 208.613 29.8759 208.52 29.8759 208.44C29.8759 208.333 29.9359 208.24 30.0559 208.16C30.5226 207.827 31.1426 207.567 31.9159 207.38C32.6893 207.193 33.5493 207.1 34.4959 207.1C35.5226 207.1 36.4093 207.26 37.1559 207.58C37.9159 207.9 38.4959 208.353 38.8959 208.94C39.3093 209.513 39.5159 210.187 39.5159 210.96C39.5159 211.587 39.3626 212.167 39.0559 212.7C38.7626 213.233 38.3359 213.647 37.7759 213.94C38.4959 214.207 39.0293 214.62 39.3759 215.18C39.7359 215.727 39.9159 216.373 39.9159 217.12C39.9159 218.373 39.4493 219.387 38.5159 220.16C37.5959 220.92 36.2826 221.3 34.5759 221.3ZM47.0714 221.3C45.3114 221.3 43.9381 220.94 42.9514 220.22C41.9647 219.5 41.4714 218.487 41.4714 217.18C41.4714 216.42 41.6714 215.753 42.0714 215.18C42.4847 214.593 43.0447 214.173 43.7514 213.92C43.1247 213.64 42.6514 213.26 42.3314 212.78C42.0114 212.3 41.8514 211.74 41.8514 211.1C41.8514 209.82 42.2981 208.833 43.1914 208.14C44.0981 207.447 45.3914 207.1 47.0714 207.1C48.7514 207.1 50.0381 207.447 50.9314 208.14C51.8247 208.833 52.2714 209.82 52.2714 211.1C52.2714 211.74 52.1114 212.3 51.7914 212.78C51.4714 213.26 51.0047 213.64 50.3914 213.92C51.0981 214.173 51.6514 214.593 52.0514 215.18C52.4647 215.753 52.6714 216.42 52.6714 217.18C52.6714 218.487 52.1714 219.5 51.1714 220.22C50.1847 220.94 48.8181 221.3 47.0714 221.3ZM47.0714 213.02C47.9381 213.02 48.5981 212.873 49.0514 212.58C49.5047 212.273 49.7314 211.78 49.7314 211.1C49.7314 210.353 49.5114 209.82 49.0714 209.5C48.6447 209.167 47.9781 209 47.0714 209C46.1647 209 45.4914 209.167 45.0514 209.5C44.6114 209.82 44.3914 210.353 44.3914 211.1C44.3914 211.78 44.6181 212.273 45.0714 212.58C45.5247 212.873 46.1914 213.02 47.0714 213.02ZM47.0714 219.42C49.1114 219.42 50.1314 218.673 50.1314 217.18C50.1314 215.647 49.1114 214.88 47.0714 214.88C45.0181 214.88 43.9914 215.647 43.9914 217.18C43.9914 218.673 45.0181 219.42 47.0714 219.42ZM59.1453 221.3C58.212 221.3 57.3186 221.2 56.4653 221C55.612 220.787 54.9253 220.507 54.4053 220.16C54.2853 220.08 54.2253 219.993 54.2253 219.9C54.2253 219.82 54.2586 219.727 54.3253 219.62L54.9053 218.62C54.972 218.5 55.0453 218.44 55.1253 218.44C55.192 218.44 55.2853 218.48 55.4053 218.56C55.832 218.813 56.3586 219.02 56.9853 219.18C57.6253 219.34 58.3186 219.42 59.0653 219.42C60.1853 219.42 61.0386 219.187 61.6253 218.72C62.212 218.24 62.5053 217.527 62.5053 216.58C62.5053 215.527 62.252 214.787 61.7453 214.36C61.252 213.933 60.4586 213.72 59.3653 213.72C58.272 213.72 57.3453 213.893 56.5853 214.24C56.3053 214.333 56.072 214.38 55.8853 214.38C55.5386 214.38 55.2453 214.28 55.0053 214.08C54.7786 213.88 54.672 213.6 54.6853 213.24L55.0253 208.08C55.0386 207.84 55.0986 207.667 55.2053 207.56C55.312 207.453 55.4986 207.4 55.7653 207.4H63.6853C63.952 207.4 64.1386 207.453 64.2453 207.56C64.352 207.667 64.4053 207.847 64.4053 208.1V208.64C64.4053 208.893 64.352 209.08 64.2453 209.2C64.1386 209.307 63.952 209.36 63.6853 209.36H57.1853L56.9853 212.32C57.772 212.067 58.7053 211.94 59.7853 211.94C63.292 211.94 65.0453 213.487 65.0453 216.58C65.0453 217.54 64.7986 218.38 64.3053 219.1C63.8253 219.807 63.1386 220.353 62.2453 220.74C61.3653 221.113 60.332 221.3 59.1453 221.3Z" fill="black"/>
<path d="M7 223H65.8253V224H7V223Z" fill="black"/>
<path d="M474.046 96C473.606 96 473.386 95.7733 473.386 95.32V94.54C473.386 93.6867 473.713 92.8467 474.366 92.02C475.033 91.1933 476.026 90.4067 477.346 89.66C478.293 89.1267 478.986 88.7067 479.426 88.4C479.866 88.08 480.186 87.7467 480.386 87.4C480.6 87.04 480.706 86.6 480.706 86.08C480.706 85.4 480.466 84.8867 479.986 84.54C479.506 84.18 478.833 84 477.966 84C477.34 84 476.746 84.08 476.186 84.24C475.64 84.3867 475.166 84.5733 474.766 84.8C474.633 84.8667 474.546 84.9 474.506 84.9C474.426 84.9 474.346 84.84 474.266 84.72L473.706 83.74C473.64 83.6333 473.606 83.54 473.606 83.46C473.606 83.3533 473.666 83.26 473.786 83.18C474.253 82.8467 474.886 82.5867 475.686 82.4C476.486 82.2 477.36 82.1 478.306 82.1C479.786 82.1 480.98 82.44 481.886 83.12C482.793 83.7867 483.246 84.7333 483.246 85.96C483.246 86.9867 482.926 87.8533 482.286 88.56C481.66 89.2667 480.666 89.9933 479.306 90.74C478.306 91.26 477.513 91.8067 476.926 92.38C476.34 92.9533 476.026 93.5133 475.986 94.06H482.466C482.733 94.06 482.92 94.12 483.026 94.24C483.133 94.3467 483.186 94.5267 483.186 94.78V95.32C483.186 95.56 483.133 95.7333 483.026 95.84C482.92 95.9467 482.733 96 482.466 96H474.046ZM490.05 96.3C489.224 96.3 488.47 96.2067 487.79 96.02C487.124 95.8467 486.557 95.6067 486.09 95.3C485.97 95.22 485.91 95.1267 485.91 95.02C485.91 94.94 485.944 94.8467 486.01 94.74L486.57 93.78C486.65 93.66 486.724 93.6 486.79 93.6C486.844 93.6 486.937 93.6333 487.07 93.7C487.87 94.18 488.817 94.42 489.91 94.42C491.044 94.42 491.917 94.12 492.53 93.52C493.144 92.92 493.524 92 493.67 90.76C493.217 91.1867 492.684 91.4933 492.07 91.68C491.47 91.8533 490.757 91.94 489.93 91.94C488.89 91.94 487.984 91.7533 487.21 91.38C486.45 90.9933 485.864 90.4533 485.45 89.76C485.05 89.0667 484.85 88.2733 484.85 87.38C484.85 85.62 485.344 84.3 486.33 83.42C487.317 82.54 488.724 82.1 490.55 82.1C492.204 82.1 493.524 82.6133 494.51 83.64C495.51 84.6533 496.01 86.22 496.01 88.34C496.01 91.1667 495.45 93.2 494.33 94.44C493.224 95.68 491.797 96.3 490.05 96.3ZM490.49 90.3C490.997 90.3 491.47 90.1933 491.91 89.98C492.364 89.7533 492.73 89.4267 493.01 89C493.29 88.56 493.43 88.0333 493.43 87.42C493.43 86.2867 493.177 85.4333 492.67 84.86C492.164 84.2867 491.45 84 490.53 84C489.477 84 488.684 84.2667 488.15 84.8C487.63 85.3333 487.37 86.18 487.37 87.34C487.37 88.3267 487.63 89.0667 488.15 89.56C488.684 90.0533 489.464 90.3 490.49 90.3ZM499.265 96C499.078 96 498.985 95.92 498.985 95.76C498.985 95.68 499.012 95.5933 499.065 95.5L504.885 84.36H498.025C497.772 84.36 497.598 84.3067 497.505 84.2C497.412 84.0933 497.365 83.9133 497.365 83.66V83.06C497.365 82.82 497.412 82.6533 497.505 82.56C497.598 82.4533 497.772 82.4 498.025 82.4H507.205C507.525 82.4 507.745 82.4533 507.865 82.56C507.998 82.6667 508.065 82.8533 508.065 83.12C508.065 83.2933 508.018 83.4867 507.925 83.7C507.845 83.9133 507.752 84.1133 507.645 84.3C507.538 84.4867 507.472 84.6133 507.445 84.68L501.705 95.72C501.652 95.8267 501.585 95.9 501.505 95.94C501.438 95.98 501.338 96 501.205 96H499.265ZM511.121 96C510.934 96 510.841 95.92 510.841 95.76C510.841 95.68 510.867 95.5933 510.921 95.5L516.741 84.36H509.881C509.627 84.36 509.454 84.3067 509.361 84.2C509.267 84.0933 509.221 83.9133 509.221 83.66V83.06C509.221 82.82 509.267 82.6533 509.361 82.56C509.454 82.4533 509.627 82.4 509.881 82.4H519.061C519.381 82.4 519.601 82.4533 519.721 82.56C519.854 82.6667 519.921 82.8533 519.921 83.12C519.921 83.2933 519.874 83.4867 519.781 83.7C519.701 83.9133 519.607 84.1133 519.501 84.3C519.394 84.4867 519.327 84.6133 519.301 84.68L513.561 95.72C513.507 95.8267 513.441 95.9 513.361 95.94C513.294 95.98 513.194 96 513.061 96H511.121ZM521.976 96C521.536 96 521.316 95.7733 521.316 95.32V94.54C521.316 93.6867 521.643 92.8467 522.296 92.02C522.963 91.1933 523.956 90.4067 525.276 89.66C526.223 89.1267 526.916 88.7067 527.356 88.4C527.796 88.08 528.116 87.7467 528.316 87.4C528.529 87.04 528.636 86.6 528.636 86.08C528.636 85.4 528.396 84.8867 527.916 84.54C527.436 84.18 526.763 84 525.896 84C525.269 84 524.676 84.08 524.116 84.24C523.569 84.3867 523.096 84.5733 522.696 84.8C522.563 84.8667 522.476 84.9 522.436 84.9C522.356 84.9 522.276 84.84 522.196 84.72L521.636 83.74C521.569 83.6333 521.536 83.54 521.536 83.46C521.536 83.3533 521.596 83.26 521.716 83.18C522.183 82.8467 522.816 82.5867 523.616 82.4C524.416 82.2 525.289 82.1 526.236 82.1C527.716 82.1 528.909 82.44 529.816 83.12C530.723 83.7867 531.176 84.7333 531.176 85.96C531.176 86.9867 530.856 87.8533 530.216 88.56C529.589 89.2667 528.596 89.9933 527.236 90.74C526.236 91.26 525.443 91.8067 524.856 92.38C524.269 92.9533 523.956 93.5133 523.916 94.06H530.396C530.663 94.06 530.849 94.12 530.956 94.24C531.063 94.3467 531.116 94.5267 531.116 94.78V95.32C531.116 95.56 531.063 95.7333 530.956 95.84C530.849 95.9467 530.663 96 530.396 96H521.976Z" fill="black"/>
<path d="M472.566 98H531.996V99H472.566V98Z" fill="black"/>
<path d="M477.551 254C477.285 254 477.098 253.953 476.991 253.86C476.885 253.753 476.831 253.58 476.831 253.34V252.76C476.831 252.507 476.885 252.327 476.991 252.22C477.098 252.113 477.285 252.06 477.551 252.06H479.511V243.2L477.791 244.24C477.685 244.307 477.591 244.34 477.511 244.34C477.391 244.34 477.291 244.273 477.211 244.14L476.571 243.14C476.518 243.047 476.491 242.96 476.491 242.88C476.491 242.747 476.565 242.64 476.711 242.56L480.011 240.58C480.105 240.513 480.198 240.467 480.291 240.44C480.385 240.413 480.511 240.4 480.671 240.4H481.331C481.838 240.4 482.091 240.647 482.091 241.14V252.06H484.051C484.318 252.06 484.505 252.113 484.611 252.22C484.718 252.327 484.771 252.507 484.771 252.76V253.34C484.771 253.58 484.718 253.753 484.611 253.86C484.505 253.953 484.318 254 484.051 254H477.551ZM490.845 254.3C489.911 254.3 489.018 254.2 488.165 254C487.311 253.787 486.625 253.507 486.105 253.16C485.985 253.08 485.925 252.993 485.925 252.9C485.925 252.82 485.958 252.727 486.025 252.62L486.605 251.62C486.671 251.5 486.745 251.44 486.825 251.44C486.891 251.44 486.985 251.48 487.105 251.56C487.531 251.813 488.058 252.02 488.685 252.18C489.325 252.34 490.018 252.42 490.765 252.42C491.885 252.42 492.738 252.187 493.325 251.72C493.911 251.24 494.205 250.527 494.205 249.58C494.205 248.527 493.951 247.787 493.445 247.36C492.951 246.933 492.158 246.72 491.065 246.72C489.971 246.72 489.045 246.893 488.285 247.24C488.005 247.333 487.771 247.38 487.585 247.38C487.238 247.38 486.945 247.28 486.705 247.08C486.478 246.88 486.371 246.6 486.385 246.24L486.725 241.08C486.738 240.84 486.798 240.667 486.905 240.56C487.011 240.453 487.198 240.4 487.465 240.4H495.385C495.651 240.4 495.838 240.453 495.945 240.56C496.051 240.667 496.105 240.847 496.105 241.1V241.64C496.105 241.893 496.051 242.08 495.945 242.2C495.838 242.307 495.651 242.36 495.385 242.36H488.885L488.685 245.32C489.471 245.067 490.405 244.94 491.485 244.94C494.991 244.94 496.745 246.487 496.745 249.58C496.745 250.54 496.498 251.38 496.005 252.1C495.525 252.807 494.838 253.353 493.945 253.74C493.065 254.113 492.031 254.3 490.845 254.3ZM499.387 254C499.121 254 498.934 253.953 498.827 253.86C498.721 253.753 498.667 253.58 498.667 253.34V252.76C498.667 252.507 498.721 252.327 498.827 252.22C498.934 252.113 499.121 252.06 499.387 252.06H501.347V243.2L499.627 244.24C499.521 244.307 499.427 244.34 499.347 244.34C499.227 244.34 499.127 244.273 499.047 244.14L498.407 243.14C498.354 243.047 498.327 242.96 498.327 242.88C498.327 242.747 498.401 242.64 498.547 242.56L501.847 240.58C501.941 240.513 502.034 240.467 502.127 240.44C502.221 240.413 502.347 240.4 502.507 240.4H503.167C503.674 240.4 503.927 240.647 503.927 241.14V252.06H505.887C506.154 252.06 506.341 252.113 506.447 252.22C506.554 252.327 506.607 252.507 506.607 252.76V253.34C506.607 253.58 506.554 253.753 506.447 253.86C506.341 253.953 506.154 254 505.887 254H499.387ZM514.96 254C514.694 254 514.5 253.947 514.38 253.84C514.274 253.733 514.22 253.56 514.22 253.32V251.04H507.88C507.534 251.04 507.36 250.88 507.36 250.56V249.74C507.36 249.553 507.38 249.413 507.42 249.32C507.46 249.213 507.534 249.087 507.64 248.94L514.38 240.78C514.5 240.633 514.607 240.533 514.7 240.48C514.794 240.427 514.94 240.4 515.14 240.4H516.02C516.287 240.4 516.48 240.46 516.6 240.58C516.72 240.7 516.78 240.887 516.78 241.14V249.1H518.18C518.447 249.1 518.634 249.16 518.74 249.28C518.847 249.387 518.9 249.567 518.9 249.82V250.36C518.9 250.6 518.847 250.773 518.74 250.88C518.634 250.987 518.447 251.04 518.18 251.04H516.78V253.32C516.78 253.56 516.72 253.733 516.6 253.84C516.494 253.947 516.3 254 516.02 254H514.96ZM514.64 249.1V243.42L510.04 249.1H514.64ZM525.265 254.3C524.438 254.3 523.685 254.207 523.005 254.02C522.338 253.847 521.772 253.607 521.305 253.3C521.185 253.22 521.125 253.127 521.125 253.02C521.125 252.94 521.158 252.847 521.225 252.74L521.785 251.78C521.865 251.66 521.938 251.6 522.005 251.6C522.058 251.6 522.152 251.633 522.285 251.7C523.085 252.18 524.032 252.42 525.125 252.42C526.258 252.42 527.132 252.12 527.745 251.52C528.358 250.92 528.738 250 528.885 248.76C528.432 249.187 527.898 249.493 527.285 249.68C526.685 249.853 525.972 249.94 525.145 249.94C524.105 249.94 523.198 249.753 522.425 249.38C521.665 248.993 521.078 248.453 520.665 247.76C520.265 247.067 520.065 246.273 520.065 245.38C520.065 243.62 520.558 242.3 521.545 241.42C522.532 240.54 523.938 240.1 525.765 240.1C527.418 240.1 528.738 240.613 529.725 241.64C530.725 242.653 531.225 244.22 531.225 246.34C531.225 249.167 530.665 251.2 529.545 252.44C528.438 253.68 527.012 254.3 525.265 254.3ZM525.705 248.3C526.212 248.3 526.685 248.193 527.125 247.98C527.578 247.753 527.945 247.427 528.225 247C528.505 246.56 528.645 246.033 528.645 245.42C528.645 244.287 528.392 243.433 527.885 242.86C527.378 242.287 526.665 242 525.745 242C524.692 242 523.898 242.267 523.365 242.8C522.845 243.333 522.585 244.18 522.585 245.34C522.585 246.327 522.845 247.067 523.365 247.56C523.898 248.053 524.678 248.3 525.705 248.3Z" fill="black"/>
<path d="M475.691 256H532.005V257H475.691V256Z" fill="black"/>
<path d="M489.96 299.24C488.69 299.24 487.725 298.968 487.064 298.424C486.413 297.869 486.088 297.117 486.088 296.168V291.08C486.088 290.76 486.248 290.6 486.568 290.6H487.064C487.234 290.6 487.357 290.643 487.432 290.728C487.506 290.803 487.544 290.92 487.544 291.08V296.312C487.544 296.909 487.752 297.363 488.168 297.672C488.584 297.971 489.181 298.12 489.96 298.12C490.738 298.12 491.336 297.971 491.752 297.672C492.168 297.363 492.376 296.909 492.376 296.312V288.28C492.376 288.12 492.413 288.003 492.488 287.928C492.562 287.843 492.685 287.8 492.856 287.8H493.336C493.666 287.8 493.832 287.96 493.832 288.28V296.168C493.832 297.117 493.501 297.869 492.84 298.424C492.189 298.968 491.229 299.24 489.96 299.24ZM486.245 288.968C486.075 288.968 485.957 288.936 485.893 288.872C485.819 288.808 485.781 288.691 485.781 288.52V288.28C485.781 288.12 485.819 288.003 485.893 287.928C485.957 287.853 486.075 287.816 486.245 287.816H489.765V286.328C489.765 286.104 489.877 285.992 490.101 285.992H490.709C490.933 285.992 491.045 286.104 491.045 286.328V288.184C491.045 288.483 490.992 288.691 490.885 288.808C490.779 288.915 490.571 288.968 490.261 288.968H486.245ZM502.841 299C502.542 299 502.393 298.845 502.393 298.536V298.024C502.393 297.331 502.67 296.637 503.225 295.944C503.79 295.24 504.601 294.611 505.657 294.056C506.446 293.64 507.038 293.293 507.433 293.016C507.838 292.728 508.132 292.424 508.313 292.104C508.505 291.784 508.601 291.389 508.601 290.92C508.601 290.28 508.377 289.8 507.929 289.48C507.481 289.16 506.868 289 506.089 289C505.556 289 505.049 289.064 504.569 289.192C504.089 289.32 503.689 289.485 503.369 289.688C503.316 289.731 503.262 289.752 503.209 289.752C503.145 289.752 503.092 289.709 503.049 289.624L502.713 289.032C502.681 288.968 502.665 288.915 502.665 288.872C502.665 288.797 502.708 288.733 502.793 288.68C503.145 288.435 503.625 288.243 504.233 288.104C504.841 287.955 505.502 287.88 506.217 287.88C507.348 287.88 508.265 288.147 508.969 288.68C509.684 289.213 510.041 289.96 510.041 290.92C510.041 291.763 509.774 292.472 509.241 293.048C508.708 293.613 507.881 294.179 506.761 294.744C505.833 295.224 505.118 295.725 504.617 296.248C504.116 296.76 503.865 297.288 503.865 297.832H509.481C509.652 297.832 509.769 297.869 509.833 297.944C509.908 298.008 509.945 298.125 509.945 298.296V298.568C509.945 298.728 509.908 298.84 509.833 298.904C509.769 298.968 509.652 299 509.481 299H502.841ZM515.293 299.24C514.578 299.24 513.89 299.16 513.229 299C512.578 298.851 512.071 298.653 511.709 298.408C511.623 298.355 511.581 298.291 511.581 298.216C511.581 298.173 511.597 298.12 511.629 298.056L511.981 297.464C512.023 297.389 512.071 297.352 512.125 297.352C512.178 297.352 512.231 297.373 512.285 297.416C512.615 297.619 513.042 297.789 513.565 297.928C514.098 298.056 514.674 298.12 515.293 298.12C516.317 298.12 517.09 297.907 517.613 297.48C518.135 297.043 518.397 296.392 518.397 295.528C518.397 294.557 518.173 293.88 517.725 293.496C517.277 293.101 516.535 292.904 515.501 292.904C514.551 292.904 513.746 293.064 513.085 293.384C512.946 293.437 512.813 293.464 512.685 293.464C512.461 293.464 512.274 293.4 512.125 293.272C511.986 293.133 511.922 292.952 511.933 292.728L512.205 288.568C512.215 288.419 512.253 288.307 512.317 288.232C512.391 288.157 512.514 288.12 512.685 288.12H518.861C519.031 288.12 519.154 288.152 519.229 288.216C519.303 288.28 519.341 288.392 519.341 288.552V288.824C519.341 288.995 519.303 289.117 519.229 289.192C519.154 289.256 519.031 289.288 518.861 289.288H513.485L513.293 292.2C513.975 291.955 514.797 291.832 515.757 291.832C518.477 291.832 519.837 293.064 519.837 295.528C519.837 296.275 519.65 296.931 519.277 297.496C518.914 298.051 518.391 298.483 517.709 298.792C517.026 299.091 516.221 299.24 515.293 299.24ZM525.65 299.24C524.37 299.24 523.33 298.851 522.53 298.072C521.74 297.293 521.346 296.04 521.346 294.312C521.346 292.733 521.57 291.469 522.018 290.52C522.466 289.56 523.042 288.883 523.746 288.488C524.45 288.083 525.228 287.88 526.082 287.88C527.298 287.88 528.274 288.136 529.01 288.648C529.095 288.701 529.138 288.765 529.138 288.84C529.138 288.883 529.122 288.936 529.09 289L528.77 289.544C528.727 289.64 528.674 289.688 528.61 289.688C528.578 289.688 528.524 289.661 528.45 289.608C528.14 289.395 527.799 289.24 527.426 289.144C527.063 289.048 526.615 289 526.082 289C525.132 289 524.386 289.304 523.842 289.912C523.308 290.509 522.956 291.411 522.786 292.616C523.148 292.2 523.596 291.896 524.13 291.704C524.663 291.501 525.303 291.4 526.05 291.4C526.818 291.4 527.506 291.555 528.114 291.864C528.722 292.163 529.196 292.595 529.538 293.16C529.89 293.715 530.066 294.36 530.066 295.096C530.066 296.451 529.676 297.48 528.898 298.184C528.119 298.888 527.036 299.24 525.65 299.24ZM525.65 298.12C527.644 298.12 528.642 297.112 528.642 295.096C528.642 294.264 528.37 293.613 527.826 293.144C527.292 292.675 526.594 292.44 525.73 292.44C525.26 292.44 524.802 292.536 524.354 292.728C523.906 292.92 523.532 293.219 523.234 293.624C522.946 294.029 522.802 294.541 522.802 295.16C522.802 296.195 523.063 296.947 523.586 297.416C524.108 297.885 524.796 298.12 525.65 298.12ZM532.029 299C531.73 299 531.581 298.845 531.581 298.536V298.024C531.581 297.331 531.858 296.637 532.413 295.944C532.978 295.24 533.789 294.611 534.845 294.056C535.634 293.64 536.226 293.293 536.621 293.016C537.026 292.728 537.319 292.424 537.501 292.104C537.693 291.784 537.789 291.389 537.789 290.92C537.789 290.28 537.565 289.8 537.117 289.48C536.669 289.16 536.055 289 535.277 289C534.743 289 534.237 289.064 533.757 289.192C533.277 289.32 532.877 289.485 532.557 289.688C532.503 289.731 532.45 289.752 532.397 289.752C532.333 289.752 532.279 289.709 532.237 289.624L531.901 289.032C531.869 288.968 531.853 288.915 531.853 288.872C531.853 288.797 531.895 288.733 531.981 288.68C532.333 288.435 532.813 288.243 533.421 288.104C534.029 287.955 534.69 287.88 535.405 287.88C536.535 287.88 537.453 288.147 538.157 288.68C538.871 289.213 539.229 289.96 539.229 290.92C539.229 291.763 538.962 292.472 538.429 293.048C537.895 293.613 537.069 294.179 535.949 294.744C535.021 295.224 534.306 295.725 533.805 296.248C533.303 296.76 533.053 297.288 533.053 297.832H538.669C538.839 297.832 538.957 297.869 539.021 297.944C539.095 298.008 539.133 298.125 539.133 298.296V298.568C539.133 298.728 539.095 298.84 539.021 298.904C538.957 298.968 538.839 299 538.669 299H532.029Z" fill="black"/>
<path d="M112.415 116.6C109.562 116.6 107.442 116.027 106.055 114.88C104.695 113.707 104.015 112.293 104.015 110.64V109.76H102.895C102.335 109.76 101.948 109.653 101.735 109.44C101.548 109.227 101.455 108.853 101.455 108.32V105.48C101.455 104.973 101.562 104.613 101.775 104.4C101.988 104.16 102.362 104.04 102.895 104.04H108.455C109.228 104.04 109.775 104.2 110.095 104.52C110.415 104.84 110.575 105.347 110.575 106.04V109.12C110.575 109.707 110.722 110.147 111.015 110.44C111.335 110.707 111.802 110.84 112.415 110.84C113.268 110.84 113.882 110.453 114.255 109.68C114.628 108.88 114.815 107.533 114.815 105.64C114.815 103.667 114.415 102.267 113.615 101.44C112.815 100.587 111.495 100.16 109.655 100.16C108.642 100.16 107.735 100.267 106.935 100.48C106.162 100.693 105.388 100.987 104.615 101.36C104.242 101.547 103.962 101.64 103.775 101.64C103.535 101.64 103.308 101.467 103.095 101.12L101.415 98.2C101.228 97.8267 101.135 97.5467 101.135 97.36C101.135 97.0933 101.295 96.84 101.615 96.6C102.682 95.88 104.068 95.3333 105.775 94.96C107.482 94.5867 109.362 94.4 111.415 94.4C115.468 94.4 118.388 95.3733 120.175 97.32C121.988 99.2667 122.895 102.04 122.895 105.64C122.895 109.293 121.975 112.04 120.135 113.88C118.322 115.693 115.748 116.6 112.415 116.6ZM118.009 92.96C116.382 92.96 115.089 92.4933 114.129 91.56C113.142 90.6 112.649 89.3467 112.649 87.8C112.649 86.2533 113.142 85 114.129 84.04C115.115 83.08 116.409 82.6 118.009 82.6C119.635 82.6 120.955 83.08 121.969 84.04C122.955 85 123.449 86.2533 123.449 87.8C123.449 89.3467 122.955 90.6 121.969 91.56C120.955 92.4933 119.635 92.96 118.009 92.96ZM118.009 89.36C118.462 89.36 118.849 89.2133 119.169 88.92C119.462 88.6267 119.609 88.2533 119.609 87.8C119.609 87.3467 119.462 86.9733 119.169 86.68C118.849 86.3867 118.462 86.24 118.009 86.24C117.555 86.24 117.169 86.3867 116.849 86.68C116.529 86.9733 116.369 87.3467 116.369 87.8C116.369 88.2533 116.529 88.6267 116.849 88.92C117.169 89.2133 117.555 89.36 118.009 89.36ZM133.929 116C132.702 116 132.089 115.413 132.089 114.24V103.16C132.089 102.067 131.875 101.293 131.449 100.84C131.022 100.387 130.329 100.16 129.369 100.16C128.355 100.16 127.422 100.373 126.569 100.8C126.302 100.96 126.062 101.04 125.849 101.04C125.582 101.04 125.409 100.88 125.329 100.56L124.329 96.76L124.249 96.2C124.249 96.0667 124.275 95.96 124.329 95.88C124.409 95.8 124.529 95.72 124.689 95.64C126.475 94.8133 128.582 94.4 131.009 94.4C134.129 94.4 136.435 95.0667 137.929 96.4C139.449 97.7333 140.209 99.7867 140.209 102.56V114.24C140.209 115.413 139.595 116 138.369 116H133.929ZM151.574 116.6C149.174 116.6 147.254 115.973 145.814 114.72C144.374 113.467 143.654 111.6 143.654 109.12V97.04C143.654 96.3467 143.814 95.84 144.134 95.52C144.454 95.1733 144.987 95 145.734 95H149.614C150.387 95 150.934 95.1733 151.254 95.52C151.574 95.84 151.734 96.3467 151.734 97.04V108.8C151.734 110.347 152.574 111.12 154.254 111.12C155.107 111.12 155.814 110.893 156.374 110.44C156.934 109.987 157.214 109.413 157.214 108.72V97.04C157.214 96.3467 157.374 95.84 157.694 95.52C158.014 95.1733 158.56 95 159.334 95H163.214C163.987 95 164.534 95.1733 164.854 95.52C165.174 95.84 165.334 96.3467 165.334 97.04V114.24C165.334 115.413 164.734 116 163.534 116H159.934C159.214 116 158.814 115.707 158.734 115.12L158.574 113.92C157.8 114.773 156.867 115.44 155.774 115.92C154.68 116.373 153.28 116.6 151.574 116.6ZM176.771 116.6C174.797 116.6 173.131 116.427 171.771 116.08C170.437 115.733 169.197 115.187 168.051 114.44C167.731 114.253 167.571 114 167.571 113.68C167.571 113.413 167.664 113.133 167.851 112.84L169.531 109.96C169.771 109.56 170.011 109.36 170.251 109.36C170.411 109.36 170.664 109.467 171.011 109.68C171.704 110.107 172.411 110.413 173.131 110.6C173.851 110.787 174.664 110.88 175.571 110.88C177.224 110.88 178.477 110.48 179.331 109.68C180.184 108.88 180.611 107.507 180.611 105.56C180.611 103.613 180.197 102.227 179.371 101.4C178.571 100.573 177.357 100.16 175.731 100.16C174.051 100.16 172.531 100.56 171.171 101.36C170.824 101.573 170.557 101.68 170.371 101.68C170.077 101.68 169.837 101.493 169.651 101.12L168.011 98.2C167.824 97.8267 167.731 97.5467 167.731 97.36C167.731 97.0933 167.891 96.84 168.211 96.6C169.331 95.88 170.571 95.3333 171.931 94.96C173.317 94.5867 174.971 94.4 176.891 94.4C180.757 94.4 183.691 95.3467 185.691 97.24C187.691 99.1067 188.691 101.88 188.691 105.56C188.691 109.213 187.664 111.973 185.611 113.84C183.584 115.68 180.637 116.6 176.771 116.6ZM199.269 116.6C196.869 116.6 194.949 115.973 193.509 114.72C192.069 113.467 191.349 111.6 191.349 109.12V97.04C191.349 96.3467 191.509 95.84 191.829 95.52C192.149 95.1733 192.682 95 193.429 95H197.309C198.082 95 198.629 95.1733 198.949 95.52C199.269 95.84 199.429 96.3467 199.429 97.04V108.8C199.429 110.347 200.269 111.12 201.949 111.12C202.802 111.12 203.509 110.893 204.069 110.44C204.629 109.987 204.909 109.413 204.909 108.72V97.04C204.909 96.3467 205.069 95.84 205.389 95.52C205.709 95.1733 206.256 95 207.029 95H210.909C211.682 95 212.229 95.1733 212.549 95.52C212.869 95.84 213.029 96.3467 213.029 97.04V114.24C213.029 115.413 212.429 116 211.229 116H207.629C206.909 116 206.509 115.707 206.429 115.12L206.269 113.92C205.496 114.773 204.562 115.44 203.469 115.92C202.376 116.373 200.976 116.6 199.269 116.6ZM220.306 116C218.679 116 217.866 115.16 217.866 113.48V97.76C217.866 96.9867 217.799 96.36 217.666 95.88C217.533 95.4 217.346 95 217.106 94.68C216.893 94.36 216.533 93.9467 216.026 93.44C215.786 93.2533 215.546 93.0133 215.306 92.72L214.506 91.84C214.266 91.5733 214.106 91.32 214.026 91.08C213.919 90.8133 213.866 90.4667 213.866 90.04V88.32C213.866 87.7067 214.013 87.28 214.306 87.04C214.599 86.7733 215.079 86.64 215.746 86.64H227.986C228.546 86.64 228.933 86.76 229.146 87C229.359 87.2133 229.466 87.5867 229.466 88.12V91.04C229.466 91.5733 229.359 91.9467 229.146 92.16C228.933 92.3733 228.546 92.48 227.986 92.48H223.466C224.506 93.3067 225.186 94.1067 225.506 94.88C225.826 95.6533 225.986 96.72 225.986 98.08V109.4C225.986 109.693 226.039 109.893 226.146 110C226.253 110.107 226.413 110.16 226.626 110.16H227.386C227.839 110.16 228.133 110.24 228.266 110.4C228.399 110.56 228.466 110.893 228.466 111.4V114.56C228.466 115.04 228.386 115.387 228.226 115.6C228.093 115.787 227.853 115.907 227.506 115.96C227.186 115.987 226.626 116 225.826 116H220.306ZM240.746 116.6C236.906 116.6 233.813 115.947 231.466 114.64C231.173 114.48 230.959 114.333 230.826 114.2C230.719 114.067 230.666 113.907 230.666 113.72C230.666 113.613 230.733 113.427 230.866 113.16L232.546 110.08C232.706 109.787 232.893 109.64 233.106 109.64C233.293 109.64 233.533 109.72 233.826 109.88C234.546 110.253 235.506 110.6 236.706 110.92C237.933 111.24 239.026 111.4 239.986 111.4C240.813 111.4 241.399 111.293 241.746 111.08C242.119 110.867 242.306 110.547 242.306 110.12C242.306 109.613 242.053 109.213 241.546 108.92C241.039 108.6 240.066 108.173 238.626 107.64L237.546 107.24C235.386 106.413 233.813 105.533 232.826 104.6C231.866 103.667 231.386 102.427 231.386 100.88C231.386 98.88 232.239 97.3067 233.946 96.16C235.679 94.9867 237.986 94.4 240.866 94.4C242.653 94.4 244.186 94.5467 245.466 94.84C246.746 95.1333 247.973 95.5867 249.146 96.2C249.679 96.4667 249.946 96.7733 249.946 97.12C249.946 97.28 249.853 97.52 249.666 97.84L248.066 100.44C247.853 100.76 247.666 100.92 247.506 100.92C247.373 100.92 247.146 100.84 246.826 100.68C246.186 100.36 245.426 100.107 244.546 99.92C243.693 99.7067 242.866 99.6 242.066 99.6C241.079 99.6 240.346 99.6933 239.866 99.88C239.413 100.04 239.186 100.333 239.186 100.76C239.186 101.293 239.506 101.747 240.146 102.12C240.813 102.467 242.053 102.973 243.866 103.64C243.973 103.667 244.386 103.813 245.106 104.08C247.079 104.827 248.453 105.653 249.226 106.56C250.026 107.44 250.426 108.627 250.426 110.12C250.426 112.04 249.599 113.6 247.946 114.8C246.293 116 243.893 116.6 240.746 116.6ZM263.948 116.6C261.281 116.6 259.228 116.093 257.788 115.08C256.374 114.067 255.334 112.533 254.668 110.48L252.508 103.64C252.374 103.24 252.308 102.947 252.308 102.76C252.308 102.387 252.588 102.107 253.148 101.92L257.948 100.28C258.294 100.147 258.574 100.08 258.788 100.08C259.241 100.08 259.561 100.427 259.748 101.12L262.188 108.84C262.428 109.587 262.708 110.107 263.028 110.4C263.348 110.693 263.854 110.84 264.548 110.84C265.454 110.84 266.108 110.4 266.508 109.52C266.908 108.613 267.108 107.187 267.108 105.24C267.108 103.453 266.908 102.16 266.508 101.36C266.134 100.56 265.508 100.16 264.628 100.16C264.281 100.16 263.734 100.293 262.988 100.56C262.881 100.613 262.721 100.64 262.508 100.64C262.214 100.64 261.988 100.44 261.828 100.04L260.588 96.8C260.508 96.5867 260.468 96.4133 260.468 96.28C260.468 96.0133 260.628 95.8133 260.948 95.68C261.828 95.2267 262.681 94.9067 263.508 94.72C264.361 94.5067 265.348 94.4 266.468 94.4C269.214 94.4 271.334 95.36 272.828 97.28C274.348 99.2 275.108 101.853 275.108 105.24C275.108 108.92 274.134 111.733 272.188 113.68C270.241 115.627 267.494 116.6 263.948 116.6ZM280.195 116C278.568 116 277.755 115.16 277.755 113.48V97.04C277.755 96.32 277.915 95.8 278.235 95.48C278.582 95.16 279.168 95 279.995 95H283.635C284.462 95 285.035 95.16 285.355 95.48C285.702 95.8 285.875 96.32 285.875 97.04V109.4C285.875 109.72 285.915 109.933 285.995 110.04C286.075 110.12 286.222 110.16 286.435 110.16H287.275C287.728 110.16 288.022 110.24 288.155 110.4C288.288 110.56 288.355 110.893 288.355 111.4V114.56C288.355 115.04 288.275 115.387 288.115 115.6C287.982 115.787 287.742 115.907 287.395 115.96C287.075 115.987 286.515 116 285.715 116H280.195ZM300.238 116.6C296.398 116.6 293.305 115.947 290.958 114.64C290.665 114.48 290.452 114.333 290.318 114.2C290.212 114.067 290.158 113.907 290.158 113.72C290.158 113.613 290.225 113.427 290.358 113.16L292.038 110.08C292.198 109.787 292.385 109.64 292.598 109.64C292.785 109.64 293.025 109.72 293.318 109.88C294.038 110.253 294.998 110.6 296.198 110.92C297.425 111.24 298.518 111.4 299.478 111.4C300.305 111.4 300.892 111.293 301.238 111.08C301.612 110.867 301.798 110.547 301.798 110.12C301.798 109.613 301.545 109.213 301.038 108.92C300.532 108.6 299.558 108.173 298.118 107.64L297.038 107.24C294.878 106.413 293.305 105.533 292.318 104.6C291.358 103.667 290.878 102.427 290.878 100.88C290.878 98.88 291.732 97.3067 293.438 96.16C295.172 94.9867 297.478 94.4 300.358 94.4C302.145 94.4 303.678 94.5467 304.958 94.84C306.238 95.1333 307.465 95.5867 308.638 96.2C309.172 96.4667 309.438 96.7733 309.438 97.12C309.438 97.28 309.345 97.52 309.158 97.84L307.558 100.44C307.345 100.76 307.158 100.92 306.998 100.92C306.865 100.92 306.638 100.84 306.318 100.68C305.678 100.36 304.918 100.107 304.038 99.92C303.185 99.7067 302.358 99.6 301.558 99.6C300.572 99.6 299.838 99.6933 299.358 99.88C298.905 100.04 298.678 100.333 298.678 100.76C298.678 101.293 298.998 101.747 299.638 102.12C300.305 102.467 301.545 102.973 303.358 103.64C303.465 103.667 303.878 103.813 304.598 104.08C306.572 104.827 307.945 105.653 308.718 106.56C309.518 107.44 309.918 108.627 309.918 110.12C309.918 112.04 309.092 113.6 307.438 114.8C305.785 116 303.385 116.6 300.238 116.6ZM292.52 92.56C291.72 92.56 291.2 92.44 290.96 92.2C290.72 91.9333 290.6 91.3867 290.6 90.56V89.04C290.6 88.2133 290.72 87.68 290.96 87.44C291.2 87.1733 291.72 87.04 292.52 87.04H302.8V85.4C302.8 84.68 302.96 84.1867 303.28 83.92C303.573 83.6533 304.053 83.52 304.72 83.52H307.2C307.867 83.52 308.36 83.6533 308.68 83.92C308.973 84.1867 309.12 84.68 309.12 85.4V90.36C309.12 91.16 308.973 91.7333 308.68 92.08C308.387 92.4 307.813 92.56 306.96 92.56H292.52ZM322.76 116.6C319.4 116.6 316.72 116.013 314.72 114.84C312.747 113.64 311.76 111.88 311.76 109.56C311.76 107.213 312.613 105.64 314.32 104.84C313.493 104.307 312.88 103.68 312.48 102.96C312.107 102.213 311.92 101.307 311.92 100.24C311.92 98.5067 312.533 97.1067 313.76 96.04C315.013 94.9467 316.613 94.4 318.56 94.4C320.613 94.4 322.333 94.7867 323.72 95.56C324.04 95.7467 324.2 95.9733 324.2 96.24C324.2 96.3733 324.16 96.5467 324.08 96.76L323.12 99.28C322.987 99.5733 322.827 99.72 322.64 99.72C322.533 99.72 322.4 99.68 322.24 99.6C322.08 99.52 321.907 99.4533 321.72 99.4C321.56 99.32 321.36 99.28 321.12 99.28C320.667 99.28 320.307 99.44 320.04 99.76C319.8 100.08 319.68 100.493 319.68 101C319.68 101.613 319.827 102.067 320.12 102.36C320.44 102.627 320.933 102.76 321.6 102.76H322.4C322.987 102.76 323.28 103.053 323.28 103.64V106.24C323.28 106.853 322.973 107.16 322.36 107.16H321.64C320.973 107.16 320.48 107.307 320.16 107.6C319.84 107.893 319.68 108.36 319.68 109C319.68 110.227 320.707 110.84 322.76 110.84C323.933 110.84 324.773 110.573 325.28 110.04C325.813 109.507 326.08 108.627 326.08 107.4V97.04C326.08 96.3467 326.24 95.84 326.56 95.52C326.88 95.1733 327.413 95 328.16 95H332.04C332.813 95 333.36 95.1733 333.68 95.52C334.027 95.84 334.2 96.3467 334.2 97.04V106.96C334.2 109.893 333.307 112.24 331.52 114C329.733 115.733 326.813 116.6 322.76 116.6ZM345.558 116.6C343.158 116.6 341.238 115.973 339.798 114.72C338.358 113.467 337.638 111.6 337.638 109.12V97.04C337.638 96.3467 337.798 95.84 338.118 95.52C338.438 95.1733 338.971 95 339.718 95H343.598C344.371 95 344.918 95.1733 345.238 95.52C345.558 95.84 345.718 96.3467 345.718 97.04V108.8C345.718 110.347 346.558 111.12 348.238 111.12C349.091 111.12 349.798 110.893 350.358 110.44C350.918 109.987 351.198 109.413 351.198 108.72V97.04C351.198 96.3467 351.358 95.84 351.678 95.52C351.998 95.1733 352.545 95 353.318 95H357.198C357.971 95 358.518 95.1733 358.838 95.52C359.158 95.84 359.318 96.3467 359.318 97.04V114.24C359.318 115.413 358.718 116 357.518 116H353.918C353.198 116 352.798 115.707 352.718 115.12L352.558 113.92C351.785 114.773 350.851 115.44 349.758 115.92C348.665 116.373 347.265 116.6 345.558 116.6ZM367.275 116C365.648 116 364.835 115.16 364.835 113.48V102.4C364.835 101.333 365.075 100.4 365.555 99.6C366.035 98.7733 366.742 97.84 367.675 96.8C368.422 95.9467 368.968 95.24 369.315 94.68C369.688 94.12 369.875 93.5067 369.875 92.84C369.875 91.8533 369.328 91.36 368.235 91.36C367.568 91.36 367.115 91.5867 366.875 92.04C366.635 92.4667 366.515 93.1467 366.515 94.08C366.515 94.4 366.462 94.6133 366.355 94.72C366.248 94.8 366.008 94.84 365.635 94.84H360.595C360.168 94.84 359.955 94.5867 359.955 94.08C359.955 91.6 360.688 89.64 362.155 88.2C363.622 86.7333 365.835 86 368.795 86C374.608 86 377.515 88.1467 377.515 92.44C377.515 93.56 377.302 94.5467 376.875 95.4C376.475 96.2267 375.875 97.1733 375.075 98.24C374.355 99.2 373.822 100.013 373.475 100.68C373.128 101.347 372.955 102.107 372.955 102.96V109.4C372.955 109.693 373.008 109.893 373.115 110C373.222 110.107 373.382 110.16 373.595 110.16H374.355C374.808 110.16 375.102 110.24 375.235 110.4C375.368 110.56 375.435 110.893 375.435 111.4V114.56C375.435 115.04 375.355 115.387 375.195 115.6C375.062 115.787 374.822 115.907 374.475 115.96C374.155 115.987 373.595 116 372.795 116H367.275ZM380.499 116C379.726 116 379.179 115.84 378.859 115.52C378.566 115.2 378.419 114.693 378.419 114V97.04C378.419 96.3467 378.579 95.84 378.899 95.52C379.219 95.1733 379.753 95 380.499 95H384.339C385.113 95 385.659 95.1733 385.979 95.52C386.326 95.84 386.499 96.3467 386.499 97.04V101.04H389.339C390.086 101.04 390.593 100.867 390.859 100.52C391.126 100.147 391.259 99.5867 391.259 98.84V97.04C391.259 96.3467 391.419 95.84 391.739 95.52C392.059 95.1733 392.606 95 393.379 95H397.259C398.033 95 398.579 95.1733 398.899 95.52C399.219 95.84 399.379 96.3467 399.379 97.04V99.04C399.379 101.387 398.513 102.947 396.779 103.72C398.513 104.493 399.379 106.053 399.379 108.4V114C399.379 114.693 399.219 115.2 398.899 115.52C398.579 115.84 398.033 116 397.259 116H393.379C392.606 116 392.059 115.84 391.739 115.52C391.419 115.2 391.259 114.693 391.259 114V109C391.259 108.28 391.126 107.747 390.859 107.4C390.593 107.053 390.113 106.88 389.419 106.88H386.499V114C386.499 114.693 386.326 115.2 385.979 115.52C385.659 115.84 385.113 116 384.339 116H380.499ZM426.713 121.4C423.54 121.4 420.847 120.747 418.633 119.44C418.287 119.253 418.113 119.013 418.113 118.72C418.113 118.507 418.18 118.293 418.313 118.08L419.953 115C420.193 114.6 420.433 114.4 420.673 114.4C420.833 114.4 421.047 114.467 421.313 114.6C422.06 114.947 422.9 115.227 423.833 115.44C424.793 115.653 425.687 115.76 426.513 115.76C427.74 115.76 428.687 115.56 429.353 115.16C430.02 114.733 430.447 114.067 430.633 113.16C429.673 113.507 428.54 113.68 427.233 113.68C423.687 113.68 421.033 113 419.273 111.64C417.54 110.253 416.673 108.147 416.673 105.32V103.36C416.673 102.267 416.447 101.467 415.993 100.96C415.567 100.453 414.833 100.2 413.793 100.2C412.327 100.2 411.193 100.493 410.393 101.08L410.833 101.84C411.02 102.187 411.153 102.533 411.233 102.88C411.313 103.2 411.353 103.6 411.353 104.08V109.4C411.353 109.72 411.393 109.933 411.473 110.04C411.553 110.12 411.7 110.16 411.913 110.16H412.713C413.167 110.16 413.46 110.24 413.593 110.4C413.727 110.56 413.793 110.893 413.793 111.4V114.56C413.793 115.04 413.713 115.387 413.553 115.6C413.42 115.787 413.18 115.907 412.833 115.96C412.513 115.987 411.953 116 411.153 116H405.673C404.047 116 403.233 115.16 403.233 113.48V103.08L402.393 100.96C402.153 100.373 402.033 99.88 402.033 99.48C402.033 99 402.273 98.56 402.753 98.16C403.98 97.12 405.58 96.24 407.553 95.52C409.527 94.7733 411.62 94.4 413.833 94.4C421.087 94.4 424.713 97.44 424.713 103.52V104.92C424.713 106.013 424.9 106.8 425.273 107.28C425.673 107.733 426.367 107.96 427.353 107.96C428.34 107.96 429.02 107.733 429.393 107.28C429.767 106.8 429.953 106.013 429.953 104.92V97.04C429.953 96.24 430.153 95.7067 430.553 95.44C430.98 95.1467 431.753 95 432.873 95H435.913C436.687 95 437.233 95.1733 437.553 95.52C437.9 95.84 438.073 96.3467 438.073 97.04V109.68C438.073 113.653 437.18 116.6 435.393 118.52C433.607 120.44 430.713 121.4 426.713 121.4ZM432.545 92.56C431.798 92.56 431.278 92.4267 430.985 92.16C430.665 91.8933 430.505 91.3867 430.505 90.64V86.04C430.505 85.2667 430.665 84.7467 430.985 84.48C431.278 84.2133 431.798 84.08 432.545 84.08H435.945C436.692 84.08 437.225 84.2133 437.545 84.48C437.838 84.7467 437.985 85.2667 437.985 86.04V90.64C437.985 91.3867 437.838 91.8933 437.545 92.16C437.225 92.4267 436.692 92.56 435.945 92.56H432.545Z" fill="black"/>
<path d="M100.215 120H439.785V122H100.215V120Z" fill="black"/>
<path d="M119.993 218.6C117.14 218.6 115.02 218.027 113.633 216.88C112.273 215.707 111.593 214.293 111.593 212.64V211.76H110.473C109.913 211.76 109.526 211.653 109.313 211.44C109.126 211.227 109.033 210.853 109.033 210.32V207.48C109.033 206.973 109.14 206.613 109.353 206.4C109.566 206.16 109.94 206.04 110.473 206.04H116.033C116.806 206.04 117.353 206.2 117.673 206.52C117.993 206.84 118.153 207.347 118.153 208.04V211.12C118.153 211.707 118.3 212.147 118.593 212.44C118.913 212.707 119.38 212.84 119.993 212.84C120.846 212.84 121.46 212.453 121.833 211.68C122.206 210.88 122.393 209.533 122.393 207.64C122.393 205.667 121.993 204.267 121.193 203.44C120.393 202.587 119.073 202.16 117.233 202.16C116.22 202.16 115.313 202.267 114.513 202.48C113.74 202.693 112.966 202.987 112.193 203.36C111.82 203.547 111.54 203.64 111.353 203.64C111.113 203.64 110.886 203.467 110.673 203.12L108.993 200.2C108.806 199.827 108.713 199.547 108.713 199.36C108.713 199.093 108.873 198.84 109.193 198.6C110.26 197.88 111.646 197.333 113.353 196.96C115.06 196.587 116.94 196.4 118.993 196.4C123.046 196.4 125.966 197.373 127.753 199.32C129.566 201.267 130.473 204.04 130.473 207.64C130.473 211.293 129.553 214.04 127.713 215.88C125.9 217.693 123.326 218.6 119.993 218.6ZM125.587 194.96C123.96 194.96 122.667 194.493 121.707 193.56C120.72 192.6 120.227 191.347 120.227 189.8C120.227 188.253 120.72 187 121.707 186.04C122.693 185.08 123.987 184.6 125.587 184.6C127.213 184.6 128.533 185.08 129.547 186.04C130.533 187 131.027 188.253 131.027 189.8C131.027 191.347 130.533 192.6 129.547 193.56C128.533 194.493 127.213 194.96 125.587 194.96ZM125.587 191.36C126.04 191.36 126.427 191.213 126.747 190.92C127.04 190.627 127.187 190.253 127.187 189.8C127.187 189.347 127.04 188.973 126.747 188.68C126.427 188.387 126.04 188.24 125.587 188.24C125.133 188.24 124.747 188.387 124.427 188.68C124.107 188.973 123.947 189.347 123.947 189.8C123.947 190.253 124.107 190.627 124.427 190.92C124.747 191.213 125.133 191.36 125.587 191.36ZM141.507 218C140.28 218 139.667 217.413 139.667 216.24V205.16C139.667 204.067 139.453 203.293 139.027 202.84C138.6 202.387 137.907 202.16 136.947 202.16C135.933 202.16 135 202.373 134.147 202.8C133.88 202.96 133.64 203.04 133.427 203.04C133.16 203.04 132.987 202.88 132.907 202.56L131.907 198.76L131.827 198.2C131.827 198.067 131.853 197.96 131.907 197.88C131.987 197.8 132.107 197.72 132.267 197.64C134.053 196.813 136.16 196.4 138.587 196.4C141.707 196.4 144.013 197.067 145.507 198.4C147.027 199.733 147.787 201.787 147.787 204.56V216.24C147.787 217.413 147.173 218 145.947 218H141.507ZM159.152 218.6C156.752 218.6 154.832 217.973 153.392 216.72C151.952 215.467 151.232 213.6 151.232 211.12V199.04C151.232 198.347 151.392 197.84 151.712 197.52C152.032 197.173 152.565 197 153.312 197H157.192C157.965 197 158.512 197.173 158.832 197.52C159.152 197.84 159.312 198.347 159.312 199.04V210.8C159.312 212.347 160.152 213.12 161.832 213.12C162.685 213.12 163.392 212.893 163.952 212.44C164.512 211.987 164.792 211.413 164.792 210.72V199.04C164.792 198.347 164.952 197.84 165.272 197.52C165.592 197.173 166.138 197 166.912 197H170.792C171.565 197 172.112 197.173 172.432 197.52C172.752 197.84 172.912 198.347 172.912 199.04V216.24C172.912 217.413 172.312 218 171.112 218H167.512C166.792 218 166.392 217.707 166.312 217.12L166.152 215.92C165.378 216.773 164.445 217.44 163.352 217.92C162.258 218.373 160.858 218.6 159.152 218.6ZM184.349 218.6C182.376 218.6 180.709 218.427 179.349 218.08C178.016 217.733 176.776 217.187 175.629 216.44C175.309 216.253 175.149 216 175.149 215.68C175.149 215.413 175.242 215.133 175.429 214.84L177.109 211.96C177.349 211.56 177.589 211.36 177.829 211.36C177.989 211.36 178.242 211.467 178.589 211.68C179.282 212.107 179.989 212.413 180.709 212.6C181.429 212.787 182.242 212.88 183.149 212.88C184.802 212.88 186.056 212.48 186.909 211.68C187.762 210.88 188.189 209.507 188.189 207.56C188.189 205.613 187.776 204.227 186.949 203.4C186.149 202.573 184.936 202.16 183.309 202.16C181.629 202.16 180.109 202.56 178.749 203.36C178.402 203.573 178.136 203.68 177.949 203.68C177.656 203.68 177.416 203.493 177.229 203.12L175.589 200.2C175.402 199.827 175.309 199.547 175.309 199.36C175.309 199.093 175.469 198.84 175.789 198.6C176.909 197.88 178.149 197.333 179.509 196.96C180.896 196.587 182.549 196.4 184.469 196.4C188.336 196.4 191.269 197.347 193.269 199.24C195.269 201.107 196.269 203.88 196.269 207.56C196.269 211.213 195.242 213.973 193.189 215.84C191.162 217.68 188.216 218.6 184.349 218.6ZM206.847 218.6C204.447 218.6 202.527 217.973 201.087 216.72C199.647 215.467 198.927 213.6 198.927 211.12V199.04C198.927 198.347 199.087 197.84 199.407 197.52C199.727 197.173 200.26 197 201.007 197H204.887C205.66 197 206.207 197.173 206.527 197.52C206.847 197.84 207.007 198.347 207.007 199.04V210.8C207.007 212.347 207.847 213.12 209.527 213.12C210.38 213.12 211.087 212.893 211.647 212.44C212.207 211.987 212.487 211.413 212.487 210.72V199.04C212.487 198.347 212.647 197.84 212.967 197.52C213.287 197.173 213.834 197 214.607 197H218.487C219.26 197 219.807 197.173 220.127 197.52C220.447 197.84 220.607 198.347 220.607 199.04V216.24C220.607 217.413 220.007 218 218.807 218H215.207C214.487 218 214.087 217.707 214.007 217.12L213.847 215.92C213.074 216.773 212.14 217.44 211.047 217.92C209.954 218.373 208.554 218.6 206.847 218.6ZM227.884 218C226.258 218 225.444 217.16 225.444 215.48V199.76C225.444 198.987 225.378 198.36 225.244 197.88C225.111 197.4 224.924 197 224.684 196.68C224.471 196.36 224.111 195.947 223.604 195.44C223.364 195.253 223.124 195.013 222.884 194.72L222.084 193.84C221.844 193.573 221.684 193.32 221.604 193.08C221.498 192.813 221.444 192.467 221.444 192.04V190.32C221.444 189.707 221.591 189.28 221.884 189.04C222.178 188.773 222.658 188.64 223.324 188.64H235.564C236.124 188.64 236.511 188.76 236.724 189C236.938 189.213 237.044 189.587 237.044 190.12V193.04C237.044 193.573 236.938 193.947 236.724 194.16C236.511 194.373 236.124 194.48 235.564 194.48H231.044C232.084 195.307 232.764 196.107 233.084 196.88C233.404 197.653 233.564 198.72 233.564 200.08V211.4C233.564 211.693 233.618 211.893 233.724 212C233.831 212.107 233.991 212.16 234.204 212.16H234.964C235.418 212.16 235.711 212.24 235.844 212.4C235.978 212.56 236.044 212.893 236.044 213.4V216.56C236.044 217.04 235.964 217.387 235.804 217.6C235.671 217.787 235.431 217.907 235.084 217.96C234.764 217.987 234.204 218 233.404 218H227.884ZM248.324 218.6C244.484 218.6 241.391 217.947 239.044 216.64C238.751 216.48 238.538 216.333 238.404 216.2C238.298 216.067 238.244 215.907 238.244 215.72C238.244 215.613 238.311 215.427 238.444 215.16L240.124 212.08C240.284 211.787 240.471 211.64 240.684 211.64C240.871 211.64 241.111 211.72 241.404 211.88C242.124 212.253 243.084 212.6 244.284 212.92C245.511 213.24 246.604 213.4 247.564 213.4C248.391 213.4 248.978 213.293 249.324 213.08C249.698 212.867 249.884 212.547 249.884 212.12C249.884 211.613 249.631 211.213 249.124 210.92C248.618 210.6 247.644 210.173 246.204 209.64L245.124 209.24C242.964 208.413 241.391 207.533 240.404 206.6C239.444 205.667 238.964 204.427 238.964 202.88C238.964 200.88 239.818 199.307 241.524 198.16C243.258 196.987 245.564 196.4 248.444 196.4C250.231 196.4 251.764 196.547 253.044 196.84C254.324 197.133 255.551 197.587 256.724 198.2C257.258 198.467 257.524 198.773 257.524 199.12C257.524 199.28 257.431 199.52 257.244 199.84L255.644 202.44C255.431 202.76 255.244 202.92 255.084 202.92C254.951 202.92 254.724 202.84 254.404 202.68C253.764 202.36 253.004 202.107 252.124 201.92C251.271 201.707 250.444 201.6 249.644 201.6C248.658 201.6 247.924 201.693 247.444 201.88C246.991 202.04 246.764 202.333 246.764 202.76C246.764 203.293 247.084 203.747 247.724 204.12C248.391 204.467 249.631 204.973 251.444 205.64C251.551 205.667 251.964 205.813 252.684 206.08C254.658 206.827 256.031 207.653 256.804 208.56C257.604 209.44 258.004 210.627 258.004 212.12C258.004 214.04 257.178 215.6 255.524 216.8C253.871 218 251.471 218.6 248.324 218.6ZM271.526 218.6C268.859 218.6 266.806 218.093 265.366 217.08C263.952 216.067 262.912 214.533 262.246 212.48L260.086 205.64C259.952 205.24 259.886 204.947 259.886 204.76C259.886 204.387 260.166 204.107 260.726 203.92L265.526 202.28C265.872 202.147 266.152 202.08 266.366 202.08C266.819 202.08 267.139 202.427 267.326 203.12L269.766 210.84C270.006 211.587 270.286 212.107 270.606 212.4C270.926 212.693 271.432 212.84 272.126 212.84C273.032 212.84 273.686 212.4 274.086 211.52C274.486 210.613 274.686 209.187 274.686 207.24C274.686 205.453 274.486 204.16 274.086 203.36C273.712 202.56 273.086 202.16 272.206 202.16C271.859 202.16 271.312 202.293 270.566 202.56C270.459 202.613 270.299 202.64 270.086 202.64C269.792 202.64 269.566 202.44 269.406 202.04L268.166 198.8C268.086 198.587 268.046 198.413 268.046 198.28C268.046 198.013 268.206 197.813 268.526 197.68C269.406 197.227 270.259 196.907 271.086 196.72C271.939 196.507 272.926 196.4 274.046 196.4C276.792 196.4 278.912 197.36 280.406 199.28C281.926 201.2 282.686 203.853 282.686 207.24C282.686 210.92 281.712 213.733 279.766 215.68C277.819 217.627 275.072 218.6 271.526 218.6ZM287.773 218C286.147 218 285.333 217.16 285.333 215.48V199.04C285.333 198.32 285.493 197.8 285.813 197.48C286.16 197.16 286.747 197 287.573 197H291.213C292.04 197 292.613 197.16 292.933 197.48C293.28 197.8 293.453 198.32 293.453 199.04V211.4C293.453 211.72 293.493 211.933 293.573 212.04C293.653 212.12 293.8 212.16 294.013 212.16H294.853C295.307 212.16 295.6 212.24 295.733 212.4C295.867 212.56 295.933 212.893 295.933 213.4V216.56C295.933 217.04 295.853 217.387 295.693 217.6C295.56 217.787 295.32 217.907 294.973 217.96C294.653 217.987 294.093 218 293.293 218H287.773ZM307.816 218.6C303.976 218.6 300.883 217.947 298.536 216.64C298.243 216.48 298.03 216.333 297.896 216.2C297.79 216.067 297.736 215.907 297.736 215.72C297.736 215.613 297.803 215.427 297.936 215.16L299.616 212.08C299.776 211.787 299.963 211.64 300.176 211.64C300.363 211.64 300.603 211.72 300.896 211.88C301.616 212.253 302.576 212.6 303.776 212.92C305.003 213.24 306.096 213.4 307.056 213.4C307.883 213.4 308.47 213.293 308.816 213.08C309.19 212.867 309.376 212.547 309.376 212.12C309.376 211.613 309.123 211.213 308.616 210.92C308.11 210.6 307.136 210.173 305.696 209.64L304.616 209.24C302.456 208.413 300.883 207.533 299.896 206.6C298.936 205.667 298.456 204.427 298.456 202.88C298.456 200.88 299.31 199.307 301.016 198.16C302.75 196.987 305.056 196.4 307.936 196.4C309.723 196.4 311.256 196.547 312.536 196.84C313.816 197.133 315.043 197.587 316.216 198.2C316.75 198.467 317.016 198.773 317.016 199.12C317.016 199.28 316.923 199.52 316.736 199.84L315.136 202.44C314.923 202.76 314.736 202.92 314.576 202.92C314.443 202.92 314.216 202.84 313.896 202.68C313.256 202.36 312.496 202.107 311.616 201.92C310.763 201.707 309.936 201.6 309.136 201.6C308.15 201.6 307.416 201.693 306.936 201.88C306.483 202.04 306.256 202.333 306.256 202.76C306.256 203.293 306.576 203.747 307.216 204.12C307.883 204.467 309.123 204.973 310.936 205.64C311.043 205.667 311.456 205.813 312.176 206.08C314.15 206.827 315.523 207.653 316.296 208.56C317.096 209.44 317.496 210.627 317.496 212.12C317.496 214.04 316.67 215.6 315.016 216.8C313.363 218 310.963 218.6 307.816 218.6ZM300.098 194.56C299.298 194.56 298.778 194.44 298.538 194.2C298.298 193.933 298.178 193.387 298.178 192.56V191.04C298.178 190.213 298.298 189.68 298.538 189.44C298.778 189.173 299.298 189.04 300.098 189.04H310.378V187.4C310.378 186.68 310.538 186.187 310.858 185.92C311.151 185.653 311.631 185.52 312.298 185.52H314.778C315.445 185.52 315.938 185.653 316.258 185.92C316.551 186.187 316.698 186.68 316.698 187.4V192.36C316.698 193.16 316.551 193.733 316.258 194.08C315.965 194.4 315.391 194.56 314.538 194.56H300.098ZM330.338 218.6C326.978 218.6 324.298 218.013 322.298 216.84C320.325 215.64 319.338 213.88 319.338 211.56C319.338 209.213 320.191 207.64 321.898 206.84C321.071 206.307 320.458 205.68 320.058 204.96C319.685 204.213 319.498 203.307 319.498 202.24C319.498 200.507 320.111 199.107 321.338 198.04C322.591 196.947 324.191 196.4 326.138 196.4C328.191 196.4 329.911 196.787 331.298 197.56C331.618 197.747 331.778 197.973 331.778 198.24C331.778 198.373 331.738 198.547 331.658 198.76L330.698 201.28C330.565 201.573 330.405 201.72 330.218 201.72C330.111 201.72 329.978 201.68 329.818 201.6C329.658 201.52 329.485 201.453 329.298 201.4C329.138 201.32 328.938 201.28 328.698 201.28C328.245 201.28 327.885 201.44 327.618 201.76C327.378 202.08 327.258 202.493 327.258 203C327.258 203.613 327.405 204.067 327.698 204.36C328.018 204.627 328.511 204.76 329.178 204.76H329.978C330.565 204.76 330.858 205.053 330.858 205.64V208.24C330.858 208.853 330.551 209.16 329.938 209.16H329.218C328.551 209.16 328.058 209.307 327.738 209.6C327.418 209.893 327.258 210.36 327.258 211C327.258 212.227 328.285 212.84 330.338 212.84C331.511 212.84 332.351 212.573 332.858 212.04C333.391 211.507 333.658 210.627 333.658 209.4V199.04C333.658 198.347 333.818 197.84 334.138 197.52C334.458 197.173 334.991 197 335.738 197H339.618C340.391 197 340.938 197.173 341.258 197.52C341.605 197.84 341.778 198.347 341.778 199.04V208.96C341.778 211.893 340.885 214.24 339.098 216C337.311 217.733 334.391 218.6 330.338 218.6ZM353.136 218.6C350.736 218.6 348.816 217.973 347.376 216.72C345.936 215.467 345.216 213.6 345.216 211.12V199.04C345.216 198.347 345.376 197.84 345.696 197.52C346.016 197.173 346.549 197 347.296 197H351.176C351.949 197 352.496 197.173 352.816 197.52C353.136 197.84 353.296 198.347 353.296 199.04V210.8C353.296 212.347 354.136 213.12 355.816 213.12C356.669 213.12 357.376 212.893 357.936 212.44C358.496 211.987 358.776 211.413 358.776 210.72V199.04C358.776 198.347 358.936 197.84 359.256 197.52C359.576 197.173 360.123 197 360.896 197H364.776C365.549 197 366.096 197.173 366.416 197.52C366.736 197.84 366.896 198.347 366.896 199.04V216.24C366.896 217.413 366.296 218 365.096 218H361.496C360.776 218 360.376 217.707 360.296 217.12L360.136 215.92C359.363 216.773 358.429 217.44 357.336 217.92C356.243 218.373 354.843 218.6 353.136 218.6ZM372.773 218C371.147 218 370.333 217.16 370.333 215.48V199.04C370.333 198.32 370.493 197.8 370.813 197.48C371.16 197.16 371.747 197 372.573 197H376.213C377.04 197 377.613 197.16 377.933 197.48C378.28 197.8 378.453 198.32 378.453 199.04V211.4C378.453 211.72 378.493 211.933 378.573 212.04C378.653 212.12 378.8 212.16 379.013 212.16H379.853C380.307 212.16 380.6 212.24 380.733 212.4C380.867 212.56 380.933 212.893 380.933 213.4V216.56C380.933 217.04 380.853 217.387 380.693 217.6C380.56 217.787 380.32 217.907 379.973 217.96C379.653 217.987 379.093 218 378.293 218H372.773ZM389.696 218.6C387.563 218.6 385.87 218.013 384.616 216.84C383.363 215.64 382.736 214.08 382.736 212.16C382.736 209.653 383.563 207.867 385.216 206.8C386.87 205.733 389.243 205.2 392.336 205.2H397.096V204.76C397.096 203.827 396.776 203.147 396.136 202.72C395.496 202.267 394.336 202.04 392.656 202.04C391.723 202.04 390.79 202.147 389.856 202.36C388.95 202.547 388.163 202.8 387.496 203.12C387.123 203.307 386.856 203.4 386.696 203.4C386.43 203.4 386.203 203.227 386.016 202.88L384.216 199.72C384.083 199.507 384.016 199.32 384.016 199.16C384.016 198.92 384.203 198.693 384.576 198.48C385.696 197.813 387.096 197.307 388.776 196.96C390.483 196.587 392.31 196.4 394.256 196.4C397.963 196.4 400.696 197.16 402.456 198.68C404.216 200.2 405.096 202.48 405.096 205.52V216C405.096 216.693 404.936 217.2 404.616 217.52C404.296 217.84 403.75 218 402.976 218H399.216C398.443 218 397.896 217.84 397.576 217.52C397.256 217.2 397.096 216.693 397.096 216V210.44H392.696C391.843 210.44 391.216 210.56 390.816 210.8C390.443 211.04 390.256 211.453 390.256 212.04C390.256 212.6 390.39 213 390.656 213.24C390.95 213.48 391.416 213.6 392.056 213.6C392.51 213.6 393.03 213.493 393.616 213.28C393.696 213.253 393.79 213.24 393.896 213.24C394.19 213.24 394.376 213.427 394.456 213.8L395.056 216.84C395.083 216.92 395.096 217.027 395.096 217.16C395.096 217.347 395.043 217.493 394.936 217.6C394.83 217.707 394.643 217.813 394.376 217.92C393.096 218.373 391.536 218.6 389.696 218.6ZM391.656 194.96C389.923 194.96 388.576 194.533 387.616 193.68C386.63 192.827 386.136 191.533 386.136 189.8C386.136 188.013 386.696 186.667 387.816 185.76C388.936 184.853 390.403 184.4 392.216 184.4H401.336C401.683 184.4 401.91 184.453 402.016 184.56C402.123 184.667 402.176 184.88 402.176 185.2V187.8C402.176 188.12 402.123 188.32 402.016 188.4C401.91 188.48 401.683 188.52 401.336 188.52H392.816C391.723 188.52 391.176 188.933 391.176 189.76C391.176 190.587 391.616 191 392.496 191C392.95 191 393.283 190.92 393.496 190.76C393.71 190.573 393.816 190.28 393.816 189.88C393.816 189.48 394.03 189.28 394.456 189.28H397.256C397.656 189.28 397.856 189.48 397.856 189.88C397.856 190.227 397.936 190.453 398.096 190.56C398.256 190.667 398.523 190.72 398.896 190.72H400.936C401.283 190.72 401.51 190.773 401.616 190.88C401.723 190.987 401.776 191.2 401.776 191.52V194.24C401.776 194.507 401.723 194.693 401.616 194.8C401.483 194.907 401.256 194.96 400.936 194.96H399.296C397.723 194.96 396.563 194.48 395.816 193.52C395.31 194.027 394.75 194.4 394.136 194.64C393.496 194.853 392.67 194.96 391.656 194.96ZM411.056 218C410.283 218 409.736 217.84 409.416 217.52C409.096 217.2 408.936 216.693 408.936 216V205.08L408.096 202.96C407.856 202.373 407.736 201.88 407.736 201.48C407.736 201 407.976 200.56 408.456 200.16C409.683 199.12 411.283 198.24 413.256 197.52C415.23 196.773 417.323 196.4 419.536 196.4C423.43 196.4 426.23 197.227 427.936 198.88C429.643 200.507 430.496 202.72 430.496 205.52V216C430.496 216.693 430.336 217.2 430.016 217.52C429.696 217.84 429.15 218 428.376 218H424.496C423.723 218 423.176 217.84 422.856 217.52C422.536 217.2 422.376 216.693 422.376 216V205.36C422.376 204.267 422.15 203.467 421.696 202.96C421.27 202.453 420.536 202.2 419.496 202.2C418.03 202.2 416.896 202.493 416.096 203.08L416.536 203.84C416.723 204.187 416.856 204.533 416.936 204.88C417.016 205.2 417.056 205.6 417.056 206.08V216C417.056 216.693 416.883 217.2 416.536 217.52C416.216 217.84 415.67 218 414.896 218H411.056Z" fill="black"/>
<path d="M107.793 222H432.216V224H107.793V222Z" fill="black"/>
</svg>
