<svg width="540" height="313" viewBox="0 0 540 313" fill="none" xmlns="http://www.w3.org/2000/svg">
<path d="M266.838 15.8702L0 0V269H540V79.351L266.838 15.8702Z" fill="#F8D105"/>
<path d="M4.944 299.24C3.67467 299.24 2.70933 298.968 2.048 298.424C1.39733 297.869 1.072 297.117 1.072 296.168V291.08C1.072 290.76 1.232 290.6 1.552 290.6H2.048C2.21867 290.6 2.34133 290.643 2.416 290.728C2.49067 290.803 2.528 290.92 2.528 291.08V296.312C2.528 296.909 2.736 297.363 3.152 297.672C3.568 297.971 4.16533 298.12 4.944 298.12C5.72267 298.12 6.32 297.971 6.736 297.672C7.152 297.363 7.36 296.909 7.36 296.312V288.28C7.36 288.12 7.39733 288.003 7.472 287.928C7.54667 287.843 7.66933 287.8 7.84 287.8H8.32C8.65067 287.8 8.816 287.96 8.816 288.28V296.168C8.816 297.117 8.48533 297.869 7.824 298.424C7.17333 298.968 6.21333 299.24 4.944 299.24ZM1.22987 288.968C1.05921 288.968 0.941875 288.936 0.877874 288.872C0.803208 288.808 0.765875 288.691 0.765875 288.52V288.28C0.765875 288.12 0.803208 288.003 0.877874 287.928C0.941875 287.853 1.05921 287.816 1.22987 287.816H4.74987V286.328C4.74987 286.104 4.86187 285.992 5.08587 285.992H5.69387C5.91787 285.992 6.02987 286.104 6.02987 286.328V288.184C6.02987 288.483 5.97654 288.691 5.86987 288.808C5.76321 288.915 5.55521 288.968 5.24587 288.968H1.22987ZM17.8254 299C17.5267 299 17.3774 298.845 17.3774 298.536V298.024C17.3774 297.331 17.6547 296.637 18.2094 295.944C18.7747 295.24 19.5854 294.611 20.6414 294.056C21.4307 293.64 22.0227 293.293 22.4174 293.016C22.8227 292.728 23.116 292.424 23.2974 292.104C23.4894 291.784 23.5854 291.389 23.5854 290.92C23.5854 290.28 23.3614 289.8 22.9134 289.48C22.4654 289.16 21.852 289 21.0734 289C20.54 289 20.0334 289.064 19.5534 289.192C19.0734 289.32 18.6734 289.485 18.3534 289.688C18.3 289.731 18.2467 289.752 18.1934 289.752C18.1294 289.752 18.076 289.709 18.0334 289.624L17.6974 289.032C17.6654 288.968 17.6494 288.915 17.6494 288.872C17.6494 288.797 17.692 288.733 17.7774 288.68C18.1294 288.435 18.6094 288.243 19.2174 288.104C19.8254 287.955 20.4867 287.88 21.2014 287.88C22.332 287.88 23.2494 288.147 23.9534 288.68C24.668 289.213 25.0254 289.96 25.0254 290.92C25.0254 291.763 24.7587 292.472 24.2254 293.048C23.692 293.613 22.8654 294.179 21.7454 294.744C20.8174 295.224 20.1027 295.725 19.6014 296.248C19.1 296.76 18.8494 297.288 18.8494 297.832H24.4654C24.636 297.832 24.7534 297.869 24.8174 297.944C24.892 298.008 24.9294 298.125 24.9294 298.296V298.568C24.9294 298.728 24.892 298.84 24.8174 298.904C24.7534 298.968 24.636 299 24.4654 299H17.8254ZM30.2769 299.24C29.5622 299.24 28.8742 299.16 28.2129 299C27.5622 298.851 27.0555 298.653 26.6929 298.408C26.6075 298.355 26.5649 298.291 26.5649 298.216C26.5649 298.173 26.5809 298.12 26.6129 298.056L26.9649 297.464C27.0075 297.389 27.0555 297.352 27.1089 297.352C27.1622 297.352 27.2155 297.373 27.2689 297.416C27.5995 297.619 28.0262 297.789 28.5489 297.928C29.0822 298.056 29.6582 298.12 30.2769 298.12C31.3009 298.12 32.0742 297.907 32.5969 297.48C33.1195 297.043 33.3809 296.392 33.3809 295.528C33.3809 294.557 33.1569 293.88 32.7089 293.496C32.2609 293.101 31.5195 292.904 30.4849 292.904C29.5355 292.904 28.7302 293.064 28.0689 293.384C27.9302 293.437 27.7969 293.464 27.6689 293.464C27.4449 293.464 27.2582 293.4 27.1089 293.272C26.9702 293.133 26.9062 292.952 26.9169 292.728L27.1889 288.568C27.1995 288.419 27.2369 288.307 27.3009 288.232C27.3755 288.157 27.4982 288.12 27.6689 288.12H33.8449C34.0155 288.12 34.1382 288.152 34.2129 288.216C34.2875 288.28 34.3249 288.392 34.3249 288.552V288.824C34.3249 288.995 34.2875 289.117 34.2129 289.192C34.1382 289.256 34.0155 289.288 33.8449 289.288H28.4689L28.2769 292.2C28.9595 291.955 29.7809 291.832 30.7409 291.832C33.4609 291.832 34.8209 293.064 34.8209 295.528C34.8209 296.275 34.6342 296.931 34.2609 297.496C33.8982 298.051 33.3755 298.483 32.6929 298.792C32.0102 299.091 31.2049 299.24 30.2769 299.24ZM40.0581 299.24C39.3435 299.24 38.6555 299.16 37.9941 299C37.3435 298.851 36.8368 298.653 36.4741 298.408C36.3888 298.355 36.3461 298.291 36.3461 298.216C36.3461 298.173 36.3621 298.12 36.3941 298.056L36.7461 297.464C36.7888 297.389 36.8368 297.352 36.8901 297.352C36.9435 297.352 36.9968 297.373 37.0501 297.416C37.3808 297.619 37.8075 297.789 38.3301 297.928C38.8635 298.056 39.4395 298.12 40.0581 298.12C41.0821 298.12 41.8555 297.907 42.3781 297.48C42.9008 297.043 43.1621 296.392 43.1621 295.528C43.1621 294.557 42.9381 293.88 42.4901 293.496C42.0421 293.101 41.3008 292.904 40.2661 292.904C39.3168 292.904 38.5115 293.064 37.8501 293.384C37.7115 293.437 37.5781 293.464 37.4501 293.464C37.2261 293.464 37.0395 293.4 36.8901 293.272C36.7515 293.133 36.6875 292.952 36.6981 292.728L36.9701 288.568C36.9808 288.419 37.0181 288.307 37.0821 288.232C37.1568 288.157 37.2795 288.12 37.4501 288.12H43.6261C43.7968 288.12 43.9195 288.152 43.9941 288.216C44.0688 288.28 44.1061 288.392 44.1061 288.552V288.824C44.1061 288.995 44.0688 289.117 43.9941 289.192C43.9195 289.256 43.7968 289.288 43.6261 289.288H38.2501L38.0581 292.2C38.7408 291.955 39.5621 291.832 40.5221 291.832C43.2421 291.832 44.6021 293.064 44.6021 295.528C44.6021 296.275 44.4155 296.931 44.0421 297.496C43.6795 298.051 43.1568 298.483 42.4741 298.792C41.7915 299.091 40.9861 299.24 40.0581 299.24ZM50.4154 299.24C49.1354 299.24 48.0954 298.851 47.2954 298.072C46.506 297.293 46.1114 296.04 46.1114 294.312C46.1114 292.733 46.3354 291.469 46.7834 290.52C47.2314 289.56 47.8074 288.883 48.5114 288.488C49.2154 288.083 49.994 287.88 50.8474 287.88C52.0634 287.88 53.0394 288.136 53.7754 288.648C53.8607 288.701 53.9034 288.765 53.9034 288.84C53.9034 288.883 53.8874 288.936 53.8554 289L53.5354 289.544C53.4927 289.64 53.4394 289.688 53.3754 289.688C53.3434 289.688 53.29 289.661 53.2154 289.608C52.906 289.395 52.5647 289.24 52.1914 289.144C51.8287 289.048 51.3807 289 50.8474 289C49.898 289 49.1514 289.304 48.6074 289.912C48.074 290.509 47.722 291.411 47.5514 292.616C47.914 292.2 48.362 291.896 48.8954 291.704C49.4287 291.501 50.0687 291.4 50.8154 291.4C51.5834 291.4 52.2714 291.555 52.8794 291.864C53.4874 292.163 53.962 292.595 54.3034 293.16C54.6554 293.715 54.8314 294.36 54.8314 295.096C54.8314 296.451 54.442 297.48 53.6634 298.184C52.8847 298.888 51.802 299.24 50.4154 299.24ZM50.4154 298.12C52.41 298.12 53.4074 297.112 53.4074 295.096C53.4074 294.264 53.1354 293.613 52.5914 293.144C52.058 292.675 51.3594 292.44 50.4954 292.44C50.026 292.44 49.5674 292.536 49.1194 292.728C48.6714 292.92 48.298 293.219 47.9994 293.624C47.7114 294.029 47.5674 294.541 47.5674 295.16C47.5674 296.195 47.8287 296.947 48.3514 297.416C48.874 297.885 49.562 298.12 50.4154 298.12Z" fill="black"/>
<path d="M12.74 30.3C10.58 30.3 8.98667 29.9533 7.96 29.26C7.84 29.18 7.78 29.0867 7.78 28.98C7.78 28.9 7.81333 28.8067 7.88 28.7L8.46 27.72C8.54 27.5867 8.61333 27.52 8.68 27.52C8.73333 27.52 8.82667 27.5533 8.96 27.62C9.4 27.86 9.90667 28.0533 10.48 28.2C11.0667 28.3467 11.7 28.42 12.38 28.42C13.4733 28.42 14.2733 28.2133 14.78 27.8C15.3 27.3733 15.56 26.7867 15.56 26.04C15.56 24.6533 14.7133 23.96 13.02 23.96H11.34C11.0733 23.96 10.88 23.9067 10.76 23.8C10.6533 23.68 10.6 23.4933 10.6 23.24V22.72C10.6 22.48 10.6533 22.3067 10.76 22.2C10.88 22.0933 11.0733 22.04 11.34 22.04H12.98C13.7 22.04 14.24 21.8533 14.6 21.48C14.96 21.0933 15.14 20.6067 15.14 20.02C15.14 18.6733 14.1933 18 12.3 18C11.1267 18 10.0933 18.2467 9.2 18.74C9.06667 18.8067 8.97333 18.84 8.92 18.84C8.85333 18.84 8.78 18.78 8.7 18.66L8.14 17.72C8.07333 17.6133 8.04 17.52 8.04 17.44C8.04 17.3333 8.1 17.24 8.22 17.16C8.68667 16.8267 9.30667 16.5667 10.08 16.38C10.8533 16.1933 11.7133 16.1 12.66 16.1C13.6867 16.1 14.5733 16.26 15.32 16.58C16.08 16.9 16.66 17.3533 17.06 17.94C17.4733 18.5133 17.68 19.1867 17.68 19.96C17.68 20.5867 17.5267 21.1667 17.22 21.7C16.9267 22.2333 16.5 22.6467 15.94 22.94C16.66 23.2067 17.1933 23.62 17.54 24.18C17.9 24.7267 18.08 25.3733 18.08 26.12C18.08 27.3733 17.6133 28.3867 16.68 29.16C15.76 29.92 14.4467 30.3 12.74 30.3ZM26.2555 30.3C24.0688 30.3 22.4155 29.6933 21.2955 28.48C20.1888 27.2533 19.6355 25.4933 19.6355 23.2C19.6355 20.9067 20.1888 19.1533 21.2955 17.94C22.4155 16.7133 24.0688 16.1 26.2555 16.1C28.4288 16.1 30.0755 16.7133 31.1955 17.94C32.3155 19.1667 32.8755 20.92 32.8755 23.2C32.8755 25.48 32.3155 27.2333 31.1955 28.46C30.0755 29.6867 28.4288 30.3 26.2555 30.3ZM28.5155 18.6C27.9421 18.2 27.1888 18 26.2555 18C24.8688 18 23.8355 18.4333 23.1555 19.3C22.4888 20.1667 22.1555 21.4667 22.1555 23.2C22.1555 24.5733 22.4355 25.6333 22.9955 26.38L28.5155 18.6ZM26.2555 28.42C27.6421 28.42 28.6688 27.9867 29.3355 27.12C30.0021 26.2533 30.3355 24.9467 30.3355 23.2C30.3355 21.8533 30.0688 20.8 29.5355 20.04L23.9955 27.86C24.5955 28.2333 25.3488 28.42 26.2555 28.42ZM39.6402 30.3C38.8135 30.3 38.0602 30.2067 37.3802 30.02C36.7135 29.8467 36.1468 29.6067 35.6802 29.3C35.5602 29.22 35.5002 29.1267 35.5002 29.02C35.5002 28.94 35.5335 28.8467 35.6002 28.74L36.1602 27.78C36.2402 27.66 36.3135 27.6 36.3802 27.6C36.4335 27.6 36.5268 27.6333 36.6602 27.7C37.4602 28.18 38.4068 28.42 39.5002 28.42C40.6335 28.42 41.5068 28.12 42.1202 27.52C42.7335 26.92 43.1135 26 43.2602 24.76C42.8068 25.1867 42.2735 25.4933 41.6602 25.68C41.0602 25.8533 40.3468 25.94 39.5202 25.94C38.4802 25.94 37.5735 25.7533 36.8002 25.38C36.0402 24.9933 35.4535 24.4533 35.0402 23.76C34.6402 23.0667 34.4402 22.2733 34.4402 21.38C34.4402 19.62 34.9335 18.3 35.9202 17.42C36.9068 16.54 38.3135 16.1 40.1402 16.1C41.7935 16.1 43.1135 16.6133 44.1002 17.64C45.1002 18.6533 45.6002 20.22 45.6002 22.34C45.6002 25.1667 45.0402 27.2 43.9202 28.44C42.8135 29.68 41.3868 30.3 39.6402 30.3ZM40.0802 24.3C40.5868 24.3 41.0602 24.1933 41.5002 23.98C41.9535 23.7533 42.3202 23.4267 42.6002 23C42.8802 22.56 43.0202 22.0333 43.0202 21.42C43.0202 20.2867 42.7668 19.4333 42.2602 18.86C41.7535 18.2867 41.0402 18 40.1202 18C39.0668 18 38.2735 18.2667 37.7402 18.8C37.2202 19.3333 36.9602 20.18 36.9602 21.34C36.9602 22.3267 37.2202 23.0667 37.7402 23.56C38.2735 24.0533 39.0535 24.3 40.0802 24.3ZM47.855 30C47.415 30 47.195 29.7733 47.195 29.32V28.54C47.195 27.6867 47.5217 26.8467 48.175 26.02C48.8417 25.1933 49.835 24.4067 51.155 23.66C52.1017 23.1267 52.795 22.7067 53.235 22.4C53.675 22.08 53.995 21.7467 54.195 21.4C54.4083 21.04 54.515 20.6 54.515 20.08C54.515 19.4 54.275 18.8867 53.795 18.54C53.315 18.18 52.6417 18 51.775 18C51.1483 18 50.555 18.08 49.995 18.24C49.4483 18.3867 48.975 18.5733 48.575 18.8C48.4417 18.8667 48.355 18.9 48.315 18.9C48.235 18.9 48.155 18.84 48.075 18.72L47.515 17.74C47.4483 17.6333 47.415 17.54 47.415 17.46C47.415 17.3533 47.475 17.26 47.595 17.18C48.0617 16.8467 48.695 16.5867 49.495 16.4C50.295 16.2 51.1683 16.1 52.115 16.1C53.595 16.1 54.7883 16.44 55.695 17.12C56.6017 17.7867 57.055 18.7333 57.055 19.96C57.055 20.9867 56.735 21.8533 56.095 22.56C55.4683 23.2667 54.475 23.9933 53.115 24.74C52.115 25.26 51.3217 25.8067 50.735 26.38C50.1483 26.9533 49.835 27.5133 49.795 28.06H56.275C56.5417 28.06 56.7283 28.12 56.835 28.24C56.9417 28.3467 56.995 28.5267 56.995 28.78V29.32C56.995 29.56 56.9417 29.7333 56.835 29.84C56.7283 29.9467 56.5417 30 56.275 30H47.855ZM63.8589 30.3C63.0322 30.3 62.2789 30.2067 61.5989 30.02C60.9322 29.8467 60.3656 29.6067 59.8989 29.3C59.7789 29.22 59.7189 29.1267 59.7189 29.02C59.7189 28.94 59.7522 28.8467 59.8189 28.74L60.3789 27.78C60.4589 27.66 60.5322 27.6 60.5989 27.6C60.6522 27.6 60.7456 27.6333 60.8789 27.7C61.6789 28.18 62.6256 28.42 63.7189 28.42C64.8522 28.42 65.7256 28.12 66.3389 27.52C66.9522 26.92 67.3322 26 67.4789 24.76C67.0256 25.1867 66.4922 25.4933 65.8789 25.68C65.2789 25.8533 64.5656 25.94 63.7389 25.94C62.6989 25.94 61.7922 25.7533 61.0189 25.38C60.2589 24.9933 59.6722 24.4533 59.2589 23.76C58.8589 23.0667 58.6589 22.2733 58.6589 21.38C58.6589 19.62 59.1522 18.3 60.1389 17.42C61.1256 16.54 62.5322 16.1 64.3589 16.1C66.0122 16.1 67.3322 16.6133 68.3189 17.64C69.3189 18.6533 69.8189 20.22 69.8189 22.34C69.8189 25.1667 69.2589 27.2 68.1389 28.44C67.0322 29.68 65.6056 30.3 63.8589 30.3ZM64.2989 24.3C64.8056 24.3 65.2789 24.1933 65.7189 23.98C66.1722 23.7533 66.5389 23.4267 66.8189 23C67.0989 22.56 67.2389 22.0333 67.2389 21.42C67.2389 20.2867 66.9856 19.4333 66.4789 18.86C65.9722 18.2867 65.2589 18 64.3389 18C63.2856 18 62.4922 18.2667 61.9589 18.8C61.4389 19.3333 61.1789 20.18 61.1789 21.34C61.1789 22.3267 61.4389 23.0667 61.9589 23.56C62.4922 24.0533 63.2722 24.3 64.2989 24.3Z" fill="black"/>
<path d="M7 32H70.5989V33H7V32Z" fill="black"/>
<path d="M474.046 96C473.606 96 473.386 95.7733 473.386 95.32V94.54C473.386 93.6867 473.713 92.8467 474.366 92.02C475.033 91.1933 476.026 90.4067 477.346 89.66C478.293 89.1267 478.986 88.7067 479.426 88.4C479.866 88.08 480.186 87.7467 480.386 87.4C480.6 87.04 480.706 86.6 480.706 86.08C480.706 85.4 480.466 84.8867 479.986 84.54C479.506 84.18 478.833 84 477.966 84C477.34 84 476.746 84.08 476.186 84.24C475.64 84.3867 475.166 84.5733 474.766 84.8C474.633 84.8667 474.546 84.9 474.506 84.9C474.426 84.9 474.346 84.84 474.266 84.72L473.706 83.74C473.64 83.6333 473.606 83.54 473.606 83.46C473.606 83.3533 473.666 83.26 473.786 83.18C474.253 82.8467 474.886 82.5867 475.686 82.4C476.486 82.2 477.36 82.1 478.306 82.1C479.786 82.1 480.98 82.44 481.886 83.12C482.793 83.7867 483.246 84.7333 483.246 85.96C483.246 86.9867 482.926 87.8533 482.286 88.56C481.66 89.2667 480.666 89.9933 479.306 90.74C478.306 91.26 477.513 91.8067 476.926 92.38C476.34 92.9533 476.026 93.5133 475.986 94.06H482.466C482.733 94.06 482.92 94.12 483.026 94.24C483.133 94.3467 483.186 94.5267 483.186 94.78V95.32C483.186 95.56 483.133 95.7333 483.026 95.84C482.92 95.9467 482.733 96 482.466 96H474.046ZM490.05 96.3C489.224 96.3 488.47 96.2067 487.79 96.02C487.124 95.8467 486.557 95.6067 486.09 95.3C485.97 95.22 485.91 95.1267 485.91 95.02C485.91 94.94 485.944 94.8467 486.01 94.74L486.57 93.78C486.65 93.66 486.724 93.6 486.79 93.6C486.844 93.6 486.937 93.6333 487.07 93.7C487.87 94.18 488.817 94.42 489.91 94.42C491.044 94.42 491.917 94.12 492.53 93.52C493.144 92.92 493.524 92 493.67 90.76C493.217 91.1867 492.684 91.4933 492.07 91.68C491.47 91.8533 490.757 91.94 489.93 91.94C488.89 91.94 487.984 91.7533 487.21 91.38C486.45 90.9933 485.864 90.4533 485.45 89.76C485.05 89.0667 484.85 88.2733 484.85 87.38C484.85 85.62 485.344 84.3 486.33 83.42C487.317 82.54 488.724 82.1 490.55 82.1C492.204 82.1 493.524 82.6133 494.51 83.64C495.51 84.6533 496.01 86.22 496.01 88.34C496.01 91.1667 495.45 93.2 494.33 94.44C493.224 95.68 491.797 96.3 490.05 96.3ZM490.49 90.3C490.997 90.3 491.47 90.1933 491.91 89.98C492.364 89.7533 492.73 89.4267 493.01 89C493.29 88.56 493.43 88.0333 493.43 87.42C493.43 86.2867 493.177 85.4333 492.67 84.86C492.164 84.2867 491.45 84 490.53 84C489.477 84 488.684 84.2667 488.15 84.8C487.63 85.3333 487.37 86.18 487.37 87.34C487.37 88.3267 487.63 89.0667 488.15 89.56C488.684 90.0533 489.464 90.3 490.49 90.3ZM499.265 96C499.078 96 498.985 95.92 498.985 95.76C498.985 95.68 499.012 95.5933 499.065 95.5L504.885 84.36H498.025C497.772 84.36 497.598 84.3067 497.505 84.2C497.412 84.0933 497.365 83.9133 497.365 83.66V83.06C497.365 82.82 497.412 82.6533 497.505 82.56C497.598 82.4533 497.772 82.4 498.025 82.4H507.205C507.525 82.4 507.745 82.4533 507.865 82.56C507.998 82.6667 508.065 82.8533 508.065 83.12C508.065 83.2933 508.018 83.4867 507.925 83.7C507.845 83.9133 507.752 84.1133 507.645 84.3C507.538 84.4867 507.472 84.6133 507.445 84.68L501.705 95.72C501.652 95.8267 501.585 95.9 501.505 95.94C501.438 95.98 501.338 96 501.205 96H499.265ZM511.121 96C510.934 96 510.841 95.92 510.841 95.76C510.841 95.68 510.867 95.5933 510.921 95.5L516.741 84.36H509.881C509.627 84.36 509.454 84.3067 509.361 84.2C509.267 84.0933 509.221 83.9133 509.221 83.66V83.06C509.221 82.82 509.267 82.6533 509.361 82.56C509.454 82.4533 509.627 82.4 509.881 82.4H519.061C519.381 82.4 519.601 82.4533 519.721 82.56C519.854 82.6667 519.921 82.8533 519.921 83.12C519.921 83.2933 519.874 83.4867 519.781 83.7C519.701 83.9133 519.607 84.1133 519.501 84.3C519.394 84.4867 519.327 84.6133 519.301 84.68L513.561 95.72C513.507 95.8267 513.441 95.9 513.361 95.94C513.294 95.98 513.194 96 513.061 96H511.121ZM521.976 96C521.536 96 521.316 95.7733 521.316 95.32V94.54C521.316 93.6867 521.643 92.8467 522.296 92.02C522.963 91.1933 523.956 90.4067 525.276 89.66C526.223 89.1267 526.916 88.7067 527.356 88.4C527.796 88.08 528.116 87.7467 528.316 87.4C528.529 87.04 528.636 86.6 528.636 86.08C528.636 85.4 528.396 84.8867 527.916 84.54C527.436 84.18 526.763 84 525.896 84C525.269 84 524.676 84.08 524.116 84.24C523.569 84.3867 523.096 84.5733 522.696 84.8C522.563 84.8667 522.476 84.9 522.436 84.9C522.356 84.9 522.276 84.84 522.196 84.72L521.636 83.74C521.569 83.6333 521.536 83.54 521.536 83.46C521.536 83.3533 521.596 83.26 521.716 83.18C522.183 82.8467 522.816 82.5867 523.616 82.4C524.416 82.2 525.289 82.1 526.236 82.1C527.716 82.1 528.909 82.44 529.816 83.12C530.723 83.7867 531.176 84.7333 531.176 85.96C531.176 86.9867 530.856 87.8533 530.216 88.56C529.589 89.2667 528.596 89.9933 527.236 90.74C526.236 91.26 525.443 91.8067 524.856 92.38C524.269 92.9533 523.956 93.5133 523.916 94.06H530.396C530.663 94.06 530.849 94.12 530.956 94.24C531.063 94.3467 531.116 94.5267 531.116 94.78V95.32C531.116 95.56 531.063 95.7333 530.956 95.84C530.849 95.9467 530.663 96 530.396 96H521.976Z" fill="black"/>
<path d="M472.566 98H531.996V99H472.566V98Z" fill="black"/>
<path d="M489.96 299.24C488.69 299.24 487.725 298.968 487.064 298.424C486.413 297.869 486.088 297.117 486.088 296.168V291.08C486.088 290.76 486.248 290.6 486.568 290.6H487.064C487.234 290.6 487.357 290.643 487.432 290.728C487.506 290.803 487.544 290.92 487.544 291.08V296.312C487.544 296.909 487.752 297.363 488.168 297.672C488.584 297.971 489.181 298.12 489.96 298.12C490.738 298.12 491.336 297.971 491.752 297.672C492.168 297.363 492.376 296.909 492.376 296.312V288.28C492.376 288.12 492.413 288.003 492.488 287.928C492.562 287.843 492.685 287.8 492.856 287.8H493.336C493.666 287.8 493.832 287.96 493.832 288.28V296.168C493.832 297.117 493.501 297.869 492.84 298.424C492.189 298.968 491.229 299.24 489.96 299.24ZM486.245 288.968C486.075 288.968 485.957 288.936 485.893 288.872C485.819 288.808 485.781 288.691 485.781 288.52V288.28C485.781 288.12 485.819 288.003 485.893 287.928C485.957 287.853 486.075 287.816 486.245 287.816H489.765V286.328C489.765 286.104 489.877 285.992 490.101 285.992H490.709C490.933 285.992 491.045 286.104 491.045 286.328V288.184C491.045 288.483 490.992 288.691 490.885 288.808C490.779 288.915 490.571 288.968 490.261 288.968H486.245ZM502.841 299C502.542 299 502.393 298.845 502.393 298.536V298.024C502.393 297.331 502.67 296.637 503.225 295.944C503.79 295.24 504.601 294.611 505.657 294.056C506.446 293.64 507.038 293.293 507.433 293.016C507.838 292.728 508.132 292.424 508.313 292.104C508.505 291.784 508.601 291.389 508.601 290.92C508.601 290.28 508.377 289.8 507.929 289.48C507.481 289.16 506.868 289 506.089 289C505.556 289 505.049 289.064 504.569 289.192C504.089 289.32 503.689 289.485 503.369 289.688C503.316 289.731 503.262 289.752 503.209 289.752C503.145 289.752 503.092 289.709 503.049 289.624L502.713 289.032C502.681 288.968 502.665 288.915 502.665 288.872C502.665 288.797 502.708 288.733 502.793 288.68C503.145 288.435 503.625 288.243 504.233 288.104C504.841 287.955 505.502 287.88 506.217 287.88C507.348 287.88 508.265 288.147 508.969 288.68C509.684 289.213 510.041 289.96 510.041 290.92C510.041 291.763 509.774 292.472 509.241 293.048C508.708 293.613 507.881 294.179 506.761 294.744C505.833 295.224 505.118 295.725 504.617 296.248C504.116 296.76 503.865 297.288 503.865 297.832H509.481C509.652 297.832 509.769 297.869 509.833 297.944C509.908 298.008 509.945 298.125 509.945 298.296V298.568C509.945 298.728 509.908 298.84 509.833 298.904C509.769 298.968 509.652 299 509.481 299H502.841ZM515.293 299.24C514.578 299.24 513.89 299.16 513.229 299C512.578 298.851 512.071 298.653 511.709 298.408C511.623 298.355 511.581 298.291 511.581 298.216C511.581 298.173 511.597 298.12 511.629 298.056L511.981 297.464C512.023 297.389 512.071 297.352 512.125 297.352C512.178 297.352 512.231 297.373 512.285 297.416C512.615 297.619 513.042 297.789 513.565 297.928C514.098 298.056 514.674 298.12 515.293 298.12C516.317 298.12 517.09 297.907 517.613 297.48C518.135 297.043 518.397 296.392 518.397 295.528C518.397 294.557 518.173 293.88 517.725 293.496C517.277 293.101 516.535 292.904 515.501 292.904C514.551 292.904 513.746 293.064 513.085 293.384C512.946 293.437 512.813 293.464 512.685 293.464C512.461 293.464 512.274 293.4 512.125 293.272C511.986 293.133 511.922 292.952 511.933 292.728L512.205 288.568C512.215 288.419 512.253 288.307 512.317 288.232C512.391 288.157 512.514 288.12 512.685 288.12H518.861C519.031 288.12 519.154 288.152 519.229 288.216C519.303 288.28 519.341 288.392 519.341 288.552V288.824C519.341 288.995 519.303 289.117 519.229 289.192C519.154 289.256 519.031 289.288 518.861 289.288H513.485L513.293 292.2C513.975 291.955 514.797 291.832 515.757 291.832C518.477 291.832 519.837 293.064 519.837 295.528C519.837 296.275 519.65 296.931 519.277 297.496C518.914 298.051 518.391 298.483 517.709 298.792C517.026 299.091 516.221 299.24 515.293 299.24ZM525.65 299.24C524.37 299.24 523.33 298.851 522.53 298.072C521.74 297.293 521.346 296.04 521.346 294.312C521.346 292.733 521.57 291.469 522.018 290.52C522.466 289.56 523.042 288.883 523.746 288.488C524.45 288.083 525.228 287.88 526.082 287.88C527.298 287.88 528.274 288.136 529.01 288.648C529.095 288.701 529.138 288.765 529.138 288.84C529.138 288.883 529.122 288.936 529.09 289L528.77 289.544C528.727 289.64 528.674 289.688 528.61 289.688C528.578 289.688 528.524 289.661 528.45 289.608C528.14 289.395 527.799 289.24 527.426 289.144C527.063 289.048 526.615 289 526.082 289C525.132 289 524.386 289.304 523.842 289.912C523.308 290.509 522.956 291.411 522.786 292.616C523.148 292.2 523.596 291.896 524.13 291.704C524.663 291.501 525.303 291.4 526.05 291.4C526.818 291.4 527.506 291.555 528.114 291.864C528.722 292.163 529.196 292.595 529.538 293.16C529.89 293.715 530.066 294.36 530.066 295.096C530.066 296.451 529.676 297.48 528.898 298.184C528.119 298.888 527.036 299.24 525.65 299.24ZM525.65 298.12C527.644 298.12 528.642 297.112 528.642 295.096C528.642 294.264 528.37 293.613 527.826 293.144C527.292 292.675 526.594 292.44 525.73 292.44C525.26 292.44 524.802 292.536 524.354 292.728C523.906 292.92 523.532 293.219 523.234 293.624C522.946 294.029 522.802 294.541 522.802 295.16C522.802 296.195 523.063 296.947 523.586 297.416C524.108 297.885 524.796 298.12 525.65 298.12ZM532.029 299C531.73 299 531.581 298.845 531.581 298.536V298.024C531.581 297.331 531.858 296.637 532.413 295.944C532.978 295.24 533.789 294.611 534.845 294.056C535.634 293.64 536.226 293.293 536.621 293.016C537.026 292.728 537.319 292.424 537.501 292.104C537.693 291.784 537.789 291.389 537.789 290.92C537.789 290.28 537.565 289.8 537.117 289.48C536.669 289.16 536.055 289 535.277 289C534.743 289 534.237 289.064 533.757 289.192C533.277 289.32 532.877 289.485 532.557 289.688C532.503 289.731 532.45 289.752 532.397 289.752C532.333 289.752 532.279 289.709 532.237 289.624L531.901 289.032C531.869 288.968 531.853 288.915 531.853 288.872C531.853 288.797 531.895 288.733 531.981 288.68C532.333 288.435 532.813 288.243 533.421 288.104C534.029 287.955 534.69 287.88 535.405 287.88C536.535 287.88 537.453 288.147 538.157 288.68C538.871 289.213 539.229 289.96 539.229 290.92C539.229 291.763 538.962 292.472 538.429 293.048C537.895 293.613 537.069 294.179 535.949 294.744C535.021 295.224 534.306 295.725 533.805 296.248C533.303 296.76 533.053 297.288 533.053 297.832H538.669C538.839 297.832 538.957 297.869 539.021 297.944C539.095 298.008 539.133 298.125 539.133 298.296V298.568C539.133 298.728 539.095 298.84 539.021 298.904C538.957 298.968 538.839 299 538.669 299H532.029Z" fill="black"/>
<path d="M92.6848 154.9C88.4048 154.9 85.2248 154.04 83.1448 152.32C81.1048 150.56 80.0848 148.44 80.0848 145.96V144.64H78.4048C77.5648 144.64 76.9848 144.48 76.6648 144.16C76.3848 143.84 76.2448 143.28 76.2448 142.48V138.22C76.2448 137.46 76.4048 136.92 76.7248 136.6C77.0448 136.24 77.6048 136.06 78.4048 136.06H86.7448C87.9048 136.06 88.7248 136.3 89.2048 136.78C89.6848 137.26 89.9248 138.02 89.9248 139.06V143.68C89.9248 144.56 90.1448 145.22 90.5848 145.66C91.0648 146.06 91.7648 146.26 92.6848 146.26C93.9648 146.26 94.8848 145.68 95.4448 144.52C96.0048 143.32 96.2848 141.3 96.2848 138.46C96.2848 135.5 95.6848 133.4 94.4848 132.16C93.2848 130.88 91.3048 130.24 88.5448 130.24C87.0248 130.24 85.6648 130.4 84.4648 130.72C83.3048 131.04 82.1448 131.48 80.9848 132.04C80.4248 132.32 80.0048 132.46 79.7248 132.46C79.3648 132.46 79.0248 132.2 78.7048 131.68L76.1848 127.3C75.9048 126.74 75.7648 126.32 75.7648 126.04C75.7648 125.64 76.0048 125.26 76.4848 124.9C78.0848 123.82 80.1648 123 82.7248 122.44C85.2848 121.88 88.1048 121.6 91.1848 121.6C97.2648 121.6 101.645 123.06 104.325 125.98C107.045 128.9 108.405 133.06 108.405 138.46C108.405 143.94 107.025 148.06 104.265 150.82C101.545 153.54 97.6848 154.9 92.6848 154.9ZM101.075 119.44C98.6354 119.44 96.6954 118.74 95.2554 117.34C93.7754 115.9 93.0354 114.02 93.0354 111.7C93.0354 109.38 93.7754 107.5 95.2554 106.06C96.7354 104.62 98.6754 103.9 101.075 103.9C103.515 103.9 105.495 104.62 107.015 106.06C108.495 107.5 109.235 109.38 109.235 111.7C109.235 114.02 108.495 115.9 107.015 117.34C105.495 118.74 103.515 119.44 101.075 119.44ZM101.075 114.04C101.755 114.04 102.335 113.82 102.815 113.38C103.255 112.94 103.475 112.38 103.475 111.7C103.475 111.02 103.255 110.46 102.815 110.02C102.335 109.58 101.755 109.36 101.075 109.36C100.395 109.36 99.8154 109.58 99.3354 110.02C98.8554 110.46 98.6154 111.02 98.6154 111.7C98.6154 112.38 98.8554 112.94 99.3354 113.38C99.8154 113.82 100.395 114.04 101.075 114.04ZM124.955 154C123.115 154 122.195 153.12 122.195 151.36V134.74C122.195 133.1 121.875 131.94 121.235 131.26C120.595 130.58 119.555 130.24 118.115 130.24C116.595 130.24 115.195 130.56 113.915 131.2C113.515 131.44 113.155 131.56 112.835 131.56C112.435 131.56 112.175 131.32 112.055 130.84L110.555 125.14L110.435 124.3C110.435 124.1 110.475 123.94 110.555 123.82C110.675 123.7 110.855 123.58 111.095 123.46C113.775 122.22 116.935 121.6 120.575 121.6C125.255 121.6 128.715 122.6 130.955 124.6C133.235 126.6 134.375 129.68 134.375 133.84V151.36C134.375 153.12 133.455 154 131.615 154H124.955ZM151.423 154.9C147.823 154.9 144.943 153.96 142.783 152.08C140.623 150.2 139.543 147.4 139.543 143.68V125.56C139.543 124.52 139.783 123.76 140.263 123.28C140.743 122.76 141.543 122.5 142.663 122.5H148.483C149.643 122.5 150.463 122.76 150.943 123.28C151.423 123.76 151.663 124.52 151.663 125.56V143.2C151.663 145.52 152.923 146.68 155.443 146.68C156.723 146.68 157.783 146.34 158.623 145.66C159.463 144.98 159.883 144.12 159.883 143.08V125.56C159.883 124.52 160.123 123.76 160.603 123.28C161.083 122.76 161.903 122.5 163.063 122.5H168.883C170.043 122.5 170.863 122.76 171.343 123.28C171.823 123.76 172.063 124.52 172.063 125.56V151.36C172.063 153.12 171.163 154 169.363 154H163.963C162.883 154 162.283 153.56 162.163 152.68L161.923 150.88C160.763 152.16 159.363 153.16 157.723 153.88C156.083 154.56 153.983 154.9 151.423 154.9ZM189.219 154.9C186.259 154.9 183.759 154.64 181.719 154.12C179.719 153.6 177.859 152.78 176.139 151.66C175.659 151.38 175.419 151 175.419 150.52C175.419 150.12 175.559 149.7 175.839 149.26L178.359 144.94C178.719 144.34 179.079 144.04 179.439 144.04C179.679 144.04 180.059 144.2 180.579 144.52C181.619 145.16 182.679 145.62 183.759 145.9C184.839 146.18 186.059 146.32 187.419 146.32C189.899 146.32 191.779 145.72 193.059 144.52C194.339 143.32 194.979 141.26 194.979 138.34C194.979 135.42 194.359 133.34 193.119 132.1C191.919 130.86 190.099 130.24 187.659 130.24C185.139 130.24 182.859 130.84 180.819 132.04C180.299 132.36 179.899 132.52 179.619 132.52C179.179 132.52 178.819 132.24 178.539 131.68L176.079 127.3C175.799 126.74 175.659 126.32 175.659 126.04C175.659 125.64 175.899 125.26 176.379 124.9C178.059 123.82 179.919 123 181.959 122.44C184.039 121.88 186.519 121.6 189.399 121.6C195.199 121.6 199.599 123.02 202.599 125.86C205.599 128.66 207.099 132.82 207.099 138.34C207.099 143.82 205.559 147.96 202.479 150.76C199.439 153.52 195.019 154.9 189.219 154.9ZM222.966 154.9C219.366 154.9 216.486 153.96 214.326 152.08C212.166 150.2 211.086 147.4 211.086 143.68V125.56C211.086 124.52 211.326 123.76 211.806 123.28C212.286 122.76 213.086 122.5 214.206 122.5H220.026C221.186 122.5 222.006 122.76 222.486 123.28C222.966 123.76 223.206 124.52 223.206 125.56V143.2C223.206 145.52 224.466 146.68 226.986 146.68C228.266 146.68 229.326 146.34 230.166 145.66C231.006 144.98 231.426 144.12 231.426 143.08V125.56C231.426 124.52 231.666 123.76 232.146 123.28C232.626 122.76 233.446 122.5 234.606 122.5H240.426C241.586 122.5 242.406 122.76 242.886 123.28C243.366 123.76 243.606 124.52 243.606 125.56V151.36C243.606 153.12 242.706 154 240.906 154H235.506C234.426 154 233.826 153.56 233.706 152.68L233.466 150.88C232.306 152.16 230.906 153.16 229.266 153.88C227.626 154.56 225.526 154.9 222.966 154.9ZM254.522 154C252.082 154 250.862 152.74 250.862 150.22V126.64C250.862 125.48 250.762 124.54 250.562 123.82C250.362 123.1 250.082 122.5 249.722 122.02C249.402 121.54 248.862 120.92 248.102 120.16C247.742 119.88 247.382 119.52 247.022 119.08L245.822 117.76C245.462 117.36 245.222 116.98 245.102 116.62C244.942 116.22 244.862 115.7 244.862 115.06V112.48C244.862 111.56 245.082 110.92 245.522 110.56C245.962 110.16 246.682 109.96 247.682 109.96H266.042C266.882 109.96 267.462 110.14 267.782 110.5C268.102 110.82 268.262 111.38 268.262 112.18V116.56C268.262 117.36 268.102 117.92 267.782 118.24C267.462 118.56 266.882 118.72 266.042 118.72H259.262C260.822 119.96 261.842 121.16 262.322 122.32C262.802 123.48 263.042 125.08 263.042 127.12V144.1C263.042 144.54 263.122 144.84 263.282 145C263.442 145.16 263.682 145.24 264.002 145.24H265.142C265.822 145.24 266.262 145.36 266.462 145.6C266.662 145.84 266.762 146.34 266.762 147.1V151.84C266.762 152.56 266.642 153.08 266.402 153.4C266.202 153.68 265.842 153.86 265.322 153.94C264.842 153.98 264.002 154 262.802 154H254.522ZM285.182 154.9C279.422 154.9 274.782 153.92 271.262 151.96C270.822 151.72 270.502 151.5 270.302 151.3C270.142 151.1 270.062 150.86 270.062 150.58C270.062 150.42 270.162 150.14 270.362 149.74L272.882 145.12C273.122 144.68 273.402 144.46 273.722 144.46C274.002 144.46 274.362 144.58 274.802 144.82C275.882 145.38 277.322 145.9 279.122 146.38C280.962 146.86 282.602 147.1 284.042 147.1C285.282 147.1 286.162 146.94 286.682 146.62C287.242 146.3 287.522 145.82 287.522 145.18C287.522 144.42 287.142 143.82 286.382 143.38C285.622 142.9 284.162 142.26 282.002 141.46L280.382 140.86C277.142 139.62 274.782 138.3 273.302 136.9C271.862 135.5 271.142 133.64 271.142 131.32C271.142 128.32 272.422 125.96 274.982 124.24C277.582 122.48 281.042 121.6 285.362 121.6C288.042 121.6 290.342 121.82 292.262 122.26C294.182 122.7 296.022 123.38 297.782 124.3C298.582 124.7 298.982 125.16 298.982 125.68C298.982 125.92 298.842 126.28 298.562 126.76L296.162 130.66C295.842 131.14 295.562 131.38 295.322 131.38C295.122 131.38 294.782 131.26 294.302 131.02C293.342 130.54 292.202 130.16 290.882 129.88C289.602 129.56 288.362 129.4 287.162 129.4C285.682 129.4 284.582 129.54 283.862 129.82C283.182 130.06 282.842 130.5 282.842 131.14C282.842 131.94 283.322 132.62 284.282 133.18C285.282 133.7 287.142 134.46 289.862 135.46C290.022 135.5 290.642 135.72 291.722 136.12C294.682 137.24 296.742 138.48 297.902 139.84C299.102 141.16 299.702 142.94 299.702 145.18C299.702 148.06 298.462 150.4 295.982 152.2C293.502 154 289.902 154.9 285.182 154.9ZM319.984 154.9C315.984 154.9 312.904 154.14 310.744 152.62C308.624 151.1 307.064 148.8 306.064 145.72L302.824 135.46C302.624 134.86 302.524 134.42 302.524 134.14C302.524 133.58 302.944 133.16 303.784 132.88L310.984 130.42C311.504 130.22 311.924 130.12 312.244 130.12C312.924 130.12 313.404 130.64 313.684 131.68L317.344 143.26C317.704 144.38 318.124 145.16 318.604 145.6C319.084 146.04 319.844 146.26 320.884 146.26C322.244 146.26 323.224 145.6 323.824 144.28C324.424 142.92 324.724 140.78 324.724 137.86C324.724 135.18 324.424 133.24 323.824 132.04C323.264 130.84 322.324 130.24 321.004 130.24C320.484 130.24 319.664 130.44 318.544 130.84C318.384 130.92 318.144 130.96 317.824 130.96C317.384 130.96 317.044 130.66 316.804 130.06L314.944 125.2C314.824 124.88 314.764 124.62 314.764 124.42C314.764 124.02 315.004 123.72 315.484 123.52C316.804 122.84 318.084 122.36 319.324 122.08C320.604 121.76 322.084 121.6 323.764 121.6C327.884 121.6 331.064 123.04 333.304 125.92C335.584 128.8 336.724 132.78 336.724 137.86C336.724 143.38 335.264 147.6 332.344 150.52C329.424 153.44 325.304 154.9 319.984 154.9ZM344.355 154C341.915 154 340.695 152.74 340.695 150.22V125.56C340.695 124.48 340.935 123.7 341.415 123.22C341.935 122.74 342.815 122.5 344.055 122.5H349.515C350.755 122.5 351.615 122.74 352.095 123.22C352.615 123.7 352.875 124.48 352.875 125.56V144.1C352.875 144.58 352.935 144.9 353.055 145.06C353.175 145.18 353.395 145.24 353.715 145.24H354.975C355.655 145.24 356.095 145.36 356.295 145.6C356.495 145.84 356.595 146.34 356.595 147.1V151.84C356.595 152.56 356.475 153.08 356.235 153.4C356.035 153.68 355.675 153.86 355.155 153.94C354.675 153.98 353.835 154 352.635 154H344.355ZM374.42 154.9C368.66 154.9 364.02 153.92 360.5 151.96C360.06 151.72 359.74 151.5 359.54 151.3C359.38 151.1 359.3 150.86 359.3 150.58C359.3 150.42 359.4 150.14 359.6 149.74L362.12 145.12C362.36 144.68 362.64 144.46 362.96 144.46C363.24 144.46 363.6 144.58 364.04 144.82C365.12 145.38 366.56 145.9 368.36 146.38C370.2 146.86 371.84 147.1 373.28 147.1C374.52 147.1 375.4 146.94 375.92 146.62C376.48 146.3 376.76 145.82 376.76 145.18C376.76 144.42 376.38 143.82 375.62 143.38C374.86 142.9 373.4 142.26 371.24 141.46L369.62 140.86C366.38 139.62 364.02 138.3 362.54 136.9C361.1 135.5 360.38 133.64 360.38 131.32C360.38 128.32 361.66 125.96 364.22 124.24C366.82 122.48 370.28 121.6 374.6 121.6C377.28 121.6 379.58 121.82 381.5 122.26C383.42 122.7 385.26 123.38 387.02 124.3C387.82 124.7 388.22 125.16 388.22 125.68C388.22 125.92 388.08 126.28 387.8 126.76L385.4 130.66C385.08 131.14 384.8 131.38 384.56 131.38C384.36 131.38 384.02 131.26 383.54 131.02C382.58 130.54 381.44 130.16 380.12 129.88C378.84 129.56 377.6 129.4 376.4 129.4C374.92 129.4 373.82 129.54 373.1 129.82C372.42 130.06 372.08 130.5 372.08 131.14C372.08 131.94 372.56 132.62 373.52 133.18C374.52 133.7 376.38 134.46 379.1 135.46C379.26 135.5 379.88 135.72 380.96 136.12C383.92 137.24 385.98 138.48 387.14 139.84C388.34 141.16 388.94 142.94 388.94 145.18C388.94 148.06 387.7 150.4 385.22 152.2C382.74 154 379.14 154.9 374.42 154.9ZM362.842 118.84C361.642 118.84 360.862 118.66 360.502 118.3C360.142 117.9 359.962 117.08 359.962 115.84V113.56C359.962 112.32 360.142 111.52 360.502 111.16C360.862 110.76 361.642 110.56 362.842 110.56H378.262V108.1C378.262 107.02 378.502 106.28 378.982 105.88C379.422 105.48 380.142 105.28 381.142 105.28H384.862C385.862 105.28 386.602 105.48 387.082 105.88C387.522 106.28 387.742 107.02 387.742 108.1V115.54C387.742 116.74 387.522 117.6 387.082 118.12C386.642 118.6 385.782 118.84 384.502 118.84H362.842ZM408.202 154.9C403.162 154.9 399.142 154.02 396.142 152.26C393.182 150.46 391.702 147.82 391.702 144.34C391.702 140.82 392.982 138.46 395.542 137.26C394.302 136.46 393.382 135.52 392.782 134.44C392.222 133.32 391.942 131.96 391.942 130.36C391.942 127.76 392.862 125.66 394.702 124.06C396.582 122.42 398.982 121.6 401.902 121.6C404.982 121.6 407.562 122.18 409.642 123.34C410.122 123.62 410.362 123.96 410.362 124.36C410.362 124.56 410.302 124.82 410.182 125.14L408.742 128.92C408.542 129.36 408.302 129.58 408.022 129.58C407.862 129.58 407.662 129.52 407.422 129.4C407.182 129.28 406.922 129.18 406.642 129.1C406.402 128.98 406.102 128.92 405.742 128.92C405.062 128.92 404.522 129.16 404.122 129.64C403.762 130.12 403.582 130.74 403.582 131.5C403.582 132.42 403.802 133.1 404.242 133.54C404.722 133.94 405.462 134.14 406.462 134.14H407.662C408.542 134.14 408.982 134.58 408.982 135.46V139.36C408.982 140.28 408.522 140.74 407.602 140.74H406.522C405.522 140.74 404.782 140.96 404.302 141.4C403.822 141.84 403.582 142.54 403.582 143.5C403.582 145.34 405.122 146.26 408.202 146.26C409.962 146.26 411.222 145.86 411.982 145.06C412.782 144.26 413.182 142.94 413.182 141.1V125.56C413.182 124.52 413.422 123.76 413.902 123.28C414.382 122.76 415.182 122.5 416.302 122.5H422.122C423.282 122.5 424.102 122.76 424.582 123.28C425.102 123.76 425.362 124.52 425.362 125.56V140.44C425.362 144.84 424.022 148.36 421.342 151C418.662 153.6 414.282 154.9 408.202 154.9ZM442.399 154.9C438.799 154.9 435.919 153.96 433.759 152.08C431.599 150.2 430.519 147.4 430.519 143.68V125.56C430.519 124.52 430.759 123.76 431.239 123.28C431.719 122.76 432.519 122.5 433.639 122.5H439.459C440.619 122.5 441.439 122.76 441.919 123.28C442.399 123.76 442.639 124.52 442.639 125.56V143.2C442.639 145.52 443.899 146.68 446.419 146.68C447.699 146.68 448.759 146.34 449.599 145.66C450.439 144.98 450.859 144.12 450.859 143.08V125.56C450.859 124.52 451.099 123.76 451.579 123.28C452.059 122.76 452.879 122.5 454.039 122.5H459.859C461.019 122.5 461.839 122.76 462.319 123.28C462.799 123.76 463.039 124.52 463.039 125.56V151.36C463.039 153.12 462.139 154 460.339 154H454.939C453.859 154 453.259 153.56 453.139 152.68L452.899 150.88C451.739 152.16 450.339 153.16 448.699 153.88C447.059 154.56 444.959 154.9 442.399 154.9ZM103.841 226.9C100.641 226.9 98.1015 226.02 96.2215 224.26C94.3415 222.46 93.4015 220.12 93.4015 217.24C93.4015 213.48 94.6415 210.8 97.1215 209.2C99.6015 207.6 103.161 206.8 107.801 206.8H114.941V206.14C114.941 204.74 114.461 203.72 113.501 203.08C112.541 202.4 110.801 202.06 108.281 202.06C106.881 202.06 105.481 202.22 104.081 202.54C102.721 202.82 101.541 203.2 100.541 203.68C99.9815 203.96 99.5815 204.1 99.3415 204.1C98.9415 204.1 98.6015 203.84 98.3215 203.32L95.6215 198.58C95.4215 198.26 95.3215 197.98 95.3215 197.74C95.3215 197.38 95.6015 197.04 96.1615 196.72C97.8415 195.72 99.9415 194.96 102.461 194.44C105.021 193.88 107.761 193.6 110.681 193.6C116.241 193.6 120.341 194.74 122.981 197.02C125.621 199.3 126.941 202.72 126.941 207.28V223C126.941 224.04 126.701 224.8 126.221 225.28C125.741 225.76 124.921 226 123.761 226H118.121C116.961 226 116.141 225.76 115.661 225.28C115.181 224.8 114.941 224.04 114.941 223V214.66H108.341C107.061 214.66 106.121 214.84 105.521 215.2C104.961 215.56 104.681 216.18 104.681 217.06C104.681 217.9 104.881 218.5 105.281 218.86C105.721 219.22 106.421 219.4 107.381 219.4C108.061 219.4 108.841 219.24 109.721 218.92C109.841 218.88 109.981 218.86 110.141 218.86C110.581 218.86 110.861 219.14 110.981 219.7L111.881 224.26C111.921 224.38 111.941 224.54 111.941 224.74C111.941 225.02 111.861 225.24 111.701 225.4C111.541 225.56 111.261 225.72 110.861 225.88C108.941 226.56 106.601 226.9 103.841 226.9ZM143.561 226.9C139.521 226.9 136.401 225.54 134.201 222.82C132.001 220.06 130.901 216.28 130.901 211.48C130.901 205.72 132.441 201.3 135.521 198.22C138.641 195.14 143.201 193.6 149.201 193.6C155.001 193.6 159.281 194.86 162.041 197.38C164.801 199.86 166.181 203.22 166.181 207.46V223C166.181 224.04 165.941 224.8 165.461 225.28C164.981 225.76 164.161 226 163.001 226H157.181C156.021 226 155.201 225.76 154.721 225.28C154.241 224.8 154.001 224.04 154.001 223V207.88C154.001 206.04 153.621 204.64 152.861 203.68C152.141 202.72 150.921 202.24 149.201 202.24C147.081 202.24 145.501 203 144.461 204.52C143.461 206 142.961 208.44 142.961 211.84C142.961 214.16 143.241 215.82 143.801 216.82C144.401 217.78 145.341 218.26 146.621 218.26C147.421 218.26 148.181 218.1 148.901 217.78C149.021 217.74 149.161 217.72 149.321 217.72C149.761 217.72 150.041 218 150.161 218.56L151.361 224.2C151.401 224.32 151.421 224.48 151.421 224.68C151.421 224.96 151.341 225.18 151.181 225.34C151.021 225.5 150.741 225.66 150.341 225.82C149.341 226.18 148.341 226.44 147.341 226.6C146.341 226.8 145.081 226.9 143.561 226.9ZM180.599 226.9C177.399 226.9 174.859 226.02 172.979 224.26C171.099 222.46 170.159 220.12 170.159 217.24C170.159 213.48 171.399 210.8 173.879 209.2C176.359 207.6 179.919 206.8 184.559 206.8H191.699V206.14C191.699 204.74 191.219 203.72 190.259 203.08C189.299 202.4 187.559 202.06 185.039 202.06C183.639 202.06 182.239 202.22 180.839 202.54C179.479 202.82 178.299 203.2 177.299 203.68C176.739 203.96 176.339 204.1 176.099 204.1C175.699 204.1 175.359 203.84 175.079 203.32L172.379 198.58C172.179 198.26 172.079 197.98 172.079 197.74C172.079 197.38 172.359 197.04 172.919 196.72C174.599 195.72 176.699 194.96 179.219 194.44C181.779 193.88 184.519 193.6 187.439 193.6C192.999 193.6 197.099 194.74 199.739 197.02C202.379 199.3 203.699 202.72 203.699 207.28V223C203.699 224.04 203.459 224.8 202.979 225.28C202.499 225.76 201.679 226 200.519 226H194.879C193.719 226 192.899 225.76 192.419 225.28C191.939 224.8 191.699 224.04 191.699 223V214.66H185.099C183.819 214.66 182.879 214.84 182.279 215.2C181.719 215.56 181.439 216.18 181.439 217.06C181.439 217.9 181.639 218.5 182.039 218.86C182.479 219.22 183.179 219.4 184.139 219.4C184.819 219.4 185.599 219.24 186.479 218.92C186.599 218.88 186.739 218.86 186.899 218.86C187.339 218.86 187.619 219.14 187.739 219.7L188.639 224.26C188.679 224.38 188.699 224.54 188.699 224.74C188.699 225.02 188.619 225.24 188.459 225.4C188.299 225.56 188.019 225.72 187.619 225.88C185.699 226.56 183.359 226.9 180.599 226.9ZM225.179 226.9C221.179 226.9 218.099 226.14 215.939 224.62C213.819 223.1 212.259 220.8 211.259 217.72L208.019 207.46C207.819 206.86 207.719 206.42 207.719 206.14C207.719 205.58 208.139 205.16 208.979 204.88L216.179 202.42C216.699 202.22 217.119 202.12 217.439 202.12C218.119 202.12 218.599 202.64 218.879 203.68L222.539 215.26C222.899 216.38 223.319 217.16 223.799 217.6C224.279 218.04 225.039 218.26 226.079 218.26C227.439 218.26 228.419 217.6 229.019 216.28C229.619 214.92 229.919 212.78 229.919 209.86C229.919 207.18 229.619 205.24 229.019 204.04C228.459 202.84 227.519 202.24 226.199 202.24C225.679 202.24 224.859 202.44 223.739 202.84C223.579 202.92 223.339 202.96 223.019 202.96C222.579 202.96 222.239 202.66 221.999 202.06L220.139 197.2C220.019 196.88 219.959 196.62 219.959 196.42C219.959 196.02 220.199 195.72 220.679 195.52C221.999 194.84 223.279 194.36 224.519 194.08C225.799 193.76 227.279 193.6 228.959 193.6C233.079 193.6 236.259 195.04 238.499 197.92C240.779 200.8 241.919 204.78 241.919 209.86C241.919 215.38 240.459 219.6 237.539 222.52C234.619 225.44 230.499 226.9 225.179 226.9ZM257.351 226.9C253.311 226.9 250.191 225.54 247.991 222.82C245.791 220.06 244.691 216.28 244.691 211.48C244.691 207.76 245.191 204.56 246.191 201.88C247.231 199.16 248.671 197.1 250.511 195.7C252.391 194.3 254.571 193.6 257.051 193.6C259.571 193.6 261.531 194.56 262.931 196.48C263.651 195.6 264.651 194.9 265.931 194.38C267.251 193.86 268.651 193.6 270.131 193.6C273.451 193.6 275.911 194.4 277.511 196C279.151 197.56 279.971 199.72 279.971 202.48V223C279.971 224.04 279.731 224.8 279.251 225.28C278.771 225.76 277.951 226 276.791 226H270.971C269.811 226 268.991 225.76 268.511 225.28C268.031 224.8 267.791 224.04 267.791 223V204.46C267.791 202.98 267.191 202.24 265.991 202.24C265.311 202.24 264.691 202.6 264.131 203.32C263.931 203.56 263.731 203.74 263.531 203.86C263.371 203.94 263.151 203.98 262.871 203.98C262.551 203.98 262.291 203.94 262.091 203.86C261.931 203.74 261.751 203.56 261.551 203.32C261.271 202.92 261.011 202.64 260.771 202.48C260.571 202.32 260.271 202.24 259.871 202.24C258.911 202.24 258.151 203 257.591 204.52C257.031 206.04 256.751 208.36 256.751 211.48C256.751 213.92 257.031 215.66 257.591 216.7C258.191 217.74 259.131 218.26 260.411 218.26C261.211 218.26 261.971 218.1 262.691 217.78C262.811 217.74 262.951 217.72 263.111 217.72C263.551 217.72 263.831 218 263.951 218.56L265.151 224.2C265.191 224.32 265.211 224.48 265.211 224.68C265.211 224.96 265.131 225.18 264.971 225.34C264.811 225.5 264.531 225.66 264.131 225.82C263.131 226.18 262.131 226.44 261.131 226.6C260.131 226.8 258.871 226.9 257.351 226.9ZM271.708 190.84C270.588 190.84 269.808 190.64 269.368 190.24C268.888 189.84 268.648 189.08 268.648 187.96V181.06C268.648 179.9 268.888 179.12 269.368 178.72C269.808 178.32 270.588 178.12 271.708 178.12H276.808C277.928 178.12 278.728 178.32 279.208 178.72C279.648 179.12 279.868 179.9 279.868 181.06V187.96C279.868 189.08 279.648 189.84 279.208 190.24C278.728 190.64 277.928 190.84 276.808 190.84H271.708ZM299.248 226.9C289.048 226.9 283.948 222.84 283.948 214.72V210.34C283.948 209.34 284.168 208.6 284.608 208.12C285.088 207.64 285.888 207.4 287.008 207.4H296.608C297.408 207.4 297.948 207.56 298.228 207.88C298.548 208.2 298.708 208.76 298.708 209.56V212.5C298.708 213.3 298.548 213.86 298.228 214.18C297.948 214.5 297.388 214.66 296.548 214.66H294.508V215.62C294.508 216.34 294.888 216.96 295.648 217.48C296.408 218 297.608 218.26 299.248 218.26C301.288 218.26 302.668 217.64 303.388 216.4C304.148 215.16 304.528 213.06 304.528 210.1C304.528 207.18 303.968 205.14 302.848 203.98C301.768 202.82 299.828 202.24 297.028 202.24C295.588 202.24 294.188 202.4 292.828 202.72C291.508 203.04 290.328 203.46 289.288 203.98C288.728 204.26 288.328 204.4 288.088 204.4C287.688 204.4 287.348 204.14 287.068 203.62L284.548 199.24C284.268 198.68 284.128 198.24 284.128 197.92C284.128 197.48 284.348 197.12 284.788 196.84C286.428 195.8 288.568 195 291.208 194.44C293.888 193.88 296.708 193.6 299.668 193.6C310.988 193.6 316.648 199.1 316.648 210.1C316.648 215.66 315.128 219.86 312.088 222.7C309.048 225.5 304.768 226.9 299.248 226.9ZM324.258 226C321.818 226 320.598 224.74 320.598 222.22V197.56C320.598 196.48 320.838 195.7 321.318 195.22C321.838 194.74 322.718 194.5 323.958 194.5H329.418C330.658 194.5 331.518 194.74 331.998 195.22C332.518 195.7 332.778 196.48 332.778 197.56V216.1C332.778 216.58 332.838 216.9 332.958 217.06C333.078 217.18 333.298 217.24 333.618 217.24H334.878C335.558 217.24 335.998 217.36 336.198 217.6C336.398 217.84 336.498 218.34 336.498 219.1V223.84C336.498 224.56 336.378 225.08 336.138 225.4C335.938 225.68 335.578 225.86 335.058 225.94C334.578 225.98 333.738 226 332.538 226H324.258ZM352.282 226.9C348.682 226.9 345.802 225.96 343.642 224.08C341.482 222.2 340.402 219.4 340.402 215.68V197.56C340.402 196.52 340.642 195.76 341.122 195.28C341.602 194.76 342.402 194.5 343.522 194.5H349.342C350.502 194.5 351.322 194.76 351.802 195.28C352.282 195.76 352.522 196.52 352.522 197.56V215.2C352.522 217.52 353.782 218.68 356.302 218.68C357.582 218.68 358.642 218.34 359.482 217.66C360.322 216.98 360.742 216.12 360.742 215.08V197.56C360.742 196.52 360.982 195.76 361.462 195.28C361.942 194.76 362.762 194.5 363.922 194.5H369.742C370.902 194.5 371.722 194.76 372.202 195.28C372.682 195.76 372.922 196.52 372.922 197.56V223.36C372.922 225.12 372.022 226 370.222 226H364.822C363.742 226 363.142 225.56 363.022 224.68L362.782 222.88C361.622 224.16 360.222 225.16 358.582 225.88C356.942 226.56 354.842 226.9 352.282 226.9ZM348.018 190.84C346.778 190.84 345.978 190.66 345.618 190.3C345.258 189.9 345.078 189.08 345.078 187.84V185.56C345.078 184.32 345.258 183.52 345.618 183.16C345.978 182.76 346.778 182.56 348.018 182.56H354.618V180.1C354.618 179.02 354.858 178.28 355.338 177.88C355.778 177.48 356.498 177.28 357.498 177.28H359.538C360.538 177.28 361.278 177.48 361.758 177.88C362.198 178.28 362.418 179.02 362.418 180.1V182.56H365.118V180.1C365.118 179.02 365.358 178.28 365.838 177.88C366.278 177.48 366.998 177.28 367.998 177.28H370.038C371.038 177.28 371.778 177.48 372.258 177.88C372.698 178.28 372.918 179.02 372.918 180.1V187.54C372.918 188.74 372.698 189.6 372.258 190.12C371.818 190.6 370.958 190.84 369.678 190.84H348.018ZM366.558 175.24C365.478 175.24 364.718 175.04 364.278 174.64C363.798 174.24 363.558 173.46 363.558 172.3V167.56C363.558 166.4 363.798 165.62 364.278 165.22C364.718 164.82 365.478 164.62 366.558 164.62H369.738C370.818 164.62 371.598 164.82 372.078 165.22C372.558 165.62 372.798 166.4 372.798 167.56V172.3C372.798 173.46 372.558 174.24 372.078 174.64C371.598 175.04 370.818 175.24 369.738 175.24H366.558ZM392.178 226.9C381.978 226.9 376.878 222.84 376.878 214.72V210.34C376.878 209.34 377.098 208.6 377.538 208.12C378.018 207.64 378.818 207.4 379.938 207.4H389.538C390.338 207.4 390.878 207.56 391.158 207.88C391.478 208.2 391.638 208.76 391.638 209.56V212.5C391.638 213.3 391.478 213.86 391.158 214.18C390.878 214.5 390.318 214.66 389.478 214.66H387.438V215.62C387.438 216.34 387.818 216.96 388.578 217.48C389.338 218 390.538 218.26 392.178 218.26C394.218 218.26 395.598 217.64 396.318 216.4C397.078 215.16 397.458 213.06 397.458 210.1C397.458 207.18 396.898 205.14 395.778 203.98C394.698 202.82 392.758 202.24 389.958 202.24C388.518 202.24 387.118 202.4 385.758 202.72C384.438 203.04 383.258 203.46 382.218 203.98C381.658 204.26 381.258 204.4 381.018 204.4C380.618 204.4 380.278 204.14 379.998 203.62L377.478 199.24C377.198 198.68 377.058 198.24 377.058 197.92C377.058 197.48 377.278 197.12 377.718 196.84C379.358 195.8 381.498 195 384.138 194.44C386.818 193.88 389.638 193.6 392.598 193.6C403.918 193.6 409.578 199.1 409.578 210.1C409.578 215.66 408.058 219.86 405.018 222.7C401.978 225.5 397.698 226.9 392.178 226.9ZM429.847 226.9C425.847 226.9 422.767 226.14 420.607 224.62C418.487 223.1 416.927 220.8 415.927 217.72L412.687 207.46C412.487 206.86 412.387 206.42 412.387 206.14C412.387 205.58 412.807 205.16 413.647 204.88L420.847 202.42C421.367 202.22 421.787 202.12 422.107 202.12C422.787 202.12 423.267 202.64 423.547 203.68L427.207 215.26C427.567 216.38 427.987 217.16 428.467 217.6C428.947 218.04 429.707 218.26 430.747 218.26C432.107 218.26 433.087 217.6 433.687 216.28C434.287 214.92 434.587 212.78 434.587 209.86C434.587 207.18 434.287 205.24 433.687 204.04C433.127 202.84 432.187 202.24 430.867 202.24C430.347 202.24 429.527 202.44 428.407 202.84C428.247 202.92 428.007 202.96 427.687 202.96C427.247 202.96 426.907 202.66 426.667 202.06L424.807 197.2C424.687 196.88 424.627 196.62 424.627 196.42C424.627 196.02 424.867 195.72 425.347 195.52C426.667 194.84 427.947 194.36 429.187 194.08C430.467 193.76 431.947 193.6 433.627 193.6C437.747 193.6 440.927 195.04 443.167 197.92C445.447 200.8 446.587 204.78 446.587 209.86C446.587 215.38 445.127 219.6 442.207 222.52C439.287 225.44 435.167 226.9 429.847 226.9Z" fill="black"/>
<path d="M74.3848 160H465.619V163H74.3848V160ZM92.0215 232H447.967V235H92.0215V232Z" fill="black"/>
</svg>
