<svg width="420" height="313" viewBox="0 0 420 313" fill="none" xmlns="http://www.w3.org/2000/svg">
<path d="M207.541 15.8702L0 0V269H420V79.351L207.541 15.8702Z" fill="#F8D105"/>
<path d="M4.944 299.24C3.67467 299.24 2.70933 298.968 2.048 298.424C1.39733 297.869 1.072 297.117 1.072 296.168V291.08C1.072 290.76 1.232 290.6 1.552 290.6H2.048C2.21867 290.6 2.34133 290.643 2.416 290.728C2.49067 290.803 2.528 290.92 2.528 291.08V296.312C2.528 296.909 2.736 297.363 3.152 297.672C3.568 297.971 4.16533 298.12 4.944 298.12C5.72267 298.12 6.32 297.971 6.736 297.672C7.152 297.363 7.36 296.909 7.36 296.312V288.28C7.36 288.12 7.39733 288.003 7.472 287.928C7.54667 287.843 7.66933 287.8 7.84 287.8H8.32C8.65067 287.8 8.816 287.96 8.816 288.28V296.168C8.816 297.117 8.48533 297.869 7.824 298.424C7.17333 298.968 6.21333 299.24 4.944 299.24ZM1.22987 288.968C1.05921 288.968 0.941875 288.936 0.877874 288.872C0.803208 288.808 0.765875 288.691 0.765875 288.52V288.28C0.765875 288.12 0.803208 288.003 0.877874 287.928C0.941875 287.853 1.05921 287.816 1.22987 287.816H4.74987V286.328C4.74987 286.104 4.86187 285.992 5.08587 285.992H5.69387C5.91787 285.992 6.02987 286.104 6.02987 286.328V288.184C6.02987 288.483 5.97654 288.691 5.86987 288.808C5.76321 288.915 5.55521 288.968 5.24587 288.968H1.22987ZM17.8254 299C17.5267 299 17.3774 298.845 17.3774 298.536V298.024C17.3774 297.331 17.6547 296.637 18.2094 295.944C18.7747 295.24 19.5854 294.611 20.6414 294.056C21.4307 293.64 22.0227 293.293 22.4174 293.016C22.8227 292.728 23.116 292.424 23.2974 292.104C23.4894 291.784 23.5854 291.389 23.5854 290.92C23.5854 290.28 23.3614 289.8 22.9134 289.48C22.4654 289.16 21.852 289 21.0734 289C20.54 289 20.0334 289.064 19.5534 289.192C19.0734 289.32 18.6734 289.485 18.3534 289.688C18.3 289.731 18.2467 289.752 18.1934 289.752C18.1294 289.752 18.076 289.709 18.0334 289.624L17.6974 289.032C17.6654 288.968 17.6494 288.915 17.6494 288.872C17.6494 288.797 17.692 288.733 17.7774 288.68C18.1294 288.435 18.6094 288.243 19.2174 288.104C19.8254 287.955 20.4867 287.88 21.2014 287.88C22.332 287.88 23.2494 288.147 23.9534 288.68C24.668 289.213 25.0254 289.96 25.0254 290.92C25.0254 291.763 24.7587 292.472 24.2254 293.048C23.692 293.613 22.8654 294.179 21.7454 294.744C20.8174 295.224 20.1027 295.725 19.6014 296.248C19.1 296.76 18.8494 297.288 18.8494 297.832H24.4654C24.636 297.832 24.7534 297.869 24.8174 297.944C24.892 298.008 24.9294 298.125 24.9294 298.296V298.568C24.9294 298.728 24.892 298.84 24.8174 298.904C24.7534 298.968 24.636 299 24.4654 299H17.8254ZM30.2769 299.24C29.5622 299.24 28.8742 299.16 28.2129 299C27.5622 298.851 27.0555 298.653 26.6929 298.408C26.6075 298.355 26.5649 298.291 26.5649 298.216C26.5649 298.173 26.5809 298.12 26.6129 298.056L26.9649 297.464C27.0075 297.389 27.0555 297.352 27.1089 297.352C27.1622 297.352 27.2155 297.373 27.2689 297.416C27.5995 297.619 28.0262 297.789 28.5489 297.928C29.0822 298.056 29.6582 298.12 30.2769 298.12C31.3009 298.12 32.0742 297.907 32.5969 297.48C33.1195 297.043 33.3809 296.392 33.3809 295.528C33.3809 294.557 33.1569 293.88 32.7089 293.496C32.2609 293.101 31.5195 292.904 30.4849 292.904C29.5355 292.904 28.7302 293.064 28.0689 293.384C27.9302 293.437 27.7969 293.464 27.6689 293.464C27.4449 293.464 27.2582 293.4 27.1089 293.272C26.9702 293.133 26.9062 292.952 26.9169 292.728L27.1889 288.568C27.1995 288.419 27.2369 288.307 27.3009 288.232C27.3755 288.157 27.4982 288.12 27.6689 288.12H33.8449C34.0155 288.12 34.1382 288.152 34.2129 288.216C34.2875 288.28 34.3249 288.392 34.3249 288.552V288.824C34.3249 288.995 34.2875 289.117 34.2129 289.192C34.1382 289.256 34.0155 289.288 33.8449 289.288H28.4689L28.2769 292.2C28.9595 291.955 29.7809 291.832 30.7409 291.832C33.4609 291.832 34.8209 293.064 34.8209 295.528C34.8209 296.275 34.6342 296.931 34.2609 297.496C33.8982 298.051 33.3755 298.483 32.6929 298.792C32.0102 299.091 31.2049 299.24 30.2769 299.24ZM40.0581 299.24C39.3435 299.24 38.6555 299.16 37.9941 299C37.3435 298.851 36.8368 298.653 36.4741 298.408C36.3888 298.355 36.3461 298.291 36.3461 298.216C36.3461 298.173 36.3621 298.12 36.3941 298.056L36.7461 297.464C36.7888 297.389 36.8368 297.352 36.8901 297.352C36.9435 297.352 36.9968 297.373 37.0501 297.416C37.3808 297.619 37.8075 297.789 38.3301 297.928C38.8635 298.056 39.4395 298.12 40.0581 298.12C41.0821 298.12 41.8555 297.907 42.3781 297.48C42.9008 297.043 43.1621 296.392 43.1621 295.528C43.1621 294.557 42.9381 293.88 42.4901 293.496C42.0421 293.101 41.3008 292.904 40.2661 292.904C39.3168 292.904 38.5115 293.064 37.8501 293.384C37.7115 293.437 37.5781 293.464 37.4501 293.464C37.2261 293.464 37.0395 293.4 36.8901 293.272C36.7515 293.133 36.6875 292.952 36.6981 292.728L36.9701 288.568C36.9808 288.419 37.0181 288.307 37.0821 288.232C37.1568 288.157 37.2795 288.12 37.4501 288.12H43.6261C43.7968 288.12 43.9195 288.152 43.9941 288.216C44.0688 288.28 44.1061 288.392 44.1061 288.552V288.824C44.1061 288.995 44.0688 289.117 43.9941 289.192C43.9195 289.256 43.7968 289.288 43.6261 289.288H38.2501L38.0581 292.2C38.7408 291.955 39.5621 291.832 40.5221 291.832C43.2421 291.832 44.6021 293.064 44.6021 295.528C44.6021 296.275 44.4155 296.931 44.0421 297.496C43.6795 298.051 43.1568 298.483 42.4741 298.792C41.7915 299.091 40.9861 299.24 40.0581 299.24ZM50.4154 299.24C49.1354 299.24 48.0954 298.851 47.2954 298.072C46.506 297.293 46.1114 296.04 46.1114 294.312C46.1114 292.733 46.3354 291.469 46.7834 290.52C47.2314 289.56 47.8074 288.883 48.5114 288.488C49.2154 288.083 49.994 287.88 50.8474 287.88C52.0634 287.88 53.0394 288.136 53.7754 288.648C53.8607 288.701 53.9034 288.765 53.9034 288.84C53.9034 288.883 53.8874 288.936 53.8554 289L53.5354 289.544C53.4927 289.64 53.4394 289.688 53.3754 289.688C53.3434 289.688 53.29 289.661 53.2154 289.608C52.906 289.395 52.5647 289.24 52.1914 289.144C51.8287 289.048 51.3807 289 50.8474 289C49.898 289 49.1514 289.304 48.6074 289.912C48.074 290.509 47.722 291.411 47.5514 292.616C47.914 292.2 48.362 291.896 48.8954 291.704C49.4287 291.501 50.0687 291.4 50.8154 291.4C51.5834 291.4 52.2714 291.555 52.8794 291.864C53.4874 292.163 53.962 292.595 54.3034 293.16C54.6554 293.715 54.8314 294.36 54.8314 295.096C54.8314 296.451 54.442 297.48 53.6634 298.184C52.8847 298.888 51.802 299.24 50.4154 299.24ZM50.4154 298.12C52.41 298.12 53.4074 297.112 53.4074 295.096C53.4074 294.264 53.1354 293.613 52.5914 293.144C52.058 292.675 51.3594 292.44 50.4954 292.44C50.026 292.44 49.5674 292.536 49.1194 292.728C48.6714 292.92 48.298 293.219 47.9994 293.624C47.7114 294.029 47.5674 294.541 47.5674 295.16C47.5674 296.195 47.8287 296.947 48.3514 297.416C48.874 297.885 49.562 298.12 50.4154 298.12Z" fill="black"/>
<path d="M12.74 30.3C10.58 30.3 8.98667 29.9533 7.96 29.26C7.84 29.18 7.78 29.0867 7.78 28.98C7.78 28.9 7.81333 28.8067 7.88 28.7L8.46 27.72C8.54 27.5867 8.61333 27.52 8.68 27.52C8.73333 27.52 8.82667 27.5533 8.96 27.62C9.4 27.86 9.90667 28.0533 10.48 28.2C11.0667 28.3467 11.7 28.42 12.38 28.42C13.4733 28.42 14.2733 28.2133 14.78 27.8C15.3 27.3733 15.56 26.7867 15.56 26.04C15.56 24.6533 14.7133 23.96 13.02 23.96H11.34C11.0733 23.96 10.88 23.9067 10.76 23.8C10.6533 23.68 10.6 23.4933 10.6 23.24V22.72C10.6 22.48 10.6533 22.3067 10.76 22.2C10.88 22.0933 11.0733 22.04 11.34 22.04H12.98C13.7 22.04 14.24 21.8533 14.6 21.48C14.96 21.0933 15.14 20.6067 15.14 20.02C15.14 18.6733 14.1933 18 12.3 18C11.1267 18 10.0933 18.2467 9.2 18.74C9.06667 18.8067 8.97333 18.84 8.92 18.84C8.85333 18.84 8.78 18.78 8.7 18.66L8.14 17.72C8.07333 17.6133 8.04 17.52 8.04 17.44C8.04 17.3333 8.1 17.24 8.22 17.16C8.68667 16.8267 9.30667 16.5667 10.08 16.38C10.8533 16.1933 11.7133 16.1 12.66 16.1C13.6867 16.1 14.5733 16.26 15.32 16.58C16.08 16.9 16.66 17.3533 17.06 17.94C17.4733 18.5133 17.68 19.1867 17.68 19.96C17.68 20.5867 17.5267 21.1667 17.22 21.7C16.9267 22.2333 16.5 22.6467 15.94 22.94C16.66 23.2067 17.1933 23.62 17.54 24.18C17.9 24.7267 18.08 25.3733 18.08 26.12C18.08 27.3733 17.6133 28.3867 16.68 29.16C15.76 29.92 14.4467 30.3 12.74 30.3ZM26.2555 30.3C24.0688 30.3 22.4155 29.6933 21.2955 28.48C20.1888 27.2533 19.6355 25.4933 19.6355 23.2C19.6355 20.9067 20.1888 19.1533 21.2955 17.94C22.4155 16.7133 24.0688 16.1 26.2555 16.1C28.4288 16.1 30.0755 16.7133 31.1955 17.94C32.3155 19.1667 32.8755 20.92 32.8755 23.2C32.8755 25.48 32.3155 27.2333 31.1955 28.46C30.0755 29.6867 28.4288 30.3 26.2555 30.3ZM28.5155 18.6C27.9421 18.2 27.1888 18 26.2555 18C24.8688 18 23.8355 18.4333 23.1555 19.3C22.4888 20.1667 22.1555 21.4667 22.1555 23.2C22.1555 24.5733 22.4355 25.6333 22.9955 26.38L28.5155 18.6ZM26.2555 28.42C27.6421 28.42 28.6688 27.9867 29.3355 27.12C30.0021 26.2533 30.3355 24.9467 30.3355 23.2C30.3355 21.8533 30.0688 20.8 29.5355 20.04L23.9955 27.86C24.5955 28.2333 25.3488 28.42 26.2555 28.42ZM39.6402 30.3C38.8135 30.3 38.0602 30.2067 37.3802 30.02C36.7135 29.8467 36.1468 29.6067 35.6802 29.3C35.5602 29.22 35.5002 29.1267 35.5002 29.02C35.5002 28.94 35.5335 28.8467 35.6002 28.74L36.1602 27.78C36.2402 27.66 36.3135 27.6 36.3802 27.6C36.4335 27.6 36.5268 27.6333 36.6602 27.7C37.4602 28.18 38.4068 28.42 39.5002 28.42C40.6335 28.42 41.5068 28.12 42.1202 27.52C42.7335 26.92 43.1135 26 43.2602 24.76C42.8068 25.1867 42.2735 25.4933 41.6602 25.68C41.0602 25.8533 40.3468 25.94 39.5202 25.94C38.4802 25.94 37.5735 25.7533 36.8002 25.38C36.0402 24.9933 35.4535 24.4533 35.0402 23.76C34.6402 23.0667 34.4402 22.2733 34.4402 21.38C34.4402 19.62 34.9335 18.3 35.9202 17.42C36.9068 16.54 38.3135 16.1 40.1402 16.1C41.7935 16.1 43.1135 16.6133 44.1002 17.64C45.1002 18.6533 45.6002 20.22 45.6002 22.34C45.6002 25.1667 45.0402 27.2 43.9202 28.44C42.8135 29.68 41.3868 30.3 39.6402 30.3ZM40.0802 24.3C40.5868 24.3 41.0602 24.1933 41.5002 23.98C41.9535 23.7533 42.3202 23.4267 42.6002 23C42.8802 22.56 43.0202 22.0333 43.0202 21.42C43.0202 20.2867 42.7668 19.4333 42.2602 18.86C41.7535 18.2867 41.0402 18 40.1202 18C39.0668 18 38.2735 18.2667 37.7402 18.8C37.2202 19.3333 36.9602 20.18 36.9602 21.34C36.9602 22.3267 37.2202 23.0667 37.7402 23.56C38.2735 24.0533 39.0535 24.3 40.0802 24.3ZM47.855 30C47.415 30 47.195 29.7733 47.195 29.32V28.54C47.195 27.6867 47.5217 26.8467 48.175 26.02C48.8417 25.1933 49.835 24.4067 51.155 23.66C52.1017 23.1267 52.795 22.7067 53.235 22.4C53.675 22.08 53.995 21.7467 54.195 21.4C54.4083 21.04 54.515 20.6 54.515 20.08C54.515 19.4 54.275 18.8867 53.795 18.54C53.315 18.18 52.6417 18 51.775 18C51.1483 18 50.555 18.08 49.995 18.24C49.4483 18.3867 48.975 18.5733 48.575 18.8C48.4417 18.8667 48.355 18.9 48.315 18.9C48.235 18.9 48.155 18.84 48.075 18.72L47.515 17.74C47.4483 17.6333 47.415 17.54 47.415 17.46C47.415 17.3533 47.475 17.26 47.595 17.18C48.0617 16.8467 48.695 16.5867 49.495 16.4C50.295 16.2 51.1683 16.1 52.115 16.1C53.595 16.1 54.7883 16.44 55.695 17.12C56.6017 17.7867 57.055 18.7333 57.055 19.96C57.055 20.9867 56.735 21.8533 56.095 22.56C55.4683 23.2667 54.475 23.9933 53.115 24.74C52.115 25.26 51.3217 25.8067 50.735 26.38C50.1483 26.9533 49.835 27.5133 49.795 28.06H56.275C56.5417 28.06 56.7283 28.12 56.835 28.24C56.9417 28.3467 56.995 28.5267 56.995 28.78V29.32C56.995 29.56 56.9417 29.7333 56.835 29.84C56.7283 29.9467 56.5417 30 56.275 30H47.855ZM63.8589 30.3C63.0322 30.3 62.2789 30.2067 61.5989 30.02C60.9322 29.8467 60.3656 29.6067 59.8989 29.3C59.7789 29.22 59.7189 29.1267 59.7189 29.02C59.7189 28.94 59.7522 28.8467 59.8189 28.74L60.3789 27.78C60.4589 27.66 60.5322 27.6 60.5989 27.6C60.6522 27.6 60.7456 27.6333 60.8789 27.7C61.6789 28.18 62.6256 28.42 63.7189 28.42C64.8522 28.42 65.7256 28.12 66.3389 27.52C66.9522 26.92 67.3322 26 67.4789 24.76C67.0256 25.1867 66.4922 25.4933 65.8789 25.68C65.2789 25.8533 64.5656 25.94 63.7389 25.94C62.6989 25.94 61.7922 25.7533 61.0189 25.38C60.2589 24.9933 59.6722 24.4533 59.2589 23.76C58.8589 23.0667 58.6589 22.2733 58.6589 21.38C58.6589 19.62 59.1522 18.3 60.1389 17.42C61.1256 16.54 62.5322 16.1 64.3589 16.1C66.0122 16.1 67.3322 16.6133 68.3189 17.64C69.3189 18.6533 69.8189 20.22 69.8189 22.34C69.8189 25.1667 69.2589 27.2 68.1389 28.44C67.0322 29.68 65.6056 30.3 63.8589 30.3ZM64.2989 24.3C64.8056 24.3 65.2789 24.1933 65.7189 23.98C66.1722 23.7533 66.5389 23.4267 66.8189 23C67.0989 22.56 67.2389 22.0333 67.2389 21.42C67.2389 20.2867 66.9856 19.4333 66.4789 18.86C65.9722 18.2867 65.2589 18 64.3389 18C63.2856 18 62.4922 18.2667 61.9589 18.8C61.4389 19.3333 61.1789 20.18 61.1789 21.34C61.1789 22.3267 61.4389 23.0667 61.9589 23.56C62.4922 24.0533 63.2722 24.3 64.2989 24.3Z" fill="black"/>
<path d="M7 32H70.5989V33H7V32Z" fill="black"/>
<path d="M354.046 96C353.606 96 353.386 95.7733 353.386 95.32V94.54C353.386 93.6867 353.713 92.8467 354.366 92.02C355.033 91.1933 356.026 90.4067 357.346 89.66C358.293 89.1267 358.986 88.7067 359.426 88.4C359.866 88.08 360.186 87.7467 360.386 87.4C360.6 87.04 360.706 86.6 360.706 86.08C360.706 85.4 360.466 84.8867 359.986 84.54C359.506 84.18 358.833 84 357.966 84C357.34 84 356.746 84.08 356.186 84.24C355.64 84.3867 355.166 84.5733 354.766 84.8C354.633 84.8667 354.546 84.9 354.506 84.9C354.426 84.9 354.346 84.84 354.266 84.72L353.706 83.74C353.64 83.6333 353.606 83.54 353.606 83.46C353.606 83.3533 353.666 83.26 353.786 83.18C354.253 82.8467 354.886 82.5867 355.686 82.4C356.486 82.2 357.36 82.1 358.306 82.1C359.786 82.1 360.98 82.44 361.886 83.12C362.793 83.7867 363.246 84.7333 363.246 85.96C363.246 86.9867 362.926 87.8533 362.286 88.56C361.66 89.2667 360.666 89.9933 359.306 90.74C358.306 91.26 357.513 91.8067 356.926 92.38C356.34 92.9533 356.026 93.5133 355.986 94.06H362.466C362.733 94.06 362.92 94.12 363.026 94.24C363.133 94.3467 363.186 94.5267 363.186 94.78V95.32C363.186 95.56 363.133 95.7333 363.026 95.84C362.92 95.9467 362.733 96 362.466 96H354.046ZM370.05 96.3C369.224 96.3 368.47 96.2067 367.79 96.02C367.124 95.8467 366.557 95.6067 366.09 95.3C365.97 95.22 365.91 95.1267 365.91 95.02C365.91 94.94 365.944 94.8467 366.01 94.74L366.57 93.78C366.65 93.66 366.724 93.6 366.79 93.6C366.844 93.6 366.937 93.6333 367.07 93.7C367.87 94.18 368.817 94.42 369.91 94.42C371.044 94.42 371.917 94.12 372.53 93.52C373.144 92.92 373.524 92 373.67 90.76C373.217 91.1867 372.684 91.4933 372.07 91.68C371.47 91.8533 370.757 91.94 369.93 91.94C368.89 91.94 367.984 91.7533 367.21 91.38C366.45 90.9933 365.864 90.4533 365.45 89.76C365.05 89.0667 364.85 88.2733 364.85 87.38C364.85 85.62 365.344 84.3 366.33 83.42C367.317 82.54 368.724 82.1 370.55 82.1C372.204 82.1 373.524 82.6133 374.51 83.64C375.51 84.6533 376.01 86.22 376.01 88.34C376.01 91.1667 375.45 93.2 374.33 94.44C373.224 95.68 371.797 96.3 370.05 96.3ZM370.49 90.3C370.997 90.3 371.47 90.1933 371.91 89.98C372.364 89.7533 372.73 89.4267 373.01 89C373.29 88.56 373.43 88.0333 373.43 87.42C373.43 86.2867 373.177 85.4333 372.67 84.86C372.164 84.2867 371.45 84 370.53 84C369.477 84 368.684 84.2667 368.15 84.8C367.63 85.3333 367.37 86.18 367.37 87.34C367.37 88.3267 367.63 89.0667 368.15 89.56C368.684 90.0533 369.464 90.3 370.49 90.3ZM379.265 96C379.078 96 378.985 95.92 378.985 95.76C378.985 95.68 379.012 95.5933 379.065 95.5L384.885 84.36H378.025C377.772 84.36 377.598 84.3067 377.505 84.2C377.412 84.0933 377.365 83.9133 377.365 83.66V83.06C377.365 82.82 377.412 82.6533 377.505 82.56C377.598 82.4533 377.772 82.4 378.025 82.4H387.205C387.525 82.4 387.745 82.4533 387.865 82.56C387.998 82.6667 388.065 82.8533 388.065 83.12C388.065 83.2933 388.018 83.4867 387.925 83.7C387.845 83.9133 387.752 84.1133 387.645 84.3C387.538 84.4867 387.472 84.6133 387.445 84.68L381.705 95.72C381.652 95.8267 381.585 95.9 381.505 95.94C381.438 95.98 381.338 96 381.205 96H379.265ZM391.121 96C390.934 96 390.841 95.92 390.841 95.76C390.841 95.68 390.867 95.5933 390.921 95.5L396.741 84.36H389.881C389.627 84.36 389.454 84.3067 389.361 84.2C389.267 84.0933 389.221 83.9133 389.221 83.66V83.06C389.221 82.82 389.267 82.6533 389.361 82.56C389.454 82.4533 389.627 82.4 389.881 82.4H399.061C399.381 82.4 399.601 82.4533 399.721 82.56C399.854 82.6667 399.921 82.8533 399.921 83.12C399.921 83.2933 399.874 83.4867 399.781 83.7C399.701 83.9133 399.607 84.1133 399.501 84.3C399.394 84.4867 399.327 84.6133 399.301 84.68L393.561 95.72C393.507 95.8267 393.441 95.9 393.361 95.94C393.294 95.98 393.194 96 393.061 96H391.121ZM401.976 96C401.536 96 401.316 95.7733 401.316 95.32V94.54C401.316 93.6867 401.643 92.8467 402.296 92.02C402.963 91.1933 403.956 90.4067 405.276 89.66C406.223 89.1267 406.916 88.7067 407.356 88.4C407.796 88.08 408.116 87.7467 408.316 87.4C408.529 87.04 408.636 86.6 408.636 86.08C408.636 85.4 408.396 84.8867 407.916 84.54C407.436 84.18 406.763 84 405.896 84C405.269 84 404.676 84.08 404.116 84.24C403.569 84.3867 403.096 84.5733 402.696 84.8C402.563 84.8667 402.476 84.9 402.436 84.9C402.356 84.9 402.276 84.84 402.196 84.72L401.636 83.74C401.569 83.6333 401.536 83.54 401.536 83.46C401.536 83.3533 401.596 83.26 401.716 83.18C402.183 82.8467 402.816 82.5867 403.616 82.4C404.416 82.2 405.289 82.1 406.236 82.1C407.716 82.1 408.909 82.44 409.816 83.12C410.723 83.7867 411.176 84.7333 411.176 85.96C411.176 86.9867 410.856 87.8533 410.216 88.56C409.589 89.2667 408.596 89.9933 407.236 90.74C406.236 91.26 405.443 91.8067 404.856 92.38C404.269 92.9533 403.956 93.5133 403.916 94.06H410.396C410.663 94.06 410.849 94.12 410.956 94.24C411.063 94.3467 411.116 94.5267 411.116 94.78V95.32C411.116 95.56 411.063 95.7333 410.956 95.84C410.849 95.9467 410.663 96 410.396 96H401.976Z" fill="black"/>
<path d="M352.566 98H411.996V99H352.566V98Z" fill="black"/>
<path d="M369.96 299.24C368.69 299.24 367.725 298.968 367.064 298.424C366.413 297.869 366.088 297.117 366.088 296.168V291.08C366.088 290.76 366.248 290.6 366.568 290.6H367.064C367.234 290.6 367.357 290.643 367.432 290.728C367.506 290.803 367.544 290.92 367.544 291.08V296.312C367.544 296.909 367.752 297.363 368.168 297.672C368.584 297.971 369.181 298.12 369.96 298.12C370.738 298.12 371.336 297.971 371.752 297.672C372.168 297.363 372.376 296.909 372.376 296.312V288.28C372.376 288.12 372.413 288.003 372.488 287.928C372.562 287.843 372.685 287.8 372.856 287.8H373.336C373.666 287.8 373.832 287.96 373.832 288.28V296.168C373.832 297.117 373.501 297.869 372.84 298.424C372.189 298.968 371.229 299.24 369.96 299.24ZM366.245 288.968C366.075 288.968 365.957 288.936 365.893 288.872C365.819 288.808 365.781 288.691 365.781 288.52V288.28C365.781 288.12 365.819 288.003 365.893 287.928C365.957 287.853 366.075 287.816 366.245 287.816H369.765V286.328C369.765 286.104 369.877 285.992 370.101 285.992H370.709C370.933 285.992 371.045 286.104 371.045 286.328V288.184C371.045 288.483 370.992 288.691 370.885 288.808C370.779 288.915 370.571 288.968 370.261 288.968H366.245ZM382.841 299C382.542 299 382.393 298.845 382.393 298.536V298.024C382.393 297.331 382.67 296.637 383.225 295.944C383.79 295.24 384.601 294.611 385.657 294.056C386.446 293.64 387.038 293.293 387.433 293.016C387.838 292.728 388.132 292.424 388.313 292.104C388.505 291.784 388.601 291.389 388.601 290.92C388.601 290.28 388.377 289.8 387.929 289.48C387.481 289.16 386.868 289 386.089 289C385.556 289 385.049 289.064 384.569 289.192C384.089 289.32 383.689 289.485 383.369 289.688C383.316 289.731 383.262 289.752 383.209 289.752C383.145 289.752 383.092 289.709 383.049 289.624L382.713 289.032C382.681 288.968 382.665 288.915 382.665 288.872C382.665 288.797 382.708 288.733 382.793 288.68C383.145 288.435 383.625 288.243 384.233 288.104C384.841 287.955 385.502 287.88 386.217 287.88C387.348 287.88 388.265 288.147 388.969 288.68C389.684 289.213 390.041 289.96 390.041 290.92C390.041 291.763 389.774 292.472 389.241 293.048C388.708 293.613 387.881 294.179 386.761 294.744C385.833 295.224 385.118 295.725 384.617 296.248C384.116 296.76 383.865 297.288 383.865 297.832H389.481C389.652 297.832 389.769 297.869 389.833 297.944C389.908 298.008 389.945 298.125 389.945 298.296V298.568C389.945 298.728 389.908 298.84 389.833 298.904C389.769 298.968 389.652 299 389.481 299H382.841ZM395.293 299.24C394.578 299.24 393.89 299.16 393.229 299C392.578 298.851 392.071 298.653 391.709 298.408C391.623 298.355 391.581 298.291 391.581 298.216C391.581 298.173 391.597 298.12 391.629 298.056L391.981 297.464C392.023 297.389 392.071 297.352 392.125 297.352C392.178 297.352 392.231 297.373 392.285 297.416C392.615 297.619 393.042 297.789 393.565 297.928C394.098 298.056 394.674 298.12 395.293 298.12C396.317 298.12 397.09 297.907 397.613 297.48C398.135 297.043 398.397 296.392 398.397 295.528C398.397 294.557 398.173 293.88 397.725 293.496C397.277 293.101 396.535 292.904 395.501 292.904C394.551 292.904 393.746 293.064 393.085 293.384C392.946 293.437 392.813 293.464 392.685 293.464C392.461 293.464 392.274 293.4 392.125 293.272C391.986 293.133 391.922 292.952 391.933 292.728L392.205 288.568C392.215 288.419 392.253 288.307 392.317 288.232C392.391 288.157 392.514 288.12 392.685 288.12H398.861C399.031 288.12 399.154 288.152 399.229 288.216C399.303 288.28 399.341 288.392 399.341 288.552V288.824C399.341 288.995 399.303 289.117 399.229 289.192C399.154 289.256 399.031 289.288 398.861 289.288H393.485L393.293 292.2C393.975 291.955 394.797 291.832 395.757 291.832C398.477 291.832 399.837 293.064 399.837 295.528C399.837 296.275 399.65 296.931 399.277 297.496C398.914 298.051 398.391 298.483 397.709 298.792C397.026 299.091 396.221 299.24 395.293 299.24ZM405.65 299.24C404.37 299.24 403.33 298.851 402.53 298.072C401.74 297.293 401.346 296.04 401.346 294.312C401.346 292.733 401.57 291.469 402.018 290.52C402.466 289.56 403.042 288.883 403.746 288.488C404.45 288.083 405.228 287.88 406.082 287.88C407.298 287.88 408.274 288.136 409.01 288.648C409.095 288.701 409.138 288.765 409.138 288.84C409.138 288.883 409.122 288.936 409.09 289L408.77 289.544C408.727 289.64 408.674 289.688 408.61 289.688C408.578 289.688 408.524 289.661 408.45 289.608C408.14 289.395 407.799 289.24 407.426 289.144C407.063 289.048 406.615 289 406.082 289C405.132 289 404.386 289.304 403.842 289.912C403.308 290.509 402.956 291.411 402.786 292.616C403.148 292.2 403.596 291.896 404.13 291.704C404.663 291.501 405.303 291.4 406.05 291.4C406.818 291.4 407.506 291.555 408.114 291.864C408.722 292.163 409.196 292.595 409.538 293.16C409.89 293.715 410.066 294.36 410.066 295.096C410.066 296.451 409.676 297.48 408.898 298.184C408.119 298.888 407.036 299.24 405.65 299.24ZM405.65 298.12C407.644 298.12 408.642 297.112 408.642 295.096C408.642 294.264 408.37 293.613 407.826 293.144C407.292 292.675 406.594 292.44 405.73 292.44C405.26 292.44 404.802 292.536 404.354 292.728C403.906 292.92 403.532 293.219 403.234 293.624C402.946 294.029 402.802 294.541 402.802 295.16C402.802 296.195 403.063 296.947 403.586 297.416C404.108 297.885 404.796 298.12 405.65 298.12ZM412.029 299C411.73 299 411.581 298.845 411.581 298.536V298.024C411.581 297.331 411.858 296.637 412.413 295.944C412.978 295.24 413.789 294.611 414.845 294.056C415.634 293.64 416.226 293.293 416.621 293.016C417.026 292.728 417.319 292.424 417.501 292.104C417.693 291.784 417.789 291.389 417.789 290.92C417.789 290.28 417.565 289.8 417.117 289.48C416.669 289.16 416.055 289 415.277 289C414.743 289 414.237 289.064 413.757 289.192C413.277 289.32 412.877 289.485 412.557 289.688C412.503 289.731 412.45 289.752 412.397 289.752C412.333 289.752 412.279 289.709 412.237 289.624L411.901 289.032C411.869 288.968 411.853 288.915 411.853 288.872C411.853 288.797 411.895 288.733 411.981 288.68C412.333 288.435 412.813 288.243 413.421 288.104C414.029 287.955 414.69 287.88 415.405 287.88C416.535 287.88 417.453 288.147 418.157 288.68C418.871 289.213 419.229 289.96 419.229 290.92C419.229 291.763 418.962 292.472 418.429 293.048C417.895 293.613 417.069 294.179 415.949 294.744C415.021 295.224 414.306 295.725 413.805 296.248C413.303 296.76 413.053 297.288 413.053 297.832H418.669C418.839 297.832 418.957 297.869 419.021 297.944C419.095 298.008 419.133 298.125 419.133 298.296V298.568C419.133 298.728 419.095 298.84 419.021 298.904C418.957 298.968 418.839 299 418.669 299H412.029Z" fill="black"/>
<path d="M32.6848 154.9C28.4048 154.9 25.2248 154.04 23.1448 152.32C21.1048 150.56 20.0848 148.44 20.0848 145.96V144.64H18.4048C17.5648 144.64 16.9848 144.48 16.6648 144.16C16.3848 143.84 16.2448 143.28 16.2448 142.48V138.22C16.2448 137.46 16.4048 136.92 16.7248 136.6C17.0448 136.24 17.6048 136.06 18.4048 136.06H26.7448C27.9048 136.06 28.7248 136.3 29.2048 136.78C29.6848 137.26 29.9248 138.02 29.9248 139.06V143.68C29.9248 144.56 30.1448 145.22 30.5848 145.66C31.0648 146.06 31.7648 146.26 32.6848 146.26C33.9648 146.26 34.8848 145.68 35.4448 144.52C36.0048 143.32 36.2848 141.3 36.2848 138.46C36.2848 135.5 35.6848 133.4 34.4848 132.16C33.2848 130.88 31.3048 130.24 28.5448 130.24C27.0248 130.24 25.6648 130.4 24.4648 130.72C23.3048 131.04 22.1448 131.48 20.9848 132.04C20.4248 132.32 20.0048 132.46 19.7248 132.46C19.3648 132.46 19.0248 132.2 18.7048 131.68L16.1848 127.3C15.9048 126.74 15.7648 126.32 15.7648 126.04C15.7648 125.64 16.0048 125.26 16.4848 124.9C18.0848 123.82 20.1648 123 22.7248 122.44C25.2848 121.88 28.1048 121.6 31.1848 121.6C37.2648 121.6 41.6448 123.06 44.3248 125.98C47.0448 128.9 48.4048 133.06 48.4048 138.46C48.4048 143.94 47.0248 148.06 44.2648 150.82C41.5448 153.54 37.6848 154.9 32.6848 154.9ZM41.0754 119.44C38.6354 119.44 36.6954 118.74 35.2554 117.34C33.7754 115.9 33.0354 114.02 33.0354 111.7C33.0354 109.38 33.7754 107.5 35.2554 106.06C36.7354 104.62 38.6754 103.9 41.0754 103.9C43.5154 103.9 45.4954 104.62 47.0154 106.06C48.4954 107.5 49.2354 109.38 49.2354 111.7C49.2354 114.02 48.4954 115.9 47.0154 117.34C45.4954 118.74 43.5154 119.44 41.0754 119.44ZM41.0754 114.04C41.7554 114.04 42.3354 113.82 42.8154 113.38C43.2554 112.94 43.4754 112.38 43.4754 111.7C43.4754 111.02 43.2554 110.46 42.8154 110.02C42.3354 109.58 41.7554 109.36 41.0754 109.36C40.3954 109.36 39.8154 109.58 39.3354 110.02C38.8554 110.46 38.6154 111.02 38.6154 111.7C38.6154 112.38 38.8554 112.94 39.3354 113.38C39.8154 113.82 40.3954 114.04 41.0754 114.04ZM64.9554 154C63.1154 154 62.1954 153.12 62.1954 151.36V134.74C62.1954 133.1 61.8754 131.94 61.2354 131.26C60.5954 130.58 59.5554 130.24 58.1154 130.24C56.5954 130.24 55.1954 130.56 53.9154 131.2C53.5154 131.44 53.1554 131.56 52.8354 131.56C52.4354 131.56 52.1754 131.32 52.0554 130.84L50.5554 125.14L50.4354 124.3C50.4354 124.1 50.4754 123.94 50.5554 123.82C50.6754 123.7 50.8554 123.58 51.0954 123.46C53.7754 122.22 56.9354 121.6 60.5754 121.6C65.2554 121.6 68.7154 122.6 70.9554 124.6C73.2354 126.6 74.3754 129.68 74.3754 133.84V151.36C74.3754 153.12 73.4554 154 71.6154 154H64.9554ZM91.4229 154.9C87.8229 154.9 84.9429 153.96 82.7829 152.08C80.6229 150.2 79.5429 147.4 79.5429 143.68V125.56C79.5429 124.52 79.7829 123.76 80.2629 123.28C80.7429 122.76 81.5429 122.5 82.6629 122.5H88.4829C89.6429 122.5 90.4629 122.76 90.9429 123.28C91.4229 123.76 91.6629 124.52 91.6629 125.56V143.2C91.6629 145.52 92.9229 146.68 95.4429 146.68C96.7229 146.68 97.7829 146.34 98.6229 145.66C99.4629 144.98 99.8829 144.12 99.8829 143.08V125.56C99.8829 124.52 100.123 123.76 100.603 123.28C101.083 122.76 101.903 122.5 103.063 122.5H108.883C110.043 122.5 110.863 122.76 111.343 123.28C111.823 123.76 112.063 124.52 112.063 125.56V151.36C112.063 153.12 111.163 154 109.363 154H103.963C102.883 154 102.283 153.56 102.163 152.68L101.923 150.88C100.763 152.16 99.3629 153.16 97.7229 153.88C96.0829 154.56 93.9829 154.9 91.4229 154.9ZM129.219 154.9C126.259 154.9 123.759 154.64 121.719 154.12C119.719 153.6 117.859 152.78 116.139 151.66C115.659 151.38 115.419 151 115.419 150.52C115.419 150.12 115.559 149.7 115.839 149.26L118.359 144.94C118.719 144.34 119.079 144.04 119.439 144.04C119.679 144.04 120.059 144.2 120.579 144.52C121.619 145.16 122.679 145.62 123.759 145.9C124.839 146.18 126.059 146.32 127.419 146.32C129.899 146.32 131.779 145.72 133.059 144.52C134.339 143.32 134.979 141.26 134.979 138.34C134.979 135.42 134.359 133.34 133.119 132.1C131.919 130.86 130.099 130.24 127.659 130.24C125.139 130.24 122.859 130.84 120.819 132.04C120.299 132.36 119.899 132.52 119.619 132.52C119.179 132.52 118.819 132.24 118.539 131.68L116.079 127.3C115.799 126.74 115.659 126.32 115.659 126.04C115.659 125.64 115.899 125.26 116.379 124.9C118.059 123.82 119.919 123 121.959 122.44C124.039 121.88 126.519 121.6 129.399 121.6C135.199 121.6 139.599 123.02 142.599 125.86C145.599 128.66 147.099 132.82 147.099 138.34C147.099 143.82 145.559 147.96 142.479 150.76C139.439 153.52 135.019 154.9 129.219 154.9ZM162.966 154.9C159.366 154.9 156.486 153.96 154.326 152.08C152.166 150.2 151.086 147.4 151.086 143.68V125.56C151.086 124.52 151.326 123.76 151.806 123.28C152.286 122.76 153.086 122.5 154.206 122.5H160.026C161.186 122.5 162.006 122.76 162.486 123.28C162.966 123.76 163.206 124.52 163.206 125.56V143.2C163.206 145.52 164.466 146.68 166.986 146.68C168.266 146.68 169.326 146.34 170.166 145.66C171.006 144.98 171.426 144.12 171.426 143.08V125.56C171.426 124.52 171.666 123.76 172.146 123.28C172.626 122.76 173.446 122.5 174.606 122.5H180.426C181.586 122.5 182.406 122.76 182.886 123.28C183.366 123.76 183.606 124.52 183.606 125.56V151.36C183.606 153.12 182.706 154 180.906 154H175.506C174.426 154 173.826 153.56 173.706 152.68L173.466 150.88C172.306 152.16 170.906 153.16 169.266 153.88C167.626 154.56 165.526 154.9 162.966 154.9ZM194.522 154C192.082 154 190.862 152.74 190.862 150.22V126.64C190.862 125.48 190.762 124.54 190.562 123.82C190.362 123.1 190.082 122.5 189.722 122.02C189.402 121.54 188.862 120.92 188.102 120.16C187.742 119.88 187.382 119.52 187.022 119.08L185.822 117.76C185.462 117.36 185.222 116.98 185.102 116.62C184.942 116.22 184.862 115.7 184.862 115.06V112.48C184.862 111.56 185.082 110.92 185.522 110.56C185.962 110.16 186.682 109.96 187.682 109.96H206.042C206.882 109.96 207.462 110.14 207.782 110.5C208.102 110.82 208.262 111.38 208.262 112.18V116.56C208.262 117.36 208.102 117.92 207.782 118.24C207.462 118.56 206.882 118.72 206.042 118.72H199.262C200.822 119.96 201.842 121.16 202.322 122.32C202.802 123.48 203.042 125.08 203.042 127.12V144.1C203.042 144.54 203.122 144.84 203.282 145C203.442 145.16 203.682 145.24 204.002 145.24H205.142C205.822 145.24 206.262 145.36 206.462 145.6C206.662 145.84 206.762 146.34 206.762 147.1V151.84C206.762 152.56 206.642 153.08 206.402 153.4C206.202 153.68 205.842 153.86 205.322 153.94C204.842 153.98 204.002 154 202.802 154H194.522ZM225.182 154.9C219.422 154.9 214.782 153.92 211.262 151.96C210.822 151.72 210.502 151.5 210.302 151.3C210.142 151.1 210.062 150.86 210.062 150.58C210.062 150.42 210.162 150.14 210.362 149.74L212.882 145.12C213.122 144.68 213.402 144.46 213.722 144.46C214.002 144.46 214.362 144.58 214.802 144.82C215.882 145.38 217.322 145.9 219.122 146.38C220.962 146.86 222.602 147.1 224.042 147.1C225.282 147.1 226.162 146.94 226.682 146.62C227.242 146.3 227.522 145.82 227.522 145.18C227.522 144.42 227.142 143.82 226.382 143.38C225.622 142.9 224.162 142.26 222.002 141.46L220.382 140.86C217.142 139.62 214.782 138.3 213.302 136.9C211.862 135.5 211.142 133.64 211.142 131.32C211.142 128.32 212.422 125.96 214.982 124.24C217.582 122.48 221.042 121.6 225.362 121.6C228.042 121.6 230.342 121.82 232.262 122.26C234.182 122.7 236.022 123.38 237.782 124.3C238.582 124.7 238.982 125.16 238.982 125.68C238.982 125.92 238.842 126.28 238.562 126.76L236.162 130.66C235.842 131.14 235.562 131.38 235.322 131.38C235.122 131.38 234.782 131.26 234.302 131.02C233.342 130.54 232.202 130.16 230.882 129.88C229.602 129.56 228.362 129.4 227.162 129.4C225.682 129.4 224.582 129.54 223.862 129.82C223.182 130.06 222.842 130.5 222.842 131.14C222.842 131.94 223.322 132.62 224.282 133.18C225.282 133.7 227.142 134.46 229.862 135.46C230.022 135.5 230.642 135.72 231.722 136.12C234.682 137.24 236.742 138.48 237.902 139.84C239.102 141.16 239.702 142.94 239.702 145.18C239.702 148.06 238.462 150.4 235.982 152.2C233.502 154 229.902 154.9 225.182 154.9ZM259.984 154.9C255.984 154.9 252.904 154.14 250.744 152.62C248.624 151.1 247.064 148.8 246.064 145.72L242.824 135.46C242.624 134.86 242.524 134.42 242.524 134.14C242.524 133.58 242.944 133.16 243.784 132.88L250.984 130.42C251.504 130.22 251.924 130.12 252.244 130.12C252.924 130.12 253.404 130.64 253.684 131.68L257.344 143.26C257.704 144.38 258.124 145.16 258.604 145.6C259.084 146.04 259.844 146.26 260.884 146.26C262.244 146.26 263.224 145.6 263.824 144.28C264.424 142.92 264.724 140.78 264.724 137.86C264.724 135.18 264.424 133.24 263.824 132.04C263.264 130.84 262.324 130.24 261.004 130.24C260.484 130.24 259.664 130.44 258.544 130.84C258.384 130.92 258.144 130.96 257.824 130.96C257.384 130.96 257.044 130.66 256.804 130.06L254.944 125.2C254.824 124.88 254.764 124.62 254.764 124.42C254.764 124.02 255.004 123.72 255.484 123.52C256.804 122.84 258.084 122.36 259.324 122.08C260.604 121.76 262.084 121.6 263.764 121.6C267.884 121.6 271.064 123.04 273.304 125.92C275.584 128.8 276.724 132.78 276.724 137.86C276.724 143.38 275.264 147.6 272.344 150.52C269.424 153.44 265.304 154.9 259.984 154.9ZM284.355 154C281.915 154 280.695 152.74 280.695 150.22V125.56C280.695 124.48 280.935 123.7 281.415 123.22C281.935 122.74 282.815 122.5 284.055 122.5H289.515C290.755 122.5 291.615 122.74 292.095 123.22C292.615 123.7 292.875 124.48 292.875 125.56V144.1C292.875 144.58 292.935 144.9 293.055 145.06C293.175 145.18 293.395 145.24 293.715 145.24H294.975C295.655 145.24 296.095 145.36 296.295 145.6C296.495 145.84 296.595 146.34 296.595 147.1V151.84C296.595 152.56 296.475 153.08 296.235 153.4C296.035 153.68 295.675 153.86 295.155 153.94C294.675 153.98 293.835 154 292.635 154H284.355ZM314.42 154.9C308.66 154.9 304.02 153.92 300.5 151.96C300.06 151.72 299.74 151.5 299.54 151.3C299.38 151.1 299.3 150.86 299.3 150.58C299.3 150.42 299.4 150.14 299.6 149.74L302.12 145.12C302.36 144.68 302.64 144.46 302.96 144.46C303.24 144.46 303.6 144.58 304.04 144.82C305.12 145.38 306.56 145.9 308.36 146.38C310.2 146.86 311.84 147.1 313.28 147.1C314.52 147.1 315.4 146.94 315.92 146.62C316.48 146.3 316.76 145.82 316.76 145.18C316.76 144.42 316.38 143.82 315.62 143.38C314.86 142.9 313.4 142.26 311.24 141.46L309.62 140.86C306.38 139.62 304.02 138.3 302.54 136.9C301.1 135.5 300.38 133.64 300.38 131.32C300.38 128.32 301.66 125.96 304.22 124.24C306.82 122.48 310.28 121.6 314.6 121.6C317.28 121.6 319.58 121.82 321.5 122.26C323.42 122.7 325.26 123.38 327.02 124.3C327.82 124.7 328.22 125.16 328.22 125.68C328.22 125.92 328.08 126.28 327.8 126.76L325.4 130.66C325.08 131.14 324.8 131.38 324.56 131.38C324.36 131.38 324.02 131.26 323.54 131.02C322.58 130.54 321.44 130.16 320.12 129.88C318.84 129.56 317.6 129.4 316.4 129.4C314.92 129.4 313.82 129.54 313.1 129.82C312.42 130.06 312.08 130.5 312.08 131.14C312.08 131.94 312.56 132.62 313.52 133.18C314.52 133.7 316.38 134.46 319.1 135.46C319.26 135.5 319.88 135.72 320.96 136.12C323.92 137.24 325.98 138.48 327.14 139.84C328.34 141.16 328.94 142.94 328.94 145.18C328.94 148.06 327.7 150.4 325.22 152.2C322.74 154 319.14 154.9 314.42 154.9ZM302.842 118.84C301.642 118.84 300.862 118.66 300.502 118.3C300.142 117.9 299.962 117.08 299.962 115.84V113.56C299.962 112.32 300.142 111.52 300.502 111.16C300.862 110.76 301.642 110.56 302.842 110.56H318.262V108.1C318.262 107.02 318.502 106.28 318.982 105.88C319.422 105.48 320.142 105.28 321.142 105.28H324.862C325.862 105.28 326.602 105.48 327.082 105.88C327.522 106.28 327.742 107.02 327.742 108.1V115.54C327.742 116.74 327.522 117.6 327.082 118.12C326.642 118.6 325.782 118.84 324.502 118.84H302.842ZM348.202 154.9C343.162 154.9 339.142 154.02 336.142 152.26C333.182 150.46 331.702 147.82 331.702 144.34C331.702 140.82 332.982 138.46 335.542 137.26C334.302 136.46 333.382 135.52 332.782 134.44C332.222 133.32 331.942 131.96 331.942 130.36C331.942 127.76 332.862 125.66 334.702 124.06C336.582 122.42 338.982 121.6 341.902 121.6C344.982 121.6 347.562 122.18 349.642 123.34C350.122 123.62 350.362 123.96 350.362 124.36C350.362 124.56 350.302 124.82 350.182 125.14L348.742 128.92C348.542 129.36 348.302 129.58 348.022 129.58C347.862 129.58 347.662 129.52 347.422 129.4C347.182 129.28 346.922 129.18 346.642 129.1C346.402 128.98 346.102 128.92 345.742 128.92C345.062 128.92 344.522 129.16 344.122 129.64C343.762 130.12 343.582 130.74 343.582 131.5C343.582 132.42 343.802 133.1 344.242 133.54C344.722 133.94 345.462 134.14 346.462 134.14H347.662C348.542 134.14 348.982 134.58 348.982 135.46V139.36C348.982 140.28 348.522 140.74 347.602 140.74H346.522C345.522 140.74 344.782 140.96 344.302 141.4C343.822 141.84 343.582 142.54 343.582 143.5C343.582 145.34 345.122 146.26 348.202 146.26C349.962 146.26 351.222 145.86 351.982 145.06C352.782 144.26 353.182 142.94 353.182 141.1V125.56C353.182 124.52 353.422 123.76 353.902 123.28C354.382 122.76 355.182 122.5 356.302 122.5H362.122C363.282 122.5 364.102 122.76 364.582 123.28C365.102 123.76 365.362 124.52 365.362 125.56V140.44C365.362 144.84 364.022 148.36 361.342 151C358.662 153.6 354.282 154.9 348.202 154.9ZM382.399 154.9C378.799 154.9 375.919 153.96 373.759 152.08C371.599 150.2 370.519 147.4 370.519 143.68V125.56C370.519 124.52 370.759 123.76 371.239 123.28C371.719 122.76 372.519 122.5 373.639 122.5H379.459C380.619 122.5 381.439 122.76 381.919 123.28C382.399 123.76 382.639 124.52 382.639 125.56V143.2C382.639 145.52 383.899 146.68 386.419 146.68C387.699 146.68 388.759 146.34 389.599 145.66C390.439 144.98 390.859 144.12 390.859 143.08V125.56C390.859 124.52 391.099 123.76 391.579 123.28C392.059 122.76 392.879 122.5 394.039 122.5H399.859C401.019 122.5 401.839 122.76 402.319 123.28C402.799 123.76 403.039 124.52 403.039 125.56V151.36C403.039 153.12 402.139 154 400.339 154H394.939C393.859 154 393.259 153.56 393.139 152.68L392.899 150.88C391.739 152.16 390.339 153.16 388.699 153.88C387.059 154.56 384.959 154.9 382.399 154.9ZM43.8415 226.9C40.6415 226.9 38.1015 226.02 36.2215 224.26C34.3415 222.46 33.4015 220.12 33.4015 217.24C33.4015 213.48 34.6415 210.8 37.1215 209.2C39.6015 207.6 43.1615 206.8 47.8015 206.8H54.9415V206.14C54.9415 204.74 54.4615 203.72 53.5015 203.08C52.5415 202.4 50.8015 202.06 48.2815 202.06C46.8815 202.06 45.4815 202.22 44.0815 202.54C42.7215 202.82 41.5415 203.2 40.5415 203.68C39.9815 203.96 39.5815 204.1 39.3415 204.1C38.9415 204.1 38.6015 203.84 38.3215 203.32L35.6215 198.58C35.4215 198.26 35.3215 197.98 35.3215 197.74C35.3215 197.38 35.6015 197.04 36.1615 196.72C37.8415 195.72 39.9415 194.96 42.4615 194.44C45.0215 193.88 47.7615 193.6 50.6815 193.6C56.2415 193.6 60.3415 194.74 62.9815 197.02C65.6215 199.3 66.9415 202.72 66.9415 207.28V223C66.9415 224.04 66.7015 224.8 66.2215 225.28C65.7415 225.76 64.9215 226 63.7615 226H58.1215C56.9615 226 56.1415 225.76 55.6615 225.28C55.1815 224.8 54.9415 224.04 54.9415 223V214.66H48.3415C47.0615 214.66 46.1215 214.84 45.5215 215.2C44.9615 215.56 44.6815 216.18 44.6815 217.06C44.6815 217.9 44.8815 218.5 45.2815 218.86C45.7215 219.22 46.4215 219.4 47.3815 219.4C48.0615 219.4 48.8415 219.24 49.7215 218.92C49.8415 218.88 49.9815 218.86 50.1415 218.86C50.5815 218.86 50.8615 219.14 50.9815 219.7L51.8815 224.26C51.9215 224.38 51.9415 224.54 51.9415 224.74C51.9415 225.02 51.8615 225.24 51.7015 225.4C51.5415 225.56 51.2615 225.72 50.8615 225.88C48.9415 226.56 46.6015 226.9 43.8415 226.9ZM83.5615 226.9C79.5215 226.9 76.4015 225.54 74.2015 222.82C72.0015 220.06 70.9015 216.28 70.9015 211.48C70.9015 205.72 72.4415 201.3 75.5215 198.22C78.6415 195.14 83.2015 193.6 89.2015 193.6C95.0015 193.6 99.2815 194.86 102.041 197.38C104.801 199.86 106.181 203.22 106.181 207.46V223C106.181 224.04 105.941 224.8 105.461 225.28C104.981 225.76 104.161 226 103.001 226H97.1815C96.0215 226 95.2015 225.76 94.7215 225.28C94.2415 224.8 94.0015 224.04 94.0015 223V207.88C94.0015 206.04 93.6215 204.64 92.8615 203.68C92.1415 202.72 90.9215 202.24 89.2015 202.24C87.0815 202.24 85.5015 203 84.4615 204.52C83.4615 206 82.9615 208.44 82.9615 211.84C82.9615 214.16 83.2415 215.82 83.8015 216.82C84.4015 217.78 85.3415 218.26 86.6215 218.26C87.4215 218.26 88.1815 218.1 88.9015 217.78C89.0215 217.74 89.1615 217.72 89.3215 217.72C89.7615 217.72 90.0415 218 90.1615 218.56L91.3615 224.2C91.4015 224.32 91.4215 224.48 91.4215 224.68C91.4215 224.96 91.3415 225.18 91.1815 225.34C91.0215 225.5 90.7415 225.66 90.3415 225.82C89.3415 226.18 88.3415 226.44 87.3415 226.6C86.3415 226.8 85.0815 226.9 83.5615 226.9ZM120.599 226.9C117.399 226.9 114.859 226.02 112.979 224.26C111.099 222.46 110.159 220.12 110.159 217.24C110.159 213.48 111.399 210.8 113.879 209.2C116.359 207.6 119.919 206.8 124.559 206.8H131.699V206.14C131.699 204.74 131.219 203.72 130.259 203.08C129.299 202.4 127.559 202.06 125.039 202.06C123.639 202.06 122.239 202.22 120.839 202.54C119.479 202.82 118.299 203.2 117.299 203.68C116.739 203.96 116.339 204.1 116.099 204.1C115.699 204.1 115.359 203.84 115.079 203.32L112.379 198.58C112.179 198.26 112.079 197.98 112.079 197.74C112.079 197.38 112.359 197.04 112.919 196.72C114.599 195.72 116.699 194.96 119.219 194.44C121.779 193.88 124.519 193.6 127.439 193.6C132.999 193.6 137.099 194.74 139.739 197.02C142.379 199.3 143.699 202.72 143.699 207.28V223C143.699 224.04 143.459 224.8 142.979 225.28C142.499 225.76 141.679 226 140.519 226H134.879C133.719 226 132.899 225.76 132.419 225.28C131.939 224.8 131.699 224.04 131.699 223V214.66H125.099C123.819 214.66 122.879 214.84 122.279 215.2C121.719 215.56 121.439 216.18 121.439 217.06C121.439 217.9 121.639 218.5 122.039 218.86C122.479 219.22 123.179 219.4 124.139 219.4C124.819 219.4 125.599 219.24 126.479 218.92C126.599 218.88 126.739 218.86 126.899 218.86C127.339 218.86 127.619 219.14 127.739 219.7L128.639 224.26C128.679 224.38 128.699 224.54 128.699 224.74C128.699 225.02 128.619 225.24 128.459 225.4C128.299 225.56 128.019 225.72 127.619 225.88C125.699 226.56 123.359 226.9 120.599 226.9ZM165.179 226.9C161.179 226.9 158.099 226.14 155.939 224.62C153.819 223.1 152.259 220.8 151.259 217.72L148.019 207.46C147.819 206.86 147.719 206.42 147.719 206.14C147.719 205.58 148.139 205.16 148.979 204.88L156.179 202.42C156.699 202.22 157.119 202.12 157.439 202.12C158.119 202.12 158.599 202.64 158.879 203.68L162.539 215.26C162.899 216.38 163.319 217.16 163.799 217.6C164.279 218.04 165.039 218.26 166.079 218.26C167.439 218.26 168.419 217.6 169.019 216.28C169.619 214.92 169.919 212.78 169.919 209.86C169.919 207.18 169.619 205.24 169.019 204.04C168.459 202.84 167.519 202.24 166.199 202.24C165.679 202.24 164.859 202.44 163.739 202.84C163.579 202.92 163.339 202.96 163.019 202.96C162.579 202.96 162.239 202.66 161.999 202.06L160.139 197.2C160.019 196.88 159.959 196.62 159.959 196.42C159.959 196.02 160.199 195.72 160.679 195.52C161.999 194.84 163.279 194.36 164.519 194.08C165.799 193.76 167.279 193.6 168.959 193.6C173.079 193.6 176.259 195.04 178.499 197.92C180.779 200.8 181.919 204.78 181.919 209.86C181.919 215.38 180.459 219.6 177.539 222.52C174.619 225.44 170.499 226.9 165.179 226.9ZM197.351 226.9C193.311 226.9 190.191 225.54 187.991 222.82C185.791 220.06 184.691 216.28 184.691 211.48C184.691 207.76 185.191 204.56 186.191 201.88C187.231 199.16 188.671 197.1 190.511 195.7C192.391 194.3 194.571 193.6 197.051 193.6C199.571 193.6 201.531 194.56 202.931 196.48C203.651 195.6 204.651 194.9 205.931 194.38C207.251 193.86 208.651 193.6 210.131 193.6C213.451 193.6 215.911 194.4 217.511 196C219.151 197.56 219.971 199.72 219.971 202.48V223C219.971 224.04 219.731 224.8 219.251 225.28C218.771 225.76 217.951 226 216.791 226H210.971C209.811 226 208.991 225.76 208.511 225.28C208.031 224.8 207.791 224.04 207.791 223V204.46C207.791 202.98 207.191 202.24 205.991 202.24C205.311 202.24 204.691 202.6 204.131 203.32C203.931 203.56 203.731 203.74 203.531 203.86C203.371 203.94 203.151 203.98 202.871 203.98C202.551 203.98 202.291 203.94 202.091 203.86C201.931 203.74 201.751 203.56 201.551 203.32C201.271 202.92 201.011 202.64 200.771 202.48C200.571 202.32 200.271 202.24 199.871 202.24C198.911 202.24 198.151 203 197.591 204.52C197.031 206.04 196.751 208.36 196.751 211.48C196.751 213.92 197.031 215.66 197.591 216.7C198.191 217.74 199.131 218.26 200.411 218.26C201.211 218.26 201.971 218.1 202.691 217.78C202.811 217.74 202.951 217.72 203.111 217.72C203.551 217.72 203.831 218 203.951 218.56L205.151 224.2C205.191 224.32 205.211 224.48 205.211 224.68C205.211 224.96 205.131 225.18 204.971 225.34C204.811 225.5 204.531 225.66 204.131 225.82C203.131 226.18 202.131 226.44 201.131 226.6C200.131 226.8 198.871 226.9 197.351 226.9ZM211.708 190.84C210.588 190.84 209.808 190.64 209.368 190.24C208.888 189.84 208.648 189.08 208.648 187.96V181.06C208.648 179.9 208.888 179.12 209.368 178.72C209.808 178.32 210.588 178.12 211.708 178.12H216.808C217.928 178.12 218.728 178.32 219.208 178.72C219.648 179.12 219.868 179.9 219.868 181.06V187.96C219.868 189.08 219.648 189.84 219.208 190.24C218.728 190.64 217.928 190.84 216.808 190.84H211.708ZM239.248 226.9C229.048 226.9 223.948 222.84 223.948 214.72V210.34C223.948 209.34 224.168 208.6 224.608 208.12C225.088 207.64 225.888 207.4 227.008 207.4H236.608C237.408 207.4 237.948 207.56 238.228 207.88C238.548 208.2 238.708 208.76 238.708 209.56V212.5C238.708 213.3 238.548 213.86 238.228 214.18C237.948 214.5 237.388 214.66 236.548 214.66H234.508V215.62C234.508 216.34 234.888 216.96 235.648 217.48C236.408 218 237.608 218.26 239.248 218.26C241.288 218.26 242.668 217.64 243.388 216.4C244.148 215.16 244.528 213.06 244.528 210.1C244.528 207.18 243.968 205.14 242.848 203.98C241.768 202.82 239.828 202.24 237.028 202.24C235.588 202.24 234.188 202.4 232.828 202.72C231.508 203.04 230.328 203.46 229.288 203.98C228.728 204.26 228.328 204.4 228.088 204.4C227.688 204.4 227.348 204.14 227.068 203.62L224.548 199.24C224.268 198.68 224.128 198.24 224.128 197.92C224.128 197.48 224.348 197.12 224.788 196.84C226.428 195.8 228.568 195 231.208 194.44C233.888 193.88 236.708 193.6 239.668 193.6C250.988 193.6 256.648 199.1 256.648 210.1C256.648 215.66 255.128 219.86 252.088 222.7C249.048 225.5 244.768 226.9 239.248 226.9ZM264.258 226C261.818 226 260.598 224.74 260.598 222.22V197.56C260.598 196.48 260.838 195.7 261.318 195.22C261.838 194.74 262.718 194.5 263.958 194.5H269.418C270.658 194.5 271.518 194.74 271.998 195.22C272.518 195.7 272.778 196.48 272.778 197.56V216.1C272.778 216.58 272.838 216.9 272.958 217.06C273.078 217.18 273.298 217.24 273.618 217.24H274.878C275.558 217.24 275.998 217.36 276.198 217.6C276.398 217.84 276.498 218.34 276.498 219.1V223.84C276.498 224.56 276.378 225.08 276.138 225.4C275.938 225.68 275.578 225.86 275.058 225.94C274.578 225.98 273.738 226 272.538 226H264.258ZM292.282 226.9C288.682 226.9 285.802 225.96 283.642 224.08C281.482 222.2 280.402 219.4 280.402 215.68V197.56C280.402 196.52 280.642 195.76 281.122 195.28C281.602 194.76 282.402 194.5 283.522 194.5H289.342C290.502 194.5 291.322 194.76 291.802 195.28C292.282 195.76 292.522 196.52 292.522 197.56V215.2C292.522 217.52 293.782 218.68 296.302 218.68C297.582 218.68 298.642 218.34 299.482 217.66C300.322 216.98 300.742 216.12 300.742 215.08V197.56C300.742 196.52 300.982 195.76 301.462 195.28C301.942 194.76 302.762 194.5 303.922 194.5H309.742C310.902 194.5 311.722 194.76 312.202 195.28C312.682 195.76 312.922 196.52 312.922 197.56V223.36C312.922 225.12 312.022 226 310.222 226H304.822C303.742 226 303.142 225.56 303.022 224.68L302.782 222.88C301.622 224.16 300.222 225.16 298.582 225.88C296.942 226.56 294.842 226.9 292.282 226.9ZM288.018 190.84C286.778 190.84 285.978 190.66 285.618 190.3C285.258 189.9 285.078 189.08 285.078 187.84V185.56C285.078 184.32 285.258 183.52 285.618 183.16C285.978 182.76 286.778 182.56 288.018 182.56H294.618V180.1C294.618 179.02 294.858 178.28 295.338 177.88C295.778 177.48 296.498 177.28 297.498 177.28H299.538C300.538 177.28 301.278 177.48 301.758 177.88C302.198 178.28 302.418 179.02 302.418 180.1V182.56H305.118V180.1C305.118 179.02 305.358 178.28 305.838 177.88C306.278 177.48 306.998 177.28 307.998 177.28H310.038C311.038 177.28 311.778 177.48 312.258 177.88C312.698 178.28 312.918 179.02 312.918 180.1V187.54C312.918 188.74 312.698 189.6 312.258 190.12C311.818 190.6 310.958 190.84 309.678 190.84H288.018ZM306.558 175.24C305.478 175.24 304.718 175.04 304.278 174.64C303.798 174.24 303.558 173.46 303.558 172.3V167.56C303.558 166.4 303.798 165.62 304.278 165.22C304.718 164.82 305.478 164.62 306.558 164.62H309.738C310.818 164.62 311.598 164.82 312.078 165.22C312.558 165.62 312.798 166.4 312.798 167.56V172.3C312.798 173.46 312.558 174.24 312.078 174.64C311.598 175.04 310.818 175.24 309.738 175.24H306.558ZM332.178 226.9C321.978 226.9 316.878 222.84 316.878 214.72V210.34C316.878 209.34 317.098 208.6 317.538 208.12C318.018 207.64 318.818 207.4 319.938 207.4H329.538C330.338 207.4 330.878 207.56 331.158 207.88C331.478 208.2 331.638 208.76 331.638 209.56V212.5C331.638 213.3 331.478 213.86 331.158 214.18C330.878 214.5 330.318 214.66 329.478 214.66H327.438V215.62C327.438 216.34 327.818 216.96 328.578 217.48C329.338 218 330.538 218.26 332.178 218.26C334.218 218.26 335.598 217.64 336.318 216.4C337.078 215.16 337.458 213.06 337.458 210.1C337.458 207.18 336.898 205.14 335.778 203.98C334.698 202.82 332.758 202.24 329.958 202.24C328.518 202.24 327.118 202.4 325.758 202.72C324.438 203.04 323.258 203.46 322.218 203.98C321.658 204.26 321.258 204.4 321.018 204.4C320.618 204.4 320.278 204.14 319.998 203.62L317.478 199.24C317.198 198.68 317.058 198.24 317.058 197.92C317.058 197.48 317.278 197.12 317.718 196.84C319.358 195.8 321.498 195 324.138 194.44C326.818 193.88 329.638 193.6 332.598 193.6C343.918 193.6 349.578 199.1 349.578 210.1C349.578 215.66 348.058 219.86 345.018 222.7C341.978 225.5 337.698 226.9 332.178 226.9ZM369.847 226.9C365.847 226.9 362.767 226.14 360.607 224.62C358.487 223.1 356.927 220.8 355.927 217.72L352.687 207.46C352.487 206.86 352.387 206.42 352.387 206.14C352.387 205.58 352.807 205.16 353.647 204.88L360.847 202.42C361.367 202.22 361.787 202.12 362.107 202.12C362.787 202.12 363.267 202.64 363.547 203.68L367.207 215.26C367.567 216.38 367.987 217.16 368.467 217.6C368.947 218.04 369.707 218.26 370.747 218.26C372.107 218.26 373.087 217.6 373.687 216.28C374.287 214.92 374.587 212.78 374.587 209.86C374.587 207.18 374.287 205.24 373.687 204.04C373.127 202.84 372.187 202.24 370.867 202.24C370.347 202.24 369.527 202.44 368.407 202.84C368.247 202.92 368.007 202.96 367.687 202.96C367.247 202.96 366.907 202.66 366.667 202.06L364.807 197.2C364.687 196.88 364.627 196.62 364.627 196.42C364.627 196.02 364.867 195.72 365.347 195.52C366.667 194.84 367.947 194.36 369.187 194.08C370.467 193.76 371.947 193.6 373.627 193.6C377.747 193.6 380.927 195.04 383.167 197.92C385.447 200.8 386.587 204.78 386.587 209.86C386.587 215.38 385.127 219.6 382.207 222.52C379.287 225.44 375.167 226.9 369.847 226.9Z" fill="black"/>
<path d="M14.3848 160H405.619V163H14.3848V160ZM32.0215 232H387.967V235H32.0215V232Z" fill="black"/>
</svg>
