<svg width="420" height="313" viewBox="0 0 420 313" fill="none" xmlns="http://www.w3.org/2000/svg">
<path d="M207.541 15.8702L0 0V269H420V79.351L207.541 15.8702Z" fill="#F8D105"/>
<path d="M4.944 299.24C3.67467 299.24 2.70933 298.968 2.048 298.424C1.39733 297.869 1.072 297.117 1.072 296.168V291.08C1.072 290.76 1.232 290.6 1.552 290.6H2.048C2.21867 290.6 2.34133 290.643 2.416 290.728C2.49067 290.803 2.528 290.92 2.528 291.08V296.312C2.528 296.909 2.736 297.363 3.152 297.672C3.568 297.971 4.16533 298.12 4.944 298.12C5.72267 298.12 6.32 297.971 6.736 297.672C7.152 297.363 7.36 296.909 7.36 296.312V288.28C7.36 288.12 7.39733 288.003 7.472 287.928C7.54667 287.843 7.66933 287.8 7.84 287.8H8.32C8.65067 287.8 8.816 287.96 8.816 288.28V296.168C8.816 297.117 8.48533 297.869 7.824 298.424C7.17333 298.968 6.21333 299.24 4.944 299.24ZM1.22987 288.968C1.05921 288.968 0.941875 288.936 0.877874 288.872C0.803208 288.808 0.765875 288.691 0.765875 288.52V288.28C0.765875 288.12 0.803208 288.003 0.877874 287.928C0.941875 287.853 1.05921 287.816 1.22987 287.816H4.74987V286.328C4.74987 286.104 4.86187 285.992 5.08587 285.992H5.69387C5.91787 285.992 6.02987 286.104 6.02987 286.328V288.184C6.02987 288.483 5.97654 288.691 5.86987 288.808C5.76321 288.915 5.55521 288.968 5.24587 288.968H1.22987ZM17.8254 299C17.5267 299 17.3774 298.845 17.3774 298.536V298.024C17.3774 297.331 17.6547 296.637 18.2094 295.944C18.7747 295.24 19.5854 294.611 20.6414 294.056C21.4307 293.64 22.0227 293.293 22.4174 293.016C22.8227 292.728 23.116 292.424 23.2974 292.104C23.4894 291.784 23.5854 291.389 23.5854 290.92C23.5854 290.28 23.3614 289.8 22.9134 289.48C22.4654 289.16 21.852 289 21.0734 289C20.54 289 20.0334 289.064 19.5534 289.192C19.0734 289.32 18.6734 289.485 18.3534 289.688C18.3 289.731 18.2467 289.752 18.1934 289.752C18.1294 289.752 18.076 289.709 18.0334 289.624L17.6974 289.032C17.6654 288.968 17.6494 288.915 17.6494 288.872C17.6494 288.797 17.692 288.733 17.7774 288.68C18.1294 288.435 18.6094 288.243 19.2174 288.104C19.8254 287.955 20.4867 287.88 21.2014 287.88C22.332 287.88 23.2494 288.147 23.9534 288.68C24.668 289.213 25.0254 289.96 25.0254 290.92C25.0254 291.763 24.7587 292.472 24.2254 293.048C23.692 293.613 22.8654 294.179 21.7454 294.744C20.8174 295.224 20.1027 295.725 19.6014 296.248C19.1 296.76 18.8494 297.288 18.8494 297.832H24.4654C24.636 297.832 24.7534 297.869 24.8174 297.944C24.892 298.008 24.9294 298.125 24.9294 298.296V298.568C24.9294 298.728 24.892 298.84 24.8174 298.904C24.7534 298.968 24.636 299 24.4654 299H17.8254ZM30.2769 299.24C29.5622 299.24 28.8742 299.16 28.2129 299C27.5622 298.851 27.0555 298.653 26.6929 298.408C26.6075 298.355 26.5649 298.291 26.5649 298.216C26.5649 298.173 26.5809 298.12 26.6129 298.056L26.9649 297.464C27.0075 297.389 27.0555 297.352 27.1089 297.352C27.1622 297.352 27.2155 297.373 27.2689 297.416C27.5995 297.619 28.0262 297.789 28.5489 297.928C29.0822 298.056 29.6582 298.12 30.2769 298.12C31.3009 298.12 32.0742 297.907 32.5969 297.48C33.1195 297.043 33.3809 296.392 33.3809 295.528C33.3809 294.557 33.1569 293.88 32.7089 293.496C32.2609 293.101 31.5195 292.904 30.4849 292.904C29.5355 292.904 28.7302 293.064 28.0689 293.384C27.9302 293.437 27.7969 293.464 27.6689 293.464C27.4449 293.464 27.2582 293.4 27.1089 293.272C26.9702 293.133 26.9062 292.952 26.9169 292.728L27.1889 288.568C27.1995 288.419 27.2369 288.307 27.3009 288.232C27.3755 288.157 27.4982 288.12 27.6689 288.12H33.8449C34.0155 288.12 34.1382 288.152 34.2129 288.216C34.2875 288.28 34.3249 288.392 34.3249 288.552V288.824C34.3249 288.995 34.2875 289.117 34.2129 289.192C34.1382 289.256 34.0155 289.288 33.8449 289.288H28.4689L28.2769 292.2C28.9595 291.955 29.7809 291.832 30.7409 291.832C33.4609 291.832 34.8209 293.064 34.8209 295.528C34.8209 296.275 34.6342 296.931 34.2609 297.496C33.8982 298.051 33.3755 298.483 32.6929 298.792C32.0102 299.091 31.2049 299.24 30.2769 299.24ZM40.0581 299.24C39.3435 299.24 38.6555 299.16 37.9941 299C37.3435 298.851 36.8368 298.653 36.4741 298.408C36.3888 298.355 36.3461 298.291 36.3461 298.216C36.3461 298.173 36.3621 298.12 36.3941 298.056L36.7461 297.464C36.7888 297.389 36.8368 297.352 36.8901 297.352C36.9435 297.352 36.9968 297.373 37.0501 297.416C37.3808 297.619 37.8075 297.789 38.3301 297.928C38.8635 298.056 39.4395 298.12 40.0581 298.12C41.0821 298.12 41.8555 297.907 42.3781 297.48C42.9008 297.043 43.1621 296.392 43.1621 295.528C43.1621 294.557 42.9381 293.88 42.4901 293.496C42.0421 293.101 41.3008 292.904 40.2661 292.904C39.3168 292.904 38.5115 293.064 37.8501 293.384C37.7115 293.437 37.5781 293.464 37.4501 293.464C37.2261 293.464 37.0395 293.4 36.8901 293.272C36.7515 293.133 36.6875 292.952 36.6981 292.728L36.9701 288.568C36.9808 288.419 37.0181 288.307 37.0821 288.232C37.1568 288.157 37.2795 288.12 37.4501 288.12H43.6261C43.7968 288.12 43.9195 288.152 43.9941 288.216C44.0688 288.28 44.1061 288.392 44.1061 288.552V288.824C44.1061 288.995 44.0688 289.117 43.9941 289.192C43.9195 289.256 43.7968 289.288 43.6261 289.288H38.2501L38.0581 292.2C38.7408 291.955 39.5621 291.832 40.5221 291.832C43.2421 291.832 44.6021 293.064 44.6021 295.528C44.6021 296.275 44.4155 296.931 44.0421 297.496C43.6795 298.051 43.1568 298.483 42.4741 298.792C41.7915 299.091 40.9861 299.24 40.0581 299.24ZM50.4154 299.24C49.1354 299.24 48.0954 298.851 47.2954 298.072C46.506 297.293 46.1114 296.04 46.1114 294.312C46.1114 292.733 46.3354 291.469 46.7834 290.52C47.2314 289.56 47.8074 288.883 48.5114 288.488C49.2154 288.083 49.994 287.88 50.8474 287.88C52.0634 287.88 53.0394 288.136 53.7754 288.648C53.8607 288.701 53.9034 288.765 53.9034 288.84C53.9034 288.883 53.8874 288.936 53.8554 289L53.5354 289.544C53.4927 289.64 53.4394 289.688 53.3754 289.688C53.3434 289.688 53.29 289.661 53.2154 289.608C52.906 289.395 52.5647 289.24 52.1914 289.144C51.8287 289.048 51.3807 289 50.8474 289C49.898 289 49.1514 289.304 48.6074 289.912C48.074 290.509 47.722 291.411 47.5514 292.616C47.914 292.2 48.362 291.896 48.8954 291.704C49.4287 291.501 50.0687 291.4 50.8154 291.4C51.5834 291.4 52.2714 291.555 52.8794 291.864C53.4874 292.163 53.962 292.595 54.3034 293.16C54.6554 293.715 54.8314 294.36 54.8314 295.096C54.8314 296.451 54.442 297.48 53.6634 298.184C52.8847 298.888 51.802 299.24 50.4154 299.24ZM50.4154 298.12C52.41 298.12 53.4074 297.112 53.4074 295.096C53.4074 294.264 53.1354 293.613 52.5914 293.144C52.058 292.675 51.3594 292.44 50.4954 292.44C50.026 292.44 49.5674 292.536 49.1194 292.728C48.6714 292.92 48.298 293.219 47.9994 293.624C47.7114 294.029 47.5674 294.541 47.5674 295.16C47.5674 296.195 47.8287 296.947 48.3514 297.416C48.874 297.885 49.562 298.12 50.4154 298.12Z" fill="black"/>
<path d="M12.74 30.3C10.58 30.3 8.98667 29.9533 7.96 29.26C7.84 29.18 7.78 29.0867 7.78 28.98C7.78 28.9 7.81333 28.8067 7.88 28.7L8.46 27.72C8.54 27.5867 8.61333 27.52 8.68 27.52C8.73333 27.52 8.82667 27.5533 8.96 27.62C9.4 27.86 9.90667 28.0533 10.48 28.2C11.0667 28.3467 11.7 28.42 12.38 28.42C13.4733 28.42 14.2733 28.2133 14.78 27.8C15.3 27.3733 15.56 26.7867 15.56 26.04C15.56 24.6533 14.7133 23.96 13.02 23.96H11.34C11.0733 23.96 10.88 23.9067 10.76 23.8C10.6533 23.68 10.6 23.4933 10.6 23.24V22.72C10.6 22.48 10.6533 22.3067 10.76 22.2C10.88 22.0933 11.0733 22.04 11.34 22.04H12.98C13.7 22.04 14.24 21.8533 14.6 21.48C14.96 21.0933 15.14 20.6067 15.14 20.02C15.14 18.6733 14.1933 18 12.3 18C11.1267 18 10.0933 18.2467 9.2 18.74C9.06667 18.8067 8.97333 18.84 8.92 18.84C8.85333 18.84 8.78 18.78 8.7 18.66L8.14 17.72C8.07333 17.6133 8.04 17.52 8.04 17.44C8.04 17.3333 8.1 17.24 8.22 17.16C8.68667 16.8267 9.30667 16.5667 10.08 16.38C10.8533 16.1933 11.7133 16.1 12.66 16.1C13.6867 16.1 14.5733 16.26 15.32 16.58C16.08 16.9 16.66 17.3533 17.06 17.94C17.4733 18.5133 17.68 19.1867 17.68 19.96C17.68 20.5867 17.5267 21.1667 17.22 21.7C16.9267 22.2333 16.5 22.6467 15.94 22.94C16.66 23.2067 17.1933 23.62 17.54 24.18C17.9 24.7267 18.08 25.3733 18.08 26.12C18.08 27.3733 17.6133 28.3867 16.68 29.16C15.76 29.92 14.4467 30.3 12.74 30.3ZM26.2555 30.3C24.0688 30.3 22.4155 29.6933 21.2955 28.48C20.1888 27.2533 19.6355 25.4933 19.6355 23.2C19.6355 20.9067 20.1888 19.1533 21.2955 17.94C22.4155 16.7133 24.0688 16.1 26.2555 16.1C28.4288 16.1 30.0755 16.7133 31.1955 17.94C32.3155 19.1667 32.8755 20.92 32.8755 23.2C32.8755 25.48 32.3155 27.2333 31.1955 28.46C30.0755 29.6867 28.4288 30.3 26.2555 30.3ZM28.5155 18.6C27.9421 18.2 27.1888 18 26.2555 18C24.8688 18 23.8355 18.4333 23.1555 19.3C22.4888 20.1667 22.1555 21.4667 22.1555 23.2C22.1555 24.5733 22.4355 25.6333 22.9955 26.38L28.5155 18.6ZM26.2555 28.42C27.6421 28.42 28.6688 27.9867 29.3355 27.12C30.0021 26.2533 30.3355 24.9467 30.3355 23.2C30.3355 21.8533 30.0688 20.8 29.5355 20.04L23.9955 27.86C24.5955 28.2333 25.3488 28.42 26.2555 28.42ZM39.6402 30.3C38.8135 30.3 38.0602 30.2067 37.3802 30.02C36.7135 29.8467 36.1468 29.6067 35.6802 29.3C35.5602 29.22 35.5002 29.1267 35.5002 29.02C35.5002 28.94 35.5335 28.8467 35.6002 28.74L36.1602 27.78C36.2402 27.66 36.3135 27.6 36.3802 27.6C36.4335 27.6 36.5268 27.6333 36.6602 27.7C37.4602 28.18 38.4068 28.42 39.5002 28.42C40.6335 28.42 41.5068 28.12 42.1202 27.52C42.7335 26.92 43.1135 26 43.2602 24.76C42.8068 25.1867 42.2735 25.4933 41.6602 25.68C41.0602 25.8533 40.3468 25.94 39.5202 25.94C38.4802 25.94 37.5735 25.7533 36.8002 25.38C36.0402 24.9933 35.4535 24.4533 35.0402 23.76C34.6402 23.0667 34.4402 22.2733 34.4402 21.38C34.4402 19.62 34.9335 18.3 35.9202 17.42C36.9068 16.54 38.3135 16.1 40.1402 16.1C41.7935 16.1 43.1135 16.6133 44.1002 17.64C45.1002 18.6533 45.6002 20.22 45.6002 22.34C45.6002 25.1667 45.0402 27.2 43.9202 28.44C42.8135 29.68 41.3868 30.3 39.6402 30.3ZM40.0802 24.3C40.5868 24.3 41.0602 24.1933 41.5002 23.98C41.9535 23.7533 42.3202 23.4267 42.6002 23C42.8802 22.56 43.0202 22.0333 43.0202 21.42C43.0202 20.2867 42.7668 19.4333 42.2602 18.86C41.7535 18.2867 41.0402 18 40.1202 18C39.0668 18 38.2735 18.2667 37.7402 18.8C37.2202 19.3333 36.9602 20.18 36.9602 21.34C36.9602 22.3267 37.2202 23.0667 37.7402 23.56C38.2735 24.0533 39.0535 24.3 40.0802 24.3ZM47.855 30C47.415 30 47.195 29.7733 47.195 29.32V28.54C47.195 27.6867 47.5217 26.8467 48.175 26.02C48.8417 25.1933 49.835 24.4067 51.155 23.66C52.1017 23.1267 52.795 22.7067 53.235 22.4C53.675 22.08 53.995 21.7467 54.195 21.4C54.4083 21.04 54.515 20.6 54.515 20.08C54.515 19.4 54.275 18.8867 53.795 18.54C53.315 18.18 52.6417 18 51.775 18C51.1483 18 50.555 18.08 49.995 18.24C49.4483 18.3867 48.975 18.5733 48.575 18.8C48.4417 18.8667 48.355 18.9 48.315 18.9C48.235 18.9 48.155 18.84 48.075 18.72L47.515 17.74C47.4483 17.6333 47.415 17.54 47.415 17.46C47.415 17.3533 47.475 17.26 47.595 17.18C48.0617 16.8467 48.695 16.5867 49.495 16.4C50.295 16.2 51.1683 16.1 52.115 16.1C53.595 16.1 54.7883 16.44 55.695 17.12C56.6017 17.7867 57.055 18.7333 57.055 19.96C57.055 20.9867 56.735 21.8533 56.095 22.56C55.4683 23.2667 54.475 23.9933 53.115 24.74C52.115 25.26 51.3217 25.8067 50.735 26.38C50.1483 26.9533 49.835 27.5133 49.795 28.06H56.275C56.5417 28.06 56.7283 28.12 56.835 28.24C56.9417 28.3467 56.995 28.5267 56.995 28.78V29.32C56.995 29.56 56.9417 29.7333 56.835 29.84C56.7283 29.9467 56.5417 30 56.275 30H47.855ZM63.8589 30.3C63.0322 30.3 62.2789 30.2067 61.5989 30.02C60.9322 29.8467 60.3656 29.6067 59.8989 29.3C59.7789 29.22 59.7189 29.1267 59.7189 29.02C59.7189 28.94 59.7522 28.8467 59.8189 28.74L60.3789 27.78C60.4589 27.66 60.5322 27.6 60.5989 27.6C60.6522 27.6 60.7456 27.6333 60.8789 27.7C61.6789 28.18 62.6256 28.42 63.7189 28.42C64.8522 28.42 65.7256 28.12 66.3389 27.52C66.9522 26.92 67.3322 26 67.4789 24.76C67.0256 25.1867 66.4922 25.4933 65.8789 25.68C65.2789 25.8533 64.5656 25.94 63.7389 25.94C62.6989 25.94 61.7922 25.7533 61.0189 25.38C60.2589 24.9933 59.6722 24.4533 59.2589 23.76C58.8589 23.0667 58.6589 22.2733 58.6589 21.38C58.6589 19.62 59.1522 18.3 60.1389 17.42C61.1256 16.54 62.5322 16.1 64.3589 16.1C66.0122 16.1 67.3322 16.6133 68.3189 17.64C69.3189 18.6533 69.8189 20.22 69.8189 22.34C69.8189 25.1667 69.2589 27.2 68.1389 28.44C67.0322 29.68 65.6056 30.3 63.8589 30.3ZM64.2989 24.3C64.8056 24.3 65.2789 24.1933 65.7189 23.98C66.1722 23.7533 66.5389 23.4267 66.8189 23C67.0989 22.56 67.2389 22.0333 67.2389 21.42C67.2389 20.2867 66.9856 19.4333 66.4789 18.86C65.9722 18.2867 65.2589 18 64.3389 18C63.2856 18 62.4922 18.2667 61.9589 18.8C61.4389 19.3333 61.1789 20.18 61.1789 21.34C61.1789 22.3267 61.4389 23.0667 61.9589 23.56C62.4922 24.0533 63.2722 24.3 64.2989 24.3Z" fill="black"/>
<path d="M7 32H70.5989V33H7V32Z" fill="black"/>
<path d="M354.046 96C353.606 96 353.386 95.7733 353.386 95.32V94.54C353.386 93.6867 353.713 92.8467 354.366 92.02C355.033 91.1933 356.026 90.4067 357.346 89.66C358.293 89.1267 358.986 88.7067 359.426 88.4C359.866 88.08 360.186 87.7467 360.386 87.4C360.6 87.04 360.706 86.6 360.706 86.08C360.706 85.4 360.466 84.8867 359.986 84.54C359.506 84.18 358.833 84 357.966 84C357.34 84 356.746 84.08 356.186 84.24C355.64 84.3867 355.166 84.5733 354.766 84.8C354.633 84.8667 354.546 84.9 354.506 84.9C354.426 84.9 354.346 84.84 354.266 84.72L353.706 83.74C353.64 83.6333 353.606 83.54 353.606 83.46C353.606 83.3533 353.666 83.26 353.786 83.18C354.253 82.8467 354.886 82.5867 355.686 82.4C356.486 82.2 357.36 82.1 358.306 82.1C359.786 82.1 360.98 82.44 361.886 83.12C362.793 83.7867 363.246 84.7333 363.246 85.96C363.246 86.9867 362.926 87.8533 362.286 88.56C361.66 89.2667 360.666 89.9933 359.306 90.74C358.306 91.26 357.513 91.8067 356.926 92.38C356.34 92.9533 356.026 93.5133 355.986 94.06H362.466C362.733 94.06 362.92 94.12 363.026 94.24C363.133 94.3467 363.186 94.5267 363.186 94.78V95.32C363.186 95.56 363.133 95.7333 363.026 95.84C362.92 95.9467 362.733 96 362.466 96H354.046ZM370.05 96.3C369.224 96.3 368.47 96.2067 367.79 96.02C367.124 95.8467 366.557 95.6067 366.09 95.3C365.97 95.22 365.91 95.1267 365.91 95.02C365.91 94.94 365.944 94.8467 366.01 94.74L366.57 93.78C366.65 93.66 366.724 93.6 366.79 93.6C366.844 93.6 366.937 93.6333 367.07 93.7C367.87 94.18 368.817 94.42 369.91 94.42C371.044 94.42 371.917 94.12 372.53 93.52C373.144 92.92 373.524 92 373.67 90.76C373.217 91.1867 372.684 91.4933 372.07 91.68C371.47 91.8533 370.757 91.94 369.93 91.94C368.89 91.94 367.984 91.7533 367.21 91.38C366.45 90.9933 365.864 90.4533 365.45 89.76C365.05 89.0667 364.85 88.2733 364.85 87.38C364.85 85.62 365.344 84.3 366.33 83.42C367.317 82.54 368.724 82.1 370.55 82.1C372.204 82.1 373.524 82.6133 374.51 83.64C375.51 84.6533 376.01 86.22 376.01 88.34C376.01 91.1667 375.45 93.2 374.33 94.44C373.224 95.68 371.797 96.3 370.05 96.3ZM370.49 90.3C370.997 90.3 371.47 90.1933 371.91 89.98C372.364 89.7533 372.73 89.4267 373.01 89C373.29 88.56 373.43 88.0333 373.43 87.42C373.43 86.2867 373.177 85.4333 372.67 84.86C372.164 84.2867 371.45 84 370.53 84C369.477 84 368.684 84.2667 368.15 84.8C367.63 85.3333 367.37 86.18 367.37 87.34C367.37 88.3267 367.63 89.0667 368.15 89.56C368.684 90.0533 369.464 90.3 370.49 90.3ZM379.265 96C379.078 96 378.985 95.92 378.985 95.76C378.985 95.68 379.012 95.5933 379.065 95.5L384.885 84.36H378.025C377.772 84.36 377.598 84.3067 377.505 84.2C377.412 84.0933 377.365 83.9133 377.365 83.66V83.06C377.365 82.82 377.412 82.6533 377.505 82.56C377.598 82.4533 377.772 82.4 378.025 82.4H387.205C387.525 82.4 387.745 82.4533 387.865 82.56C387.998 82.6667 388.065 82.8533 388.065 83.12C388.065 83.2933 388.018 83.4867 387.925 83.7C387.845 83.9133 387.752 84.1133 387.645 84.3C387.538 84.4867 387.472 84.6133 387.445 84.68L381.705 95.72C381.652 95.8267 381.585 95.9 381.505 95.94C381.438 95.98 381.338 96 381.205 96H379.265ZM391.121 96C390.934 96 390.841 95.92 390.841 95.76C390.841 95.68 390.867 95.5933 390.921 95.5L396.741 84.36H389.881C389.627 84.36 389.454 84.3067 389.361 84.2C389.267 84.0933 389.221 83.9133 389.221 83.66V83.06C389.221 82.82 389.267 82.6533 389.361 82.56C389.454 82.4533 389.627 82.4 389.881 82.4H399.061C399.381 82.4 399.601 82.4533 399.721 82.56C399.854 82.6667 399.921 82.8533 399.921 83.12C399.921 83.2933 399.874 83.4867 399.781 83.7C399.701 83.9133 399.607 84.1133 399.501 84.3C399.394 84.4867 399.327 84.6133 399.301 84.68L393.561 95.72C393.507 95.8267 393.441 95.9 393.361 95.94C393.294 95.98 393.194 96 393.061 96H391.121ZM401.976 96C401.536 96 401.316 95.7733 401.316 95.32V94.54C401.316 93.6867 401.643 92.8467 402.296 92.02C402.963 91.1933 403.956 90.4067 405.276 89.66C406.223 89.1267 406.916 88.7067 407.356 88.4C407.796 88.08 408.116 87.7467 408.316 87.4C408.529 87.04 408.636 86.6 408.636 86.08C408.636 85.4 408.396 84.8867 407.916 84.54C407.436 84.18 406.763 84 405.896 84C405.269 84 404.676 84.08 404.116 84.24C403.569 84.3867 403.096 84.5733 402.696 84.8C402.563 84.8667 402.476 84.9 402.436 84.9C402.356 84.9 402.276 84.84 402.196 84.72L401.636 83.74C401.569 83.6333 401.536 83.54 401.536 83.46C401.536 83.3533 401.596 83.26 401.716 83.18C402.183 82.8467 402.816 82.5867 403.616 82.4C404.416 82.2 405.289 82.1 406.236 82.1C407.716 82.1 408.909 82.44 409.816 83.12C410.723 83.7867 411.176 84.7333 411.176 85.96C411.176 86.9867 410.856 87.8533 410.216 88.56C409.589 89.2667 408.596 89.9933 407.236 90.74C406.236 91.26 405.443 91.8067 404.856 92.38C404.269 92.9533 403.956 93.5133 403.916 94.06H410.396C410.663 94.06 410.849 94.12 410.956 94.24C411.063 94.3467 411.116 94.5267 411.116 94.78V95.32C411.116 95.56 411.063 95.7333 410.956 95.84C410.849 95.9467 410.663 96 410.396 96H401.976Z" fill="black"/>
<path d="M352.566 98H411.996V99H352.566V98Z" fill="black"/>
<path d="M369.96 299.24C368.69 299.24 367.725 298.968 367.064 298.424C366.413 297.869 366.088 297.117 366.088 296.168V291.08C366.088 290.76 366.248 290.6 366.568 290.6H367.064C367.234 290.6 367.357 290.643 367.432 290.728C367.506 290.803 367.544 290.92 367.544 291.08V296.312C367.544 296.909 367.752 297.363 368.168 297.672C368.584 297.971 369.181 298.12 369.96 298.12C370.738 298.12 371.336 297.971 371.752 297.672C372.168 297.363 372.376 296.909 372.376 296.312V288.28C372.376 288.12 372.413 288.003 372.488 287.928C372.562 287.843 372.685 287.8 372.856 287.8H373.336C373.666 287.8 373.832 287.96 373.832 288.28V296.168C373.832 297.117 373.501 297.869 372.84 298.424C372.189 298.968 371.229 299.24 369.96 299.24ZM366.245 288.968C366.075 288.968 365.957 288.936 365.893 288.872C365.819 288.808 365.781 288.691 365.781 288.52V288.28C365.781 288.12 365.819 288.003 365.893 287.928C365.957 287.853 366.075 287.816 366.245 287.816H369.765V286.328C369.765 286.104 369.877 285.992 370.101 285.992H370.709C370.933 285.992 371.045 286.104 371.045 286.328V288.184C371.045 288.483 370.992 288.691 370.885 288.808C370.779 288.915 370.571 288.968 370.261 288.968H366.245ZM382.841 299C382.542 299 382.393 298.845 382.393 298.536V298.024C382.393 297.331 382.67 296.637 383.225 295.944C383.79 295.24 384.601 294.611 385.657 294.056C386.446 293.64 387.038 293.293 387.433 293.016C387.838 292.728 388.132 292.424 388.313 292.104C388.505 291.784 388.601 291.389 388.601 290.92C388.601 290.28 388.377 289.8 387.929 289.48C387.481 289.16 386.868 289 386.089 289C385.556 289 385.049 289.064 384.569 289.192C384.089 289.32 383.689 289.485 383.369 289.688C383.316 289.731 383.262 289.752 383.209 289.752C383.145 289.752 383.092 289.709 383.049 289.624L382.713 289.032C382.681 288.968 382.665 288.915 382.665 288.872C382.665 288.797 382.708 288.733 382.793 288.68C383.145 288.435 383.625 288.243 384.233 288.104C384.841 287.955 385.502 287.88 386.217 287.88C387.348 287.88 388.265 288.147 388.969 288.68C389.684 289.213 390.041 289.96 390.041 290.92C390.041 291.763 389.774 292.472 389.241 293.048C388.708 293.613 387.881 294.179 386.761 294.744C385.833 295.224 385.118 295.725 384.617 296.248C384.116 296.76 383.865 297.288 383.865 297.832H389.481C389.652 297.832 389.769 297.869 389.833 297.944C389.908 298.008 389.945 298.125 389.945 298.296V298.568C389.945 298.728 389.908 298.84 389.833 298.904C389.769 298.968 389.652 299 389.481 299H382.841ZM395.293 299.24C394.578 299.24 393.89 299.16 393.229 299C392.578 298.851 392.071 298.653 391.709 298.408C391.623 298.355 391.581 298.291 391.581 298.216C391.581 298.173 391.597 298.12 391.629 298.056L391.981 297.464C392.023 297.389 392.071 297.352 392.125 297.352C392.178 297.352 392.231 297.373 392.285 297.416C392.615 297.619 393.042 297.789 393.565 297.928C394.098 298.056 394.674 298.12 395.293 298.12C396.317 298.12 397.09 297.907 397.613 297.48C398.135 297.043 398.397 296.392 398.397 295.528C398.397 294.557 398.173 293.88 397.725 293.496C397.277 293.101 396.535 292.904 395.501 292.904C394.551 292.904 393.746 293.064 393.085 293.384C392.946 293.437 392.813 293.464 392.685 293.464C392.461 293.464 392.274 293.4 392.125 293.272C391.986 293.133 391.922 292.952 391.933 292.728L392.205 288.568C392.215 288.419 392.253 288.307 392.317 288.232C392.391 288.157 392.514 288.12 392.685 288.12H398.861C399.031 288.12 399.154 288.152 399.229 288.216C399.303 288.28 399.341 288.392 399.341 288.552V288.824C399.341 288.995 399.303 289.117 399.229 289.192C399.154 289.256 399.031 289.288 398.861 289.288H393.485L393.293 292.2C393.975 291.955 394.797 291.832 395.757 291.832C398.477 291.832 399.837 293.064 399.837 295.528C399.837 296.275 399.65 296.931 399.277 297.496C398.914 298.051 398.391 298.483 397.709 298.792C397.026 299.091 396.221 299.24 395.293 299.24ZM405.65 299.24C404.37 299.24 403.33 298.851 402.53 298.072C401.74 297.293 401.346 296.04 401.346 294.312C401.346 292.733 401.57 291.469 402.018 290.52C402.466 289.56 403.042 288.883 403.746 288.488C404.45 288.083 405.228 287.88 406.082 287.88C407.298 287.88 408.274 288.136 409.01 288.648C409.095 288.701 409.138 288.765 409.138 288.84C409.138 288.883 409.122 288.936 409.09 289L408.77 289.544C408.727 289.64 408.674 289.688 408.61 289.688C408.578 289.688 408.524 289.661 408.45 289.608C408.14 289.395 407.799 289.24 407.426 289.144C407.063 289.048 406.615 289 406.082 289C405.132 289 404.386 289.304 403.842 289.912C403.308 290.509 402.956 291.411 402.786 292.616C403.148 292.2 403.596 291.896 404.13 291.704C404.663 291.501 405.303 291.4 406.05 291.4C406.818 291.4 407.506 291.555 408.114 291.864C408.722 292.163 409.196 292.595 409.538 293.16C409.89 293.715 410.066 294.36 410.066 295.096C410.066 296.451 409.676 297.48 408.898 298.184C408.119 298.888 407.036 299.24 405.65 299.24ZM405.65 298.12C407.644 298.12 408.642 297.112 408.642 295.096C408.642 294.264 408.37 293.613 407.826 293.144C407.292 292.675 406.594 292.44 405.73 292.44C405.26 292.44 404.802 292.536 404.354 292.728C403.906 292.92 403.532 293.219 403.234 293.624C402.946 294.029 402.802 294.541 402.802 295.16C402.802 296.195 403.063 296.947 403.586 297.416C404.108 297.885 404.796 298.12 405.65 298.12ZM412.029 299C411.73 299 411.581 298.845 411.581 298.536V298.024C411.581 297.331 411.858 296.637 412.413 295.944C412.978 295.24 413.789 294.611 414.845 294.056C415.634 293.64 416.226 293.293 416.621 293.016C417.026 292.728 417.319 292.424 417.501 292.104C417.693 291.784 417.789 291.389 417.789 290.92C417.789 290.28 417.565 289.8 417.117 289.48C416.669 289.16 416.055 289 415.277 289C414.743 289 414.237 289.064 413.757 289.192C413.277 289.32 412.877 289.485 412.557 289.688C412.503 289.731 412.45 289.752 412.397 289.752C412.333 289.752 412.279 289.709 412.237 289.624L411.901 289.032C411.869 288.968 411.853 288.915 411.853 288.872C411.853 288.797 411.895 288.733 411.981 288.68C412.333 288.435 412.813 288.243 413.421 288.104C414.029 287.955 414.69 287.88 415.405 287.88C416.535 287.88 417.453 288.147 418.157 288.68C418.871 289.213 419.229 289.96 419.229 290.92C419.229 291.763 418.962 292.472 418.429 293.048C417.895 293.613 417.069 294.179 415.949 294.744C415.021 295.224 414.306 295.725 413.805 296.248C413.303 296.76 413.053 297.288 413.053 297.832H418.669C418.839 297.832 418.957 297.869 419.021 297.944C419.095 298.008 419.133 298.125 419.133 298.296V298.568C419.133 298.728 419.095 298.84 419.021 298.904C418.957 298.968 418.839 299 418.669 299H412.029Z" fill="black"/>
<path d="M109.432 139.48C107.149 139.48 105.453 139.021 104.344 138.104C103.256 137.165 102.712 136.035 102.712 134.712V134.008H101.816C101.368 134.008 101.059 133.923 100.888 133.752C100.739 133.581 100.664 133.283 100.664 132.856V130.584C100.664 130.179 100.749 129.891 100.92 129.72C101.091 129.528 101.389 129.432 101.816 129.432H106.264C106.883 129.432 107.32 129.56 107.576 129.816C107.832 130.072 107.96 130.477 107.96 131.032V133.496C107.96 133.965 108.077 134.317 108.312 134.552C108.568 134.765 108.941 134.872 109.432 134.872C110.115 134.872 110.605 134.563 110.904 133.944C111.203 133.304 111.352 132.227 111.352 130.712C111.352 129.133 111.032 128.013 110.392 127.352C109.752 126.669 108.696 126.328 107.224 126.328C106.413 126.328 105.688 126.413 105.048 126.584C104.429 126.755 103.811 126.989 103.192 127.288C102.893 127.437 102.669 127.512 102.52 127.512C102.328 127.512 102.147 127.373 101.976 127.096L100.632 124.76C100.483 124.461 100.408 124.237 100.408 124.088C100.408 123.875 100.536 123.672 100.792 123.48C101.645 122.904 102.755 122.467 104.12 122.168C105.485 121.869 106.989 121.72 108.632 121.72C111.875 121.72 114.211 122.499 115.64 124.056C117.091 125.613 117.816 127.832 117.816 130.712C117.816 133.635 117.08 135.832 115.608 137.304C114.157 138.755 112.099 139.48 109.432 139.48ZM113.907 120.568C112.606 120.568 111.571 120.195 110.803 119.448C110.014 118.68 109.619 117.677 109.619 116.44C109.619 115.203 110.014 114.2 110.803 113.432C111.592 112.664 112.627 112.28 113.907 112.28C115.208 112.28 116.264 112.664 117.075 113.432C117.864 114.2 118.259 115.203 118.259 116.44C118.259 117.677 117.864 118.68 117.075 119.448C116.264 120.195 115.208 120.568 113.907 120.568ZM113.907 117.688C114.27 117.688 114.579 117.571 114.835 117.336C115.07 117.101 115.187 116.803 115.187 116.44C115.187 116.077 115.07 115.779 114.835 115.544C114.579 115.309 114.27 115.192 113.907 115.192C113.544 115.192 113.235 115.309 112.979 115.544C112.723 115.779 112.595 116.077 112.595 116.44C112.595 116.803 112.723 117.101 112.979 117.336C113.235 117.571 113.544 117.688 113.907 117.688ZM126.643 139C125.662 139 125.171 138.531 125.171 137.592V128.728C125.171 127.853 125 127.235 124.659 126.872C124.318 126.509 123.763 126.328 122.995 126.328C122.184 126.328 121.438 126.499 120.755 126.84C120.542 126.968 120.35 127.032 120.179 127.032C119.966 127.032 119.827 126.904 119.763 126.648L118.963 123.608L118.899 123.16C118.899 123.053 118.92 122.968 118.963 122.904C119.027 122.84 119.123 122.776 119.251 122.712C120.68 122.051 122.366 121.72 124.307 121.72C126.803 121.72 128.648 122.253 129.843 123.32C131.059 124.387 131.667 126.029 131.667 128.248V137.592C131.667 138.531 131.176 139 130.195 139H126.643ZM140.759 139.48C138.839 139.48 137.303 138.979 136.151 137.976C134.999 136.973 134.423 135.48 134.423 133.496V123.832C134.423 123.277 134.551 122.872 134.807 122.616C135.063 122.339 135.49 122.2 136.087 122.2H139.191C139.81 122.2 140.247 122.339 140.503 122.616C140.759 122.872 140.887 123.277 140.887 123.832V133.24C140.887 134.477 141.559 135.096 142.903 135.096C143.586 135.096 144.151 134.915 144.599 134.552C145.047 134.189 145.271 133.731 145.271 133.176V123.832C145.271 123.277 145.399 122.872 145.655 122.616C145.911 122.339 146.348 122.2 146.967 122.2H150.071C150.69 122.2 151.127 122.339 151.383 122.616C151.639 122.872 151.767 123.277 151.767 123.832V137.592C151.767 138.531 151.287 139 150.327 139H147.447C146.871 139 146.551 138.765 146.487 138.296L146.359 137.336C145.74 138.019 144.994 138.552 144.119 138.936C143.244 139.299 142.124 139.48 140.759 139.48ZM160.917 139.48C159.338 139.48 158.005 139.341 156.917 139.064C155.85 138.787 154.858 138.349 153.941 137.752C153.685 137.603 153.557 137.4 153.557 137.144C153.557 136.931 153.631 136.707 153.781 136.472L155.125 134.168C155.317 133.848 155.509 133.688 155.701 133.688C155.829 133.688 156.031 133.773 156.309 133.944C156.863 134.285 157.429 134.531 158.005 134.68C158.581 134.829 159.231 134.904 159.957 134.904C161.279 134.904 162.282 134.584 162.965 133.944C163.647 133.304 163.989 132.205 163.989 130.648C163.989 129.091 163.658 127.981 162.997 127.32C162.357 126.659 161.386 126.328 160.085 126.328C158.741 126.328 157.525 126.648 156.437 127.288C156.159 127.459 155.946 127.544 155.797 127.544C155.562 127.544 155.37 127.395 155.221 127.096L153.909 124.76C153.759 124.461 153.685 124.237 153.685 124.088C153.685 123.875 153.813 123.672 154.069 123.48C154.965 122.904 155.957 122.467 157.045 122.168C158.154 121.869 159.477 121.72 161.013 121.72C164.106 121.72 166.453 122.477 168.053 123.992C169.653 125.485 170.453 127.704 170.453 130.648C170.453 133.571 169.631 135.779 167.989 137.272C166.367 138.744 164.01 139.48 160.917 139.48ZM178.915 139.48C176.995 139.48 175.459 138.979 174.307 137.976C173.155 136.973 172.579 135.48 172.579 133.496V123.832C172.579 123.277 172.707 122.872 172.963 122.616C173.219 122.339 173.646 122.2 174.243 122.2H177.347C177.966 122.2 178.403 122.339 178.659 122.616C178.915 122.872 179.043 123.277 179.043 123.832V133.24C179.043 134.477 179.715 135.096 181.059 135.096C181.742 135.096 182.307 134.915 182.755 134.552C183.203 134.189 183.427 133.731 183.427 133.176V123.832C183.427 123.277 183.555 122.872 183.811 122.616C184.067 122.339 184.504 122.2 185.123 122.2H188.227C188.846 122.2 189.283 122.339 189.539 122.616C189.795 122.872 189.923 123.277 189.923 123.832V137.592C189.923 138.531 189.443 139 188.483 139H185.603C185.027 139 184.707 138.765 184.643 138.296L184.515 137.336C183.896 138.019 183.15 138.552 182.275 138.936C181.4 139.299 180.28 139.48 178.915 139.48ZM195.745 139C194.444 139 193.793 138.328 193.793 136.984V124.408C193.793 123.789 193.74 123.288 193.633 122.904C193.526 122.52 193.377 122.2 193.185 121.944C193.014 121.688 192.726 121.357 192.321 120.952C192.129 120.803 191.937 120.611 191.745 120.376L191.105 119.672C190.913 119.459 190.785 119.256 190.721 119.064C190.636 118.851 190.593 118.573 190.593 118.232V116.856C190.593 116.365 190.71 116.024 190.945 115.832C191.18 115.619 191.564 115.512 192.097 115.512H201.889C202.337 115.512 202.646 115.608 202.817 115.8C202.988 115.971 203.073 116.269 203.073 116.696V119.032C203.073 119.459 202.988 119.757 202.817 119.928C202.646 120.099 202.337 120.184 201.889 120.184H198.273C199.105 120.845 199.649 121.485 199.905 122.104C200.161 122.723 200.289 123.576 200.289 124.664V133.72C200.289 133.955 200.332 134.115 200.417 134.2C200.502 134.285 200.63 134.328 200.801 134.328H201.409C201.772 134.328 202.006 134.392 202.113 134.52C202.22 134.648 202.273 134.915 202.273 135.32V137.848C202.273 138.232 202.209 138.509 202.081 138.68C201.974 138.829 201.782 138.925 201.505 138.968C201.249 138.989 200.801 139 200.161 139H195.745ZM212.097 139.48C209.025 139.48 206.55 138.957 204.673 137.912C204.438 137.784 204.268 137.667 204.161 137.56C204.076 137.453 204.033 137.325 204.033 137.176C204.033 137.091 204.086 136.941 204.193 136.728L205.537 134.264C205.665 134.029 205.814 133.912 205.985 133.912C206.134 133.912 206.326 133.976 206.561 134.104C207.137 134.403 207.905 134.68 208.865 134.936C209.846 135.192 210.721 135.32 211.489 135.32C212.15 135.32 212.62 135.235 212.897 135.064C213.196 134.893 213.345 134.637 213.345 134.296C213.345 133.891 213.142 133.571 212.737 133.336C212.332 133.08 211.553 132.739 210.401 132.312L209.537 131.992C207.809 131.331 206.55 130.627 205.761 129.88C204.993 129.133 204.609 128.141 204.609 126.904C204.609 125.304 205.292 124.045 206.657 123.128C208.044 122.189 209.889 121.72 212.193 121.72C213.622 121.72 214.849 121.837 215.873 122.072C216.897 122.307 217.878 122.669 218.817 123.16C219.244 123.373 219.457 123.619 219.457 123.896C219.457 124.024 219.382 124.216 219.233 124.472L217.953 126.552C217.782 126.808 217.633 126.936 217.505 126.936C217.398 126.936 217.217 126.872 216.961 126.744C216.449 126.488 215.841 126.285 215.137 126.136C214.454 125.965 213.793 125.88 213.153 125.88C212.364 125.88 211.777 125.955 211.393 126.104C211.03 126.232 210.849 126.467 210.849 126.808C210.849 127.235 211.105 127.597 211.617 127.896C212.15 128.173 213.142 128.579 214.593 129.112C214.678 129.133 215.009 129.251 215.585 129.464C217.164 130.061 218.262 130.723 218.881 131.448C219.521 132.152 219.841 133.101 219.841 134.296C219.841 135.832 219.18 137.08 217.857 138.04C216.534 139 214.614 139.48 212.097 139.48ZM230.658 139.48C228.525 139.48 226.882 139.075 225.73 138.264C224.599 137.453 223.767 136.227 223.234 134.584L221.506 129.112C221.399 128.792 221.346 128.557 221.346 128.408C221.346 128.109 221.57 127.885 222.018 127.736L225.858 126.424C226.135 126.317 226.359 126.264 226.53 126.264C226.893 126.264 227.149 126.541 227.298 127.096L229.25 133.272C229.442 133.869 229.666 134.285 229.922 134.52C230.178 134.755 230.583 134.872 231.138 134.872C231.863 134.872 232.386 134.52 232.706 133.816C233.026 133.091 233.186 131.949 233.186 130.392C233.186 128.963 233.026 127.928 232.706 127.288C232.407 126.648 231.906 126.328 231.202 126.328C230.925 126.328 230.487 126.435 229.89 126.648C229.805 126.691 229.677 126.712 229.506 126.712C229.271 126.712 229.09 126.552 228.962 126.232L227.97 123.64C227.906 123.469 227.874 123.331 227.874 123.224C227.874 123.011 228.002 122.851 228.258 122.744C228.962 122.381 229.645 122.125 230.306 121.976C230.989 121.805 231.778 121.72 232.674 121.72C234.871 121.72 236.567 122.488 237.762 124.024C238.978 125.56 239.586 127.683 239.586 130.392C239.586 133.336 238.807 135.587 237.25 137.144C235.693 138.701 233.495 139.48 230.658 139.48ZM243.656 139C242.355 139 241.704 138.328 241.704 136.984V123.832C241.704 123.256 241.832 122.84 242.088 122.584C242.365 122.328 242.835 122.2 243.496 122.2H246.408C247.069 122.2 247.528 122.328 247.784 122.584C248.061 122.84 248.2 123.256 248.2 123.832V133.72C248.2 133.976 248.232 134.147 248.296 134.232C248.36 134.296 248.477 134.328 248.648 134.328H249.32C249.683 134.328 249.917 134.392 250.024 134.52C250.131 134.648 250.184 134.915 250.184 135.32V137.848C250.184 138.232 250.12 138.509 249.992 138.68C249.885 138.829 249.693 138.925 249.416 138.968C249.16 138.989 248.712 139 248.072 139H243.656ZM259.691 139.48C256.619 139.48 254.144 138.957 252.267 137.912C252.032 137.784 251.861 137.667 251.755 137.56C251.669 137.453 251.627 137.325 251.627 137.176C251.627 137.091 251.68 136.941 251.787 136.728L253.131 134.264C253.259 134.029 253.408 133.912 253.579 133.912C253.728 133.912 253.92 133.976 254.155 134.104C254.731 134.403 255.499 134.68 256.459 134.936C257.44 135.192 258.315 135.32 259.083 135.32C259.744 135.32 260.213 135.235 260.491 135.064C260.789 134.893 260.939 134.637 260.939 134.296C260.939 133.891 260.736 133.571 260.331 133.336C259.925 133.08 259.147 132.739 257.995 132.312L257.131 131.992C255.403 131.331 254.144 130.627 253.355 129.88C252.587 129.133 252.203 128.141 252.203 126.904C252.203 125.304 252.885 124.045 254.251 123.128C255.637 122.189 257.483 121.72 259.787 121.72C261.216 121.72 262.443 121.837 263.467 122.072C264.491 122.307 265.472 122.669 266.411 123.16C266.837 123.373 267.051 123.619 267.051 123.896C267.051 124.024 266.976 124.216 266.827 124.472L265.547 126.552C265.376 126.808 265.227 126.936 265.099 126.936C264.992 126.936 264.811 126.872 264.555 126.744C264.043 126.488 263.435 126.285 262.731 126.136C262.048 125.965 261.387 125.88 260.747 125.88C259.957 125.88 259.371 125.955 258.987 126.104C258.624 126.232 258.443 126.467 258.443 126.808C258.443 127.235 258.699 127.597 259.211 127.896C259.744 128.173 260.736 128.579 262.187 129.112C262.272 129.133 262.603 129.251 263.179 129.464C264.757 130.061 265.856 130.723 266.475 131.448C267.115 132.152 267.435 133.101 267.435 134.296C267.435 135.832 266.773 137.08 265.451 138.04C264.128 139 262.208 139.48 259.691 139.48ZM253.516 120.248C252.876 120.248 252.46 120.152 252.268 119.96C252.076 119.747 251.98 119.309 251.98 118.648V117.432C251.98 116.771 252.076 116.344 252.268 116.152C252.46 115.939 252.876 115.832 253.516 115.832H261.74V114.52C261.74 113.944 261.868 113.549 262.124 113.336C262.359 113.123 262.743 113.016 263.276 113.016H265.26C265.793 113.016 266.188 113.123 266.444 113.336C266.679 113.549 266.796 113.944 266.796 114.52V118.488C266.796 119.128 266.679 119.587 266.444 119.864C266.209 120.12 265.751 120.248 265.068 120.248H253.516ZM277.708 139.48C275.02 139.48 272.876 139.011 271.276 138.072C269.697 137.112 268.908 135.704 268.908 133.848C268.908 131.971 269.591 130.712 270.956 130.072C270.295 129.645 269.804 129.144 269.484 128.568C269.185 127.971 269.036 127.245 269.036 126.392C269.036 125.005 269.527 123.885 270.508 123.032C271.511 122.157 272.791 121.72 274.348 121.72C275.991 121.72 277.367 122.029 278.476 122.648C278.732 122.797 278.86 122.979 278.86 123.192C278.86 123.299 278.828 123.437 278.764 123.608L277.996 125.624C277.889 125.859 277.761 125.976 277.612 125.976C277.527 125.976 277.42 125.944 277.292 125.88C277.164 125.816 277.025 125.763 276.876 125.72C276.748 125.656 276.588 125.624 276.396 125.624C276.033 125.624 275.745 125.752 275.532 126.008C275.34 126.264 275.244 126.595 275.244 127C275.244 127.491 275.361 127.853 275.596 128.088C275.852 128.301 276.247 128.408 276.78 128.408H277.42C277.889 128.408 278.124 128.643 278.124 129.112V131.192C278.124 131.683 277.879 131.928 277.388 131.928H276.812C276.279 131.928 275.884 132.045 275.628 132.28C275.372 132.515 275.244 132.888 275.244 133.4C275.244 134.381 276.065 134.872 277.708 134.872C278.647 134.872 279.319 134.659 279.724 134.232C280.151 133.805 280.364 133.101 280.364 132.12V123.832C280.364 123.277 280.492 122.872 280.748 122.616C281.004 122.339 281.431 122.2 282.028 122.2H285.132C285.751 122.2 286.188 122.339 286.444 122.616C286.721 122.872 286.86 123.277 286.86 123.832V131.768C286.86 134.115 286.145 135.992 284.716 137.4C283.287 138.787 280.951 139.48 277.708 139.48ZM295.946 139.48C294.026 139.48 292.49 138.979 291.338 137.976C290.186 136.973 289.61 135.48 289.61 133.496V123.832C289.61 123.277 289.738 122.872 289.994 122.616C290.25 122.339 290.677 122.2 291.274 122.2H294.378C294.997 122.2 295.434 122.339 295.69 122.616C295.946 122.872 296.074 123.277 296.074 123.832V133.24C296.074 134.477 296.746 135.096 298.09 135.096C298.773 135.096 299.338 134.915 299.786 134.552C300.234 134.189 300.458 133.731 300.458 133.176V123.832C300.458 123.277 300.586 122.872 300.842 122.616C301.098 122.339 301.536 122.2 302.154 122.2H305.258C305.877 122.2 306.314 122.339 306.57 122.616C306.826 122.872 306.954 123.277 306.954 123.832V137.592C306.954 138.531 306.474 139 305.514 139H302.634C302.058 139 301.738 138.765 301.674 138.296L301.546 137.336C300.928 138.019 300.181 138.552 299.306 138.936C298.432 139.299 297.312 139.48 295.946 139.48ZM115.382 177.48C113.675 177.48 112.321 177.011 111.318 176.072C110.315 175.112 109.814 173.864 109.814 172.328C109.814 170.323 110.475 168.893 111.798 168.04C113.121 167.187 115.019 166.76 117.494 166.76H121.302V166.408C121.302 165.661 121.046 165.117 120.534 164.776C120.022 164.413 119.094 164.232 117.75 164.232C117.003 164.232 116.257 164.317 115.51 164.488C114.785 164.637 114.155 164.84 113.622 165.096C113.323 165.245 113.11 165.32 112.982 165.32C112.769 165.32 112.587 165.181 112.438 164.904L110.998 162.376C110.891 162.205 110.838 162.056 110.838 161.928C110.838 161.736 110.987 161.555 111.286 161.384C112.182 160.851 113.302 160.445 114.646 160.168C116.011 159.869 117.473 159.72 119.03 159.72C121.995 159.72 124.182 160.328 125.59 161.544C126.998 162.76 127.702 164.584 127.702 167.016V175.4C127.702 175.955 127.574 176.36 127.318 176.616C127.062 176.872 126.625 177 126.006 177H122.998C122.379 177 121.942 176.872 121.686 176.616C121.43 176.36 121.302 175.955 121.302 175.4V170.952H117.782C117.099 170.952 116.598 171.048 116.278 171.24C115.979 171.432 115.83 171.763 115.83 172.232C115.83 172.68 115.937 173 116.15 173.192C116.385 173.384 116.758 173.48 117.27 173.48C117.633 173.48 118.049 173.395 118.518 173.224C118.582 173.203 118.657 173.192 118.742 173.192C118.977 173.192 119.126 173.341 119.19 173.64L119.67 176.072C119.691 176.136 119.702 176.221 119.702 176.328C119.702 176.477 119.659 176.595 119.574 176.68C119.489 176.765 119.339 176.851 119.126 176.936C118.102 177.299 116.854 177.48 115.382 177.48ZM136.566 177.48C134.411 177.48 132.747 176.755 131.574 175.304C130.401 173.832 129.814 171.816 129.814 169.256C129.814 166.184 130.635 163.827 132.278 162.184C133.942 160.541 136.374 159.72 139.574 159.72C142.667 159.72 144.95 160.392 146.422 161.736C147.894 163.059 148.63 164.851 148.63 167.112V175.4C148.63 175.955 148.502 176.36 148.246 176.616C147.99 176.872 147.553 177 146.934 177H143.83C143.211 177 142.774 176.872 142.518 176.616C142.262 176.36 142.134 175.955 142.134 175.4V167.336C142.134 166.355 141.931 165.608 141.526 165.096C141.142 164.584 140.491 164.328 139.574 164.328C138.443 164.328 137.601 164.733 137.046 165.544C136.513 166.333 136.246 167.635 136.246 169.448C136.246 170.685 136.395 171.571 136.694 172.104C137.014 172.616 137.515 172.872 138.198 172.872C138.625 172.872 139.03 172.787 139.414 172.616C139.478 172.595 139.553 172.584 139.638 172.584C139.873 172.584 140.022 172.733 140.086 173.032L140.726 176.04C140.747 176.104 140.758 176.189 140.758 176.296C140.758 176.445 140.715 176.563 140.63 176.648C140.545 176.733 140.395 176.819 140.182 176.904C139.649 177.096 139.115 177.235 138.582 177.32C138.049 177.427 137.377 177.48 136.566 177.48ZM156.32 177.48C154.613 177.48 153.258 177.011 152.256 176.072C151.253 175.112 150.752 173.864 150.752 172.328C150.752 170.323 151.413 168.893 152.736 168.04C154.058 167.187 155.957 166.76 158.432 166.76H162.24V166.408C162.24 165.661 161.984 165.117 161.472 164.776C160.96 164.413 160.032 164.232 158.688 164.232C157.941 164.232 157.194 164.317 156.448 164.488C155.722 164.637 155.093 164.84 154.56 165.096C154.261 165.245 154.048 165.32 153.92 165.32C153.706 165.32 153.525 165.181 153.376 164.904L151.936 162.376C151.829 162.205 151.776 162.056 151.776 161.928C151.776 161.736 151.925 161.555 152.224 161.384C153.12 160.851 154.24 160.445 155.584 160.168C156.949 159.869 158.41 159.72 159.968 159.72C162.933 159.72 165.12 160.328 166.528 161.544C167.936 162.76 168.64 164.584 168.64 167.016V175.4C168.64 175.955 168.512 176.36 168.256 176.616C168 176.872 167.562 177 166.944 177H163.936C163.317 177 162.88 176.872 162.624 176.616C162.368 176.36 162.24 175.955 162.24 175.4V170.952H158.72C158.037 170.952 157.536 171.048 157.216 171.24C156.917 171.432 156.768 171.763 156.768 172.232C156.768 172.68 156.874 173 157.088 173.192C157.322 173.384 157.696 173.48 158.208 173.48C158.57 173.48 158.986 173.395 159.456 173.224C159.52 173.203 159.594 173.192 159.68 173.192C159.914 173.192 160.064 173.341 160.128 173.64L160.608 176.072C160.629 176.136 160.64 176.221 160.64 176.328C160.64 176.477 160.597 176.595 160.512 176.68C160.426 176.765 160.277 176.851 160.064 176.936C159.04 177.299 157.792 177.48 156.32 177.48ZM180.096 177.48C177.962 177.48 176.32 177.075 175.168 176.264C174.037 175.453 173.205 174.227 172.672 172.584L170.944 167.112C170.837 166.792 170.784 166.557 170.784 166.408C170.784 166.109 171.008 165.885 171.456 165.736L175.296 164.424C175.573 164.317 175.797 164.264 175.968 164.264C176.33 164.264 176.586 164.541 176.736 165.096L178.688 171.272C178.88 171.869 179.104 172.285 179.36 172.52C179.616 172.755 180.021 172.872 180.576 172.872C181.301 172.872 181.824 172.52 182.144 171.816C182.464 171.091 182.624 169.949 182.624 168.392C182.624 166.963 182.464 165.928 182.144 165.288C181.845 164.648 181.344 164.328 180.64 164.328C180.362 164.328 179.925 164.435 179.328 164.648C179.242 164.691 179.114 164.712 178.944 164.712C178.709 164.712 178.528 164.552 178.4 164.232L177.408 161.64C177.344 161.469 177.312 161.331 177.312 161.224C177.312 161.011 177.44 160.851 177.696 160.744C178.4 160.381 179.082 160.125 179.744 159.976C180.426 159.805 181.216 159.72 182.112 159.72C184.309 159.72 186.005 160.488 187.2 162.024C188.416 163.56 189.024 165.683 189.024 168.392C189.024 171.336 188.245 173.587 186.688 175.144C185.13 176.701 182.933 177.48 180.096 177.48ZM197.254 177.48C195.099 177.48 193.435 176.755 192.262 175.304C191.088 173.832 190.502 171.816 190.502 169.256C190.502 167.272 190.768 165.565 191.302 164.136C191.856 162.685 192.624 161.587 193.606 160.84C194.608 160.093 195.771 159.72 197.094 159.72C198.438 159.72 199.483 160.232 200.23 161.256C200.614 160.787 201.147 160.413 201.83 160.136C202.534 159.859 203.28 159.72 204.07 159.72C205.84 159.72 207.152 160.147 208.006 161C208.88 161.832 209.318 162.984 209.318 164.456V175.4C209.318 175.955 209.19 176.36 208.934 176.616C208.678 176.872 208.24 177 207.622 177H204.518C203.899 177 203.462 176.872 203.206 176.616C202.95 176.36 202.822 175.955 202.822 175.4V165.512C202.822 164.723 202.502 164.328 201.862 164.328C201.499 164.328 201.168 164.52 200.87 164.904C200.763 165.032 200.656 165.128 200.55 165.192C200.464 165.235 200.347 165.256 200.198 165.256C200.027 165.256 199.888 165.235 199.782 165.192C199.696 165.128 199.6 165.032 199.494 164.904C199.344 164.691 199.206 164.541 199.078 164.456C198.971 164.371 198.811 164.328 198.598 164.328C198.086 164.328 197.68 164.733 197.382 165.544C197.083 166.355 196.934 167.592 196.934 169.256C196.934 170.557 197.083 171.485 197.382 172.04C197.702 172.595 198.203 172.872 198.886 172.872C199.312 172.872 199.718 172.787 200.102 172.616C200.166 172.595 200.24 172.584 200.326 172.584C200.56 172.584 200.71 172.733 200.774 173.032L201.414 176.04C201.435 176.104 201.446 176.189 201.446 176.296C201.446 176.445 201.403 176.563 201.318 176.648C201.232 176.733 201.083 176.819 200.87 176.904C200.336 177.096 199.803 177.235 199.27 177.32C198.736 177.427 198.064 177.48 197.254 177.48ZM204.911 158.248C204.314 158.248 203.898 158.141 203.663 157.928C203.407 157.715 203.279 157.309 203.279 156.712V153.032C203.279 152.413 203.407 151.997 203.663 151.784C203.898 151.571 204.314 151.464 204.911 151.464H207.631C208.228 151.464 208.655 151.571 208.911 151.784C209.146 151.997 209.263 152.413 209.263 153.032V156.712C209.263 157.309 209.146 157.715 208.911 157.928C208.655 158.141 208.228 158.248 207.631 158.248H204.911ZM219.599 177.48C214.159 177.48 211.439 175.315 211.439 170.984V168.648C211.439 168.115 211.556 167.72 211.791 167.464C212.047 167.208 212.474 167.08 213.071 167.08H218.191C218.618 167.08 218.906 167.165 219.055 167.336C219.226 167.507 219.311 167.805 219.311 168.232V169.8C219.311 170.227 219.226 170.525 219.055 170.696C218.906 170.867 218.607 170.952 218.159 170.952H217.071V171.464C217.071 171.848 217.274 172.179 217.679 172.456C218.084 172.733 218.724 172.872 219.599 172.872C220.687 172.872 221.423 172.541 221.807 171.88C222.212 171.219 222.415 170.099 222.415 168.52C222.415 166.963 222.116 165.875 221.519 165.256C220.943 164.637 219.908 164.328 218.415 164.328C217.647 164.328 216.9 164.413 216.175 164.584C215.471 164.755 214.842 164.979 214.287 165.256C213.988 165.405 213.775 165.48 213.647 165.48C213.434 165.48 213.252 165.341 213.103 165.064L211.759 162.728C211.61 162.429 211.535 162.195 211.535 162.024C211.535 161.789 211.652 161.597 211.887 161.448C212.762 160.893 213.903 160.467 215.311 160.168C216.74 159.869 218.244 159.72 219.823 159.72C225.86 159.72 228.879 162.653 228.879 168.52C228.879 171.485 228.068 173.725 226.447 175.24C224.826 176.733 222.543 177.48 219.599 177.48ZM232.937 177C231.636 177 230.985 176.328 230.985 174.984V161.832C230.985 161.256 231.113 160.84 231.369 160.584C231.647 160.328 232.116 160.2 232.777 160.2H235.689C236.351 160.2 236.809 160.328 237.065 160.584C237.343 160.84 237.481 161.256 237.481 161.832V171.72C237.481 171.976 237.513 172.147 237.577 172.232C237.641 172.296 237.759 172.328 237.929 172.328H238.601C238.964 172.328 239.199 172.392 239.305 172.52C239.412 172.648 239.465 172.915 239.465 173.32V175.848C239.465 176.232 239.401 176.509 239.273 176.68C239.167 176.829 238.975 176.925 238.697 176.968C238.441 176.989 237.993 177 237.353 177H232.937ZM247.884 177.48C245.964 177.48 244.428 176.979 243.276 175.976C242.124 174.973 241.548 173.48 241.548 171.496V161.832C241.548 161.277 241.676 160.872 241.932 160.616C242.188 160.339 242.615 160.2 243.212 160.2H246.316C246.935 160.2 247.372 160.339 247.628 160.616C247.884 160.872 248.012 161.277 248.012 161.832V171.24C248.012 172.477 248.684 173.096 250.028 173.096C250.711 173.096 251.276 172.915 251.724 172.552C252.172 172.189 252.396 171.731 252.396 171.176V161.832C252.396 161.277 252.524 160.872 252.78 160.616C253.036 160.339 253.473 160.2 254.092 160.2H257.196C257.815 160.2 258.252 160.339 258.508 160.616C258.764 160.872 258.892 161.277 258.892 161.832V175.592C258.892 176.531 258.412 177 257.452 177H254.572C253.996 177 253.676 176.765 253.612 176.296L253.484 175.336C252.865 176.019 252.119 176.552 251.244 176.936C250.369 177.299 249.249 177.48 247.884 177.48ZM245.61 158.248C244.948 158.248 244.522 158.152 244.33 157.96C244.138 157.747 244.042 157.309 244.042 156.648V155.432C244.042 154.771 244.138 154.344 244.33 154.152C244.522 153.939 244.948 153.832 245.61 153.832H249.13V152.52C249.13 151.944 249.258 151.549 249.514 151.336C249.748 151.123 250.132 151.016 250.666 151.016H251.754C252.287 151.016 252.682 151.123 252.938 151.336C253.172 151.549 253.29 151.944 253.29 152.52V153.832H254.73V152.52C254.73 151.944 254.858 151.549 255.114 151.336C255.348 151.123 255.732 151.016 256.266 151.016H257.354C257.887 151.016 258.282 151.123 258.538 151.336C258.772 151.549 258.89 151.944 258.89 152.52V156.488C258.89 157.128 258.772 157.587 258.538 157.864C258.303 158.12 257.844 158.248 257.162 158.248H245.61ZM255.498 149.928C254.922 149.928 254.516 149.821 254.282 149.608C254.026 149.395 253.898 148.979 253.898 148.36V145.832C253.898 145.213 254.026 144.797 254.282 144.584C254.516 144.371 254.922 144.264 255.498 144.264H257.194C257.77 144.264 258.186 144.371 258.442 144.584C258.698 144.797 258.826 145.213 258.826 145.832V148.36C258.826 148.979 258.698 149.395 258.442 149.608C258.186 149.821 257.77 149.928 257.194 149.928H255.498ZM269.162 177.48C263.722 177.48 261.002 175.315 261.002 170.984V168.648C261.002 168.115 261.119 167.72 261.354 167.464C261.61 167.208 262.036 167.08 262.634 167.08H267.754C268.18 167.08 268.468 167.165 268.618 167.336C268.788 167.507 268.874 167.805 268.874 168.232V169.8C268.874 170.227 268.788 170.525 268.618 170.696C268.468 170.867 268.17 170.952 267.722 170.952H266.634V171.464C266.634 171.848 266.836 172.179 267.242 172.456C267.647 172.733 268.287 172.872 269.162 172.872C270.25 172.872 270.986 172.541 271.37 171.88C271.775 171.219 271.978 170.099 271.978 168.52C271.978 166.963 271.679 165.875 271.082 165.256C270.506 164.637 269.471 164.328 267.978 164.328C267.21 164.328 266.463 164.413 265.738 164.584C265.034 164.755 264.404 164.979 263.85 165.256C263.551 165.405 263.338 165.48 263.21 165.48C262.996 165.48 262.815 165.341 262.666 165.064L261.322 162.728C261.172 162.429 261.098 162.195 261.098 162.024C261.098 161.789 261.215 161.597 261.45 161.448C262.324 160.893 263.466 160.467 264.874 160.168C266.303 159.869 267.807 159.72 269.386 159.72C275.423 159.72 278.442 162.653 278.442 168.52C278.442 171.485 277.631 173.725 276.01 175.24C274.388 176.733 272.106 177.48 269.162 177.48ZM289.252 177.48C287.119 177.48 285.476 177.075 284.324 176.264C283.193 175.453 282.361 174.227 281.828 172.584L280.1 167.112C279.993 166.792 279.94 166.557 279.94 166.408C279.94 166.109 280.164 165.885 280.612 165.736L284.452 164.424C284.729 164.317 284.953 164.264 285.124 164.264C285.487 164.264 285.743 164.541 285.892 165.096L287.844 171.272C288.036 171.869 288.26 172.285 288.516 172.52C288.772 172.755 289.177 172.872 289.732 172.872C290.457 172.872 290.98 172.52 291.3 171.816C291.62 171.091 291.78 169.949 291.78 168.392C291.78 166.963 291.62 165.928 291.3 165.288C291.001 164.648 290.5 164.328 289.796 164.328C289.519 164.328 289.081 164.435 288.484 164.648C288.399 164.691 288.271 164.712 288.1 164.712C287.865 164.712 287.684 164.552 287.556 164.232L286.564 161.64C286.5 161.469 286.468 161.331 286.468 161.224C286.468 161.011 286.596 160.851 286.852 160.744C287.556 160.381 288.239 160.125 288.9 159.976C289.583 159.805 290.372 159.72 291.268 159.72C293.465 159.72 295.161 160.488 296.356 162.024C297.572 163.56 298.18 165.683 298.18 168.392C298.18 171.336 297.401 173.587 295.844 175.144C294.287 176.701 292.089 177.48 289.252 177.48Z" fill="black"/>
<path d="M99.6719 142.2H308.33V143.8H99.6719V142.2ZM109.078 180.2H298.916V181.8H109.078V180.2Z" fill="black"/>
</svg>
