<svg width="420" height="313" viewBox="0 0 420 313" fill="none" xmlns="http://www.w3.org/2000/svg">
<path d="M207.541 15.8702L0 0V269H420V79.351L207.541 15.8702Z" fill="#F8D105"/>
<path d="M210.977 86L0 129.054V269H420V160.946L349.674 168.919L283.256 149.784L210.977 86Z" fill="#F85900"/>
<path d="M20.9319 73.48C18.6492 73.48 16.9532 73.0213 15.8439 72.104C14.7559 71.1653 14.2119 70.0347 14.2119 68.712V68.008H13.3159C12.8679 68.008 12.5585 67.9227 12.3879 67.752C12.2385 67.5813 12.1639 67.2827 12.1639 66.856V64.584C12.1639 64.1787 12.2492 63.8907 12.4199 63.72C12.5905 63.528 12.8892 63.432 13.3159 63.432H17.7639C18.3825 63.432 18.8199 63.56 19.0759 63.816C19.3319 64.072 19.4599 64.4773 19.4599 65.032V67.496C19.4599 67.9653 19.5772 68.3173 19.8119 68.552C20.0679 68.7653 20.4412 68.872 20.9319 68.872C21.6145 68.872 22.1052 68.5627 22.4039 67.944C22.7025 67.304 22.8519 66.2267 22.8519 64.712C22.8519 63.1333 22.5319 62.0133 21.8919 61.352C21.2519 60.6693 20.1959 60.328 18.7239 60.328C17.9132 60.328 17.1879 60.4133 16.5479 60.584C15.9292 60.7547 15.3105 60.9893 14.6919 61.288C14.3932 61.4373 14.1692 61.512 14.0199 61.512C13.8279 61.512 13.6465 61.3733 13.4759 61.096L12.1319 58.76C11.9825 58.4613 11.9079 58.2373 11.9079 58.088C11.9079 57.8747 12.0359 57.672 12.2919 57.48C13.1452 56.904 14.2545 56.4667 15.6199 56.168C16.9852 55.8693 18.4892 55.72 20.1319 55.72C23.3745 55.72 25.7105 56.4987 27.1399 58.056C28.5905 59.6133 29.3159 61.832 29.3159 64.712C29.3159 67.6347 28.5799 69.832 27.1079 71.304C25.6572 72.7547 23.5985 73.48 20.9319 73.48ZM25.4069 54.568C24.1055 54.568 23.0709 54.1947 22.3029 53.448C21.5135 52.68 21.1189 51.6773 21.1189 50.44C21.1189 49.2027 21.5135 48.2 22.3029 47.432C23.0922 46.664 24.1269 46.28 25.4069 46.28C26.7082 46.28 27.7642 46.664 28.5749 47.432C29.3642 48.2 29.7589 49.2027 29.7589 50.44C29.7589 51.6773 29.3642 52.68 28.5749 53.448C27.7642 54.1947 26.7082 54.568 25.4069 54.568ZM25.4069 51.688C25.7695 51.688 26.0789 51.5707 26.3349 51.336C26.5695 51.1013 26.6869 50.8027 26.6869 50.44C26.6869 50.0773 26.5695 49.7787 26.3349 49.544C26.0789 49.3093 25.7695 49.192 25.4069 49.192C25.0442 49.192 24.7349 49.3093 24.4789 49.544C24.2229 49.7787 24.0949 50.0773 24.0949 50.44C24.0949 50.8027 24.2229 51.1013 24.4789 51.336C24.7349 51.5707 25.0442 51.688 25.4069 51.688ZM38.1429 73C37.1615 73 36.6709 72.5307 36.6709 71.592V62.728C36.6709 61.8533 36.5002 61.2347 36.1589 60.872C35.8175 60.5093 35.2629 60.328 34.4949 60.328C33.6842 60.328 32.9375 60.4987 32.2549 60.84C32.0415 60.968 31.8495 61.032 31.6789 61.032C31.4655 61.032 31.3269 60.904 31.2629 60.648L30.4629 57.608L30.3989 57.16C30.3989 57.0533 30.4202 56.968 30.4629 56.904C30.5269 56.84 30.6229 56.776 30.7509 56.712C32.1802 56.0507 33.8655 55.72 35.8069 55.72C38.3029 55.72 40.1482 56.2533 41.3429 57.32C42.5589 58.3867 43.1669 60.0293 43.1669 62.248V71.592C43.1669 72.5307 42.6762 73 41.6949 73H38.1429ZM52.2589 73.48C50.3389 73.48 48.8029 72.9787 47.6509 71.976C46.4989 70.9733 45.9229 69.48 45.9229 67.496V57.832C45.9229 57.2773 46.0509 56.872 46.3069 56.616C46.5629 56.3387 46.9895 56.2 47.5869 56.2H50.6909C51.3095 56.2 51.7469 56.3387 52.0029 56.616C52.2589 56.872 52.3869 57.2773 52.3869 57.832V67.24C52.3869 68.4773 53.0589 69.096 54.4029 69.096C55.0855 69.096 55.6509 68.9147 56.0989 68.552C56.5469 68.1893 56.7709 67.7307 56.7709 67.176V57.832C56.7709 57.2773 56.8989 56.872 57.1549 56.616C57.4109 56.3387 57.8482 56.2 58.4669 56.2H61.5709C62.1895 56.2 62.6269 56.3387 62.8829 56.616C63.1389 56.872 63.2669 57.2773 63.2669 57.832V71.592C63.2669 72.5307 62.7869 73 61.8269 73H58.9469C58.3709 73 58.0509 72.7653 57.9869 72.296L57.8589 71.336C57.2402 72.0187 56.4935 72.552 55.6189 72.936C54.7442 73.2987 53.6242 73.48 52.2589 73.48ZM72.4166 73.48C70.838 73.48 69.5046 73.3413 68.4166 73.064C67.35 72.7867 66.358 72.3493 65.4406 71.752C65.1846 71.6027 65.0566 71.4 65.0566 71.144C65.0566 70.9307 65.1313 70.7067 65.2806 70.472L66.6246 68.168C66.8166 67.848 67.0086 67.688 67.2006 67.688C67.3286 67.688 67.5313 67.7733 67.8086 67.944C68.3633 68.2853 68.9286 68.5307 69.5046 68.68C70.0806 68.8293 70.7313 68.904 71.4566 68.904C72.7793 68.904 73.782 68.584 74.4646 67.944C75.1473 67.304 75.4886 66.2053 75.4886 64.648C75.4886 63.0907 75.158 61.9813 74.4966 61.32C73.8566 60.6587 72.886 60.328 71.5846 60.328C70.2406 60.328 69.0246 60.648 67.9366 61.288C67.6593 61.4587 67.446 61.544 67.2966 61.544C67.062 61.544 66.87 61.3947 66.7206 61.096L65.4086 58.76C65.2593 58.4613 65.1846 58.2373 65.1846 58.088C65.1846 57.8747 65.3126 57.672 65.5686 57.48C66.4646 56.904 67.4566 56.4667 68.5446 56.168C69.654 55.8693 70.9766 55.72 72.5126 55.72C75.606 55.72 77.9526 56.4773 79.5526 57.992C81.1526 59.4853 81.9526 61.704 81.9526 64.648C81.9526 67.5707 81.1313 69.7787 79.4886 71.272C77.8673 72.744 75.51 73.48 72.4166 73.48ZM90.4151 73.48C88.4951 73.48 86.9591 72.9787 85.8071 71.976C84.6551 70.9733 84.0791 69.48 84.0791 67.496V57.832C84.0791 57.2773 84.2071 56.872 84.4631 56.616C84.7191 56.3387 85.1458 56.2 85.7431 56.2H88.8471C89.4658 56.2 89.9031 56.3387 90.1591 56.616C90.4151 56.872 90.5431 57.2773 90.5431 57.832V67.24C90.5431 68.4773 91.2151 69.096 92.5591 69.096C93.2418 69.096 93.8071 68.9147 94.2551 68.552C94.7031 68.1893 94.9271 67.7307 94.9271 67.176V57.832C94.9271 57.2773 95.0551 56.872 95.3111 56.616C95.5671 56.3387 96.0045 56.2 96.6231 56.2H99.7271C100.346 56.2 100.783 56.3387 101.039 56.616C101.295 56.872 101.423 57.2773 101.423 57.832V71.592C101.423 72.5307 100.943 73 99.9831 73H97.1031C96.5271 73 96.2071 72.7653 96.1431 72.296L96.0151 71.336C95.3965 72.0187 94.6498 72.552 93.7751 72.936C92.9005 73.2987 91.7805 73.48 90.4151 73.48ZM107.245 73C105.944 73 105.293 72.328 105.293 70.984V58.408C105.293 57.7893 105.24 57.288 105.133 56.904C105.026 56.52 104.877 56.2 104.685 55.944C104.514 55.688 104.226 55.3573 103.821 54.952C103.629 54.8027 103.437 54.6107 103.245 54.376L102.605 53.672C102.413 53.4587 102.285 53.256 102.221 53.064C102.136 52.8507 102.093 52.5733 102.093 52.232V50.856C102.093 50.3653 102.21 50.024 102.445 49.832C102.68 49.6187 103.064 49.512 103.597 49.512H113.389C113.837 49.512 114.146 49.608 114.317 49.8C114.488 49.9707 114.573 50.2693 114.573 50.696V53.032C114.573 53.4587 114.488 53.7573 114.317 53.928C114.146 54.0987 113.837 54.184 113.389 54.184H109.773C110.605 54.8453 111.149 55.4853 111.405 56.104C111.661 56.7227 111.789 57.576 111.789 58.664V67.72C111.789 67.9547 111.832 68.1147 111.917 68.2C112.002 68.2853 112.13 68.328 112.301 68.328H112.909C113.272 68.328 113.506 68.392 113.613 68.52C113.72 68.648 113.773 68.9147 113.773 69.32V71.848C113.773 72.232 113.709 72.5093 113.581 72.68C113.474 72.8293 113.282 72.9253 113.005 72.968C112.749 72.9893 112.301 73 111.661 73H107.245ZM123.597 73.48C120.525 73.48 118.05 72.9573 116.173 71.912C115.938 71.784 115.768 71.6667 115.661 71.56C115.576 71.4533 115.533 71.3253 115.533 71.176C115.533 71.0907 115.586 70.9413 115.693 70.728L117.037 68.264C117.165 68.0293 117.314 67.912 117.485 67.912C117.634 67.912 117.826 67.976 118.061 68.104C118.637 68.4027 119.405 68.68 120.365 68.936C121.346 69.192 122.221 69.32 122.989 69.32C123.65 69.32 124.12 69.2347 124.397 69.064C124.696 68.8933 124.845 68.6373 124.845 68.296C124.845 67.8907 124.642 67.5707 124.237 67.336C123.832 67.08 123.053 66.7387 121.901 66.312L121.037 65.992C119.309 65.3307 118.05 64.6267 117.261 63.88C116.493 63.1333 116.109 62.1413 116.109 60.904C116.109 59.304 116.792 58.0453 118.157 57.128C119.544 56.1893 121.389 55.72 123.693 55.72C125.122 55.72 126.349 55.8373 127.373 56.072C128.397 56.3067 129.378 56.6693 130.317 57.16C130.744 57.3733 130.957 57.6187 130.957 57.896C130.957 58.024 130.882 58.216 130.733 58.472L129.453 60.552C129.282 60.808 129.133 60.936 129.005 60.936C128.898 60.936 128.717 60.872 128.461 60.744C127.949 60.488 127.341 60.2853 126.637 60.136C125.954 59.9653 125.293 59.88 124.653 59.88C123.864 59.88 123.277 59.9547 122.893 60.104C122.53 60.232 122.349 60.4667 122.349 60.808C122.349 61.2347 122.605 61.5973 123.117 61.896C123.65 62.1733 124.642 62.5787 126.093 63.112C126.178 63.1333 126.509 63.2507 127.085 63.464C128.664 64.0613 129.762 64.7227 130.381 65.448C131.021 66.152 131.341 67.1013 131.341 68.296C131.341 69.832 130.68 71.08 129.357 72.04C128.034 73 126.114 73.48 123.597 73.48ZM142.158 73.48C140.025 73.48 138.382 73.0747 137.23 72.264C136.099 71.4533 135.267 70.2267 134.734 68.584L133.006 63.112C132.899 62.792 132.846 62.5573 132.846 62.408C132.846 62.1093 133.07 61.8853 133.518 61.736L137.358 60.424C137.635 60.3173 137.859 60.264 138.03 60.264C138.393 60.264 138.649 60.5413 138.798 61.096L140.75 67.272C140.942 67.8693 141.166 68.2853 141.422 68.52C141.678 68.7547 142.083 68.872 142.638 68.872C143.363 68.872 143.886 68.52 144.206 67.816C144.526 67.0907 144.686 65.9493 144.686 64.392C144.686 62.9627 144.526 61.928 144.206 61.288C143.907 60.648 143.406 60.328 142.702 60.328C142.425 60.328 141.987 60.4347 141.39 60.648C141.305 60.6907 141.177 60.712 141.006 60.712C140.771 60.712 140.59 60.552 140.462 60.232L139.47 57.64C139.406 57.4693 139.374 57.3307 139.374 57.224C139.374 57.0107 139.502 56.8507 139.758 56.744C140.462 56.3813 141.145 56.1253 141.806 55.976C142.489 55.8053 143.278 55.72 144.174 55.72C146.371 55.72 148.067 56.488 149.262 58.024C150.478 59.56 151.086 61.6827 151.086 64.392C151.086 67.336 150.307 69.5867 148.75 71.144C147.193 72.7013 144.995 73.48 142.158 73.48ZM155.156 73C153.855 73 153.204 72.328 153.204 70.984V57.832C153.204 57.256 153.332 56.84 153.588 56.584C153.865 56.328 154.335 56.2 154.996 56.2H157.908C158.569 56.2 159.028 56.328 159.284 56.584C159.561 56.84 159.7 57.256 159.7 57.832V67.72C159.7 67.976 159.732 68.1467 159.796 68.232C159.86 68.296 159.977 68.328 160.148 68.328H160.82C161.183 68.328 161.417 68.392 161.524 68.52C161.631 68.648 161.684 68.9147 161.684 69.32V71.848C161.684 72.232 161.62 72.5093 161.492 72.68C161.385 72.8293 161.193 72.9253 160.916 72.968C160.66 72.9893 160.212 73 159.572 73H155.156ZM171.191 73.48C168.119 73.48 165.644 72.9573 163.767 71.912C163.532 71.784 163.361 71.6667 163.255 71.56C163.169 71.4533 163.127 71.3253 163.127 71.176C163.127 71.0907 163.18 70.9413 163.287 70.728L164.631 68.264C164.759 68.0293 164.908 67.912 165.079 67.912C165.228 67.912 165.42 67.976 165.655 68.104C166.231 68.4027 166.999 68.68 167.959 68.936C168.94 69.192 169.815 69.32 170.583 69.32C171.244 69.32 171.713 69.2347 171.991 69.064C172.289 68.8933 172.439 68.6373 172.439 68.296C172.439 67.8907 172.236 67.5707 171.831 67.336C171.425 67.08 170.647 66.7387 169.495 66.312L168.631 65.992C166.903 65.3307 165.644 64.6267 164.855 63.88C164.087 63.1333 163.703 62.1413 163.703 60.904C163.703 59.304 164.385 58.0453 165.751 57.128C167.137 56.1893 168.983 55.72 171.287 55.72C172.716 55.72 173.943 55.8373 174.967 56.072C175.991 56.3067 176.972 56.6693 177.911 57.16C178.337 57.3733 178.551 57.6187 178.551 57.896C178.551 58.024 178.476 58.216 178.327 58.472L177.047 60.552C176.876 60.808 176.727 60.936 176.599 60.936C176.492 60.936 176.311 60.872 176.055 60.744C175.543 60.488 174.935 60.2853 174.231 60.136C173.548 59.9653 172.887 59.88 172.247 59.88C171.457 59.88 170.871 59.9547 170.487 60.104C170.124 60.232 169.943 60.4667 169.943 60.808C169.943 61.2347 170.199 61.5973 170.711 61.896C171.244 62.1733 172.236 62.5787 173.687 63.112C173.772 63.1333 174.103 63.2507 174.679 63.464C176.257 64.0613 177.356 64.7227 177.975 65.448C178.615 66.152 178.935 67.1013 178.935 68.296C178.935 69.832 178.273 71.08 176.951 72.04C175.628 73 173.708 73.48 171.191 73.48ZM165.016 54.248C164.376 54.248 163.96 54.152 163.768 53.96C163.576 53.7467 163.48 53.3093 163.48 52.648V51.432C163.48 50.7707 163.576 50.344 163.768 50.152C163.96 49.9387 164.376 49.832 165.016 49.832H173.24V48.52C173.24 47.944 173.368 47.5493 173.624 47.336C173.859 47.1227 174.243 47.016 174.776 47.016H176.76C177.293 47.016 177.688 47.1227 177.944 47.336C178.179 47.5493 178.296 47.944 178.296 48.52V52.488C178.296 53.128 178.179 53.5867 177.944 53.864C177.709 54.12 177.251 54.248 176.568 54.248H165.016ZM189.208 73.48C186.52 73.48 184.376 73.0107 182.776 72.072C181.197 71.112 180.408 69.704 180.408 67.848C180.408 65.9707 181.091 64.712 182.456 64.072C181.795 63.6453 181.304 63.144 180.984 62.568C180.685 61.9707 180.536 61.2453 180.536 60.392C180.536 59.0053 181.027 57.8853 182.008 57.032C183.011 56.1573 184.291 55.72 185.848 55.72C187.491 55.72 188.867 56.0293 189.976 56.648C190.232 56.7973 190.36 56.9787 190.36 57.192C190.36 57.2987 190.328 57.4373 190.264 57.608L189.496 59.624C189.389 59.8587 189.261 59.976 189.112 59.976C189.027 59.976 188.92 59.944 188.792 59.88C188.664 59.816 188.525 59.7627 188.376 59.72C188.248 59.656 188.088 59.624 187.896 59.624C187.533 59.624 187.245 59.752 187.032 60.008C186.84 60.264 186.744 60.5947 186.744 61C186.744 61.4907 186.861 61.8533 187.096 62.088C187.352 62.3013 187.747 62.408 188.28 62.408H188.92C189.389 62.408 189.624 62.6427 189.624 63.112V65.192C189.624 65.6827 189.379 65.928 188.888 65.928H188.312C187.779 65.928 187.384 66.0453 187.128 66.28C186.872 66.5147 186.744 66.888 186.744 67.4C186.744 68.3813 187.565 68.872 189.208 68.872C190.147 68.872 190.819 68.6587 191.224 68.232C191.651 67.8053 191.864 67.1013 191.864 66.12V57.832C191.864 57.2773 191.992 56.872 192.248 56.616C192.504 56.3387 192.931 56.2 193.528 56.2H196.632C197.251 56.2 197.688 56.3387 197.944 56.616C198.221 56.872 198.36 57.2773 198.36 57.832V65.768C198.36 68.1147 197.645 69.992 196.216 71.4C194.787 72.7867 192.451 73.48 189.208 73.48ZM207.446 73.48C205.526 73.48 203.99 72.9787 202.838 71.976C201.686 70.9733 201.11 69.48 201.11 67.496V57.832C201.11 57.2773 201.238 56.872 201.494 56.616C201.75 56.3387 202.177 56.2 202.774 56.2H205.878C206.497 56.2 206.934 56.3387 207.19 56.616C207.446 56.872 207.574 57.2773 207.574 57.832V67.24C207.574 68.4773 208.246 69.096 209.59 69.096C210.273 69.096 210.838 68.9147 211.286 68.552C211.734 68.1893 211.958 67.7307 211.958 67.176V57.832C211.958 57.2773 212.086 56.872 212.342 56.616C212.598 56.3387 213.036 56.2 213.654 56.2H216.758C217.377 56.2 217.814 56.3387 218.07 56.616C218.326 56.872 218.454 57.2773 218.454 57.832V71.592C218.454 72.5307 217.974 73 217.014 73H214.134C213.558 73 213.238 72.7653 213.174 72.296L213.046 71.336C212.428 72.0187 211.681 72.552 210.806 72.936C209.932 73.2987 208.812 73.48 207.446 73.48ZM224.82 73C223.519 73 222.868 72.328 222.868 70.984V62.12C222.868 61.2667 223.06 60.52 223.444 59.88C223.828 59.2187 224.393 58.472 225.14 57.64C225.737 56.9573 226.175 56.392 226.452 55.944C226.751 55.496 226.9 55.0053 226.9 54.472C226.9 53.6827 226.463 53.288 225.588 53.288C225.055 53.288 224.692 53.4693 224.5 53.832C224.308 54.1733 224.212 54.7173 224.212 55.464C224.212 55.72 224.169 55.8907 224.084 55.976C223.999 56.04 223.807 56.072 223.508 56.072H219.476C219.135 56.072 218.964 55.8693 218.964 55.464C218.964 53.48 219.551 51.912 220.724 50.76C221.897 49.5867 223.668 49 226.036 49C230.687 49 233.012 50.7173 233.012 54.152C233.012 55.048 232.841 55.8373 232.5 56.52C232.18 57.1813 231.7 57.9387 231.06 58.792C230.484 59.56 230.057 60.2107 229.78 60.744C229.503 61.2773 229.364 61.8853 229.364 62.568V67.72C229.364 67.9547 229.407 68.1147 229.492 68.2C229.577 68.2853 229.705 68.328 229.876 68.328H230.484C230.847 68.328 231.081 68.392 231.188 68.52C231.295 68.648 231.348 68.9147 231.348 69.32V71.848C231.348 72.232 231.284 72.5093 231.156 72.68C231.049 72.8293 230.857 72.9253 230.58 72.968C230.324 72.9893 229.876 73 229.236 73H224.82ZM235.399 73C234.781 73 234.343 72.872 234.087 72.616C233.853 72.36 233.735 71.9547 233.735 71.4V57.832C233.735 57.2773 233.863 56.872 234.119 56.616C234.375 56.3387 234.802 56.2 235.399 56.2H238.471C239.09 56.2 239.527 56.3387 239.783 56.616C240.061 56.872 240.199 57.2773 240.199 57.832V61.032H242.471C243.069 61.032 243.474 60.8933 243.687 60.616C243.901 60.3173 244.007 59.8693 244.007 59.272V57.832C244.007 57.2773 244.135 56.872 244.391 56.616C244.647 56.3387 245.085 56.2 245.703 56.2H248.807C249.426 56.2 249.863 56.3387 250.119 56.616C250.375 56.872 250.503 57.2773 250.503 57.832V59.432C250.503 61.3093 249.81 62.5573 248.423 63.176C249.81 63.7947 250.503 65.0427 250.503 66.92V71.4C250.503 71.9547 250.375 72.36 250.119 72.616C249.863 72.872 249.426 73 248.807 73H245.703C245.085 73 244.647 72.872 244.391 72.616C244.135 72.36 244.007 71.9547 244.007 71.4V67.4C244.007 66.824 243.901 66.3973 243.687 66.12C243.474 65.8427 243.09 65.704 242.535 65.704H240.199V71.4C240.199 71.9547 240.061 72.36 239.783 72.616C239.527 72.872 239.09 73 238.471 73H235.399ZM272.371 77.32C269.832 77.32 267.677 76.7973 265.907 75.752C265.629 75.6027 265.491 75.4107 265.491 75.176C265.491 75.0053 265.544 74.8347 265.651 74.664L266.963 72.2C267.155 71.88 267.347 71.72 267.539 71.72C267.667 71.72 267.837 71.7733 268.051 71.88C268.648 72.1573 269.32 72.3813 270.067 72.552C270.835 72.7227 271.549 72.808 272.211 72.808C273.192 72.808 273.949 72.648 274.483 72.328C275.016 71.9867 275.357 71.4533 275.507 70.728C274.739 71.0053 273.832 71.144 272.787 71.144C269.949 71.144 267.827 70.6 266.419 69.512C265.032 68.4027 264.339 66.7173 264.339 64.456V62.888C264.339 62.0133 264.157 61.3733 263.795 60.968C263.453 60.5627 262.867 60.36 262.035 60.36C260.861 60.36 259.955 60.5947 259.315 61.064L259.667 61.672C259.816 61.9493 259.923 62.2267 259.987 62.504C260.051 62.76 260.083 63.08 260.083 63.464V67.72C260.083 67.976 260.115 68.1467 260.179 68.232C260.243 68.296 260.36 68.328 260.531 68.328H261.171C261.533 68.328 261.768 68.392 261.875 68.52C261.981 68.648 262.035 68.9147 262.035 69.32V71.848C262.035 72.232 261.971 72.5093 261.843 72.68C261.736 72.8293 261.544 72.9253 261.267 72.968C261.011 72.9893 260.563 73 259.923 73H255.539C254.237 73 253.587 72.328 253.587 70.984V62.664L252.915 60.968C252.723 60.4987 252.627 60.104 252.627 59.784C252.627 59.4 252.819 59.048 253.203 58.728C254.184 57.896 255.464 57.192 257.043 56.616C258.621 56.0187 260.296 55.72 262.067 55.72C267.869 55.72 270.771 58.152 270.771 63.016V64.136C270.771 65.0107 270.92 65.64 271.219 66.024C271.539 66.3867 272.093 66.568 272.883 66.568C273.672 66.568 274.216 66.3867 274.515 66.024C274.813 65.64 274.963 65.0107 274.963 64.136V57.832C274.963 57.192 275.123 56.7653 275.443 56.552C275.784 56.3173 276.403 56.2 277.299 56.2H279.731C280.349 56.2 280.787 56.3387 281.043 56.616C281.32 56.872 281.459 57.2773 281.459 57.832V67.944C281.459 71.1227 280.744 73.48 279.315 75.016C277.885 76.552 275.571 77.32 272.371 77.32ZM277.036 54.248C276.439 54.248 276.023 54.1413 275.788 53.928C275.532 53.7147 275.404 53.3093 275.404 52.712V49.032C275.404 48.4133 275.532 47.9973 275.788 47.784C276.023 47.5707 276.439 47.464 277.036 47.464H279.756C280.353 47.464 280.78 47.5707 281.036 47.784C281.271 47.9973 281.388 48.4133 281.388 49.032V52.712C281.388 53.3093 281.271 53.7147 281.036 53.928C280.78 54.1413 280.353 54.248 279.756 54.248H277.036Z" fill="black"/>
<path d="M11.1719 76.2H282.828V77.8H11.1719V76.2Z" fill="black"/>
<path d="M73.9944 214.48C71.7117 214.48 70.0157 214.021 68.9064 213.104C67.8184 212.165 67.2744 211.035 67.2744 209.712V209.008H66.3784C65.9304 209.008 65.621 208.923 65.4504 208.752C65.301 208.581 65.2264 208.283 65.2264 207.856V205.584C65.2264 205.179 65.3117 204.891 65.4824 204.72C65.653 204.528 65.9517 204.432 66.3784 204.432H70.8264C71.445 204.432 71.8824 204.56 72.1384 204.816C72.3944 205.072 72.5224 205.477 72.5224 206.032V208.496C72.5224 208.965 72.6397 209.317 72.8744 209.552C73.1304 209.765 73.5037 209.872 73.9944 209.872C74.677 209.872 75.1677 209.563 75.4664 208.944C75.765 208.304 75.9144 207.227 75.9144 205.712C75.9144 204.133 75.5944 203.013 74.9544 202.352C74.3144 201.669 73.2584 201.328 71.7864 201.328C70.9757 201.328 70.2504 201.413 69.6104 201.584C68.9917 201.755 68.373 201.989 67.7544 202.288C67.4557 202.437 67.2317 202.512 67.0824 202.512C66.8904 202.512 66.709 202.373 66.5384 202.096L65.1944 199.76C65.045 199.461 64.9704 199.237 64.9704 199.088C64.9704 198.875 65.0984 198.672 65.3544 198.48C66.2077 197.904 67.317 197.467 68.6824 197.168C70.0477 196.869 71.5517 196.72 73.1944 196.72C76.437 196.72 78.773 197.499 80.2024 199.056C81.653 200.613 82.3784 202.832 82.3784 205.712C82.3784 208.635 81.6424 210.832 80.1704 212.304C78.7197 213.755 76.661 214.48 73.9944 214.48ZM78.4694 195.568C77.168 195.568 76.1334 195.195 75.3654 194.448C74.576 193.68 74.1814 192.677 74.1814 191.44C74.1814 190.203 74.576 189.2 75.3654 188.432C76.1547 187.664 77.1894 187.28 78.4694 187.28C79.7707 187.28 80.8267 187.664 81.6374 188.432C82.4267 189.2 82.8214 190.203 82.8214 191.44C82.8214 192.677 82.4267 193.68 81.6374 194.448C80.8267 195.195 79.7707 195.568 78.4694 195.568ZM78.4694 192.688C78.832 192.688 79.1414 192.571 79.3974 192.336C79.632 192.101 79.7494 191.803 79.7494 191.44C79.7494 191.077 79.632 190.779 79.3974 190.544C79.1414 190.309 78.832 190.192 78.4694 190.192C78.1067 190.192 77.7974 190.309 77.5414 190.544C77.2854 190.779 77.1574 191.077 77.1574 191.44C77.1574 191.803 77.2854 192.101 77.5414 192.336C77.7974 192.571 78.1067 192.688 78.4694 192.688ZM91.2054 214C90.224 214 89.7334 213.531 89.7334 212.592V203.728C89.7334 202.853 89.5627 202.235 89.2214 201.872C88.88 201.509 88.3254 201.328 87.5574 201.328C86.7467 201.328 86 201.499 85.3174 201.84C85.104 201.968 84.912 202.032 84.7414 202.032C84.528 202.032 84.3894 201.904 84.3254 201.648L83.5254 198.608L83.4614 198.16C83.4614 198.053 83.4827 197.968 83.5254 197.904C83.5894 197.84 83.6854 197.776 83.8134 197.712C85.2427 197.051 86.928 196.72 88.8694 196.72C91.3654 196.72 93.2107 197.253 94.4054 198.32C95.6214 199.387 96.2294 201.029 96.2294 203.248V212.592C96.2294 213.531 95.7387 214 94.7574 214H91.2054ZM105.321 214.48C103.401 214.48 101.865 213.979 100.713 212.976C99.5614 211.973 98.9854 210.48 98.9854 208.496V198.832C98.9854 198.277 99.1134 197.872 99.3694 197.616C99.6254 197.339 100.052 197.2 100.649 197.2H103.753C104.372 197.2 104.809 197.339 105.065 197.616C105.321 197.872 105.449 198.277 105.449 198.832V208.24C105.449 209.477 106.121 210.096 107.465 210.096C108.148 210.096 108.713 209.915 109.161 209.552C109.609 209.189 109.833 208.731 109.833 208.176V198.832C109.833 198.277 109.961 197.872 110.217 197.616C110.473 197.339 110.911 197.2 111.529 197.2H114.633C115.252 197.2 115.689 197.339 115.945 197.616C116.201 197.872 116.329 198.277 116.329 198.832V212.592C116.329 213.531 115.849 214 114.889 214H112.009C111.433 214 111.113 213.765 111.049 213.296L110.921 212.336C110.303 213.019 109.556 213.552 108.681 213.936C107.807 214.299 106.687 214.48 105.321 214.48ZM125.479 214.48C123.9 214.48 122.567 214.341 121.479 214.064C120.412 213.787 119.42 213.349 118.503 212.752C118.247 212.603 118.119 212.4 118.119 212.144C118.119 211.931 118.194 211.707 118.343 211.472L119.687 209.168C119.879 208.848 120.071 208.688 120.263 208.688C120.391 208.688 120.594 208.773 120.871 208.944C121.426 209.285 121.991 209.531 122.567 209.68C123.143 209.829 123.794 209.904 124.519 209.904C125.842 209.904 126.844 209.584 127.527 208.944C128.21 208.304 128.551 207.205 128.551 205.648C128.551 204.091 128.22 202.981 127.559 202.32C126.919 201.659 125.948 201.328 124.647 201.328C123.303 201.328 122.087 201.648 120.999 202.288C120.722 202.459 120.508 202.544 120.359 202.544C120.124 202.544 119.932 202.395 119.783 202.096L118.471 199.76C118.322 199.461 118.247 199.237 118.247 199.088C118.247 198.875 118.375 198.672 118.631 198.48C119.527 197.904 120.519 197.467 121.607 197.168C122.716 196.869 124.039 196.72 125.575 196.72C128.668 196.72 131.015 197.477 132.615 198.992C134.215 200.485 135.015 202.704 135.015 205.648C135.015 208.571 134.194 210.779 132.551 212.272C130.93 213.744 128.572 214.48 125.479 214.48ZM143.478 214.48C141.558 214.48 140.022 213.979 138.87 212.976C137.718 211.973 137.142 210.48 137.142 208.496V198.832C137.142 198.277 137.27 197.872 137.526 197.616C137.782 197.339 138.208 197.2 138.806 197.2H141.91C142.528 197.2 142.966 197.339 143.222 197.616C143.478 197.872 143.606 198.277 143.606 198.832V208.24C143.606 209.477 144.278 210.096 145.622 210.096C146.304 210.096 146.87 209.915 147.318 209.552C147.766 209.189 147.99 208.731 147.99 208.176V198.832C147.99 198.277 148.118 197.872 148.374 197.616C148.63 197.339 149.067 197.2 149.686 197.2H152.79C153.408 197.2 153.846 197.339 154.102 197.616C154.358 197.872 154.486 198.277 154.486 198.832V212.592C154.486 213.531 154.006 214 153.046 214H150.166C149.59 214 149.27 213.765 149.206 213.296L149.078 212.336C148.459 213.019 147.712 213.552 146.838 213.936C145.963 214.299 144.843 214.48 143.478 214.48ZM160.307 214C159.006 214 158.355 213.328 158.355 211.984V199.408C158.355 198.789 158.302 198.288 158.195 197.904C158.089 197.52 157.939 197.2 157.747 196.944C157.577 196.688 157.289 196.357 156.883 195.952C156.691 195.803 156.499 195.611 156.307 195.376L155.667 194.672C155.475 194.459 155.347 194.256 155.283 194.064C155.198 193.851 155.155 193.573 155.155 193.232V191.856C155.155 191.365 155.273 191.024 155.507 190.832C155.742 190.619 156.126 190.512 156.659 190.512H166.451C166.899 190.512 167.209 190.608 167.379 190.8C167.55 190.971 167.635 191.269 167.635 191.696V194.032C167.635 194.459 167.55 194.757 167.379 194.928C167.209 195.099 166.899 195.184 166.451 195.184H162.835C163.667 195.845 164.211 196.485 164.467 197.104C164.723 197.723 164.851 198.576 164.851 199.664V208.72C164.851 208.955 164.894 209.115 164.979 209.2C165.065 209.285 165.193 209.328 165.363 209.328H165.971C166.334 209.328 166.569 209.392 166.675 209.52C166.782 209.648 166.835 209.915 166.835 210.32V212.848C166.835 213.232 166.771 213.509 166.643 213.68C166.537 213.829 166.345 213.925 166.067 213.968C165.811 213.989 165.363 214 164.723 214H160.307ZM176.659 214.48C173.587 214.48 171.113 213.957 169.235 212.912C169.001 212.784 168.83 212.667 168.723 212.56C168.638 212.453 168.595 212.325 168.595 212.176C168.595 212.091 168.649 211.941 168.755 211.728L170.099 209.264C170.227 209.029 170.377 208.912 170.547 208.912C170.697 208.912 170.889 208.976 171.123 209.104C171.699 209.403 172.467 209.68 173.427 209.936C174.409 210.192 175.283 210.32 176.051 210.32C176.713 210.32 177.182 210.235 177.459 210.064C177.758 209.893 177.907 209.637 177.907 209.296C177.907 208.891 177.705 208.571 177.299 208.336C176.894 208.08 176.115 207.739 174.963 207.312L174.099 206.992C172.371 206.331 171.113 205.627 170.323 204.88C169.555 204.133 169.171 203.141 169.171 201.904C169.171 200.304 169.854 199.045 171.219 198.128C172.606 197.189 174.451 196.72 176.755 196.72C178.185 196.72 179.411 196.837 180.435 197.072C181.459 197.307 182.441 197.669 183.379 198.16C183.806 198.373 184.019 198.619 184.019 198.896C184.019 199.024 183.945 199.216 183.795 199.472L182.515 201.552C182.345 201.808 182.195 201.936 182.067 201.936C181.961 201.936 181.779 201.872 181.523 201.744C181.011 201.488 180.403 201.285 179.699 201.136C179.017 200.965 178.355 200.88 177.715 200.88C176.926 200.88 176.339 200.955 175.955 201.104C175.593 201.232 175.411 201.467 175.411 201.808C175.411 202.235 175.667 202.597 176.179 202.896C176.713 203.173 177.705 203.579 179.155 204.112C179.241 204.133 179.571 204.251 180.147 204.464C181.726 205.061 182.825 205.723 183.443 206.448C184.083 207.152 184.403 208.101 184.403 209.296C184.403 210.832 183.742 212.08 182.419 213.04C181.097 214 179.177 214.48 176.659 214.48ZM195.221 214.48C193.087 214.48 191.445 214.075 190.293 213.264C189.162 212.453 188.33 211.227 187.797 209.584L186.069 204.112C185.962 203.792 185.909 203.557 185.909 203.408C185.909 203.109 186.133 202.885 186.581 202.736L190.421 201.424C190.698 201.317 190.922 201.264 191.093 201.264C191.455 201.264 191.711 201.541 191.861 202.096L193.813 208.272C194.005 208.869 194.229 209.285 194.485 209.52C194.741 209.755 195.146 209.872 195.701 209.872C196.426 209.872 196.949 209.52 197.269 208.816C197.589 208.091 197.749 206.949 197.749 205.392C197.749 203.963 197.589 202.928 197.269 202.288C196.97 201.648 196.469 201.328 195.765 201.328C195.487 201.328 195.05 201.435 194.453 201.648C194.367 201.691 194.239 201.712 194.069 201.712C193.834 201.712 193.653 201.552 193.525 201.232L192.533 198.64C192.469 198.469 192.437 198.331 192.437 198.224C192.437 198.011 192.565 197.851 192.821 197.744C193.525 197.381 194.207 197.125 194.869 196.976C195.551 196.805 196.341 196.72 197.237 196.72C199.434 196.72 201.13 197.488 202.325 199.024C203.541 200.56 204.149 202.683 204.149 205.392C204.149 208.336 203.37 210.587 201.813 212.144C200.255 213.701 198.058 214.48 195.221 214.48ZM208.219 214C206.917 214 206.267 213.328 206.267 211.984V198.832C206.267 198.256 206.395 197.84 206.651 197.584C206.928 197.328 207.397 197.2 208.059 197.2H210.971C211.632 197.2 212.091 197.328 212.347 197.584C212.624 197.84 212.763 198.256 212.763 198.832V208.72C212.763 208.976 212.795 209.147 212.859 209.232C212.923 209.296 213.04 209.328 213.211 209.328H213.883C214.245 209.328 214.48 209.392 214.587 209.52C214.693 209.648 214.747 209.915 214.747 210.32V212.848C214.747 213.232 214.683 213.509 214.555 213.68C214.448 213.829 214.256 213.925 213.979 213.968C213.723 213.989 213.275 214 212.635 214H208.219ZM224.253 214.48C221.181 214.48 218.706 213.957 216.829 212.912C216.594 212.784 216.424 212.667 216.317 212.56C216.232 212.453 216.189 212.325 216.189 212.176C216.189 212.091 216.242 211.941 216.349 211.728L217.693 209.264C217.821 209.029 217.97 208.912 218.141 208.912C218.29 208.912 218.482 208.976 218.717 209.104C219.293 209.403 220.061 209.68 221.021 209.936C222.002 210.192 222.877 210.32 223.645 210.32C224.306 210.32 224.776 210.235 225.053 210.064C225.352 209.893 225.501 209.637 225.501 209.296C225.501 208.891 225.298 208.571 224.893 208.336C224.488 208.08 223.709 207.739 222.557 207.312L221.693 206.992C219.965 206.331 218.706 205.627 217.917 204.88C217.149 204.133 216.765 203.141 216.765 201.904C216.765 200.304 217.448 199.045 218.813 198.128C220.2 197.189 222.045 196.72 224.349 196.72C225.778 196.72 227.005 196.837 228.029 197.072C229.053 197.307 230.034 197.669 230.973 198.16C231.4 198.373 231.613 198.619 231.613 198.896C231.613 199.024 231.538 199.216 231.389 199.472L230.109 201.552C229.938 201.808 229.789 201.936 229.661 201.936C229.554 201.936 229.373 201.872 229.117 201.744C228.605 201.488 227.997 201.285 227.293 201.136C226.61 200.965 225.949 200.88 225.309 200.88C224.52 200.88 223.933 200.955 223.549 201.104C223.186 201.232 223.005 201.467 223.005 201.808C223.005 202.235 223.261 202.597 223.773 202.896C224.306 203.173 225.298 203.579 226.749 204.112C226.834 204.133 227.165 204.251 227.741 204.464C229.32 205.061 230.418 205.723 231.037 206.448C231.677 207.152 231.997 208.101 231.997 209.296C231.997 210.832 231.336 212.08 230.013 213.04C228.69 214 226.77 214.48 224.253 214.48ZM218.078 195.248C217.438 195.248 217.022 195.152 216.83 194.96C216.638 194.747 216.542 194.309 216.542 193.648V192.432C216.542 191.771 216.638 191.344 216.83 191.152C217.022 190.939 217.438 190.832 218.078 190.832H226.302V189.52C226.302 188.944 226.43 188.549 226.686 188.336C226.921 188.123 227.305 188.016 227.838 188.016H229.822C230.356 188.016 230.75 188.123 231.006 188.336C231.241 188.549 231.358 188.944 231.358 189.52V193.488C231.358 194.128 231.241 194.587 231.006 194.864C230.772 195.12 230.313 195.248 229.63 195.248H218.078ZM242.27 214.48C239.582 214.48 237.438 214.011 235.838 213.072C234.26 212.112 233.47 210.704 233.47 208.848C233.47 206.971 234.153 205.712 235.518 205.072C234.857 204.645 234.366 204.144 234.046 203.568C233.748 202.971 233.598 202.245 233.598 201.392C233.598 200.005 234.089 198.885 235.07 198.032C236.073 197.157 237.353 196.72 238.91 196.72C240.553 196.72 241.929 197.029 243.038 197.648C243.294 197.797 243.422 197.979 243.422 198.192C243.422 198.299 243.39 198.437 243.326 198.608L242.558 200.624C242.452 200.859 242.324 200.976 242.174 200.976C242.089 200.976 241.982 200.944 241.854 200.88C241.726 200.816 241.588 200.763 241.438 200.72C241.31 200.656 241.15 200.624 240.958 200.624C240.596 200.624 240.308 200.752 240.094 201.008C239.902 201.264 239.806 201.595 239.806 202C239.806 202.491 239.924 202.853 240.158 203.088C240.414 203.301 240.809 203.408 241.342 203.408H241.982C242.452 203.408 242.686 203.643 242.686 204.112V206.192C242.686 206.683 242.441 206.928 241.95 206.928H241.374C240.841 206.928 240.446 207.045 240.19 207.28C239.934 207.515 239.806 207.888 239.806 208.4C239.806 209.381 240.628 209.872 242.27 209.872C243.209 209.872 243.881 209.659 244.286 209.232C244.713 208.805 244.926 208.101 244.926 207.12V198.832C244.926 198.277 245.054 197.872 245.31 197.616C245.566 197.339 245.993 197.2 246.59 197.2H249.694C250.313 197.2 250.75 197.339 251.006 197.616C251.284 197.872 251.422 198.277 251.422 198.832V206.768C251.422 209.115 250.708 210.992 249.278 212.4C247.849 213.787 245.513 214.48 242.27 214.48ZM260.509 214.48C258.589 214.48 257.053 213.979 255.901 212.976C254.749 211.973 254.173 210.48 254.173 208.496V198.832C254.173 198.277 254.301 197.872 254.557 197.616C254.813 197.339 255.24 197.2 255.837 197.2H258.941C259.56 197.2 259.997 197.339 260.253 197.616C260.509 197.872 260.637 198.277 260.637 198.832V208.24C260.637 209.477 261.309 210.096 262.653 210.096C263.336 210.096 263.901 209.915 264.349 209.552C264.797 209.189 265.021 208.731 265.021 208.176V198.832C265.021 198.277 265.149 197.872 265.405 197.616C265.661 197.339 266.098 197.2 266.717 197.2H269.821C270.44 197.2 270.877 197.339 271.133 197.616C271.389 197.872 271.517 198.277 271.517 198.832V212.592C271.517 213.531 271.037 214 270.077 214H267.197C266.621 214 266.301 213.765 266.237 213.296L266.109 212.336C265.49 213.019 264.744 213.552 263.869 213.936C262.994 214.299 261.874 214.48 260.509 214.48ZM276.219 214C274.917 214 274.267 213.328 274.267 211.984V198.832C274.267 198.256 274.395 197.84 274.651 197.584C274.928 197.328 275.397 197.2 276.059 197.2H278.971C279.632 197.2 280.091 197.328 280.347 197.584C280.624 197.84 280.763 198.256 280.763 198.832V208.72C280.763 208.976 280.795 209.147 280.859 209.232C280.923 209.296 281.04 209.328 281.211 209.328H281.883C282.245 209.328 282.48 209.392 282.587 209.52C282.693 209.648 282.747 209.915 282.747 210.32V212.848C282.747 213.232 282.683 213.509 282.555 213.68C282.448 213.829 282.256 213.925 281.979 213.968C281.723 213.989 281.275 214 280.635 214H276.219ZM289.757 214.48C288.05 214.48 286.696 214.011 285.693 213.072C284.69 212.112 284.189 210.864 284.189 209.328C284.189 207.323 284.85 205.893 286.173 205.04C287.496 204.187 289.394 203.76 291.869 203.76H295.677V203.408C295.677 202.661 295.421 202.117 294.909 201.776C294.397 201.413 293.469 201.232 292.125 201.232C291.378 201.232 290.632 201.317 289.885 201.488C289.16 201.637 288.53 201.84 287.997 202.096C287.698 202.245 287.485 202.32 287.357 202.32C287.144 202.32 286.962 202.181 286.813 201.904L285.373 199.376C285.266 199.205 285.213 199.056 285.213 198.928C285.213 198.736 285.362 198.555 285.661 198.384C286.557 197.851 287.677 197.445 289.021 197.168C290.386 196.869 291.848 196.72 293.405 196.72C296.37 196.72 298.557 197.328 299.965 198.544C301.373 199.76 302.077 201.584 302.077 204.016V212.4C302.077 212.955 301.949 213.36 301.693 213.616C301.437 213.872 301 214 300.381 214H297.373C296.754 214 296.317 213.872 296.061 213.616C295.805 213.36 295.677 212.955 295.677 212.4V207.952H292.157C291.474 207.952 290.973 208.048 290.653 208.24C290.354 208.432 290.205 208.763 290.205 209.232C290.205 209.68 290.312 210 290.525 210.192C290.76 210.384 291.133 210.48 291.645 210.48C292.008 210.48 292.424 210.395 292.893 210.224C292.957 210.203 293.032 210.192 293.117 210.192C293.352 210.192 293.501 210.341 293.565 210.64L294.045 213.072C294.066 213.136 294.077 213.221 294.077 213.328C294.077 213.477 294.034 213.595 293.949 213.68C293.864 213.765 293.714 213.851 293.501 213.936C292.477 214.299 291.229 214.48 289.757 214.48ZM291.325 195.568C289.938 195.568 288.861 195.227 288.093 194.544C287.304 193.861 286.909 192.827 286.909 191.44C286.909 190.011 287.357 188.933 288.253 188.208C289.149 187.483 290.322 187.12 291.773 187.12H299.069C299.346 187.12 299.528 187.163 299.613 187.248C299.698 187.333 299.741 187.504 299.741 187.76V189.84C299.741 190.096 299.698 190.256 299.613 190.32C299.528 190.384 299.346 190.416 299.069 190.416H292.253C291.378 190.416 290.941 190.747 290.941 191.408C290.941 192.069 291.293 192.4 291.997 192.4C292.36 192.4 292.626 192.336 292.797 192.208C292.968 192.059 293.053 191.824 293.053 191.504C293.053 191.184 293.224 191.024 293.565 191.024H295.805C296.125 191.024 296.285 191.184 296.285 191.504C296.285 191.781 296.349 191.963 296.477 192.048C296.605 192.133 296.818 192.176 297.117 192.176H298.749C299.026 192.176 299.208 192.219 299.293 192.304C299.378 192.389 299.421 192.56 299.421 192.816V194.992C299.421 195.205 299.378 195.355 299.293 195.44C299.186 195.525 299.005 195.568 298.749 195.568H297.437C296.178 195.568 295.25 195.184 294.653 194.416C294.248 194.821 293.8 195.12 293.309 195.312C292.797 195.483 292.136 195.568 291.325 195.568ZM306.845 214C306.226 214 305.789 213.872 305.533 213.616C305.277 213.36 305.149 212.955 305.149 212.4V203.664L304.477 201.968C304.285 201.499 304.189 201.104 304.189 200.784C304.189 200.4 304.381 200.048 304.765 199.728C305.746 198.896 307.026 198.192 308.605 197.616C310.184 197.019 311.858 196.72 313.629 196.72C316.744 196.72 318.984 197.381 320.349 198.704C321.714 200.005 322.397 201.776 322.397 204.016V212.4C322.397 212.955 322.269 213.36 322.013 213.616C321.757 213.872 321.32 214 320.701 214H317.597C316.978 214 316.541 213.872 316.285 213.616C316.029 213.36 315.901 212.955 315.901 212.4V203.888C315.901 203.013 315.72 202.373 315.357 201.968C315.016 201.563 314.429 201.36 313.597 201.36C312.424 201.36 311.517 201.595 310.877 202.064L311.229 202.672C311.378 202.949 311.485 203.227 311.549 203.504C311.613 203.76 311.645 204.08 311.645 204.464V212.4C311.645 212.955 311.506 213.36 311.229 213.616C310.973 213.872 310.536 214 309.917 214H306.845Z" fill="black"/>
<path d="M64.2344 217.2H323.773V218.8H64.2344V217.2Z" fill="black"/>
<path d="M4.944 299.24C3.67467 299.24 2.70933 298.968 2.048 298.424C1.39733 297.869 1.072 297.117 1.072 296.168V291.08C1.072 290.76 1.232 290.6 1.552 290.6H2.048C2.21867 290.6 2.34133 290.643 2.416 290.728C2.49067 290.803 2.528 290.92 2.528 291.08V296.312C2.528 296.909 2.736 297.363 3.152 297.672C3.568 297.971 4.16533 298.12 4.944 298.12C5.72267 298.12 6.32 297.971 6.736 297.672C7.152 297.363 7.36 296.909 7.36 296.312V288.28C7.36 288.12 7.39733 288.003 7.472 287.928C7.54667 287.843 7.66933 287.8 7.84 287.8H8.32C8.65067 287.8 8.816 287.96 8.816 288.28V296.168C8.816 297.117 8.48533 297.869 7.824 298.424C7.17333 298.968 6.21333 299.24 4.944 299.24ZM1.22987 288.968C1.05921 288.968 0.941875 288.936 0.877874 288.872C0.803208 288.808 0.765875 288.691 0.765875 288.52V288.28C0.765875 288.12 0.803208 288.003 0.877874 287.928C0.941875 287.853 1.05921 287.816 1.22987 287.816H4.74987V286.328C4.74987 286.104 4.86187 285.992 5.08587 285.992H5.69387C5.91787 285.992 6.02987 286.104 6.02987 286.328V288.184C6.02987 288.483 5.97654 288.691 5.86987 288.808C5.76321 288.915 5.55521 288.968 5.24587 288.968H1.22987ZM17.8254 299C17.5267 299 17.3774 298.845 17.3774 298.536V298.024C17.3774 297.331 17.6547 296.637 18.2094 295.944C18.7747 295.24 19.5854 294.611 20.6414 294.056C21.4307 293.64 22.0227 293.293 22.4174 293.016C22.8227 292.728 23.116 292.424 23.2974 292.104C23.4894 291.784 23.5854 291.389 23.5854 290.92C23.5854 290.28 23.3614 289.8 22.9134 289.48C22.4654 289.16 21.852 289 21.0734 289C20.54 289 20.0334 289.064 19.5534 289.192C19.0734 289.32 18.6734 289.485 18.3534 289.688C18.3 289.731 18.2467 289.752 18.1934 289.752C18.1294 289.752 18.076 289.709 18.0334 289.624L17.6974 289.032C17.6654 288.968 17.6494 288.915 17.6494 288.872C17.6494 288.797 17.692 288.733 17.7774 288.68C18.1294 288.435 18.6094 288.243 19.2174 288.104C19.8254 287.955 20.4867 287.88 21.2014 287.88C22.332 287.88 23.2494 288.147 23.9534 288.68C24.668 289.213 25.0254 289.96 25.0254 290.92C25.0254 291.763 24.7587 292.472 24.2254 293.048C23.692 293.613 22.8654 294.179 21.7454 294.744C20.8174 295.224 20.1027 295.725 19.6014 296.248C19.1 296.76 18.8494 297.288 18.8494 297.832H24.4654C24.636 297.832 24.7534 297.869 24.8174 297.944C24.892 298.008 24.9294 298.125 24.9294 298.296V298.568C24.9294 298.728 24.892 298.84 24.8174 298.904C24.7534 298.968 24.636 299 24.4654 299H17.8254ZM30.2769 299.24C29.5622 299.24 28.8742 299.16 28.2129 299C27.5622 298.851 27.0555 298.653 26.6929 298.408C26.6075 298.355 26.5649 298.291 26.5649 298.216C26.5649 298.173 26.5809 298.12 26.6129 298.056L26.9649 297.464C27.0075 297.389 27.0555 297.352 27.1089 297.352C27.1622 297.352 27.2155 297.373 27.2689 297.416C27.5995 297.619 28.0262 297.789 28.5489 297.928C29.0822 298.056 29.6582 298.12 30.2769 298.12C31.3009 298.12 32.0742 297.907 32.5969 297.48C33.1195 297.043 33.3809 296.392 33.3809 295.528C33.3809 294.557 33.1569 293.88 32.7089 293.496C32.2609 293.101 31.5195 292.904 30.4849 292.904C29.5355 292.904 28.7302 293.064 28.0689 293.384C27.9302 293.437 27.7969 293.464 27.6689 293.464C27.4449 293.464 27.2582 293.4 27.1089 293.272C26.9702 293.133 26.9062 292.952 26.9169 292.728L27.1889 288.568C27.1995 288.419 27.2369 288.307 27.3009 288.232C27.3755 288.157 27.4982 288.12 27.6689 288.12H33.8449C34.0155 288.12 34.1382 288.152 34.2129 288.216C34.2875 288.28 34.3249 288.392 34.3249 288.552V288.824C34.3249 288.995 34.2875 289.117 34.2129 289.192C34.1382 289.256 34.0155 289.288 33.8449 289.288H28.4689L28.2769 292.2C28.9595 291.955 29.7809 291.832 30.7409 291.832C33.4609 291.832 34.8209 293.064 34.8209 295.528C34.8209 296.275 34.6342 296.931 34.2609 297.496C33.8982 298.051 33.3755 298.483 32.6929 298.792C32.0102 299.091 31.2049 299.24 30.2769 299.24ZM40.0581 299.24C39.3435 299.24 38.6555 299.16 37.9941 299C37.3435 298.851 36.8368 298.653 36.4741 298.408C36.3888 298.355 36.3461 298.291 36.3461 298.216C36.3461 298.173 36.3621 298.12 36.3941 298.056L36.7461 297.464C36.7888 297.389 36.8368 297.352 36.8901 297.352C36.9435 297.352 36.9968 297.373 37.0501 297.416C37.3808 297.619 37.8075 297.789 38.3301 297.928C38.8635 298.056 39.4395 298.12 40.0581 298.12C41.0821 298.12 41.8555 297.907 42.3781 297.48C42.9008 297.043 43.1621 296.392 43.1621 295.528C43.1621 294.557 42.9381 293.88 42.4901 293.496C42.0421 293.101 41.3008 292.904 40.2661 292.904C39.3168 292.904 38.5115 293.064 37.8501 293.384C37.7115 293.437 37.5781 293.464 37.4501 293.464C37.2261 293.464 37.0395 293.4 36.8901 293.272C36.7515 293.133 36.6875 292.952 36.6981 292.728L36.9701 288.568C36.9808 288.419 37.0181 288.307 37.0821 288.232C37.1568 288.157 37.2795 288.12 37.4501 288.12H43.6261C43.7968 288.12 43.9195 288.152 43.9941 288.216C44.0688 288.28 44.1061 288.392 44.1061 288.552V288.824C44.1061 288.995 44.0688 289.117 43.9941 289.192C43.9195 289.256 43.7968 289.288 43.6261 289.288H38.2501L38.0581 292.2C38.7408 291.955 39.5621 291.832 40.5221 291.832C43.2421 291.832 44.6021 293.064 44.6021 295.528C44.6021 296.275 44.4155 296.931 44.0421 297.496C43.6795 298.051 43.1568 298.483 42.4741 298.792C41.7915 299.091 40.9861 299.24 40.0581 299.24ZM50.4154 299.24C49.1354 299.24 48.0954 298.851 47.2954 298.072C46.506 297.293 46.1114 296.04 46.1114 294.312C46.1114 292.733 46.3354 291.469 46.7834 290.52C47.2314 289.56 47.8074 288.883 48.5114 288.488C49.2154 288.083 49.994 287.88 50.8474 287.88C52.0634 287.88 53.0394 288.136 53.7754 288.648C53.8607 288.701 53.9034 288.765 53.9034 288.84C53.9034 288.883 53.8874 288.936 53.8554 289L53.5354 289.544C53.4927 289.64 53.4394 289.688 53.3754 289.688C53.3434 289.688 53.29 289.661 53.2154 289.608C52.906 289.395 52.5647 289.24 52.1914 289.144C51.8287 289.048 51.3807 289 50.8474 289C49.898 289 49.1514 289.304 48.6074 289.912C48.074 290.509 47.722 291.411 47.5514 292.616C47.914 292.2 48.362 291.896 48.8954 291.704C49.4287 291.501 50.0687 291.4 50.8154 291.4C51.5834 291.4 52.2714 291.555 52.8794 291.864C53.4874 292.163 53.962 292.595 54.3034 293.16C54.6554 293.715 54.8314 294.36 54.8314 295.096C54.8314 296.451 54.442 297.48 53.6634 298.184C52.8847 298.888 51.802 299.24 50.4154 299.24ZM50.4154 298.12C52.41 298.12 53.4074 297.112 53.4074 295.096C53.4074 294.264 53.1354 293.613 52.5914 293.144C52.058 292.675 51.3594 292.44 50.4954 292.44C50.026 292.44 49.5674 292.536 49.1194 292.728C48.6714 292.92 48.298 293.219 47.9994 293.624C47.7114 294.029 47.5674 294.541 47.5674 295.16C47.5674 296.195 47.8287 296.947 48.3514 297.416C48.874 297.885 49.562 298.12 50.4154 298.12Z" fill="black"/>
<path d="M12.74 30.3C10.58 30.3 8.98667 29.9533 7.96 29.26C7.84 29.18 7.78 29.0867 7.78 28.98C7.78 28.9 7.81333 28.8067 7.88 28.7L8.46 27.72C8.54 27.5867 8.61333 27.52 8.68 27.52C8.73333 27.52 8.82667 27.5533 8.96 27.62C9.4 27.86 9.90667 28.0533 10.48 28.2C11.0667 28.3467 11.7 28.42 12.38 28.42C13.4733 28.42 14.2733 28.2133 14.78 27.8C15.3 27.3733 15.56 26.7867 15.56 26.04C15.56 24.6533 14.7133 23.96 13.02 23.96H11.34C11.0733 23.96 10.88 23.9067 10.76 23.8C10.6533 23.68 10.6 23.4933 10.6 23.24V22.72C10.6 22.48 10.6533 22.3067 10.76 22.2C10.88 22.0933 11.0733 22.04 11.34 22.04H12.98C13.7 22.04 14.24 21.8533 14.6 21.48C14.96 21.0933 15.14 20.6067 15.14 20.02C15.14 18.6733 14.1933 18 12.3 18C11.1267 18 10.0933 18.2467 9.2 18.74C9.06667 18.8067 8.97333 18.84 8.92 18.84C8.85333 18.84 8.78 18.78 8.7 18.66L8.14 17.72C8.07333 17.6133 8.04 17.52 8.04 17.44C8.04 17.3333 8.1 17.24 8.22 17.16C8.68667 16.8267 9.30667 16.5667 10.08 16.38C10.8533 16.1933 11.7133 16.1 12.66 16.1C13.6867 16.1 14.5733 16.26 15.32 16.58C16.08 16.9 16.66 17.3533 17.06 17.94C17.4733 18.5133 17.68 19.1867 17.68 19.96C17.68 20.5867 17.5267 21.1667 17.22 21.7C16.9267 22.2333 16.5 22.6467 15.94 22.94C16.66 23.2067 17.1933 23.62 17.54 24.18C17.9 24.7267 18.08 25.3733 18.08 26.12C18.08 27.3733 17.6133 28.3867 16.68 29.16C15.76 29.92 14.4467 30.3 12.74 30.3ZM26.2555 30.3C24.0688 30.3 22.4155 29.6933 21.2955 28.48C20.1888 27.2533 19.6355 25.4933 19.6355 23.2C19.6355 20.9067 20.1888 19.1533 21.2955 17.94C22.4155 16.7133 24.0688 16.1 26.2555 16.1C28.4288 16.1 30.0755 16.7133 31.1955 17.94C32.3155 19.1667 32.8755 20.92 32.8755 23.2C32.8755 25.48 32.3155 27.2333 31.1955 28.46C30.0755 29.6867 28.4288 30.3 26.2555 30.3ZM28.5155 18.6C27.9421 18.2 27.1888 18 26.2555 18C24.8688 18 23.8355 18.4333 23.1555 19.3C22.4888 20.1667 22.1555 21.4667 22.1555 23.2C22.1555 24.5733 22.4355 25.6333 22.9955 26.38L28.5155 18.6ZM26.2555 28.42C27.6421 28.42 28.6688 27.9867 29.3355 27.12C30.0021 26.2533 30.3355 24.9467 30.3355 23.2C30.3355 21.8533 30.0688 20.8 29.5355 20.04L23.9955 27.86C24.5955 28.2333 25.3488 28.42 26.2555 28.42ZM39.6402 30.3C38.8135 30.3 38.0602 30.2067 37.3802 30.02C36.7135 29.8467 36.1468 29.6067 35.6802 29.3C35.5602 29.22 35.5002 29.1267 35.5002 29.02C35.5002 28.94 35.5335 28.8467 35.6002 28.74L36.1602 27.78C36.2402 27.66 36.3135 27.6 36.3802 27.6C36.4335 27.6 36.5268 27.6333 36.6602 27.7C37.4602 28.18 38.4068 28.42 39.5002 28.42C40.6335 28.42 41.5068 28.12 42.1202 27.52C42.7335 26.92 43.1135 26 43.2602 24.76C42.8068 25.1867 42.2735 25.4933 41.6602 25.68C41.0602 25.8533 40.3468 25.94 39.5202 25.94C38.4802 25.94 37.5735 25.7533 36.8002 25.38C36.0402 24.9933 35.4535 24.4533 35.0402 23.76C34.6402 23.0667 34.4402 22.2733 34.4402 21.38C34.4402 19.62 34.9335 18.3 35.9202 17.42C36.9068 16.54 38.3135 16.1 40.1402 16.1C41.7935 16.1 43.1135 16.6133 44.1002 17.64C45.1002 18.6533 45.6002 20.22 45.6002 22.34C45.6002 25.1667 45.0402 27.2 43.9202 28.44C42.8135 29.68 41.3868 30.3 39.6402 30.3ZM40.0802 24.3C40.5868 24.3 41.0602 24.1933 41.5002 23.98C41.9535 23.7533 42.3202 23.4267 42.6002 23C42.8802 22.56 43.0202 22.0333 43.0202 21.42C43.0202 20.2867 42.7668 19.4333 42.2602 18.86C41.7535 18.2867 41.0402 18 40.1202 18C39.0668 18 38.2735 18.2667 37.7402 18.8C37.2202 19.3333 36.9602 20.18 36.9602 21.34C36.9602 22.3267 37.2202 23.0667 37.7402 23.56C38.2735 24.0533 39.0535 24.3 40.0802 24.3ZM47.855 30C47.415 30 47.195 29.7733 47.195 29.32V28.54C47.195 27.6867 47.5217 26.8467 48.175 26.02C48.8417 25.1933 49.835 24.4067 51.155 23.66C52.1017 23.1267 52.795 22.7067 53.235 22.4C53.675 22.08 53.995 21.7467 54.195 21.4C54.4083 21.04 54.515 20.6 54.515 20.08C54.515 19.4 54.275 18.8867 53.795 18.54C53.315 18.18 52.6417 18 51.775 18C51.1483 18 50.555 18.08 49.995 18.24C49.4483 18.3867 48.975 18.5733 48.575 18.8C48.4417 18.8667 48.355 18.9 48.315 18.9C48.235 18.9 48.155 18.84 48.075 18.72L47.515 17.74C47.4483 17.6333 47.415 17.54 47.415 17.46C47.415 17.3533 47.475 17.26 47.595 17.18C48.0617 16.8467 48.695 16.5867 49.495 16.4C50.295 16.2 51.1683 16.1 52.115 16.1C53.595 16.1 54.7883 16.44 55.695 17.12C56.6017 17.7867 57.055 18.7333 57.055 19.96C57.055 20.9867 56.735 21.8533 56.095 22.56C55.4683 23.2667 54.475 23.9933 53.115 24.74C52.115 25.26 51.3217 25.8067 50.735 26.38C50.1483 26.9533 49.835 27.5133 49.795 28.06H56.275C56.5417 28.06 56.7283 28.12 56.835 28.24C56.9417 28.3467 56.995 28.5267 56.995 28.78V29.32C56.995 29.56 56.9417 29.7333 56.835 29.84C56.7283 29.9467 56.5417 30 56.275 30H47.855ZM63.8589 30.3C63.0322 30.3 62.2789 30.2067 61.5989 30.02C60.9322 29.8467 60.3656 29.6067 59.8989 29.3C59.7789 29.22 59.7189 29.1267 59.7189 29.02C59.7189 28.94 59.7522 28.8467 59.8189 28.74L60.3789 27.78C60.4589 27.66 60.5322 27.6 60.5989 27.6C60.6522 27.6 60.7456 27.6333 60.8789 27.7C61.6789 28.18 62.6256 28.42 63.7189 28.42C64.8522 28.42 65.7256 28.12 66.3389 27.52C66.9522 26.92 67.3322 26 67.4789 24.76C67.0256 25.1867 66.4922 25.4933 65.8789 25.68C65.2789 25.8533 64.5656 25.94 63.7389 25.94C62.6989 25.94 61.7922 25.7533 61.0189 25.38C60.2589 24.9933 59.6722 24.4533 59.2589 23.76C58.8589 23.0667 58.6589 22.2733 58.6589 21.38C58.6589 19.62 59.1522 18.3 60.1389 17.42C61.1256 16.54 62.5322 16.1 64.3589 16.1C66.0122 16.1 67.3322 16.6133 68.3189 17.64C69.3189 18.6533 69.8189 20.22 69.8189 22.34C69.8189 25.1667 69.2589 27.2 68.1389 28.44C67.0322 29.68 65.6056 30.3 63.8589 30.3ZM64.2989 24.3C64.8056 24.3 65.2789 24.1933 65.7189 23.98C66.1722 23.7533 66.5389 23.4267 66.8189 23C67.0989 22.56 67.2389 22.0333 67.2389 21.42C67.2389 20.2867 66.9856 19.4333 66.4789 18.86C65.9722 18.2867 65.2589 18 64.3389 18C63.2856 18 62.4922 18.2667 61.9589 18.8C61.4389 19.3333 61.1789 20.18 61.1789 21.34C61.1789 22.3267 61.4389 23.0667 61.9589 23.56C62.4922 24.0533 63.2722 24.3 64.2989 24.3Z" fill="black"/>
<path d="M7 32H70.5989V33H7V32Z" fill="black"/>
<path d="M8.86 151C8.59333 151 8.40667 150.953 8.3 150.86C8.19333 150.753 8.14 150.58 8.14 150.34V149.76C8.14 149.507 8.19333 149.327 8.3 149.22C8.40667 149.113 8.59333 149.06 8.86 149.06H10.82V140.2L9.1 141.24C8.99333 141.307 8.9 141.34 8.82 141.34C8.7 141.34 8.6 141.273 8.52 141.14L7.88 140.14C7.82667 140.047 7.8 139.96 7.8 139.88C7.8 139.747 7.87333 139.64 8.02 139.56L11.32 137.58C11.4133 137.513 11.5067 137.467 11.6 137.44C11.6933 137.413 11.82 137.4 11.98 137.4H12.64C13.1467 137.4 13.4 137.647 13.4 138.14V149.06H15.36C15.6267 149.06 15.8133 149.113 15.92 149.22C16.0267 149.327 16.08 149.507 16.08 149.76V150.34C16.08 150.58 16.0267 150.753 15.92 150.86C15.8133 150.953 15.6267 151 15.36 151H8.86ZM22.1531 151.3C21.2198 151.3 20.3265 151.2 19.4731 151C18.6198 150.787 17.9331 150.507 17.4131 150.16C17.2931 150.08 17.2331 149.993 17.2331 149.9C17.2331 149.82 17.2665 149.727 17.3331 149.62L17.9131 148.62C17.9798 148.5 18.0531 148.44 18.1331 148.44C18.1998 148.44 18.2931 148.48 18.4131 148.56C18.8398 148.813 19.3665 149.02 19.9931 149.18C20.6331 149.34 21.3265 149.42 22.0731 149.42C23.1931 149.42 24.0465 149.187 24.6331 148.72C25.2198 148.24 25.5131 147.527 25.5131 146.58C25.5131 145.527 25.2598 144.787 24.7531 144.36C24.2598 143.933 23.4665 143.72 22.3731 143.72C21.2798 143.72 20.3531 143.893 19.5931 144.24C19.3131 144.333 19.0798 144.38 18.8931 144.38C18.5465 144.38 18.2531 144.28 18.0131 144.08C17.7865 143.88 17.6798 143.6 17.6931 143.24L18.0331 138.08C18.0465 137.84 18.1065 137.667 18.2131 137.56C18.3198 137.453 18.5065 137.4 18.7731 137.4H26.6931C26.9598 137.4 27.1465 137.453 27.2531 137.56C27.3598 137.667 27.4131 137.847 27.4131 138.1V138.64C27.4131 138.893 27.3598 139.08 27.2531 139.2C27.1465 139.307 26.9598 139.36 26.6931 139.36H20.1931L19.9931 142.32C20.7798 142.067 21.7131 141.94 22.7931 141.94C26.2998 141.94 28.0531 143.487 28.0531 146.58C28.0531 147.54 27.8065 148.38 27.3131 149.1C26.8331 149.807 26.1465 150.353 25.2531 150.74C24.3731 151.113 23.3398 151.3 22.1531 151.3ZM34.5759 151.3C32.4159 151.3 30.8226 150.953 29.7959 150.26C29.6759 150.18 29.6159 150.087 29.6159 149.98C29.6159 149.9 29.6493 149.807 29.7159 149.7L30.2959 148.72C30.3759 148.587 30.4493 148.52 30.5159 148.52C30.5693 148.52 30.6626 148.553 30.7959 148.62C31.2359 148.86 31.7426 149.053 32.3159 149.2C32.9026 149.347 33.5359 149.42 34.2159 149.42C35.3093 149.42 36.1093 149.213 36.6159 148.8C37.1359 148.373 37.3959 147.787 37.3959 147.04C37.3959 145.653 36.5493 144.96 34.8559 144.96H33.1759C32.9093 144.96 32.7159 144.907 32.5959 144.8C32.4893 144.68 32.4359 144.493 32.4359 144.24V143.72C32.4359 143.48 32.4893 143.307 32.5959 143.2C32.7159 143.093 32.9093 143.04 33.1759 143.04H34.8159C35.5359 143.04 36.0759 142.853 36.4359 142.48C36.7959 142.093 36.9759 141.607 36.9759 141.02C36.9759 139.673 36.0293 139 34.1359 139C32.9626 139 31.9293 139.247 31.0359 139.74C30.9026 139.807 30.8093 139.84 30.7559 139.84C30.6893 139.84 30.6159 139.78 30.5359 139.66L29.9759 138.72C29.9093 138.613 29.8759 138.52 29.8759 138.44C29.8759 138.333 29.9359 138.24 30.0559 138.16C30.5226 137.827 31.1426 137.567 31.9159 137.38C32.6893 137.193 33.5493 137.1 34.4959 137.1C35.5226 137.1 36.4093 137.26 37.1559 137.58C37.9159 137.9 38.4959 138.353 38.8959 138.94C39.3093 139.513 39.5159 140.187 39.5159 140.96C39.5159 141.587 39.3626 142.167 39.0559 142.7C38.7626 143.233 38.3359 143.647 37.7759 143.94C38.4959 144.207 39.0293 144.62 39.3759 145.18C39.7359 145.727 39.9159 146.373 39.9159 147.12C39.9159 148.373 39.4493 149.387 38.5159 150.16C37.5959 150.92 36.2826 151.3 34.5759 151.3ZM47.0714 151.3C45.3114 151.3 43.9381 150.94 42.9514 150.22C41.9647 149.5 41.4714 148.487 41.4714 147.18C41.4714 146.42 41.6714 145.753 42.0714 145.18C42.4847 144.593 43.0447 144.173 43.7514 143.92C43.1247 143.64 42.6514 143.26 42.3314 142.78C42.0114 142.3 41.8514 141.74 41.8514 141.1C41.8514 139.82 42.2981 138.833 43.1914 138.14C44.0981 137.447 45.3914 137.1 47.0714 137.1C48.7514 137.1 50.0381 137.447 50.9314 138.14C51.8247 138.833 52.2714 139.82 52.2714 141.1C52.2714 141.74 52.1114 142.3 51.7914 142.78C51.4714 143.26 51.0047 143.64 50.3914 143.92C51.0981 144.173 51.6514 144.593 52.0514 145.18C52.4647 145.753 52.6714 146.42 52.6714 147.18C52.6714 148.487 52.1714 149.5 51.1714 150.22C50.1847 150.94 48.8181 151.3 47.0714 151.3ZM47.0714 143.02C47.9381 143.02 48.5981 142.873 49.0514 142.58C49.5047 142.273 49.7314 141.78 49.7314 141.1C49.7314 140.353 49.5114 139.82 49.0714 139.5C48.6447 139.167 47.9781 139 47.0714 139C46.1647 139 45.4914 139.167 45.0514 139.5C44.6114 139.82 44.3914 140.353 44.3914 141.1C44.3914 141.78 44.6181 142.273 45.0714 142.58C45.5247 142.873 46.1914 143.02 47.0714 143.02ZM47.0714 149.42C49.1114 149.42 50.1314 148.673 50.1314 147.18C50.1314 145.647 49.1114 144.88 47.0714 144.88C45.0181 144.88 43.9914 145.647 43.9914 147.18C43.9914 148.673 45.0181 149.42 47.0714 149.42ZM59.1453 151.3C58.212 151.3 57.3186 151.2 56.4653 151C55.612 150.787 54.9253 150.507 54.4053 150.16C54.2853 150.08 54.2253 149.993 54.2253 149.9C54.2253 149.82 54.2586 149.727 54.3253 149.62L54.9053 148.62C54.972 148.5 55.0453 148.44 55.1253 148.44C55.192 148.44 55.2853 148.48 55.4053 148.56C55.832 148.813 56.3586 149.02 56.9853 149.18C57.6253 149.34 58.3186 149.42 59.0653 149.42C60.1853 149.42 61.0386 149.187 61.6253 148.72C62.212 148.24 62.5053 147.527 62.5053 146.58C62.5053 145.527 62.252 144.787 61.7453 144.36C61.252 143.933 60.4586 143.72 59.3653 143.72C58.272 143.72 57.3453 143.893 56.5853 144.24C56.3053 144.333 56.072 144.38 55.8853 144.38C55.5386 144.38 55.2453 144.28 55.0053 144.08C54.7786 143.88 54.672 143.6 54.6853 143.24L55.0253 138.08C55.0386 137.84 55.0986 137.667 55.2053 137.56C55.312 137.453 55.4986 137.4 55.7653 137.4H63.6853C63.952 137.4 64.1386 137.453 64.2453 137.56C64.352 137.667 64.4053 137.847 64.4053 138.1V138.64C64.4053 138.893 64.352 139.08 64.2453 139.2C64.1386 139.307 63.952 139.36 63.6853 139.36H57.1853L56.9853 142.32C57.772 142.067 58.7053 141.94 59.7853 141.94C63.292 141.94 65.0453 143.487 65.0453 146.58C65.0453 147.54 64.7986 148.38 64.3053 149.1C63.8253 149.807 63.1386 150.353 62.2453 150.74C61.3653 151.113 60.332 151.3 59.1453 151.3Z" fill="black"/>
<path d="M7 153H65.8253V154H7V153Z" fill="black"/>
<path d="M354.046 96C353.606 96 353.386 95.7733 353.386 95.32V94.54C353.386 93.6867 353.713 92.8467 354.366 92.02C355.033 91.1933 356.026 90.4067 357.346 89.66C358.293 89.1267 358.986 88.7067 359.426 88.4C359.866 88.08 360.186 87.7467 360.386 87.4C360.6 87.04 360.706 86.6 360.706 86.08C360.706 85.4 360.466 84.8867 359.986 84.54C359.506 84.18 358.833 84 357.966 84C357.34 84 356.746 84.08 356.186 84.24C355.64 84.3867 355.166 84.5733 354.766 84.8C354.633 84.8667 354.546 84.9 354.506 84.9C354.426 84.9 354.346 84.84 354.266 84.72L353.706 83.74C353.64 83.6333 353.606 83.54 353.606 83.46C353.606 83.3533 353.666 83.26 353.786 83.18C354.253 82.8467 354.886 82.5867 355.686 82.4C356.486 82.2 357.36 82.1 358.306 82.1C359.786 82.1 360.98 82.44 361.886 83.12C362.793 83.7867 363.246 84.7333 363.246 85.96C363.246 86.9867 362.926 87.8533 362.286 88.56C361.66 89.2667 360.666 89.9933 359.306 90.74C358.306 91.26 357.513 91.8067 356.926 92.38C356.34 92.9533 356.026 93.5133 355.986 94.06H362.466C362.733 94.06 362.92 94.12 363.026 94.24C363.133 94.3467 363.186 94.5267 363.186 94.78V95.32C363.186 95.56 363.133 95.7333 363.026 95.84C362.92 95.9467 362.733 96 362.466 96H354.046ZM370.05 96.3C369.224 96.3 368.47 96.2067 367.79 96.02C367.124 95.8467 366.557 95.6067 366.09 95.3C365.97 95.22 365.91 95.1267 365.91 95.02C365.91 94.94 365.944 94.8467 366.01 94.74L366.57 93.78C366.65 93.66 366.724 93.6 366.79 93.6C366.844 93.6 366.937 93.6333 367.07 93.7C367.87 94.18 368.817 94.42 369.91 94.42C371.044 94.42 371.917 94.12 372.53 93.52C373.144 92.92 373.524 92 373.67 90.76C373.217 91.1867 372.684 91.4933 372.07 91.68C371.47 91.8533 370.757 91.94 369.93 91.94C368.89 91.94 367.984 91.7533 367.21 91.38C366.45 90.9933 365.864 90.4533 365.45 89.76C365.05 89.0667 364.85 88.2733 364.85 87.38C364.85 85.62 365.344 84.3 366.33 83.42C367.317 82.54 368.724 82.1 370.55 82.1C372.204 82.1 373.524 82.6133 374.51 83.64C375.51 84.6533 376.01 86.22 376.01 88.34C376.01 91.1667 375.45 93.2 374.33 94.44C373.224 95.68 371.797 96.3 370.05 96.3ZM370.49 90.3C370.997 90.3 371.47 90.1933 371.91 89.98C372.364 89.7533 372.73 89.4267 373.01 89C373.29 88.56 373.43 88.0333 373.43 87.42C373.43 86.2867 373.177 85.4333 372.67 84.86C372.164 84.2867 371.45 84 370.53 84C369.477 84 368.684 84.2667 368.15 84.8C367.63 85.3333 367.37 86.18 367.37 87.34C367.37 88.3267 367.63 89.0667 368.15 89.56C368.684 90.0533 369.464 90.3 370.49 90.3ZM379.265 96C379.078 96 378.985 95.92 378.985 95.76C378.985 95.68 379.012 95.5933 379.065 95.5L384.885 84.36H378.025C377.772 84.36 377.598 84.3067 377.505 84.2C377.412 84.0933 377.365 83.9133 377.365 83.66V83.06C377.365 82.82 377.412 82.6533 377.505 82.56C377.598 82.4533 377.772 82.4 378.025 82.4H387.205C387.525 82.4 387.745 82.4533 387.865 82.56C387.998 82.6667 388.065 82.8533 388.065 83.12C388.065 83.2933 388.018 83.4867 387.925 83.7C387.845 83.9133 387.752 84.1133 387.645 84.3C387.538 84.4867 387.472 84.6133 387.445 84.68L381.705 95.72C381.652 95.8267 381.585 95.9 381.505 95.94C381.438 95.98 381.338 96 381.205 96H379.265ZM391.121 96C390.934 96 390.841 95.92 390.841 95.76C390.841 95.68 390.867 95.5933 390.921 95.5L396.741 84.36H389.881C389.627 84.36 389.454 84.3067 389.361 84.2C389.267 84.0933 389.221 83.9133 389.221 83.66V83.06C389.221 82.82 389.267 82.6533 389.361 82.56C389.454 82.4533 389.627 82.4 389.881 82.4H399.061C399.381 82.4 399.601 82.4533 399.721 82.56C399.854 82.6667 399.921 82.8533 399.921 83.12C399.921 83.2933 399.874 83.4867 399.781 83.7C399.701 83.9133 399.607 84.1133 399.501 84.3C399.394 84.4867 399.327 84.6133 399.301 84.68L393.561 95.72C393.507 95.8267 393.441 95.9 393.361 95.94C393.294 95.98 393.194 96 393.061 96H391.121ZM401.976 96C401.536 96 401.316 95.7733 401.316 95.32V94.54C401.316 93.6867 401.643 92.8467 402.296 92.02C402.963 91.1933 403.956 90.4067 405.276 89.66C406.223 89.1267 406.916 88.7067 407.356 88.4C407.796 88.08 408.116 87.7467 408.316 87.4C408.529 87.04 408.636 86.6 408.636 86.08C408.636 85.4 408.396 84.8867 407.916 84.54C407.436 84.18 406.763 84 405.896 84C405.269 84 404.676 84.08 404.116 84.24C403.569 84.3867 403.096 84.5733 402.696 84.8C402.563 84.8667 402.476 84.9 402.436 84.9C402.356 84.9 402.276 84.84 402.196 84.72L401.636 83.74C401.569 83.6333 401.536 83.54 401.536 83.46C401.536 83.3533 401.596 83.26 401.716 83.18C402.183 82.8467 402.816 82.5867 403.616 82.4C404.416 82.2 405.289 82.1 406.236 82.1C407.716 82.1 408.909 82.44 409.816 83.12C410.723 83.7867 411.176 84.7333 411.176 85.96C411.176 86.9867 410.856 87.8533 410.216 88.56C409.589 89.2667 408.596 89.9933 407.236 90.74C406.236 91.26 405.443 91.8067 404.856 92.38C404.269 92.9533 403.956 93.5133 403.916 94.06H410.396C410.663 94.06 410.849 94.12 410.956 94.24C411.063 94.3467 411.116 94.5267 411.116 94.78V95.32C411.116 95.56 411.063 95.7333 410.956 95.84C410.849 95.9467 410.663 96 410.396 96H401.976Z" fill="black"/>
<path d="M352.566 98H411.996V99H352.566V98Z" fill="black"/>
<path d="M357.551 195C357.285 195 357.098 194.953 356.991 194.86C356.885 194.753 356.831 194.58 356.831 194.34V193.76C356.831 193.507 356.885 193.327 356.991 193.22C357.098 193.113 357.285 193.06 357.551 193.06H359.511V184.2L357.791 185.24C357.685 185.307 357.591 185.34 357.511 185.34C357.391 185.34 357.291 185.273 357.211 185.14L356.571 184.14C356.518 184.047 356.491 183.96 356.491 183.88C356.491 183.747 356.565 183.64 356.711 183.56L360.011 181.58C360.105 181.513 360.198 181.467 360.291 181.44C360.385 181.413 360.511 181.4 360.671 181.4H361.331C361.838 181.4 362.091 181.647 362.091 182.14V193.06H364.051C364.318 193.06 364.505 193.113 364.611 193.22C364.718 193.327 364.771 193.507 364.771 193.76V194.34C364.771 194.58 364.718 194.753 364.611 194.86C364.505 194.953 364.318 195 364.051 195H357.551ZM370.845 195.3C369.911 195.3 369.018 195.2 368.165 195C367.311 194.787 366.625 194.507 366.105 194.16C365.985 194.08 365.925 193.993 365.925 193.9C365.925 193.82 365.958 193.727 366.025 193.62L366.605 192.62C366.671 192.5 366.745 192.44 366.825 192.44C366.891 192.44 366.985 192.48 367.105 192.56C367.531 192.813 368.058 193.02 368.685 193.18C369.325 193.34 370.018 193.42 370.765 193.42C371.885 193.42 372.738 193.187 373.325 192.72C373.911 192.24 374.205 191.527 374.205 190.58C374.205 189.527 373.951 188.787 373.445 188.36C372.951 187.933 372.158 187.72 371.065 187.72C369.971 187.72 369.045 187.893 368.285 188.24C368.005 188.333 367.771 188.38 367.585 188.38C367.238 188.38 366.945 188.28 366.705 188.08C366.478 187.88 366.371 187.6 366.385 187.24L366.725 182.08C366.738 181.84 366.798 181.667 366.905 181.56C367.011 181.453 367.198 181.4 367.465 181.4H375.385C375.651 181.4 375.838 181.453 375.945 181.56C376.051 181.667 376.105 181.847 376.105 182.1V182.64C376.105 182.893 376.051 183.08 375.945 183.2C375.838 183.307 375.651 183.36 375.385 183.36H368.885L368.685 186.32C369.471 186.067 370.405 185.94 371.485 185.94C374.991 185.94 376.745 187.487 376.745 190.58C376.745 191.54 376.498 192.38 376.005 193.1C375.525 193.807 374.838 194.353 373.945 194.74C373.065 195.113 372.031 195.3 370.845 195.3ZM379.387 195C379.121 195 378.934 194.953 378.827 194.86C378.721 194.753 378.667 194.58 378.667 194.34V193.76C378.667 193.507 378.721 193.327 378.827 193.22C378.934 193.113 379.121 193.06 379.387 193.06H381.347V184.2L379.627 185.24C379.521 185.307 379.427 185.34 379.347 185.34C379.227 185.34 379.127 185.273 379.047 185.14L378.407 184.14C378.354 184.047 378.327 183.96 378.327 183.88C378.327 183.747 378.401 183.64 378.547 183.56L381.847 181.58C381.941 181.513 382.034 181.467 382.127 181.44C382.221 181.413 382.347 181.4 382.507 181.4H383.167C383.674 181.4 383.927 181.647 383.927 182.14V193.06H385.887C386.154 193.06 386.341 193.113 386.447 193.22C386.554 193.327 386.607 193.507 386.607 193.76V194.34C386.607 194.58 386.554 194.753 386.447 194.86C386.341 194.953 386.154 195 385.887 195H379.387ZM394.96 195C394.694 195 394.5 194.947 394.38 194.84C394.274 194.733 394.22 194.56 394.22 194.32V192.04H387.88C387.534 192.04 387.36 191.88 387.36 191.56V190.74C387.36 190.553 387.38 190.413 387.42 190.32C387.46 190.213 387.534 190.087 387.64 189.94L394.38 181.78C394.5 181.633 394.607 181.533 394.7 181.48C394.794 181.427 394.94 181.4 395.14 181.4H396.02C396.287 181.4 396.48 181.46 396.6 181.58C396.72 181.7 396.78 181.887 396.78 182.14V190.1H398.18C398.447 190.1 398.634 190.16 398.74 190.28C398.847 190.387 398.9 190.567 398.9 190.82V191.36C398.9 191.6 398.847 191.773 398.74 191.88C398.634 191.987 398.447 192.04 398.18 192.04H396.78V194.32C396.78 194.56 396.72 194.733 396.6 194.84C396.494 194.947 396.3 195 396.02 195H394.96ZM394.64 190.1V184.42L390.04 190.1H394.64ZM405.265 195.3C404.438 195.3 403.685 195.207 403.005 195.02C402.338 194.847 401.772 194.607 401.305 194.3C401.185 194.22 401.125 194.127 401.125 194.02C401.125 193.94 401.158 193.847 401.225 193.74L401.785 192.78C401.865 192.66 401.938 192.6 402.005 192.6C402.058 192.6 402.152 192.633 402.285 192.7C403.085 193.18 404.032 193.42 405.125 193.42C406.258 193.42 407.132 193.12 407.745 192.52C408.358 191.92 408.738 191 408.885 189.76C408.432 190.187 407.898 190.493 407.285 190.68C406.685 190.853 405.972 190.94 405.145 190.94C404.105 190.94 403.198 190.753 402.425 190.38C401.665 189.993 401.078 189.453 400.665 188.76C400.265 188.067 400.065 187.273 400.065 186.38C400.065 184.62 400.558 183.3 401.545 182.42C402.532 181.54 403.938 181.1 405.765 181.1C407.418 181.1 408.738 181.613 409.725 182.64C410.725 183.653 411.225 185.22 411.225 187.34C411.225 190.167 410.665 192.2 409.545 193.44C408.438 194.68 407.012 195.3 405.265 195.3ZM405.705 189.3C406.212 189.3 406.685 189.193 407.125 188.98C407.578 188.753 407.945 188.427 408.225 188C408.505 187.56 408.645 187.033 408.645 186.42C408.645 185.287 408.392 184.433 407.885 183.86C407.378 183.287 406.665 183 405.745 183C404.692 183 403.898 183.267 403.365 183.8C402.845 184.333 402.585 185.18 402.585 186.34C402.585 187.327 402.845 188.067 403.365 188.56C403.898 189.053 404.678 189.3 405.705 189.3Z" fill="black"/>
<path d="M355.691 197H412.005V198H355.691V197Z" fill="black"/>
<path d="M369.96 299.24C368.69 299.24 367.725 298.968 367.064 298.424C366.413 297.869 366.088 297.117 366.088 296.168V291.08C366.088 290.76 366.248 290.6 366.568 290.6H367.064C367.234 290.6 367.357 290.643 367.432 290.728C367.506 290.803 367.544 290.92 367.544 291.08V296.312C367.544 296.909 367.752 297.363 368.168 297.672C368.584 297.971 369.181 298.12 369.96 298.12C370.738 298.12 371.336 297.971 371.752 297.672C372.168 297.363 372.376 296.909 372.376 296.312V288.28C372.376 288.12 372.413 288.003 372.488 287.928C372.562 287.843 372.685 287.8 372.856 287.8H373.336C373.666 287.8 373.832 287.96 373.832 288.28V296.168C373.832 297.117 373.501 297.869 372.84 298.424C372.189 298.968 371.229 299.24 369.96 299.24ZM366.245 288.968C366.075 288.968 365.957 288.936 365.893 288.872C365.819 288.808 365.781 288.691 365.781 288.52V288.28C365.781 288.12 365.819 288.003 365.893 287.928C365.957 287.853 366.075 287.816 366.245 287.816H369.765V286.328C369.765 286.104 369.877 285.992 370.101 285.992H370.709C370.933 285.992 371.045 286.104 371.045 286.328V288.184C371.045 288.483 370.992 288.691 370.885 288.808C370.779 288.915 370.571 288.968 370.261 288.968H366.245ZM382.841 299C382.542 299 382.393 298.845 382.393 298.536V298.024C382.393 297.331 382.67 296.637 383.225 295.944C383.79 295.24 384.601 294.611 385.657 294.056C386.446 293.64 387.038 293.293 387.433 293.016C387.838 292.728 388.132 292.424 388.313 292.104C388.505 291.784 388.601 291.389 388.601 290.92C388.601 290.28 388.377 289.8 387.929 289.48C387.481 289.16 386.868 289 386.089 289C385.556 289 385.049 289.064 384.569 289.192C384.089 289.32 383.689 289.485 383.369 289.688C383.316 289.731 383.262 289.752 383.209 289.752C383.145 289.752 383.092 289.709 383.049 289.624L382.713 289.032C382.681 288.968 382.665 288.915 382.665 288.872C382.665 288.797 382.708 288.733 382.793 288.68C383.145 288.435 383.625 288.243 384.233 288.104C384.841 287.955 385.502 287.88 386.217 287.88C387.348 287.88 388.265 288.147 388.969 288.68C389.684 289.213 390.041 289.96 390.041 290.92C390.041 291.763 389.774 292.472 389.241 293.048C388.708 293.613 387.881 294.179 386.761 294.744C385.833 295.224 385.118 295.725 384.617 296.248C384.116 296.76 383.865 297.288 383.865 297.832H389.481C389.652 297.832 389.769 297.869 389.833 297.944C389.908 298.008 389.945 298.125 389.945 298.296V298.568C389.945 298.728 389.908 298.84 389.833 298.904C389.769 298.968 389.652 299 389.481 299H382.841ZM395.293 299.24C394.578 299.24 393.89 299.16 393.229 299C392.578 298.851 392.071 298.653 391.709 298.408C391.623 298.355 391.581 298.291 391.581 298.216C391.581 298.173 391.597 298.12 391.629 298.056L391.981 297.464C392.023 297.389 392.071 297.352 392.125 297.352C392.178 297.352 392.231 297.373 392.285 297.416C392.615 297.619 393.042 297.789 393.565 297.928C394.098 298.056 394.674 298.12 395.293 298.12C396.317 298.12 397.09 297.907 397.613 297.48C398.135 297.043 398.397 296.392 398.397 295.528C398.397 294.557 398.173 293.88 397.725 293.496C397.277 293.101 396.535 292.904 395.501 292.904C394.551 292.904 393.746 293.064 393.085 293.384C392.946 293.437 392.813 293.464 392.685 293.464C392.461 293.464 392.274 293.4 392.125 293.272C391.986 293.133 391.922 292.952 391.933 292.728L392.205 288.568C392.215 288.419 392.253 288.307 392.317 288.232C392.391 288.157 392.514 288.12 392.685 288.12H398.861C399.031 288.12 399.154 288.152 399.229 288.216C399.303 288.28 399.341 288.392 399.341 288.552V288.824C399.341 288.995 399.303 289.117 399.229 289.192C399.154 289.256 399.031 289.288 398.861 289.288H393.485L393.293 292.2C393.975 291.955 394.797 291.832 395.757 291.832C398.477 291.832 399.837 293.064 399.837 295.528C399.837 296.275 399.65 296.931 399.277 297.496C398.914 298.051 398.391 298.483 397.709 298.792C397.026 299.091 396.221 299.24 395.293 299.24ZM405.65 299.24C404.37 299.24 403.33 298.851 402.53 298.072C401.74 297.293 401.346 296.04 401.346 294.312C401.346 292.733 401.57 291.469 402.018 290.52C402.466 289.56 403.042 288.883 403.746 288.488C404.45 288.083 405.228 287.88 406.082 287.88C407.298 287.88 408.274 288.136 409.01 288.648C409.095 288.701 409.138 288.765 409.138 288.84C409.138 288.883 409.122 288.936 409.09 289L408.77 289.544C408.727 289.64 408.674 289.688 408.61 289.688C408.578 289.688 408.524 289.661 408.45 289.608C408.14 289.395 407.799 289.24 407.426 289.144C407.063 289.048 406.615 289 406.082 289C405.132 289 404.386 289.304 403.842 289.912C403.308 290.509 402.956 291.411 402.786 292.616C403.148 292.2 403.596 291.896 404.13 291.704C404.663 291.501 405.303 291.4 406.05 291.4C406.818 291.4 407.506 291.555 408.114 291.864C408.722 292.163 409.196 292.595 409.538 293.16C409.89 293.715 410.066 294.36 410.066 295.096C410.066 296.451 409.676 297.48 408.898 298.184C408.119 298.888 407.036 299.24 405.65 299.24ZM405.65 298.12C407.644 298.12 408.642 297.112 408.642 295.096C408.642 294.264 408.37 293.613 407.826 293.144C407.292 292.675 406.594 292.44 405.73 292.44C405.26 292.44 404.802 292.536 404.354 292.728C403.906 292.92 403.532 293.219 403.234 293.624C402.946 294.029 402.802 294.541 402.802 295.16C402.802 296.195 403.063 296.947 403.586 297.416C404.108 297.885 404.796 298.12 405.65 298.12ZM412.029 299C411.73 299 411.581 298.845 411.581 298.536V298.024C411.581 297.331 411.858 296.637 412.413 295.944C412.978 295.24 413.789 294.611 414.845 294.056C415.634 293.64 416.226 293.293 416.621 293.016C417.026 292.728 417.319 292.424 417.501 292.104C417.693 291.784 417.789 291.389 417.789 290.92C417.789 290.28 417.565 289.8 417.117 289.48C416.669 289.16 416.055 289 415.277 289C414.743 289 414.237 289.064 413.757 289.192C413.277 289.32 412.877 289.485 412.557 289.688C412.503 289.731 412.45 289.752 412.397 289.752C412.333 289.752 412.279 289.709 412.237 289.624L411.901 289.032C411.869 288.968 411.853 288.915 411.853 288.872C411.853 288.797 411.895 288.733 411.981 288.68C412.333 288.435 412.813 288.243 413.421 288.104C414.029 287.955 414.69 287.88 415.405 287.88C416.535 287.88 417.453 288.147 418.157 288.68C418.871 289.213 419.229 289.96 419.229 290.92C419.229 291.763 418.962 292.472 418.429 293.048C417.895 293.613 417.069 294.179 415.949 294.744C415.021 295.224 414.306 295.725 413.805 296.248C413.303 296.76 413.053 297.288 413.053 297.832H418.669C418.839 297.832 418.957 297.869 419.021 297.944C419.095 298.008 419.133 298.125 419.133 298.296V298.568C419.133 298.728 419.095 298.84 419.021 298.904C418.957 298.968 418.839 299 418.669 299H412.029Z" fill="black"/>
</svg>
