<svg width="420" height="313" viewBox="0 0 420 313" fill="none" xmlns="http://www.w3.org/2000/svg">
<path d="M207.541 15.8702L0 0V269H420V79.351L207.541 15.8702Z" fill="#F8D105"/>
<path d="M210.977 86L0 129.054V269H420V160.946L349.674 168.919L283.256 149.784L210.977 86Z" fill="#F85900"/>
<path d="M82.9319 67.48C80.6492 67.48 78.9532 67.0213 77.8439 66.104C76.7559 65.1653 76.2119 64.0347 76.2119 62.712V62.008H75.3159C74.8679 62.008 74.5585 61.9227 74.3879 61.752C74.2385 61.5813 74.1639 61.2827 74.1639 60.856V58.584C74.1639 58.1787 74.2492 57.8907 74.4199 57.72C74.5905 57.528 74.8892 57.432 75.3159 57.432H79.7639C80.3825 57.432 80.8199 57.56 81.0759 57.816C81.3319 58.072 81.4599 58.4773 81.4599 59.032V61.496C81.4599 61.9653 81.5772 62.3173 81.8119 62.552C82.0679 62.7653 82.4412 62.872 82.9319 62.872C83.6145 62.872 84.1052 62.5627 84.4039 61.944C84.7025 61.304 84.8519 60.2267 84.8519 58.712C84.8519 57.1333 84.5319 56.0133 83.8919 55.352C83.2519 54.6693 82.1959 54.328 80.7239 54.328C79.9132 54.328 79.1879 54.4133 78.5479 54.584C77.9292 54.7547 77.3105 54.9893 76.6919 55.288C76.3932 55.4373 76.1692 55.512 76.0199 55.512C75.8279 55.512 75.6465 55.3733 75.4759 55.096L74.1319 52.76C73.9825 52.4613 73.9079 52.2373 73.9079 52.088C73.9079 51.8747 74.0359 51.672 74.2919 51.48C75.1452 50.904 76.2545 50.4667 77.6199 50.168C78.9852 49.8693 80.4892 49.72 82.1319 49.72C85.3745 49.72 87.7105 50.4987 89.1399 52.056C90.5905 53.6133 91.3159 55.832 91.3159 58.712C91.3159 61.6347 90.5799 63.832 89.1079 65.304C87.6572 66.7547 85.5985 67.48 82.9319 67.48ZM87.4069 48.568C86.1055 48.568 85.0709 48.1947 84.3029 47.448C83.5135 46.68 83.1189 45.6773 83.1189 44.44C83.1189 43.2027 83.5135 42.2 84.3029 41.432C85.0922 40.664 86.1269 40.28 87.4069 40.28C88.7082 40.28 89.7642 40.664 90.5749 41.432C91.3642 42.2 91.7589 43.2027 91.7589 44.44C91.7589 45.6773 91.3642 46.68 90.5749 47.448C89.7642 48.1947 88.7082 48.568 87.4069 48.568ZM87.4069 45.688C87.7695 45.688 88.0789 45.5707 88.3349 45.336C88.5695 45.1013 88.6869 44.8027 88.6869 44.44C88.6869 44.0773 88.5695 43.7787 88.3349 43.544C88.0789 43.3093 87.7695 43.192 87.4069 43.192C87.0442 43.192 86.7349 43.3093 86.4789 43.544C86.2229 43.7787 86.0949 44.0773 86.0949 44.44C86.0949 44.8027 86.2229 45.1013 86.4789 45.336C86.7349 45.5707 87.0442 45.688 87.4069 45.688ZM100.143 67C99.1615 67 98.6709 66.5307 98.6709 65.592V56.728C98.6709 55.8533 98.5002 55.2347 98.1589 54.872C97.8175 54.5093 97.2629 54.328 96.4949 54.328C95.6842 54.328 94.9375 54.4987 94.2549 54.84C94.0415 54.968 93.8495 55.032 93.6789 55.032C93.4655 55.032 93.3269 54.904 93.2629 54.648L92.4629 51.608L92.3989 51.16C92.3989 51.0533 92.4202 50.968 92.4629 50.904C92.5269 50.84 92.6229 50.776 92.7509 50.712C94.1802 50.0507 95.8655 49.72 97.8069 49.72C100.303 49.72 102.148 50.2533 103.343 51.32C104.559 52.3867 105.167 54.0293 105.167 56.248V65.592C105.167 66.5307 104.676 67 103.695 67H100.143ZM114.259 67.48C112.339 67.48 110.803 66.9787 109.651 65.976C108.499 64.9733 107.923 63.48 107.923 61.496V51.832C107.923 51.2773 108.051 50.872 108.307 50.616C108.563 50.3387 108.99 50.2 109.587 50.2H112.691C113.31 50.2 113.747 50.3387 114.003 50.616C114.259 50.872 114.387 51.2773 114.387 51.832V61.24C114.387 62.4773 115.059 63.096 116.403 63.096C117.086 63.096 117.651 62.9147 118.099 62.552C118.547 62.1893 118.771 61.7307 118.771 61.176V51.832C118.771 51.2773 118.899 50.872 119.155 50.616C119.411 50.3387 119.848 50.2 120.467 50.2H123.571C124.19 50.2 124.627 50.3387 124.883 50.616C125.139 50.872 125.267 51.2773 125.267 51.832V65.592C125.267 66.5307 124.787 67 123.827 67H120.947C120.371 67 120.051 66.7653 119.987 66.296L119.859 65.336C119.24 66.0187 118.494 66.552 117.619 66.936C116.744 67.2987 115.624 67.48 114.259 67.48ZM134.417 67.48C132.838 67.48 131.505 67.3413 130.417 67.064C129.35 66.7867 128.358 66.3493 127.441 65.752C127.185 65.6027 127.057 65.4 127.057 65.144C127.057 64.9307 127.131 64.7067 127.281 64.472L128.625 62.168C128.817 61.848 129.009 61.688 129.201 61.688C129.329 61.688 129.531 61.7733 129.809 61.944C130.363 62.2853 130.929 62.5307 131.505 62.68C132.081 62.8293 132.731 62.904 133.457 62.904C134.779 62.904 135.782 62.584 136.465 61.944C137.147 61.304 137.489 60.2053 137.489 58.648C137.489 57.0907 137.158 55.9813 136.497 55.32C135.857 54.6587 134.886 54.328 133.585 54.328C132.241 54.328 131.025 54.648 129.937 55.288C129.659 55.4587 129.446 55.544 129.297 55.544C129.062 55.544 128.87 55.3947 128.721 55.096L127.409 52.76C127.259 52.4613 127.185 52.2373 127.185 52.088C127.185 51.8747 127.313 51.672 127.569 51.48C128.465 50.904 129.457 50.4667 130.545 50.168C131.654 49.8693 132.977 49.72 134.513 49.72C137.606 49.72 139.953 50.4773 141.553 51.992C143.153 53.4853 143.953 55.704 143.953 58.648C143.953 61.5707 143.131 63.7787 141.489 65.272C139.867 66.744 137.51 67.48 134.417 67.48ZM152.415 67.48C150.495 67.48 148.959 66.9787 147.807 65.976C146.655 64.9733 146.079 63.48 146.079 61.496V51.832C146.079 51.2773 146.207 50.872 146.463 50.616C146.719 50.3387 147.146 50.2 147.743 50.2H150.847C151.466 50.2 151.903 50.3387 152.159 50.616C152.415 50.872 152.543 51.2773 152.543 51.832V61.24C152.543 62.4773 153.215 63.096 154.559 63.096C155.242 63.096 155.807 62.9147 156.255 62.552C156.703 62.1893 156.927 61.7307 156.927 61.176V51.832C156.927 51.2773 157.055 50.872 157.311 50.616C157.567 50.3387 158.004 50.2 158.623 50.2H161.727C162.346 50.2 162.783 50.3387 163.039 50.616C163.295 50.872 163.423 51.2773 163.423 51.832V65.592C163.423 66.5307 162.943 67 161.983 67H159.103C158.527 67 158.207 66.7653 158.143 66.296L158.015 65.336C157.396 66.0187 156.65 66.552 155.775 66.936C154.9 67.2987 153.78 67.48 152.415 67.48ZM169.245 67C167.944 67 167.293 66.328 167.293 64.984V52.408C167.293 51.7893 167.24 51.288 167.133 50.904C167.026 50.52 166.877 50.2 166.685 49.944C166.514 49.688 166.226 49.3573 165.821 48.952C165.629 48.8027 165.437 48.6107 165.245 48.376L164.605 47.672C164.413 47.4587 164.285 47.256 164.221 47.064C164.136 46.8507 164.093 46.5733 164.093 46.232V44.856C164.093 44.3653 164.21 44.024 164.445 43.832C164.68 43.6187 165.064 43.512 165.597 43.512H175.389C175.837 43.512 176.146 43.608 176.317 43.8C176.488 43.9707 176.573 44.2693 176.573 44.696V47.032C176.573 47.4587 176.488 47.7573 176.317 47.928C176.146 48.0987 175.837 48.184 175.389 48.184H171.773C172.605 48.8453 173.149 49.4853 173.405 50.104C173.661 50.7227 173.789 51.576 173.789 52.664V61.72C173.789 61.9547 173.832 62.1147 173.917 62.2C174.002 62.2853 174.13 62.328 174.301 62.328H174.909C175.272 62.328 175.506 62.392 175.613 62.52C175.72 62.648 175.773 62.9147 175.773 63.32V65.848C175.773 66.232 175.709 66.5093 175.581 66.68C175.474 66.8293 175.282 66.9253 175.005 66.968C174.749 66.9893 174.301 67 173.661 67H169.245ZM185.597 67.48C182.525 67.48 180.05 66.9573 178.173 65.912C177.938 65.784 177.768 65.6667 177.661 65.56C177.576 65.4533 177.533 65.3253 177.533 65.176C177.533 65.0907 177.586 64.9413 177.693 64.728L179.037 62.264C179.165 62.0293 179.314 61.912 179.485 61.912C179.634 61.912 179.826 61.976 180.061 62.104C180.637 62.4027 181.405 62.68 182.365 62.936C183.346 63.192 184.221 63.32 184.989 63.32C185.65 63.32 186.12 63.2347 186.397 63.064C186.696 62.8933 186.845 62.6373 186.845 62.296C186.845 61.8907 186.642 61.5707 186.237 61.336C185.832 61.08 185.053 60.7387 183.901 60.312L183.037 59.992C181.309 59.3307 180.05 58.6267 179.261 57.88C178.493 57.1333 178.109 56.1413 178.109 54.904C178.109 53.304 178.792 52.0453 180.157 51.128C181.544 50.1893 183.389 49.72 185.693 49.72C187.122 49.72 188.349 49.8373 189.373 50.072C190.397 50.3067 191.378 50.6693 192.317 51.16C192.744 51.3733 192.957 51.6187 192.957 51.896C192.957 52.024 192.882 52.216 192.733 52.472L191.453 54.552C191.282 54.808 191.133 54.936 191.005 54.936C190.898 54.936 190.717 54.872 190.461 54.744C189.949 54.488 189.341 54.2853 188.637 54.136C187.954 53.9653 187.293 53.88 186.653 53.88C185.864 53.88 185.277 53.9547 184.893 54.104C184.53 54.232 184.349 54.4667 184.349 54.808C184.349 55.2347 184.605 55.5973 185.117 55.896C185.65 56.1733 186.642 56.5787 188.093 57.112C188.178 57.1333 188.509 57.2507 189.085 57.464C190.664 58.0613 191.762 58.7227 192.381 59.448C193.021 60.152 193.341 61.1013 193.341 62.296C193.341 63.832 192.68 65.08 191.357 66.04C190.034 67 188.114 67.48 185.597 67.48ZM204.158 67.48C202.025 67.48 200.382 67.0747 199.23 66.264C198.099 65.4533 197.267 64.2267 196.734 62.584L195.006 57.112C194.899 56.792 194.846 56.5573 194.846 56.408C194.846 56.1093 195.07 55.8853 195.518 55.736L199.358 54.424C199.635 54.3173 199.859 54.264 200.03 54.264C200.393 54.264 200.649 54.5413 200.798 55.096L202.75 61.272C202.942 61.8693 203.166 62.2853 203.422 62.52C203.678 62.7547 204.083 62.872 204.638 62.872C205.363 62.872 205.886 62.52 206.206 61.816C206.526 61.0907 206.686 59.9493 206.686 58.392C206.686 56.9627 206.526 55.928 206.206 55.288C205.907 54.648 205.406 54.328 204.702 54.328C204.425 54.328 203.987 54.4347 203.39 54.648C203.305 54.6907 203.177 54.712 203.006 54.712C202.771 54.712 202.59 54.552 202.462 54.232L201.47 51.64C201.406 51.4693 201.374 51.3307 201.374 51.224C201.374 51.0107 201.502 50.8507 201.758 50.744C202.462 50.3813 203.145 50.1253 203.806 49.976C204.489 49.8053 205.278 49.72 206.174 49.72C208.371 49.72 210.067 50.488 211.262 52.024C212.478 53.56 213.086 55.6827 213.086 58.392C213.086 61.336 212.307 63.5867 210.75 65.144C209.193 66.7013 206.995 67.48 204.158 67.48ZM217.156 67C215.855 67 215.204 66.328 215.204 64.984V51.832C215.204 51.256 215.332 50.84 215.588 50.584C215.865 50.328 216.335 50.2 216.996 50.2H219.908C220.569 50.2 221.028 50.328 221.284 50.584C221.561 50.84 221.7 51.256 221.7 51.832V61.72C221.7 61.976 221.732 62.1467 221.796 62.232C221.86 62.296 221.977 62.328 222.148 62.328H222.82C223.183 62.328 223.417 62.392 223.524 62.52C223.631 62.648 223.684 62.9147 223.684 63.32V65.848C223.684 66.232 223.62 66.5093 223.492 66.68C223.385 66.8293 223.193 66.9253 222.916 66.968C222.66 66.9893 222.212 67 221.572 67H217.156ZM233.191 67.48C230.119 67.48 227.644 66.9573 225.767 65.912C225.532 65.784 225.361 65.6667 225.255 65.56C225.169 65.4533 225.127 65.3253 225.127 65.176C225.127 65.0907 225.18 64.9413 225.287 64.728L226.631 62.264C226.759 62.0293 226.908 61.912 227.079 61.912C227.228 61.912 227.42 61.976 227.655 62.104C228.231 62.4027 228.999 62.68 229.959 62.936C230.94 63.192 231.815 63.32 232.583 63.32C233.244 63.32 233.713 63.2347 233.991 63.064C234.289 62.8933 234.439 62.6373 234.439 62.296C234.439 61.8907 234.236 61.5707 233.831 61.336C233.425 61.08 232.647 60.7387 231.495 60.312L230.631 59.992C228.903 59.3307 227.644 58.6267 226.855 57.88C226.087 57.1333 225.703 56.1413 225.703 54.904C225.703 53.304 226.385 52.0453 227.751 51.128C229.137 50.1893 230.983 49.72 233.287 49.72C234.716 49.72 235.943 49.8373 236.967 50.072C237.991 50.3067 238.972 50.6693 239.911 51.16C240.337 51.3733 240.551 51.6187 240.551 51.896C240.551 52.024 240.476 52.216 240.327 52.472L239.047 54.552C238.876 54.808 238.727 54.936 238.599 54.936C238.492 54.936 238.311 54.872 238.055 54.744C237.543 54.488 236.935 54.2853 236.231 54.136C235.548 53.9653 234.887 53.88 234.247 53.88C233.457 53.88 232.871 53.9547 232.487 54.104C232.124 54.232 231.943 54.4667 231.943 54.808C231.943 55.2347 232.199 55.5973 232.711 55.896C233.244 56.1733 234.236 56.5787 235.687 57.112C235.772 57.1333 236.103 57.2507 236.679 57.464C238.257 58.0613 239.356 58.7227 239.975 59.448C240.615 60.152 240.935 61.1013 240.935 62.296C240.935 63.832 240.273 65.08 238.951 66.04C237.628 67 235.708 67.48 233.191 67.48ZM227.016 48.248C226.376 48.248 225.96 48.152 225.768 47.96C225.576 47.7467 225.48 47.3093 225.48 46.648V45.432C225.48 44.7707 225.576 44.344 225.768 44.152C225.96 43.9387 226.376 43.832 227.016 43.832H235.24V42.52C235.24 41.944 235.368 41.5493 235.624 41.336C235.859 41.1227 236.243 41.016 236.776 41.016H238.76C239.293 41.016 239.688 41.1227 239.944 41.336C240.179 41.5493 240.296 41.944 240.296 42.52V46.488C240.296 47.128 240.179 47.5867 239.944 47.864C239.709 48.12 239.251 48.248 238.568 48.248H227.016ZM251.208 67.48C248.52 67.48 246.376 67.0107 244.776 66.072C243.197 65.112 242.408 63.704 242.408 61.848C242.408 59.9707 243.091 58.712 244.456 58.072C243.795 57.6453 243.304 57.144 242.984 56.568C242.685 55.9707 242.536 55.2453 242.536 54.392C242.536 53.0053 243.027 51.8853 244.008 51.032C245.011 50.1573 246.291 49.72 247.848 49.72C249.491 49.72 250.867 50.0293 251.976 50.648C252.232 50.7973 252.36 50.9787 252.36 51.192C252.36 51.2987 252.328 51.4373 252.264 51.608L251.496 53.624C251.389 53.8587 251.261 53.976 251.112 53.976C251.027 53.976 250.92 53.944 250.792 53.88C250.664 53.816 250.525 53.7627 250.376 53.72C250.248 53.656 250.088 53.624 249.896 53.624C249.533 53.624 249.245 53.752 249.032 54.008C248.84 54.264 248.744 54.5947 248.744 55C248.744 55.4907 248.861 55.8533 249.096 56.088C249.352 56.3013 249.747 56.408 250.28 56.408H250.92C251.389 56.408 251.624 56.6427 251.624 57.112V59.192C251.624 59.6827 251.379 59.928 250.888 59.928H250.312C249.779 59.928 249.384 60.0453 249.128 60.28C248.872 60.5147 248.744 60.888 248.744 61.4C248.744 62.3813 249.565 62.872 251.208 62.872C252.147 62.872 252.819 62.6587 253.224 62.232C253.651 61.8053 253.864 61.1013 253.864 60.12V51.832C253.864 51.2773 253.992 50.872 254.248 50.616C254.504 50.3387 254.931 50.2 255.528 50.2H258.632C259.251 50.2 259.688 50.3387 259.944 50.616C260.221 50.872 260.36 51.2773 260.36 51.832V59.768C260.36 62.1147 259.645 63.992 258.216 65.4C256.787 66.7867 254.451 67.48 251.208 67.48ZM269.446 67.48C267.526 67.48 265.99 66.9787 264.838 65.976C263.686 64.9733 263.11 63.48 263.11 61.496V51.832C263.11 51.2773 263.238 50.872 263.494 50.616C263.75 50.3387 264.177 50.2 264.774 50.2H267.878C268.497 50.2 268.934 50.3387 269.19 50.616C269.446 50.872 269.574 51.2773 269.574 51.832V61.24C269.574 62.4773 270.246 63.096 271.59 63.096C272.273 63.096 272.838 62.9147 273.286 62.552C273.734 62.1893 273.958 61.7307 273.958 61.176V51.832C273.958 51.2773 274.086 50.872 274.342 50.616C274.598 50.3387 275.036 50.2 275.654 50.2H278.758C279.377 50.2 279.814 50.3387 280.07 50.616C280.326 50.872 280.454 51.2773 280.454 51.832V65.592C280.454 66.5307 279.974 67 279.014 67H276.134C275.558 67 275.238 66.7653 275.174 66.296L275.046 65.336C274.428 66.0187 273.681 66.552 272.806 66.936C271.932 67.2987 270.812 67.48 269.446 67.48ZM286.82 67C285.519 67 284.868 66.328 284.868 64.984V56.12C284.868 55.2667 285.06 54.52 285.444 53.88C285.828 53.2187 286.393 52.472 287.14 51.64C287.737 50.9573 288.175 50.392 288.452 49.944C288.751 49.496 288.9 49.0053 288.9 48.472C288.9 47.6827 288.463 47.288 287.588 47.288C287.055 47.288 286.692 47.4693 286.5 47.832C286.308 48.1733 286.212 48.7173 286.212 49.464C286.212 49.72 286.169 49.8907 286.084 49.976C285.999 50.04 285.807 50.072 285.508 50.072H281.476C281.135 50.072 280.964 49.8693 280.964 49.464C280.964 47.48 281.551 45.912 282.724 44.76C283.897 43.5867 285.668 43 288.036 43C292.687 43 295.012 44.7173 295.012 48.152C295.012 49.048 294.841 49.8373 294.5 50.52C294.18 51.1813 293.7 51.9387 293.06 52.792C292.484 53.56 292.057 54.2107 291.78 54.744C291.503 55.2773 291.364 55.8853 291.364 56.568V61.72C291.364 61.9547 291.407 62.1147 291.492 62.2C291.577 62.2853 291.705 62.328 291.876 62.328H292.484C292.847 62.328 293.081 62.392 293.188 62.52C293.295 62.648 293.348 62.9147 293.348 63.32V65.848C293.348 66.232 293.284 66.5093 293.156 66.68C293.049 66.8293 292.857 66.9253 292.58 66.968C292.324 66.9893 291.876 67 291.236 67H286.82ZM297.399 67C296.781 67 296.343 66.872 296.087 66.616C295.853 66.36 295.735 65.9547 295.735 65.4V51.832C295.735 51.2773 295.863 50.872 296.119 50.616C296.375 50.3387 296.802 50.2 297.399 50.2H300.471C301.09 50.2 301.527 50.3387 301.783 50.616C302.061 50.872 302.199 51.2773 302.199 51.832V55.032H304.471C305.069 55.032 305.474 54.8933 305.687 54.616C305.901 54.3173 306.007 53.8693 306.007 53.272V51.832C306.007 51.2773 306.135 50.872 306.391 50.616C306.647 50.3387 307.085 50.2 307.703 50.2H310.807C311.426 50.2 311.863 50.3387 312.119 50.616C312.375 50.872 312.503 51.2773 312.503 51.832V53.432C312.503 55.3093 311.81 56.5573 310.423 57.176C311.81 57.7947 312.503 59.0427 312.503 60.92V65.4C312.503 65.9547 312.375 66.36 312.119 66.616C311.863 66.872 311.426 67 310.807 67H307.703C307.085 67 306.647 66.872 306.391 66.616C306.135 66.36 306.007 65.9547 306.007 65.4V61.4C306.007 60.824 305.901 60.3973 305.687 60.12C305.474 59.8427 305.09 59.704 304.535 59.704H302.199V65.4C302.199 65.9547 302.061 66.36 301.783 66.616C301.527 66.872 301.09 67 300.471 67H297.399ZM334.371 71.32C331.832 71.32 329.677 70.7973 327.907 69.752C327.629 69.6027 327.491 69.4107 327.491 69.176C327.491 69.0053 327.544 68.8347 327.651 68.664L328.963 66.2C329.155 65.88 329.347 65.72 329.539 65.72C329.667 65.72 329.837 65.7733 330.051 65.88C330.648 66.1573 331.32 66.3813 332.067 66.552C332.835 66.7227 333.549 66.808 334.211 66.808C335.192 66.808 335.949 66.648 336.483 66.328C337.016 65.9867 337.357 65.4533 337.507 64.728C336.739 65.0053 335.832 65.144 334.787 65.144C331.949 65.144 329.827 64.6 328.419 63.512C327.032 62.4027 326.339 60.7173 326.339 58.456V56.888C326.339 56.0133 326.157 55.3733 325.795 54.968C325.453 54.5627 324.867 54.36 324.035 54.36C322.861 54.36 321.955 54.5947 321.315 55.064L321.667 55.672C321.816 55.9493 321.923 56.2267 321.987 56.504C322.051 56.76 322.083 57.08 322.083 57.464V61.72C322.083 61.976 322.115 62.1467 322.179 62.232C322.243 62.296 322.36 62.328 322.531 62.328H323.171C323.533 62.328 323.768 62.392 323.875 62.52C323.981 62.648 324.035 62.9147 324.035 63.32V65.848C324.035 66.232 323.971 66.5093 323.843 66.68C323.736 66.8293 323.544 66.9253 323.267 66.968C323.011 66.9893 322.563 67 321.923 67H317.539C316.237 67 315.587 66.328 315.587 64.984V56.664L314.915 54.968C314.723 54.4987 314.627 54.104 314.627 53.784C314.627 53.4 314.819 53.048 315.203 52.728C316.184 51.896 317.464 51.192 319.043 50.616C320.621 50.0187 322.296 49.72 324.067 49.72C329.869 49.72 332.771 52.152 332.771 57.016V58.136C332.771 59.0107 332.92 59.64 333.219 60.024C333.539 60.3867 334.093 60.568 334.883 60.568C335.672 60.568 336.216 60.3867 336.515 60.024C336.813 59.64 336.963 59.0107 336.963 58.136V51.832C336.963 51.192 337.123 50.7653 337.443 50.552C337.784 50.3173 338.403 50.2 339.299 50.2H341.731C342.349 50.2 342.787 50.3387 343.043 50.616C343.32 50.872 343.459 51.2773 343.459 51.832V61.944C343.459 65.1227 342.744 67.48 341.315 69.016C339.885 70.552 337.571 71.32 334.371 71.32ZM339.036 48.248C338.439 48.248 338.023 48.1413 337.788 47.928C337.532 47.7147 337.404 47.3093 337.404 46.712V43.032C337.404 42.4133 337.532 41.9973 337.788 41.784C338.023 41.5707 338.439 41.464 339.036 41.464H341.756C342.353 41.464 342.78 41.5707 343.036 41.784C343.271 41.9973 343.388 42.4133 343.388 43.032V46.712C343.388 47.3093 343.271 47.7147 343.036 47.928C342.78 48.1413 342.353 48.248 341.756 48.248H339.036Z" fill="black"/>
<path d="M73.1719 70.2H344.828V71.8H73.1719V70.2Z" fill="black"/>
<path d="M88.9944 212.48C86.7117 212.48 85.0157 212.021 83.9064 211.104C82.8184 210.165 82.2744 209.035 82.2744 207.712V207.008H81.3784C80.9304 207.008 80.621 206.923 80.4504 206.752C80.301 206.581 80.2264 206.283 80.2264 205.856V203.584C80.2264 203.179 80.3117 202.891 80.4824 202.72C80.653 202.528 80.9517 202.432 81.3784 202.432H85.8264C86.445 202.432 86.8824 202.56 87.1384 202.816C87.3944 203.072 87.5224 203.477 87.5224 204.032V206.496C87.5224 206.965 87.6397 207.317 87.8744 207.552C88.1304 207.765 88.5037 207.872 88.9944 207.872C89.677 207.872 90.1677 207.563 90.4664 206.944C90.765 206.304 90.9144 205.227 90.9144 203.712C90.9144 202.133 90.5944 201.013 89.9544 200.352C89.3144 199.669 88.2584 199.328 86.7864 199.328C85.9757 199.328 85.2504 199.413 84.6104 199.584C83.9917 199.755 83.373 199.989 82.7544 200.288C82.4557 200.437 82.2317 200.512 82.0824 200.512C81.8904 200.512 81.709 200.373 81.5384 200.096L80.1944 197.76C80.045 197.461 79.9704 197.237 79.9704 197.088C79.9704 196.875 80.0984 196.672 80.3544 196.48C81.2077 195.904 82.317 195.467 83.6824 195.168C85.0477 194.869 86.5517 194.72 88.1944 194.72C91.437 194.72 93.773 195.499 95.2024 197.056C96.653 198.613 97.3784 200.832 97.3784 203.712C97.3784 206.635 96.6424 208.832 95.1704 210.304C93.7197 211.755 91.661 212.48 88.9944 212.48ZM93.4694 193.568C92.168 193.568 91.1334 193.195 90.3654 192.448C89.576 191.68 89.1814 190.677 89.1814 189.44C89.1814 188.203 89.576 187.2 90.3654 186.432C91.1547 185.664 92.1894 185.28 93.4694 185.28C94.7707 185.28 95.8267 185.664 96.6374 186.432C97.4267 187.2 97.8214 188.203 97.8214 189.44C97.8214 190.677 97.4267 191.68 96.6374 192.448C95.8267 193.195 94.7707 193.568 93.4694 193.568ZM93.4694 190.688C93.832 190.688 94.1414 190.571 94.3974 190.336C94.632 190.101 94.7494 189.803 94.7494 189.44C94.7494 189.077 94.632 188.779 94.3974 188.544C94.1414 188.309 93.832 188.192 93.4694 188.192C93.1067 188.192 92.7974 188.309 92.5414 188.544C92.2854 188.779 92.1574 189.077 92.1574 189.44C92.1574 189.803 92.2854 190.101 92.5414 190.336C92.7974 190.571 93.1067 190.688 93.4694 190.688ZM106.205 212C105.224 212 104.733 211.531 104.733 210.592V201.728C104.733 200.853 104.563 200.235 104.221 199.872C103.88 199.509 103.325 199.328 102.557 199.328C101.747 199.328 101 199.499 100.317 199.84C100.104 199.968 99.912 200.032 99.7414 200.032C99.528 200.032 99.3894 199.904 99.3254 199.648L98.5254 196.608L98.4614 196.16C98.4614 196.053 98.4827 195.968 98.5254 195.904C98.5894 195.84 98.6854 195.776 98.8134 195.712C100.243 195.051 101.928 194.72 103.869 194.72C106.365 194.72 108.211 195.253 109.405 196.32C110.621 197.387 111.229 199.029 111.229 201.248V210.592C111.229 211.531 110.739 212 109.757 212H106.205ZM120.321 212.48C118.401 212.48 116.865 211.979 115.713 210.976C114.561 209.973 113.985 208.48 113.985 206.496V196.832C113.985 196.277 114.113 195.872 114.369 195.616C114.625 195.339 115.052 195.2 115.649 195.2H118.753C119.372 195.2 119.809 195.339 120.065 195.616C120.321 195.872 120.449 196.277 120.449 196.832V206.24C120.449 207.477 121.121 208.096 122.465 208.096C123.148 208.096 123.713 207.915 124.161 207.552C124.609 207.189 124.833 206.731 124.833 206.176V196.832C124.833 196.277 124.961 195.872 125.217 195.616C125.473 195.339 125.911 195.2 126.529 195.2H129.633C130.252 195.2 130.689 195.339 130.945 195.616C131.201 195.872 131.329 196.277 131.329 196.832V210.592C131.329 211.531 130.849 212 129.889 212H127.009C126.433 212 126.113 211.765 126.049 211.296L125.921 210.336C125.303 211.019 124.556 211.552 123.681 211.936C122.807 212.299 121.687 212.48 120.321 212.48ZM140.479 212.48C138.9 212.48 137.567 212.341 136.479 212.064C135.412 211.787 134.42 211.349 133.503 210.752C133.247 210.603 133.119 210.4 133.119 210.144C133.119 209.931 133.194 209.707 133.343 209.472L134.687 207.168C134.879 206.848 135.071 206.688 135.263 206.688C135.391 206.688 135.594 206.773 135.871 206.944C136.426 207.285 136.991 207.531 137.567 207.68C138.143 207.829 138.794 207.904 139.519 207.904C140.842 207.904 141.844 207.584 142.527 206.944C143.21 206.304 143.551 205.205 143.551 203.648C143.551 202.091 143.22 200.981 142.559 200.32C141.919 199.659 140.948 199.328 139.647 199.328C138.303 199.328 137.087 199.648 135.999 200.288C135.722 200.459 135.508 200.544 135.359 200.544C135.124 200.544 134.932 200.395 134.783 200.096L133.471 197.76C133.322 197.461 133.247 197.237 133.247 197.088C133.247 196.875 133.375 196.672 133.631 196.48C134.527 195.904 135.519 195.467 136.607 195.168C137.716 194.869 139.039 194.72 140.575 194.72C143.668 194.72 146.015 195.477 147.615 196.992C149.215 198.485 150.015 200.704 150.015 203.648C150.015 206.571 149.194 208.779 147.551 210.272C145.93 211.744 143.572 212.48 140.479 212.48ZM158.478 212.48C156.558 212.48 155.022 211.979 153.87 210.976C152.718 209.973 152.142 208.48 152.142 206.496V196.832C152.142 196.277 152.27 195.872 152.526 195.616C152.782 195.339 153.208 195.2 153.806 195.2H156.91C157.528 195.2 157.966 195.339 158.222 195.616C158.478 195.872 158.606 196.277 158.606 196.832V206.24C158.606 207.477 159.278 208.096 160.622 208.096C161.304 208.096 161.87 207.915 162.318 207.552C162.766 207.189 162.99 206.731 162.99 206.176V196.832C162.99 196.277 163.118 195.872 163.374 195.616C163.63 195.339 164.067 195.2 164.686 195.2H167.79C168.408 195.2 168.846 195.339 169.102 195.616C169.358 195.872 169.486 196.277 169.486 196.832V210.592C169.486 211.531 169.006 212 168.046 212H165.166C164.59 212 164.27 211.765 164.206 211.296L164.078 210.336C163.459 211.019 162.712 211.552 161.838 211.936C160.963 212.299 159.843 212.48 158.478 212.48ZM175.307 212C174.006 212 173.355 211.328 173.355 209.984V197.408C173.355 196.789 173.302 196.288 173.195 195.904C173.089 195.52 172.939 195.2 172.747 194.944C172.577 194.688 172.289 194.357 171.883 193.952C171.691 193.803 171.499 193.611 171.307 193.376L170.667 192.672C170.475 192.459 170.347 192.256 170.283 192.064C170.198 191.851 170.155 191.573 170.155 191.232V189.856C170.155 189.365 170.273 189.024 170.507 188.832C170.742 188.619 171.126 188.512 171.659 188.512H181.451C181.899 188.512 182.209 188.608 182.379 188.8C182.55 188.971 182.635 189.269 182.635 189.696V192.032C182.635 192.459 182.55 192.757 182.379 192.928C182.209 193.099 181.899 193.184 181.451 193.184H177.835C178.667 193.845 179.211 194.485 179.467 195.104C179.723 195.723 179.851 196.576 179.851 197.664V206.72C179.851 206.955 179.894 207.115 179.979 207.2C180.065 207.285 180.193 207.328 180.363 207.328H180.971C181.334 207.328 181.569 207.392 181.675 207.52C181.782 207.648 181.835 207.915 181.835 208.32V210.848C181.835 211.232 181.771 211.509 181.643 211.68C181.537 211.829 181.345 211.925 181.067 211.968C180.811 211.989 180.363 212 179.723 212H175.307ZM191.659 212.48C188.587 212.48 186.113 211.957 184.235 210.912C184.001 210.784 183.83 210.667 183.723 210.56C183.638 210.453 183.595 210.325 183.595 210.176C183.595 210.091 183.649 209.941 183.755 209.728L185.099 207.264C185.227 207.029 185.377 206.912 185.547 206.912C185.697 206.912 185.889 206.976 186.123 207.104C186.699 207.403 187.467 207.68 188.427 207.936C189.409 208.192 190.283 208.32 191.051 208.32C191.713 208.32 192.182 208.235 192.459 208.064C192.758 207.893 192.907 207.637 192.907 207.296C192.907 206.891 192.705 206.571 192.299 206.336C191.894 206.08 191.115 205.739 189.963 205.312L189.099 204.992C187.371 204.331 186.113 203.627 185.323 202.88C184.555 202.133 184.171 201.141 184.171 199.904C184.171 198.304 184.854 197.045 186.219 196.128C187.606 195.189 189.451 194.72 191.755 194.72C193.185 194.72 194.411 194.837 195.435 195.072C196.459 195.307 197.441 195.669 198.379 196.16C198.806 196.373 199.019 196.619 199.019 196.896C199.019 197.024 198.945 197.216 198.795 197.472L197.515 199.552C197.345 199.808 197.195 199.936 197.067 199.936C196.961 199.936 196.779 199.872 196.523 199.744C196.011 199.488 195.403 199.285 194.699 199.136C194.017 198.965 193.355 198.88 192.715 198.88C191.926 198.88 191.339 198.955 190.955 199.104C190.593 199.232 190.411 199.467 190.411 199.808C190.411 200.235 190.667 200.597 191.179 200.896C191.713 201.173 192.705 201.579 194.155 202.112C194.241 202.133 194.571 202.251 195.147 202.464C196.726 203.061 197.825 203.723 198.443 204.448C199.083 205.152 199.403 206.101 199.403 207.296C199.403 208.832 198.742 210.08 197.419 211.04C196.097 212 194.177 212.48 191.659 212.48ZM210.221 212.48C208.087 212.48 206.445 212.075 205.293 211.264C204.162 210.453 203.33 209.227 202.797 207.584L201.069 202.112C200.962 201.792 200.909 201.557 200.909 201.408C200.909 201.109 201.133 200.885 201.581 200.736L205.421 199.424C205.698 199.317 205.922 199.264 206.093 199.264C206.455 199.264 206.711 199.541 206.861 200.096L208.813 206.272C209.005 206.869 209.229 207.285 209.485 207.52C209.741 207.755 210.146 207.872 210.701 207.872C211.426 207.872 211.949 207.52 212.269 206.816C212.589 206.091 212.749 204.949 212.749 203.392C212.749 201.963 212.589 200.928 212.269 200.288C211.97 199.648 211.469 199.328 210.765 199.328C210.487 199.328 210.05 199.435 209.453 199.648C209.367 199.691 209.239 199.712 209.069 199.712C208.834 199.712 208.653 199.552 208.525 199.232L207.533 196.64C207.469 196.469 207.437 196.331 207.437 196.224C207.437 196.011 207.565 195.851 207.821 195.744C208.525 195.381 209.207 195.125 209.869 194.976C210.551 194.805 211.341 194.72 212.237 194.72C214.434 194.72 216.13 195.488 217.325 197.024C218.541 198.56 219.149 200.683 219.149 203.392C219.149 206.336 218.37 208.587 216.813 210.144C215.255 211.701 213.058 212.48 210.221 212.48ZM223.219 212C221.917 212 221.267 211.328 221.267 209.984V196.832C221.267 196.256 221.395 195.84 221.651 195.584C221.928 195.328 222.397 195.2 223.059 195.2H225.971C226.632 195.2 227.091 195.328 227.347 195.584C227.624 195.84 227.763 196.256 227.763 196.832V206.72C227.763 206.976 227.795 207.147 227.859 207.232C227.923 207.296 228.04 207.328 228.211 207.328H228.883C229.245 207.328 229.48 207.392 229.587 207.52C229.693 207.648 229.747 207.915 229.747 208.32V210.848C229.747 211.232 229.683 211.509 229.555 211.68C229.448 211.829 229.256 211.925 228.979 211.968C228.723 211.989 228.275 212 227.635 212H223.219ZM239.253 212.48C236.181 212.48 233.706 211.957 231.829 210.912C231.594 210.784 231.424 210.667 231.317 210.56C231.232 210.453 231.189 210.325 231.189 210.176C231.189 210.091 231.242 209.941 231.349 209.728L232.693 207.264C232.821 207.029 232.97 206.912 233.141 206.912C233.29 206.912 233.482 206.976 233.717 207.104C234.293 207.403 235.061 207.68 236.021 207.936C237.002 208.192 237.877 208.32 238.645 208.32C239.306 208.32 239.776 208.235 240.053 208.064C240.352 207.893 240.501 207.637 240.501 207.296C240.501 206.891 240.298 206.571 239.893 206.336C239.488 206.08 238.709 205.739 237.557 205.312L236.693 204.992C234.965 204.331 233.706 203.627 232.917 202.88C232.149 202.133 231.765 201.141 231.765 199.904C231.765 198.304 232.448 197.045 233.813 196.128C235.2 195.189 237.045 194.72 239.349 194.72C240.778 194.72 242.005 194.837 243.029 195.072C244.053 195.307 245.034 195.669 245.973 196.16C246.4 196.373 246.613 196.619 246.613 196.896C246.613 197.024 246.538 197.216 246.389 197.472L245.109 199.552C244.938 199.808 244.789 199.936 244.661 199.936C244.554 199.936 244.373 199.872 244.117 199.744C243.605 199.488 242.997 199.285 242.293 199.136C241.61 198.965 240.949 198.88 240.309 198.88C239.52 198.88 238.933 198.955 238.549 199.104C238.186 199.232 238.005 199.467 238.005 199.808C238.005 200.235 238.261 200.597 238.773 200.896C239.306 201.173 240.298 201.579 241.749 202.112C241.834 202.133 242.165 202.251 242.741 202.464C244.32 203.061 245.418 203.723 246.037 204.448C246.677 205.152 246.997 206.101 246.997 207.296C246.997 208.832 246.336 210.08 245.013 211.04C243.69 212 241.77 212.48 239.253 212.48ZM233.078 193.248C232.438 193.248 232.022 193.152 231.83 192.96C231.638 192.747 231.542 192.309 231.542 191.648V190.432C231.542 189.771 231.638 189.344 231.83 189.152C232.022 188.939 232.438 188.832 233.078 188.832H241.302V187.52C241.302 186.944 241.43 186.549 241.686 186.336C241.921 186.123 242.305 186.016 242.838 186.016H244.822C245.356 186.016 245.75 186.123 246.006 186.336C246.241 186.549 246.358 186.944 246.358 187.52V191.488C246.358 192.128 246.241 192.587 246.006 192.864C245.772 193.12 245.313 193.248 244.63 193.248H233.078ZM257.27 212.48C254.582 212.48 252.438 212.011 250.838 211.072C249.26 210.112 248.47 208.704 248.47 206.848C248.47 204.971 249.153 203.712 250.518 203.072C249.857 202.645 249.366 202.144 249.046 201.568C248.748 200.971 248.598 200.245 248.598 199.392C248.598 198.005 249.089 196.885 250.07 196.032C251.073 195.157 252.353 194.72 253.91 194.72C255.553 194.72 256.929 195.029 258.038 195.648C258.294 195.797 258.422 195.979 258.422 196.192C258.422 196.299 258.39 196.437 258.326 196.608L257.558 198.624C257.452 198.859 257.324 198.976 257.174 198.976C257.089 198.976 256.982 198.944 256.854 198.88C256.726 198.816 256.588 198.763 256.438 198.72C256.31 198.656 256.15 198.624 255.958 198.624C255.596 198.624 255.308 198.752 255.094 199.008C254.902 199.264 254.806 199.595 254.806 200C254.806 200.491 254.924 200.853 255.158 201.088C255.414 201.301 255.809 201.408 256.342 201.408H256.982C257.452 201.408 257.686 201.643 257.686 202.112V204.192C257.686 204.683 257.441 204.928 256.95 204.928H256.374C255.841 204.928 255.446 205.045 255.19 205.28C254.934 205.515 254.806 205.888 254.806 206.4C254.806 207.381 255.628 207.872 257.27 207.872C258.209 207.872 258.881 207.659 259.286 207.232C259.713 206.805 259.926 206.101 259.926 205.12V196.832C259.926 196.277 260.054 195.872 260.31 195.616C260.566 195.339 260.993 195.2 261.59 195.2H264.694C265.313 195.2 265.75 195.339 266.006 195.616C266.284 195.872 266.422 196.277 266.422 196.832V204.768C266.422 207.115 265.708 208.992 264.278 210.4C262.849 211.787 260.513 212.48 257.27 212.48ZM275.509 212.48C273.589 212.48 272.053 211.979 270.901 210.976C269.749 209.973 269.173 208.48 269.173 206.496V196.832C269.173 196.277 269.301 195.872 269.557 195.616C269.813 195.339 270.24 195.2 270.837 195.2H273.941C274.56 195.2 274.997 195.339 275.253 195.616C275.509 195.872 275.637 196.277 275.637 196.832V206.24C275.637 207.477 276.309 208.096 277.653 208.096C278.336 208.096 278.901 207.915 279.349 207.552C279.797 207.189 280.021 206.731 280.021 206.176V196.832C280.021 196.277 280.149 195.872 280.405 195.616C280.661 195.339 281.098 195.2 281.717 195.2H284.821C285.44 195.2 285.877 195.339 286.133 195.616C286.389 195.872 286.517 196.277 286.517 196.832V210.592C286.517 211.531 286.037 212 285.077 212H282.197C281.621 212 281.301 211.765 281.237 211.296L281.109 210.336C280.49 211.019 279.744 211.552 278.869 211.936C277.994 212.299 276.874 212.48 275.509 212.48ZM291.219 212C289.917 212 289.267 211.328 289.267 209.984V196.832C289.267 196.256 289.395 195.84 289.651 195.584C289.928 195.328 290.397 195.2 291.059 195.2H293.971C294.632 195.2 295.091 195.328 295.347 195.584C295.624 195.84 295.763 196.256 295.763 196.832V206.72C295.763 206.976 295.795 207.147 295.859 207.232C295.923 207.296 296.04 207.328 296.211 207.328H296.883C297.245 207.328 297.48 207.392 297.587 207.52C297.693 207.648 297.747 207.915 297.747 208.32V210.848C297.747 211.232 297.683 211.509 297.555 211.68C297.448 211.829 297.256 211.925 296.979 211.968C296.723 211.989 296.275 212 295.635 212H291.219ZM304.757 212.48C303.05 212.48 301.696 212.011 300.693 211.072C299.69 210.112 299.189 208.864 299.189 207.328C299.189 205.323 299.85 203.893 301.173 203.04C302.496 202.187 304.394 201.76 306.869 201.76H310.677V201.408C310.677 200.661 310.421 200.117 309.909 199.776C309.397 199.413 308.469 199.232 307.125 199.232C306.378 199.232 305.632 199.317 304.885 199.488C304.16 199.637 303.53 199.84 302.997 200.096C302.698 200.245 302.485 200.32 302.357 200.32C302.144 200.32 301.962 200.181 301.813 199.904L300.373 197.376C300.266 197.205 300.213 197.056 300.213 196.928C300.213 196.736 300.362 196.555 300.661 196.384C301.557 195.851 302.677 195.445 304.021 195.168C305.386 194.869 306.848 194.72 308.405 194.72C311.37 194.72 313.557 195.328 314.965 196.544C316.373 197.76 317.077 199.584 317.077 202.016V210.4C317.077 210.955 316.949 211.36 316.693 211.616C316.437 211.872 316 212 315.381 212H312.373C311.754 212 311.317 211.872 311.061 211.616C310.805 211.36 310.677 210.955 310.677 210.4V205.952H307.157C306.474 205.952 305.973 206.048 305.653 206.24C305.354 206.432 305.205 206.763 305.205 207.232C305.205 207.68 305.312 208 305.525 208.192C305.76 208.384 306.133 208.48 306.645 208.48C307.008 208.48 307.424 208.395 307.893 208.224C307.957 208.203 308.032 208.192 308.117 208.192C308.352 208.192 308.501 208.341 308.565 208.64L309.045 211.072C309.066 211.136 309.077 211.221 309.077 211.328C309.077 211.477 309.034 211.595 308.949 211.68C308.864 211.765 308.714 211.851 308.501 211.936C307.477 212.299 306.229 212.48 304.757 212.48ZM306.325 193.568C304.938 193.568 303.861 193.227 303.093 192.544C302.304 191.861 301.909 190.827 301.909 189.44C301.909 188.011 302.357 186.933 303.253 186.208C304.149 185.483 305.322 185.12 306.773 185.12H314.069C314.346 185.12 314.528 185.163 314.613 185.248C314.698 185.333 314.741 185.504 314.741 185.76V187.84C314.741 188.096 314.698 188.256 314.613 188.32C314.528 188.384 314.346 188.416 314.069 188.416H307.253C306.378 188.416 305.941 188.747 305.941 189.408C305.941 190.069 306.293 190.4 306.997 190.4C307.36 190.4 307.626 190.336 307.797 190.208C307.968 190.059 308.053 189.824 308.053 189.504C308.053 189.184 308.224 189.024 308.565 189.024H310.805C311.125 189.024 311.285 189.184 311.285 189.504C311.285 189.781 311.349 189.963 311.477 190.048C311.605 190.133 311.818 190.176 312.117 190.176H313.749C314.026 190.176 314.208 190.219 314.293 190.304C314.378 190.389 314.421 190.56 314.421 190.816V192.992C314.421 193.205 314.378 193.355 314.293 193.44C314.186 193.525 314.005 193.568 313.749 193.568H312.437C311.178 193.568 310.25 193.184 309.653 192.416C309.248 192.821 308.8 193.12 308.309 193.312C307.797 193.483 307.136 193.568 306.325 193.568ZM321.845 212C321.226 212 320.789 211.872 320.533 211.616C320.277 211.36 320.149 210.955 320.149 210.4V201.664L319.477 199.968C319.285 199.499 319.189 199.104 319.189 198.784C319.189 198.4 319.381 198.048 319.765 197.728C320.746 196.896 322.026 196.192 323.605 195.616C325.184 195.019 326.858 194.72 328.629 194.72C331.744 194.72 333.984 195.381 335.349 196.704C336.714 198.005 337.397 199.776 337.397 202.016V210.4C337.397 210.955 337.269 211.36 337.013 211.616C336.757 211.872 336.32 212 335.701 212H332.597C331.978 212 331.541 211.872 331.285 211.616C331.029 211.36 330.901 210.955 330.901 210.4V201.888C330.901 201.013 330.72 200.373 330.357 199.968C330.016 199.563 329.429 199.36 328.597 199.36C327.424 199.36 326.517 199.595 325.877 200.064L326.229 200.672C326.378 200.949 326.485 201.227 326.549 201.504C326.613 201.76 326.645 202.08 326.645 202.464V210.4C326.645 210.955 326.506 211.36 326.229 211.616C325.973 211.872 325.536 212 324.917 212H321.845Z" fill="black"/>
<path d="M79.2344 215.2H338.773V216.8H79.2344V215.2Z" fill="black"/>
<path d="M4.944 299.24C3.67467 299.24 2.70933 298.968 2.048 298.424C1.39733 297.869 1.072 297.117 1.072 296.168V291.08C1.072 290.76 1.232 290.6 1.552 290.6H2.048C2.21867 290.6 2.34133 290.643 2.416 290.728C2.49067 290.803 2.528 290.92 2.528 291.08V296.312C2.528 296.909 2.736 297.363 3.152 297.672C3.568 297.971 4.16533 298.12 4.944 298.12C5.72267 298.12 6.32 297.971 6.736 297.672C7.152 297.363 7.36 296.909 7.36 296.312V288.28C7.36 288.12 7.39733 288.003 7.472 287.928C7.54667 287.843 7.66933 287.8 7.84 287.8H8.32C8.65067 287.8 8.816 287.96 8.816 288.28V296.168C8.816 297.117 8.48533 297.869 7.824 298.424C7.17333 298.968 6.21333 299.24 4.944 299.24ZM1.22987 288.968C1.05921 288.968 0.941875 288.936 0.877874 288.872C0.803208 288.808 0.765875 288.691 0.765875 288.52V288.28C0.765875 288.12 0.803208 288.003 0.877874 287.928C0.941875 287.853 1.05921 287.816 1.22987 287.816H4.74987V286.328C4.74987 286.104 4.86187 285.992 5.08587 285.992H5.69387C5.91787 285.992 6.02987 286.104 6.02987 286.328V288.184C6.02987 288.483 5.97654 288.691 5.86987 288.808C5.76321 288.915 5.55521 288.968 5.24587 288.968H1.22987ZM17.8254 299C17.5267 299 17.3774 298.845 17.3774 298.536V298.024C17.3774 297.331 17.6547 296.637 18.2094 295.944C18.7747 295.24 19.5854 294.611 20.6414 294.056C21.4307 293.64 22.0227 293.293 22.4174 293.016C22.8227 292.728 23.116 292.424 23.2974 292.104C23.4894 291.784 23.5854 291.389 23.5854 290.92C23.5854 290.28 23.3614 289.8 22.9134 289.48C22.4654 289.16 21.852 289 21.0734 289C20.54 289 20.0334 289.064 19.5534 289.192C19.0734 289.32 18.6734 289.485 18.3534 289.688C18.3 289.731 18.2467 289.752 18.1934 289.752C18.1294 289.752 18.076 289.709 18.0334 289.624L17.6974 289.032C17.6654 288.968 17.6494 288.915 17.6494 288.872C17.6494 288.797 17.692 288.733 17.7774 288.68C18.1294 288.435 18.6094 288.243 19.2174 288.104C19.8254 287.955 20.4867 287.88 21.2014 287.88C22.332 287.88 23.2494 288.147 23.9534 288.68C24.668 289.213 25.0254 289.96 25.0254 290.92C25.0254 291.763 24.7587 292.472 24.2254 293.048C23.692 293.613 22.8654 294.179 21.7454 294.744C20.8174 295.224 20.1027 295.725 19.6014 296.248C19.1 296.76 18.8494 297.288 18.8494 297.832H24.4654C24.636 297.832 24.7534 297.869 24.8174 297.944C24.892 298.008 24.9294 298.125 24.9294 298.296V298.568C24.9294 298.728 24.892 298.84 24.8174 298.904C24.7534 298.968 24.636 299 24.4654 299H17.8254ZM30.2769 299.24C29.5622 299.24 28.8742 299.16 28.2129 299C27.5622 298.851 27.0555 298.653 26.6929 298.408C26.6075 298.355 26.5649 298.291 26.5649 298.216C26.5649 298.173 26.5809 298.12 26.6129 298.056L26.9649 297.464C27.0075 297.389 27.0555 297.352 27.1089 297.352C27.1622 297.352 27.2155 297.373 27.2689 297.416C27.5995 297.619 28.0262 297.789 28.5489 297.928C29.0822 298.056 29.6582 298.12 30.2769 298.12C31.3009 298.12 32.0742 297.907 32.5969 297.48C33.1195 297.043 33.3809 296.392 33.3809 295.528C33.3809 294.557 33.1569 293.88 32.7089 293.496C32.2609 293.101 31.5195 292.904 30.4849 292.904C29.5355 292.904 28.7302 293.064 28.0689 293.384C27.9302 293.437 27.7969 293.464 27.6689 293.464C27.4449 293.464 27.2582 293.4 27.1089 293.272C26.9702 293.133 26.9062 292.952 26.9169 292.728L27.1889 288.568C27.1995 288.419 27.2369 288.307 27.3009 288.232C27.3755 288.157 27.4982 288.12 27.6689 288.12H33.8449C34.0155 288.12 34.1382 288.152 34.2129 288.216C34.2875 288.28 34.3249 288.392 34.3249 288.552V288.824C34.3249 288.995 34.2875 289.117 34.2129 289.192C34.1382 289.256 34.0155 289.288 33.8449 289.288H28.4689L28.2769 292.2C28.9595 291.955 29.7809 291.832 30.7409 291.832C33.4609 291.832 34.8209 293.064 34.8209 295.528C34.8209 296.275 34.6342 296.931 34.2609 297.496C33.8982 298.051 33.3755 298.483 32.6929 298.792C32.0102 299.091 31.2049 299.24 30.2769 299.24ZM40.0581 299.24C39.3435 299.24 38.6555 299.16 37.9941 299C37.3435 298.851 36.8368 298.653 36.4741 298.408C36.3888 298.355 36.3461 298.291 36.3461 298.216C36.3461 298.173 36.3621 298.12 36.3941 298.056L36.7461 297.464C36.7888 297.389 36.8368 297.352 36.8901 297.352C36.9435 297.352 36.9968 297.373 37.0501 297.416C37.3808 297.619 37.8075 297.789 38.3301 297.928C38.8635 298.056 39.4395 298.12 40.0581 298.12C41.0821 298.12 41.8555 297.907 42.3781 297.48C42.9008 297.043 43.1621 296.392 43.1621 295.528C43.1621 294.557 42.9381 293.88 42.4901 293.496C42.0421 293.101 41.3008 292.904 40.2661 292.904C39.3168 292.904 38.5115 293.064 37.8501 293.384C37.7115 293.437 37.5781 293.464 37.4501 293.464C37.2261 293.464 37.0395 293.4 36.8901 293.272C36.7515 293.133 36.6875 292.952 36.6981 292.728L36.9701 288.568C36.9808 288.419 37.0181 288.307 37.0821 288.232C37.1568 288.157 37.2795 288.12 37.4501 288.12H43.6261C43.7968 288.12 43.9195 288.152 43.9941 288.216C44.0688 288.28 44.1061 288.392 44.1061 288.552V288.824C44.1061 288.995 44.0688 289.117 43.9941 289.192C43.9195 289.256 43.7968 289.288 43.6261 289.288H38.2501L38.0581 292.2C38.7408 291.955 39.5621 291.832 40.5221 291.832C43.2421 291.832 44.6021 293.064 44.6021 295.528C44.6021 296.275 44.4155 296.931 44.0421 297.496C43.6795 298.051 43.1568 298.483 42.4741 298.792C41.7915 299.091 40.9861 299.24 40.0581 299.24ZM50.4154 299.24C49.1354 299.24 48.0954 298.851 47.2954 298.072C46.506 297.293 46.1114 296.04 46.1114 294.312C46.1114 292.733 46.3354 291.469 46.7834 290.52C47.2314 289.56 47.8074 288.883 48.5114 288.488C49.2154 288.083 49.994 287.88 50.8474 287.88C52.0634 287.88 53.0394 288.136 53.7754 288.648C53.8607 288.701 53.9034 288.765 53.9034 288.84C53.9034 288.883 53.8874 288.936 53.8554 289L53.5354 289.544C53.4927 289.64 53.4394 289.688 53.3754 289.688C53.3434 289.688 53.29 289.661 53.2154 289.608C52.906 289.395 52.5647 289.24 52.1914 289.144C51.8287 289.048 51.3807 289 50.8474 289C49.898 289 49.1514 289.304 48.6074 289.912C48.074 290.509 47.722 291.411 47.5514 292.616C47.914 292.2 48.362 291.896 48.8954 291.704C49.4287 291.501 50.0687 291.4 50.8154 291.4C51.5834 291.4 52.2714 291.555 52.8794 291.864C53.4874 292.163 53.962 292.595 54.3034 293.16C54.6554 293.715 54.8314 294.36 54.8314 295.096C54.8314 296.451 54.442 297.48 53.6634 298.184C52.8847 298.888 51.802 299.24 50.4154 299.24ZM50.4154 298.12C52.41 298.12 53.4074 297.112 53.4074 295.096C53.4074 294.264 53.1354 293.613 52.5914 293.144C52.058 292.675 51.3594 292.44 50.4954 292.44C50.026 292.44 49.5674 292.536 49.1194 292.728C48.6714 292.92 48.298 293.219 47.9994 293.624C47.7114 294.029 47.5674 294.541 47.5674 295.16C47.5674 296.195 47.8287 296.947 48.3514 297.416C48.874 297.885 49.562 298.12 50.4154 298.12Z" fill="black"/>
<path d="M12.74 30.3C10.58 30.3 8.98667 29.9533 7.96 29.26C7.84 29.18 7.78 29.0867 7.78 28.98C7.78 28.9 7.81333 28.8067 7.88 28.7L8.46 27.72C8.54 27.5867 8.61333 27.52 8.68 27.52C8.73333 27.52 8.82667 27.5533 8.96 27.62C9.4 27.86 9.90667 28.0533 10.48 28.2C11.0667 28.3467 11.7 28.42 12.38 28.42C13.4733 28.42 14.2733 28.2133 14.78 27.8C15.3 27.3733 15.56 26.7867 15.56 26.04C15.56 24.6533 14.7133 23.96 13.02 23.96H11.34C11.0733 23.96 10.88 23.9067 10.76 23.8C10.6533 23.68 10.6 23.4933 10.6 23.24V22.72C10.6 22.48 10.6533 22.3067 10.76 22.2C10.88 22.0933 11.0733 22.04 11.34 22.04H12.98C13.7 22.04 14.24 21.8533 14.6 21.48C14.96 21.0933 15.14 20.6067 15.14 20.02C15.14 18.6733 14.1933 18 12.3 18C11.1267 18 10.0933 18.2467 9.2 18.74C9.06667 18.8067 8.97333 18.84 8.92 18.84C8.85333 18.84 8.78 18.78 8.7 18.66L8.14 17.72C8.07333 17.6133 8.04 17.52 8.04 17.44C8.04 17.3333 8.1 17.24 8.22 17.16C8.68667 16.8267 9.30667 16.5667 10.08 16.38C10.8533 16.1933 11.7133 16.1 12.66 16.1C13.6867 16.1 14.5733 16.26 15.32 16.58C16.08 16.9 16.66 17.3533 17.06 17.94C17.4733 18.5133 17.68 19.1867 17.68 19.96C17.68 20.5867 17.5267 21.1667 17.22 21.7C16.9267 22.2333 16.5 22.6467 15.94 22.94C16.66 23.2067 17.1933 23.62 17.54 24.18C17.9 24.7267 18.08 25.3733 18.08 26.12C18.08 27.3733 17.6133 28.3867 16.68 29.16C15.76 29.92 14.4467 30.3 12.74 30.3ZM26.2555 30.3C24.0688 30.3 22.4155 29.6933 21.2955 28.48C20.1888 27.2533 19.6355 25.4933 19.6355 23.2C19.6355 20.9067 20.1888 19.1533 21.2955 17.94C22.4155 16.7133 24.0688 16.1 26.2555 16.1C28.4288 16.1 30.0755 16.7133 31.1955 17.94C32.3155 19.1667 32.8755 20.92 32.8755 23.2C32.8755 25.48 32.3155 27.2333 31.1955 28.46C30.0755 29.6867 28.4288 30.3 26.2555 30.3ZM28.5155 18.6C27.9421 18.2 27.1888 18 26.2555 18C24.8688 18 23.8355 18.4333 23.1555 19.3C22.4888 20.1667 22.1555 21.4667 22.1555 23.2C22.1555 24.5733 22.4355 25.6333 22.9955 26.38L28.5155 18.6ZM26.2555 28.42C27.6421 28.42 28.6688 27.9867 29.3355 27.12C30.0021 26.2533 30.3355 24.9467 30.3355 23.2C30.3355 21.8533 30.0688 20.8 29.5355 20.04L23.9955 27.86C24.5955 28.2333 25.3488 28.42 26.2555 28.42ZM39.6402 30.3C38.8135 30.3 38.0602 30.2067 37.3802 30.02C36.7135 29.8467 36.1468 29.6067 35.6802 29.3C35.5602 29.22 35.5002 29.1267 35.5002 29.02C35.5002 28.94 35.5335 28.8467 35.6002 28.74L36.1602 27.78C36.2402 27.66 36.3135 27.6 36.3802 27.6C36.4335 27.6 36.5268 27.6333 36.6602 27.7C37.4602 28.18 38.4068 28.42 39.5002 28.42C40.6335 28.42 41.5068 28.12 42.1202 27.52C42.7335 26.92 43.1135 26 43.2602 24.76C42.8068 25.1867 42.2735 25.4933 41.6602 25.68C41.0602 25.8533 40.3468 25.94 39.5202 25.94C38.4802 25.94 37.5735 25.7533 36.8002 25.38C36.0402 24.9933 35.4535 24.4533 35.0402 23.76C34.6402 23.0667 34.4402 22.2733 34.4402 21.38C34.4402 19.62 34.9335 18.3 35.9202 17.42C36.9068 16.54 38.3135 16.1 40.1402 16.1C41.7935 16.1 43.1135 16.6133 44.1002 17.64C45.1002 18.6533 45.6002 20.22 45.6002 22.34C45.6002 25.1667 45.0402 27.2 43.9202 28.44C42.8135 29.68 41.3868 30.3 39.6402 30.3ZM40.0802 24.3C40.5868 24.3 41.0602 24.1933 41.5002 23.98C41.9535 23.7533 42.3202 23.4267 42.6002 23C42.8802 22.56 43.0202 22.0333 43.0202 21.42C43.0202 20.2867 42.7668 19.4333 42.2602 18.86C41.7535 18.2867 41.0402 18 40.1202 18C39.0668 18 38.2735 18.2667 37.7402 18.8C37.2202 19.3333 36.9602 20.18 36.9602 21.34C36.9602 22.3267 37.2202 23.0667 37.7402 23.56C38.2735 24.0533 39.0535 24.3 40.0802 24.3ZM47.855 30C47.415 30 47.195 29.7733 47.195 29.32V28.54C47.195 27.6867 47.5217 26.8467 48.175 26.02C48.8417 25.1933 49.835 24.4067 51.155 23.66C52.1017 23.1267 52.795 22.7067 53.235 22.4C53.675 22.08 53.995 21.7467 54.195 21.4C54.4083 21.04 54.515 20.6 54.515 20.08C54.515 19.4 54.275 18.8867 53.795 18.54C53.315 18.18 52.6417 18 51.775 18C51.1483 18 50.555 18.08 49.995 18.24C49.4483 18.3867 48.975 18.5733 48.575 18.8C48.4417 18.8667 48.355 18.9 48.315 18.9C48.235 18.9 48.155 18.84 48.075 18.72L47.515 17.74C47.4483 17.6333 47.415 17.54 47.415 17.46C47.415 17.3533 47.475 17.26 47.595 17.18C48.0617 16.8467 48.695 16.5867 49.495 16.4C50.295 16.2 51.1683 16.1 52.115 16.1C53.595 16.1 54.7883 16.44 55.695 17.12C56.6017 17.7867 57.055 18.7333 57.055 19.96C57.055 20.9867 56.735 21.8533 56.095 22.56C55.4683 23.2667 54.475 23.9933 53.115 24.74C52.115 25.26 51.3217 25.8067 50.735 26.38C50.1483 26.9533 49.835 27.5133 49.795 28.06H56.275C56.5417 28.06 56.7283 28.12 56.835 28.24C56.9417 28.3467 56.995 28.5267 56.995 28.78V29.32C56.995 29.56 56.9417 29.7333 56.835 29.84C56.7283 29.9467 56.5417 30 56.275 30H47.855ZM63.8589 30.3C63.0322 30.3 62.2789 30.2067 61.5989 30.02C60.9322 29.8467 60.3656 29.6067 59.8989 29.3C59.7789 29.22 59.7189 29.1267 59.7189 29.02C59.7189 28.94 59.7522 28.8467 59.8189 28.74L60.3789 27.78C60.4589 27.66 60.5322 27.6 60.5989 27.6C60.6522 27.6 60.7456 27.6333 60.8789 27.7C61.6789 28.18 62.6256 28.42 63.7189 28.42C64.8522 28.42 65.7256 28.12 66.3389 27.52C66.9522 26.92 67.3322 26 67.4789 24.76C67.0256 25.1867 66.4922 25.4933 65.8789 25.68C65.2789 25.8533 64.5656 25.94 63.7389 25.94C62.6989 25.94 61.7922 25.7533 61.0189 25.38C60.2589 24.9933 59.6722 24.4533 59.2589 23.76C58.8589 23.0667 58.6589 22.2733 58.6589 21.38C58.6589 19.62 59.1522 18.3 60.1389 17.42C61.1256 16.54 62.5322 16.1 64.3589 16.1C66.0122 16.1 67.3322 16.6133 68.3189 17.64C69.3189 18.6533 69.8189 20.22 69.8189 22.34C69.8189 25.1667 69.2589 27.2 68.1389 28.44C67.0322 29.68 65.6056 30.3 63.8589 30.3ZM64.2989 24.3C64.8056 24.3 65.2789 24.1933 65.7189 23.98C66.1722 23.7533 66.5389 23.4267 66.8189 23C67.0989 22.56 67.2389 22.0333 67.2389 21.42C67.2389 20.2867 66.9856 19.4333 66.4789 18.86C65.9722 18.2867 65.2589 18 64.3389 18C63.2856 18 62.4922 18.2667 61.9589 18.8C61.4389 19.3333 61.1789 20.18 61.1789 21.34C61.1789 22.3267 61.4389 23.0667 61.9589 23.56C62.4922 24.0533 63.2722 24.3 64.2989 24.3Z" fill="black"/>
<path d="M7 32H70.5989V33H7V32Z" fill="black"/>
<path d="M8.86 151C8.59333 151 8.40667 150.953 8.3 150.86C8.19333 150.753 8.14 150.58 8.14 150.34V149.76C8.14 149.507 8.19333 149.327 8.3 149.22C8.40667 149.113 8.59333 149.06 8.86 149.06H10.82V140.2L9.1 141.24C8.99333 141.307 8.9 141.34 8.82 141.34C8.7 141.34 8.6 141.273 8.52 141.14L7.88 140.14C7.82667 140.047 7.8 139.96 7.8 139.88C7.8 139.747 7.87333 139.64 8.02 139.56L11.32 137.58C11.4133 137.513 11.5067 137.467 11.6 137.44C11.6933 137.413 11.82 137.4 11.98 137.4H12.64C13.1467 137.4 13.4 137.647 13.4 138.14V149.06H15.36C15.6267 149.06 15.8133 149.113 15.92 149.22C16.0267 149.327 16.08 149.507 16.08 149.76V150.34C16.08 150.58 16.0267 150.753 15.92 150.86C15.8133 150.953 15.6267 151 15.36 151H8.86ZM22.1531 151.3C21.2198 151.3 20.3265 151.2 19.4731 151C18.6198 150.787 17.9331 150.507 17.4131 150.16C17.2931 150.08 17.2331 149.993 17.2331 149.9C17.2331 149.82 17.2665 149.727 17.3331 149.62L17.9131 148.62C17.9798 148.5 18.0531 148.44 18.1331 148.44C18.1998 148.44 18.2931 148.48 18.4131 148.56C18.8398 148.813 19.3665 149.02 19.9931 149.18C20.6331 149.34 21.3265 149.42 22.0731 149.42C23.1931 149.42 24.0465 149.187 24.6331 148.72C25.2198 148.24 25.5131 147.527 25.5131 146.58C25.5131 145.527 25.2598 144.787 24.7531 144.36C24.2598 143.933 23.4665 143.72 22.3731 143.72C21.2798 143.72 20.3531 143.893 19.5931 144.24C19.3131 144.333 19.0798 144.38 18.8931 144.38C18.5465 144.38 18.2531 144.28 18.0131 144.08C17.7865 143.88 17.6798 143.6 17.6931 143.24L18.0331 138.08C18.0465 137.84 18.1065 137.667 18.2131 137.56C18.3198 137.453 18.5065 137.4 18.7731 137.4H26.6931C26.9598 137.4 27.1465 137.453 27.2531 137.56C27.3598 137.667 27.4131 137.847 27.4131 138.1V138.64C27.4131 138.893 27.3598 139.08 27.2531 139.2C27.1465 139.307 26.9598 139.36 26.6931 139.36H20.1931L19.9931 142.32C20.7798 142.067 21.7131 141.94 22.7931 141.94C26.2998 141.94 28.0531 143.487 28.0531 146.58C28.0531 147.54 27.8065 148.38 27.3131 149.1C26.8331 149.807 26.1465 150.353 25.2531 150.74C24.3731 151.113 23.3398 151.3 22.1531 151.3ZM34.5759 151.3C32.4159 151.3 30.8226 150.953 29.7959 150.26C29.6759 150.18 29.6159 150.087 29.6159 149.98C29.6159 149.9 29.6493 149.807 29.7159 149.7L30.2959 148.72C30.3759 148.587 30.4493 148.52 30.5159 148.52C30.5693 148.52 30.6626 148.553 30.7959 148.62C31.2359 148.86 31.7426 149.053 32.3159 149.2C32.9026 149.347 33.5359 149.42 34.2159 149.42C35.3093 149.42 36.1093 149.213 36.6159 148.8C37.1359 148.373 37.3959 147.787 37.3959 147.04C37.3959 145.653 36.5493 144.96 34.8559 144.96H33.1759C32.9093 144.96 32.7159 144.907 32.5959 144.8C32.4893 144.68 32.4359 144.493 32.4359 144.24V143.72C32.4359 143.48 32.4893 143.307 32.5959 143.2C32.7159 143.093 32.9093 143.04 33.1759 143.04H34.8159C35.5359 143.04 36.0759 142.853 36.4359 142.48C36.7959 142.093 36.9759 141.607 36.9759 141.02C36.9759 139.673 36.0293 139 34.1359 139C32.9626 139 31.9293 139.247 31.0359 139.74C30.9026 139.807 30.8093 139.84 30.7559 139.84C30.6893 139.84 30.6159 139.78 30.5359 139.66L29.9759 138.72C29.9093 138.613 29.8759 138.52 29.8759 138.44C29.8759 138.333 29.9359 138.24 30.0559 138.16C30.5226 137.827 31.1426 137.567 31.9159 137.38C32.6893 137.193 33.5493 137.1 34.4959 137.1C35.5226 137.1 36.4093 137.26 37.1559 137.58C37.9159 137.9 38.4959 138.353 38.8959 138.94C39.3093 139.513 39.5159 140.187 39.5159 140.96C39.5159 141.587 39.3626 142.167 39.0559 142.7C38.7626 143.233 38.3359 143.647 37.7759 143.94C38.4959 144.207 39.0293 144.62 39.3759 145.18C39.7359 145.727 39.9159 146.373 39.9159 147.12C39.9159 148.373 39.4493 149.387 38.5159 150.16C37.5959 150.92 36.2826 151.3 34.5759 151.3ZM47.0714 151.3C45.3114 151.3 43.9381 150.94 42.9514 150.22C41.9647 149.5 41.4714 148.487 41.4714 147.18C41.4714 146.42 41.6714 145.753 42.0714 145.18C42.4847 144.593 43.0447 144.173 43.7514 143.92C43.1247 143.64 42.6514 143.26 42.3314 142.78C42.0114 142.3 41.8514 141.74 41.8514 141.1C41.8514 139.82 42.2981 138.833 43.1914 138.14C44.0981 137.447 45.3914 137.1 47.0714 137.1C48.7514 137.1 50.0381 137.447 50.9314 138.14C51.8247 138.833 52.2714 139.82 52.2714 141.1C52.2714 141.74 52.1114 142.3 51.7914 142.78C51.4714 143.26 51.0047 143.64 50.3914 143.92C51.0981 144.173 51.6514 144.593 52.0514 145.18C52.4647 145.753 52.6714 146.42 52.6714 147.18C52.6714 148.487 52.1714 149.5 51.1714 150.22C50.1847 150.94 48.8181 151.3 47.0714 151.3ZM47.0714 143.02C47.9381 143.02 48.5981 142.873 49.0514 142.58C49.5047 142.273 49.7314 141.78 49.7314 141.1C49.7314 140.353 49.5114 139.82 49.0714 139.5C48.6447 139.167 47.9781 139 47.0714 139C46.1647 139 45.4914 139.167 45.0514 139.5C44.6114 139.82 44.3914 140.353 44.3914 141.1C44.3914 141.78 44.6181 142.273 45.0714 142.58C45.5247 142.873 46.1914 143.02 47.0714 143.02ZM47.0714 149.42C49.1114 149.42 50.1314 148.673 50.1314 147.18C50.1314 145.647 49.1114 144.88 47.0714 144.88C45.0181 144.88 43.9914 145.647 43.9914 147.18C43.9914 148.673 45.0181 149.42 47.0714 149.42ZM59.1453 151.3C58.212 151.3 57.3186 151.2 56.4653 151C55.612 150.787 54.9253 150.507 54.4053 150.16C54.2853 150.08 54.2253 149.993 54.2253 149.9C54.2253 149.82 54.2586 149.727 54.3253 149.62L54.9053 148.62C54.972 148.5 55.0453 148.44 55.1253 148.44C55.192 148.44 55.2853 148.48 55.4053 148.56C55.832 148.813 56.3586 149.02 56.9853 149.18C57.6253 149.34 58.3186 149.42 59.0653 149.42C60.1853 149.42 61.0386 149.187 61.6253 148.72C62.212 148.24 62.5053 147.527 62.5053 146.58C62.5053 145.527 62.252 144.787 61.7453 144.36C61.252 143.933 60.4586 143.72 59.3653 143.72C58.272 143.72 57.3453 143.893 56.5853 144.24C56.3053 144.333 56.072 144.38 55.8853 144.38C55.5386 144.38 55.2453 144.28 55.0053 144.08C54.7786 143.88 54.672 143.6 54.6853 143.24L55.0253 138.08C55.0386 137.84 55.0986 137.667 55.2053 137.56C55.312 137.453 55.4986 137.4 55.7653 137.4H63.6853C63.952 137.4 64.1386 137.453 64.2453 137.56C64.352 137.667 64.4053 137.847 64.4053 138.1V138.64C64.4053 138.893 64.352 139.08 64.2453 139.2C64.1386 139.307 63.952 139.36 63.6853 139.36H57.1853L56.9853 142.32C57.772 142.067 58.7053 141.94 59.7853 141.94C63.292 141.94 65.0453 143.487 65.0453 146.58C65.0453 147.54 64.7986 148.38 64.3053 149.1C63.8253 149.807 63.1386 150.353 62.2453 150.74C61.3653 151.113 60.332 151.3 59.1453 151.3Z" fill="black"/>
<path d="M7 153H65.8253V154H7V153Z" fill="black"/>
<path d="M354.046 96C353.606 96 353.386 95.7733 353.386 95.32V94.54C353.386 93.6867 353.713 92.8467 354.366 92.02C355.033 91.1933 356.026 90.4067 357.346 89.66C358.293 89.1267 358.986 88.7067 359.426 88.4C359.866 88.08 360.186 87.7467 360.386 87.4C360.6 87.04 360.706 86.6 360.706 86.08C360.706 85.4 360.466 84.8867 359.986 84.54C359.506 84.18 358.833 84 357.966 84C357.34 84 356.746 84.08 356.186 84.24C355.64 84.3867 355.166 84.5733 354.766 84.8C354.633 84.8667 354.546 84.9 354.506 84.9C354.426 84.9 354.346 84.84 354.266 84.72L353.706 83.74C353.64 83.6333 353.606 83.54 353.606 83.46C353.606 83.3533 353.666 83.26 353.786 83.18C354.253 82.8467 354.886 82.5867 355.686 82.4C356.486 82.2 357.36 82.1 358.306 82.1C359.786 82.1 360.98 82.44 361.886 83.12C362.793 83.7867 363.246 84.7333 363.246 85.96C363.246 86.9867 362.926 87.8533 362.286 88.56C361.66 89.2667 360.666 89.9933 359.306 90.74C358.306 91.26 357.513 91.8067 356.926 92.38C356.34 92.9533 356.026 93.5133 355.986 94.06H362.466C362.733 94.06 362.92 94.12 363.026 94.24C363.133 94.3467 363.186 94.5267 363.186 94.78V95.32C363.186 95.56 363.133 95.7333 363.026 95.84C362.92 95.9467 362.733 96 362.466 96H354.046ZM370.05 96.3C369.224 96.3 368.47 96.2067 367.79 96.02C367.124 95.8467 366.557 95.6067 366.09 95.3C365.97 95.22 365.91 95.1267 365.91 95.02C365.91 94.94 365.944 94.8467 366.01 94.74L366.57 93.78C366.65 93.66 366.724 93.6 366.79 93.6C366.844 93.6 366.937 93.6333 367.07 93.7C367.87 94.18 368.817 94.42 369.91 94.42C371.044 94.42 371.917 94.12 372.53 93.52C373.144 92.92 373.524 92 373.67 90.76C373.217 91.1867 372.684 91.4933 372.07 91.68C371.47 91.8533 370.757 91.94 369.93 91.94C368.89 91.94 367.984 91.7533 367.21 91.38C366.45 90.9933 365.864 90.4533 365.45 89.76C365.05 89.0667 364.85 88.2733 364.85 87.38C364.85 85.62 365.344 84.3 366.33 83.42C367.317 82.54 368.724 82.1 370.55 82.1C372.204 82.1 373.524 82.6133 374.51 83.64C375.51 84.6533 376.01 86.22 376.01 88.34C376.01 91.1667 375.45 93.2 374.33 94.44C373.224 95.68 371.797 96.3 370.05 96.3ZM370.49 90.3C370.997 90.3 371.47 90.1933 371.91 89.98C372.364 89.7533 372.73 89.4267 373.01 89C373.29 88.56 373.43 88.0333 373.43 87.42C373.43 86.2867 373.177 85.4333 372.67 84.86C372.164 84.2867 371.45 84 370.53 84C369.477 84 368.684 84.2667 368.15 84.8C367.63 85.3333 367.37 86.18 367.37 87.34C367.37 88.3267 367.63 89.0667 368.15 89.56C368.684 90.0533 369.464 90.3 370.49 90.3ZM379.265 96C379.078 96 378.985 95.92 378.985 95.76C378.985 95.68 379.012 95.5933 379.065 95.5L384.885 84.36H378.025C377.772 84.36 377.598 84.3067 377.505 84.2C377.412 84.0933 377.365 83.9133 377.365 83.66V83.06C377.365 82.82 377.412 82.6533 377.505 82.56C377.598 82.4533 377.772 82.4 378.025 82.4H387.205C387.525 82.4 387.745 82.4533 387.865 82.56C387.998 82.6667 388.065 82.8533 388.065 83.12C388.065 83.2933 388.018 83.4867 387.925 83.7C387.845 83.9133 387.752 84.1133 387.645 84.3C387.538 84.4867 387.472 84.6133 387.445 84.68L381.705 95.72C381.652 95.8267 381.585 95.9 381.505 95.94C381.438 95.98 381.338 96 381.205 96H379.265ZM391.121 96C390.934 96 390.841 95.92 390.841 95.76C390.841 95.68 390.867 95.5933 390.921 95.5L396.741 84.36H389.881C389.627 84.36 389.454 84.3067 389.361 84.2C389.267 84.0933 389.221 83.9133 389.221 83.66V83.06C389.221 82.82 389.267 82.6533 389.361 82.56C389.454 82.4533 389.627 82.4 389.881 82.4H399.061C399.381 82.4 399.601 82.4533 399.721 82.56C399.854 82.6667 399.921 82.8533 399.921 83.12C399.921 83.2933 399.874 83.4867 399.781 83.7C399.701 83.9133 399.607 84.1133 399.501 84.3C399.394 84.4867 399.327 84.6133 399.301 84.68L393.561 95.72C393.507 95.8267 393.441 95.9 393.361 95.94C393.294 95.98 393.194 96 393.061 96H391.121ZM401.976 96C401.536 96 401.316 95.7733 401.316 95.32V94.54C401.316 93.6867 401.643 92.8467 402.296 92.02C402.963 91.1933 403.956 90.4067 405.276 89.66C406.223 89.1267 406.916 88.7067 407.356 88.4C407.796 88.08 408.116 87.7467 408.316 87.4C408.529 87.04 408.636 86.6 408.636 86.08C408.636 85.4 408.396 84.8867 407.916 84.54C407.436 84.18 406.763 84 405.896 84C405.269 84 404.676 84.08 404.116 84.24C403.569 84.3867 403.096 84.5733 402.696 84.8C402.563 84.8667 402.476 84.9 402.436 84.9C402.356 84.9 402.276 84.84 402.196 84.72L401.636 83.74C401.569 83.6333 401.536 83.54 401.536 83.46C401.536 83.3533 401.596 83.26 401.716 83.18C402.183 82.8467 402.816 82.5867 403.616 82.4C404.416 82.2 405.289 82.1 406.236 82.1C407.716 82.1 408.909 82.44 409.816 83.12C410.723 83.7867 411.176 84.7333 411.176 85.96C411.176 86.9867 410.856 87.8533 410.216 88.56C409.589 89.2667 408.596 89.9933 407.236 90.74C406.236 91.26 405.443 91.8067 404.856 92.38C404.269 92.9533 403.956 93.5133 403.916 94.06H410.396C410.663 94.06 410.849 94.12 410.956 94.24C411.063 94.3467 411.116 94.5267 411.116 94.78V95.32C411.116 95.56 411.063 95.7333 410.956 95.84C410.849 95.9467 410.663 96 410.396 96H401.976Z" fill="black"/>
<path d="M352.566 98H411.996V99H352.566V98Z" fill="black"/>
<path d="M357.551 195C357.285 195 357.098 194.953 356.991 194.86C356.885 194.753 356.831 194.58 356.831 194.34V193.76C356.831 193.507 356.885 193.327 356.991 193.22C357.098 193.113 357.285 193.06 357.551 193.06H359.511V184.2L357.791 185.24C357.685 185.307 357.591 185.34 357.511 185.34C357.391 185.34 357.291 185.273 357.211 185.14L356.571 184.14C356.518 184.047 356.491 183.96 356.491 183.88C356.491 183.747 356.565 183.64 356.711 183.56L360.011 181.58C360.105 181.513 360.198 181.467 360.291 181.44C360.385 181.413 360.511 181.4 360.671 181.4H361.331C361.838 181.4 362.091 181.647 362.091 182.14V193.06H364.051C364.318 193.06 364.505 193.113 364.611 193.22C364.718 193.327 364.771 193.507 364.771 193.76V194.34C364.771 194.58 364.718 194.753 364.611 194.86C364.505 194.953 364.318 195 364.051 195H357.551ZM370.845 195.3C369.911 195.3 369.018 195.2 368.165 195C367.311 194.787 366.625 194.507 366.105 194.16C365.985 194.08 365.925 193.993 365.925 193.9C365.925 193.82 365.958 193.727 366.025 193.62L366.605 192.62C366.671 192.5 366.745 192.44 366.825 192.44C366.891 192.44 366.985 192.48 367.105 192.56C367.531 192.813 368.058 193.02 368.685 193.18C369.325 193.34 370.018 193.42 370.765 193.42C371.885 193.42 372.738 193.187 373.325 192.72C373.911 192.24 374.205 191.527 374.205 190.58C374.205 189.527 373.951 188.787 373.445 188.36C372.951 187.933 372.158 187.72 371.065 187.72C369.971 187.72 369.045 187.893 368.285 188.24C368.005 188.333 367.771 188.38 367.585 188.38C367.238 188.38 366.945 188.28 366.705 188.08C366.478 187.88 366.371 187.6 366.385 187.24L366.725 182.08C366.738 181.84 366.798 181.667 366.905 181.56C367.011 181.453 367.198 181.4 367.465 181.4H375.385C375.651 181.4 375.838 181.453 375.945 181.56C376.051 181.667 376.105 181.847 376.105 182.1V182.64C376.105 182.893 376.051 183.08 375.945 183.2C375.838 183.307 375.651 183.36 375.385 183.36H368.885L368.685 186.32C369.471 186.067 370.405 185.94 371.485 185.94C374.991 185.94 376.745 187.487 376.745 190.58C376.745 191.54 376.498 192.38 376.005 193.1C375.525 193.807 374.838 194.353 373.945 194.74C373.065 195.113 372.031 195.3 370.845 195.3ZM379.387 195C379.121 195 378.934 194.953 378.827 194.86C378.721 194.753 378.667 194.58 378.667 194.34V193.76C378.667 193.507 378.721 193.327 378.827 193.22C378.934 193.113 379.121 193.06 379.387 193.06H381.347V184.2L379.627 185.24C379.521 185.307 379.427 185.34 379.347 185.34C379.227 185.34 379.127 185.273 379.047 185.14L378.407 184.14C378.354 184.047 378.327 183.96 378.327 183.88C378.327 183.747 378.401 183.64 378.547 183.56L381.847 181.58C381.941 181.513 382.034 181.467 382.127 181.44C382.221 181.413 382.347 181.4 382.507 181.4H383.167C383.674 181.4 383.927 181.647 383.927 182.14V193.06H385.887C386.154 193.06 386.341 193.113 386.447 193.22C386.554 193.327 386.607 193.507 386.607 193.76V194.34C386.607 194.58 386.554 194.753 386.447 194.86C386.341 194.953 386.154 195 385.887 195H379.387ZM394.96 195C394.694 195 394.5 194.947 394.38 194.84C394.274 194.733 394.22 194.56 394.22 194.32V192.04H387.88C387.534 192.04 387.36 191.88 387.36 191.56V190.74C387.36 190.553 387.38 190.413 387.42 190.32C387.46 190.213 387.534 190.087 387.64 189.94L394.38 181.78C394.5 181.633 394.607 181.533 394.7 181.48C394.794 181.427 394.94 181.4 395.14 181.4H396.02C396.287 181.4 396.48 181.46 396.6 181.58C396.72 181.7 396.78 181.887 396.78 182.14V190.1H398.18C398.447 190.1 398.634 190.16 398.74 190.28C398.847 190.387 398.9 190.567 398.9 190.82V191.36C398.9 191.6 398.847 191.773 398.74 191.88C398.634 191.987 398.447 192.04 398.18 192.04H396.78V194.32C396.78 194.56 396.72 194.733 396.6 194.84C396.494 194.947 396.3 195 396.02 195H394.96ZM394.64 190.1V184.42L390.04 190.1H394.64ZM405.265 195.3C404.438 195.3 403.685 195.207 403.005 195.02C402.338 194.847 401.772 194.607 401.305 194.3C401.185 194.22 401.125 194.127 401.125 194.02C401.125 193.94 401.158 193.847 401.225 193.74L401.785 192.78C401.865 192.66 401.938 192.6 402.005 192.6C402.058 192.6 402.152 192.633 402.285 192.7C403.085 193.18 404.032 193.42 405.125 193.42C406.258 193.42 407.132 193.12 407.745 192.52C408.358 191.92 408.738 191 408.885 189.76C408.432 190.187 407.898 190.493 407.285 190.68C406.685 190.853 405.972 190.94 405.145 190.94C404.105 190.94 403.198 190.753 402.425 190.38C401.665 189.993 401.078 189.453 400.665 188.76C400.265 188.067 400.065 187.273 400.065 186.38C400.065 184.62 400.558 183.3 401.545 182.42C402.532 181.54 403.938 181.1 405.765 181.1C407.418 181.1 408.738 181.613 409.725 182.64C410.725 183.653 411.225 185.22 411.225 187.34C411.225 190.167 410.665 192.2 409.545 193.44C408.438 194.68 407.012 195.3 405.265 195.3ZM405.705 189.3C406.212 189.3 406.685 189.193 407.125 188.98C407.578 188.753 407.945 188.427 408.225 188C408.505 187.56 408.645 187.033 408.645 186.42C408.645 185.287 408.392 184.433 407.885 183.86C407.378 183.287 406.665 183 405.745 183C404.692 183 403.898 183.267 403.365 183.8C402.845 184.333 402.585 185.18 402.585 186.34C402.585 187.327 402.845 188.067 403.365 188.56C403.898 189.053 404.678 189.3 405.705 189.3Z" fill="black"/>
<path d="M355.691 197H412.005V198H355.691V197Z" fill="black"/>
<path d="M369.96 299.24C368.69 299.24 367.725 298.968 367.064 298.424C366.413 297.869 366.088 297.117 366.088 296.168V291.08C366.088 290.76 366.248 290.6 366.568 290.6H367.064C367.234 290.6 367.357 290.643 367.432 290.728C367.506 290.803 367.544 290.92 367.544 291.08V296.312C367.544 296.909 367.752 297.363 368.168 297.672C368.584 297.971 369.181 298.12 369.96 298.12C370.738 298.12 371.336 297.971 371.752 297.672C372.168 297.363 372.376 296.909 372.376 296.312V288.28C372.376 288.12 372.413 288.003 372.488 287.928C372.562 287.843 372.685 287.8 372.856 287.8H373.336C373.666 287.8 373.832 287.96 373.832 288.28V296.168C373.832 297.117 373.501 297.869 372.84 298.424C372.189 298.968 371.229 299.24 369.96 299.24ZM366.245 288.968C366.075 288.968 365.957 288.936 365.893 288.872C365.819 288.808 365.781 288.691 365.781 288.52V288.28C365.781 288.12 365.819 288.003 365.893 287.928C365.957 287.853 366.075 287.816 366.245 287.816H369.765V286.328C369.765 286.104 369.877 285.992 370.101 285.992H370.709C370.933 285.992 371.045 286.104 371.045 286.328V288.184C371.045 288.483 370.992 288.691 370.885 288.808C370.779 288.915 370.571 288.968 370.261 288.968H366.245ZM382.841 299C382.542 299 382.393 298.845 382.393 298.536V298.024C382.393 297.331 382.67 296.637 383.225 295.944C383.79 295.24 384.601 294.611 385.657 294.056C386.446 293.64 387.038 293.293 387.433 293.016C387.838 292.728 388.132 292.424 388.313 292.104C388.505 291.784 388.601 291.389 388.601 290.92C388.601 290.28 388.377 289.8 387.929 289.48C387.481 289.16 386.868 289 386.089 289C385.556 289 385.049 289.064 384.569 289.192C384.089 289.32 383.689 289.485 383.369 289.688C383.316 289.731 383.262 289.752 383.209 289.752C383.145 289.752 383.092 289.709 383.049 289.624L382.713 289.032C382.681 288.968 382.665 288.915 382.665 288.872C382.665 288.797 382.708 288.733 382.793 288.68C383.145 288.435 383.625 288.243 384.233 288.104C384.841 287.955 385.502 287.88 386.217 287.88C387.348 287.88 388.265 288.147 388.969 288.68C389.684 289.213 390.041 289.96 390.041 290.92C390.041 291.763 389.774 292.472 389.241 293.048C388.708 293.613 387.881 294.179 386.761 294.744C385.833 295.224 385.118 295.725 384.617 296.248C384.116 296.76 383.865 297.288 383.865 297.832H389.481C389.652 297.832 389.769 297.869 389.833 297.944C389.908 298.008 389.945 298.125 389.945 298.296V298.568C389.945 298.728 389.908 298.84 389.833 298.904C389.769 298.968 389.652 299 389.481 299H382.841ZM395.293 299.24C394.578 299.24 393.89 299.16 393.229 299C392.578 298.851 392.071 298.653 391.709 298.408C391.623 298.355 391.581 298.291 391.581 298.216C391.581 298.173 391.597 298.12 391.629 298.056L391.981 297.464C392.023 297.389 392.071 297.352 392.125 297.352C392.178 297.352 392.231 297.373 392.285 297.416C392.615 297.619 393.042 297.789 393.565 297.928C394.098 298.056 394.674 298.12 395.293 298.12C396.317 298.12 397.09 297.907 397.613 297.48C398.135 297.043 398.397 296.392 398.397 295.528C398.397 294.557 398.173 293.88 397.725 293.496C397.277 293.101 396.535 292.904 395.501 292.904C394.551 292.904 393.746 293.064 393.085 293.384C392.946 293.437 392.813 293.464 392.685 293.464C392.461 293.464 392.274 293.4 392.125 293.272C391.986 293.133 391.922 292.952 391.933 292.728L392.205 288.568C392.215 288.419 392.253 288.307 392.317 288.232C392.391 288.157 392.514 288.12 392.685 288.12H398.861C399.031 288.12 399.154 288.152 399.229 288.216C399.303 288.28 399.341 288.392 399.341 288.552V288.824C399.341 288.995 399.303 289.117 399.229 289.192C399.154 289.256 399.031 289.288 398.861 289.288H393.485L393.293 292.2C393.975 291.955 394.797 291.832 395.757 291.832C398.477 291.832 399.837 293.064 399.837 295.528C399.837 296.275 399.65 296.931 399.277 297.496C398.914 298.051 398.391 298.483 397.709 298.792C397.026 299.091 396.221 299.24 395.293 299.24ZM405.65 299.24C404.37 299.24 403.33 298.851 402.53 298.072C401.74 297.293 401.346 296.04 401.346 294.312C401.346 292.733 401.57 291.469 402.018 290.52C402.466 289.56 403.042 288.883 403.746 288.488C404.45 288.083 405.228 287.88 406.082 287.88C407.298 287.88 408.274 288.136 409.01 288.648C409.095 288.701 409.138 288.765 409.138 288.84C409.138 288.883 409.122 288.936 409.09 289L408.77 289.544C408.727 289.64 408.674 289.688 408.61 289.688C408.578 289.688 408.524 289.661 408.45 289.608C408.14 289.395 407.799 289.24 407.426 289.144C407.063 289.048 406.615 289 406.082 289C405.132 289 404.386 289.304 403.842 289.912C403.308 290.509 402.956 291.411 402.786 292.616C403.148 292.2 403.596 291.896 404.13 291.704C404.663 291.501 405.303 291.4 406.05 291.4C406.818 291.4 407.506 291.555 408.114 291.864C408.722 292.163 409.196 292.595 409.538 293.16C409.89 293.715 410.066 294.36 410.066 295.096C410.066 296.451 409.676 297.48 408.898 298.184C408.119 298.888 407.036 299.24 405.65 299.24ZM405.65 298.12C407.644 298.12 408.642 297.112 408.642 295.096C408.642 294.264 408.37 293.613 407.826 293.144C407.292 292.675 406.594 292.44 405.73 292.44C405.26 292.44 404.802 292.536 404.354 292.728C403.906 292.92 403.532 293.219 403.234 293.624C402.946 294.029 402.802 294.541 402.802 295.16C402.802 296.195 403.063 296.947 403.586 297.416C404.108 297.885 404.796 298.12 405.65 298.12ZM412.029 299C411.73 299 411.581 298.845 411.581 298.536V298.024C411.581 297.331 411.858 296.637 412.413 295.944C412.978 295.24 413.789 294.611 414.845 294.056C415.634 293.64 416.226 293.293 416.621 293.016C417.026 292.728 417.319 292.424 417.501 292.104C417.693 291.784 417.789 291.389 417.789 290.92C417.789 290.28 417.565 289.8 417.117 289.48C416.669 289.16 416.055 289 415.277 289C414.743 289 414.237 289.064 413.757 289.192C413.277 289.32 412.877 289.485 412.557 289.688C412.503 289.731 412.45 289.752 412.397 289.752C412.333 289.752 412.279 289.709 412.237 289.624L411.901 289.032C411.869 288.968 411.853 288.915 411.853 288.872C411.853 288.797 411.895 288.733 411.981 288.68C412.333 288.435 412.813 288.243 413.421 288.104C414.029 287.955 414.69 287.88 415.405 287.88C416.535 287.88 417.453 288.147 418.157 288.68C418.871 289.213 419.229 289.96 419.229 290.92C419.229 291.763 418.962 292.472 418.429 293.048C417.895 293.613 417.069 294.179 415.949 294.744C415.021 295.224 414.306 295.725 413.805 296.248C413.303 296.76 413.053 297.288 413.053 297.832H418.669C418.839 297.832 418.957 297.869 419.021 297.944C419.095 298.008 419.133 298.125 419.133 298.296V298.568C419.133 298.728 419.095 298.84 419.021 298.904C418.957 298.968 418.839 299 418.669 299H412.029Z" fill="black"/>
</svg>
