<svg width="288" height="289" viewBox="0 0 288 289" fill="none" xmlns="http://www.w3.org/2000/svg">
<circle cx="155" cy="155.014" r="133" fill="#F8D105"/>
<rect x="127.483" width="92.6414" height="93.5587" fill="#F85900"/>
<rect x="155" y="67.8755" width="92.6414" height="92.6414" transform="rotate(90 155 67.8755)" fill="#F85900"/>
<path d="M192.607 102.731L183.947 117.731L201.267 117.731L192.607 102.731ZM192.607 174.276L201.267 159.276L183.947 159.276L192.607 174.276ZM191.107 116.231L191.107 160.776L194.107 160.776L194.107 116.231L191.107 116.231Z" fill="black"/>
<path d="M52.9822 246.54C51.1342 246.54 49.3702 246.324 47.6902 245.892C46.0102 245.46 44.6302 244.872 43.5502 244.128C43.2862 243.96 43.1542 243.744 43.1542 243.48C43.1542 243.312 43.2382 243.06 43.4062 242.724L44.9542 240.06C45.1222 239.748 45.3142 239.592 45.5302 239.592C45.7222 239.592 45.9742 239.688 46.2862 239.88C48.0382 240.888 50.1262 241.392 52.5502 241.392C53.9902 241.392 55.1062 241.08 55.8982 240.456C56.7142 239.832 57.1222 238.908 57.1222 237.684C57.1222 236.34 56.7862 235.404 56.1142 234.876C55.4422 234.324 54.4702 234.048 53.1982 234.048C52.4302 234.048 51.6742 234.12 50.9302 234.264C50.1862 234.384 49.5622 234.552 49.0582 234.768C48.4582 234.984 47.8222 235.092 47.1502 235.092C46.2142 235.092 45.4462 234.852 44.8462 234.372C44.2462 233.892 43.9702 233.196 44.0182 232.284L44.5942 223.14C44.6422 222.588 44.7862 222.18 45.0262 221.916C45.2902 221.652 45.7582 221.52 46.4302 221.52H61.4062C62.0782 221.52 62.5342 221.664 62.7742 221.952C63.0382 222.216 63.1702 222.672 63.1702 223.32V225.012C63.1702 225.66 63.0382 226.128 62.7742 226.416C62.5342 226.68 62.0782 226.812 61.4062 226.812H50.4982L50.3182 229.728C50.7982 229.608 51.4342 229.512 52.2262 229.44C53.0182 229.344 53.7262 229.296 54.3502 229.296C57.5422 229.296 60.0142 229.944 61.7662 231.24C63.5182 232.536 64.3942 234.684 64.3942 237.684C64.3942 239.508 63.9022 241.092 62.9182 242.436C61.9582 243.756 60.6142 244.776 58.8862 245.496C57.1582 246.192 55.1902 246.54 52.9822 246.54ZM67.9489 246C67.3969 246 66.9409 245.808 66.5809 245.424C66.2209 245.016 66.0409 244.536 66.0409 243.984V243.192C66.0409 242.616 66.2089 242.136 66.5449 241.752C66.9049 241.344 67.3729 241.14 67.9489 241.14H68.8129C69.3649 241.14 69.8209 241.344 70.1809 241.752C70.5409 242.136 70.7209 242.616 70.7209 243.192V243.984C70.7209 244.536 70.5409 245.016 70.1809 245.424C69.8209 245.808 69.3649 246 68.8129 246H67.9489ZM83.169 246.54C79.785 246.54 77.133 245.856 75.213 244.488C73.317 243.12 72.369 241.188 72.369 238.692C72.369 237.516 72.669 236.448 73.269 235.488C73.869 234.504 74.697 233.76 75.753 233.256C74.841 232.752 74.145 232.104 73.665 231.312C73.209 230.496 72.981 229.596 72.981 228.612C72.981 226.164 73.857 224.28 75.609 222.96C77.361 221.64 79.881 220.98 83.169 220.98C86.457 220.98 88.965 221.64 90.693 222.96C92.445 224.28 93.321 226.164 93.321 228.612C93.321 229.596 93.093 230.496 92.637 231.312C92.181 232.104 91.497 232.752 90.585 233.256C91.641 233.784 92.469 234.54 93.069 235.524C93.669 236.484 93.969 237.54 93.969 238.692C93.969 241.188 93.009 243.12 91.089 244.488C89.169 245.856 86.529 246.54 83.169 246.54ZM83.169 230.844C85.089 230.844 86.049 230.112 86.049 228.648C86.049 227.76 85.809 227.124 85.329 226.74C84.873 226.356 84.153 226.164 83.169 226.164C82.185 226.164 81.453 226.356 80.973 226.74C80.493 227.124 80.253 227.76 80.253 228.648C80.253 230.112 81.225 230.844 83.169 230.844ZM83.169 241.392C85.545 241.392 86.733 240.48 86.733 238.656C86.733 237.744 86.433 237.048 85.833 236.568C85.233 236.088 84.345 235.848 83.169 235.848C80.793 235.848 79.605 236.784 79.605 238.656C79.605 240.48 80.793 241.392 83.169 241.392ZM127.757 244.632C127.925 244.824 128.009 245.04 128.009 245.28C128.009 245.496 127.937 245.676 127.793 245.82C127.649 245.94 127.457 246 127.217 246H121.637C121.301 246 121.049 245.976 120.881 245.928C120.737 245.856 120.581 245.724 120.413 245.532L115.517 238.872V244.2C115.517 244.824 115.373 245.28 115.085 245.568C114.797 245.856 114.305 246 113.609 246H110.117C109.421 246 108.929 245.856 108.641 245.568C108.377 245.28 108.245 244.824 108.245 244.2V223.356C108.245 222.732 108.389 222.276 108.677 221.988C108.965 221.676 109.445 221.52 110.117 221.52H113.609C114.305 221.52 114.797 221.676 115.085 221.988C115.373 222.276 115.517 222.732 115.517 223.356V235.416L120.269 229.224C120.413 229.032 120.569 228.9 120.737 228.828C120.905 228.756 121.157 228.72 121.493 228.72H127.073C127.313 228.72 127.493 228.792 127.613 228.936C127.757 229.056 127.829 229.224 127.829 229.44C127.829 229.68 127.745 229.896 127.577 230.088L121.421 237.144L127.757 244.632ZM131.599 246C130.903 246 130.411 245.856 130.123 245.568C129.835 245.28 129.691 244.824 129.691 244.2V229.836C129.691 229.404 129.763 229.116 129.907 228.972C130.075 228.804 130.411 228.72 130.915 228.72H134.335C134.623 228.72 134.839 228.768 134.983 228.864C135.151 228.936 135.247 229.08 135.271 229.296L135.451 230.412C136.123 229.716 136.879 229.176 137.719 228.792C138.559 228.384 139.543 228.18 140.671 228.18C141.679 228.18 142.543 228.36 143.263 228.72C143.983 229.08 144.595 229.632 145.099 230.376C145.747 229.68 146.491 229.14 147.331 228.756C148.195 228.372 149.227 228.18 150.427 228.18C152.275 228.18 153.715 228.72 154.747 229.8C155.779 230.856 156.295 232.464 156.295 234.624V244.2C156.295 244.824 156.151 245.28 155.863 245.568C155.575 245.856 155.083 246 154.387 246H151.471C150.775 246 150.283 245.856 149.995 245.568C149.707 245.28 149.563 244.824 149.563 244.2V235.092C149.563 234.396 149.431 233.892 149.167 233.58C148.927 233.268 148.555 233.112 148.051 233.112C147.475 233.112 147.019 233.304 146.683 233.688C146.371 234.048 146.215 234.564 146.215 235.236V244.2C146.215 244.824 146.071 245.28 145.783 245.568C145.495 245.856 145.003 246 144.307 246H141.679C140.983 246 140.491 245.856 140.203 245.568C139.915 245.28 139.771 244.824 139.771 244.2V235.02C139.771 233.748 139.279 233.112 138.295 233.112C137.695 233.112 137.227 233.304 136.891 233.688C136.555 234.072 136.387 234.6 136.387 235.272V244.2C136.387 244.824 136.243 245.28 135.955 245.568C135.691 245.856 135.211 246 134.515 246H131.599Z" fill="black"/>
<path d="M42.3262 249.6H157.663V251.4H42.3262V249.6Z" fill="black"/>
<path d="M47.3418 206C47.0858 206 46.9098 205.952 46.8138 205.856C46.7178 205.76 46.6698 205.584 46.6698 205.328V204.272C46.6698 204.032 46.7178 203.864 46.8138 203.768C46.9098 203.672 47.0778 203.624 47.3178 203.624H48.0378C48.2298 203.624 48.3578 203.592 48.4218 203.528C48.4858 203.464 48.5178 203.328 48.5178 203.12V198.08L47.5578 196.616C47.4138 196.392 47.3418 196.16 47.3418 195.92C47.3418 195.712 47.4458 195.512 47.6538 195.32C48.3898 194.664 49.2778 194.12 50.3178 193.688C51.3578 193.256 52.5418 193.04 53.8698 193.04C55.9818 193.04 57.5258 193.504 58.5018 194.432C59.4938 195.36 59.9898 196.6 59.9898 198.152V205.136C59.9898 205.44 59.9258 205.664 59.7978 205.808C59.6698 205.936 59.4458 206 59.1258 206H57.7818C57.4618 206 57.2378 205.936 57.1098 205.808C56.9818 205.664 56.9178 205.44 56.9178 205.136V198.2C56.9178 197.24 56.6698 196.528 56.1738 196.064C55.6938 195.584 54.9338 195.344 53.8938 195.344C52.5978 195.344 51.5098 195.704 50.6298 196.424L51.1578 197.24C51.3338 197.512 51.4458 197.76 51.4938 197.984C51.5578 198.192 51.5898 198.504 51.5898 198.92V204.704C51.5898 205.184 51.5098 205.52 51.3498 205.712C51.2058 205.904 50.8938 206 50.4138 206H47.3418ZM68.1391 206C67.5951 206 67.3231 205.736 67.3231 205.208V197.648C67.3231 196.816 67.1631 196.224 66.8431 195.872C66.5391 195.504 65.9871 195.32 65.1871 195.32C64.7871 195.32 64.3711 195.368 63.9391 195.464C63.5071 195.56 63.1471 195.68 62.8591 195.824C62.7471 195.888 62.6431 195.92 62.5471 195.92C62.4351 195.92 62.3391 195.832 62.2591 195.656L61.6831 194.36C61.6511 194.232 61.6351 194.16 61.6351 194.144C61.6351 194.032 61.7471 193.912 61.9711 193.784C62.9151 193.288 64.1151 193.04 65.5711 193.04C67.2031 193.04 68.4111 193.408 69.1951 194.144C69.9951 194.88 70.3951 196.016 70.3951 197.552V205.208C70.3951 205.736 70.1151 206 69.5551 206H68.1391ZM78.8334 206.36C77.0094 206.36 75.5374 206.032 74.4174 205.376C73.3134 204.704 72.7614 203.68 72.7614 202.304C72.7614 200.736 73.4174 199.728 74.7294 199.28C74.0894 198.992 73.6174 198.616 73.3134 198.152C73.0094 197.688 72.8574 197.104 72.8574 196.4C72.8574 195.792 73.0094 195.232 73.3134 194.72C73.6174 194.208 74.0494 193.8 74.6094 193.496C75.1854 193.192 75.8494 193.04 76.6014 193.04C77.5614 193.04 78.3934 193.216 79.0974 193.568C79.3054 193.68 79.4094 193.808 79.4094 193.952L79.3614 194.168L79.0254 195.128C78.9614 195.304 78.8574 195.392 78.7134 195.392C78.6334 195.392 78.5694 195.376 78.5214 195.344C78.1854 195.152 77.7774 195.056 77.2974 195.056C76.8174 195.056 76.4414 195.2 76.1694 195.488C75.9134 195.776 75.7854 196.16 75.7854 196.64C75.7854 197.216 75.9614 197.648 76.3134 197.936C76.6814 198.208 77.2334 198.344 77.9694 198.344H78.4734C78.6654 198.344 78.8014 198.384 78.8814 198.464C78.9614 198.528 79.0014 198.656 79.0014 198.848V199.688C79.0014 200.056 78.8174 200.24 78.4494 200.24H78.0654C77.2654 200.24 76.6814 200.392 76.3134 200.696C75.9614 200.984 75.7854 201.472 75.7854 202.16C75.7854 203.456 76.7934 204.104 78.8094 204.104C79.9134 204.104 80.7054 203.84 81.1854 203.312C81.6814 202.784 81.9294 201.952 81.9294 200.816V194.288C81.9294 193.984 81.9934 193.76 82.1214 193.616C82.2654 193.472 82.4974 193.4 82.8174 193.4H84.0654C84.3854 193.4 84.6174 193.472 84.7614 193.616C84.9054 193.76 84.9774 193.984 84.9774 194.288V200.816C84.9774 204.512 82.9294 206.36 78.8334 206.36ZM90.9389 206C90.3469 206 89.9229 205.864 89.6669 205.592C89.4269 205.32 89.3069 204.904 89.3069 204.344V197.552C89.3069 196.976 89.4509 196.448 89.7389 195.968C90.0269 195.488 90.4349 194.952 90.9629 194.36C91.4589 193.784 91.8269 193.304 92.0669 192.92C92.3069 192.536 92.4269 192.12 92.4269 191.672C92.4269 190.744 91.8669 190.28 90.7469 190.28C89.4189 190.28 88.7549 190.88 88.7549 192.08C88.7549 192.224 88.7309 192.32 88.6829 192.368C88.6349 192.416 88.5389 192.44 88.3949 192.44H86.4509C86.3389 192.44 86.2669 192.416 86.2349 192.368C86.1869 192.304 86.1629 192.208 86.1629 192.08C86.1629 191.28 86.3549 190.576 86.7389 189.968C87.1229 189.344 87.6669 188.864 88.3709 188.528C89.0749 188.176 89.8829 188 90.7949 188C92.2669 188 93.3949 188.312 94.1789 188.936C94.9789 189.544 95.3789 190.44 95.3789 191.624C95.3789 192.232 95.2429 192.768 94.9709 193.232C94.7149 193.696 94.3229 194.24 93.7949 194.864C93.3149 195.424 92.9549 195.904 92.7149 196.304C92.4909 196.704 92.3789 197.152 92.3789 197.648V203C92.3789 203.24 92.4109 203.408 92.4749 203.504C92.5549 203.584 92.7069 203.624 92.9309 203.624H93.5789C93.8349 203.624 94.0109 203.672 94.1069 203.768C94.2029 203.864 94.2509 204.032 94.2509 204.272V205.328C94.2509 205.6 94.1869 205.784 94.0589 205.88C93.9309 205.96 93.6909 206 93.3389 206H90.9389ZM101.663 206.36C100.255 206.36 99.127 205.976 98.279 205.208C97.431 204.424 97.007 203.296 97.007 201.824V194.288C97.007 193.984 97.071 193.76 97.199 193.616C97.343 193.472 97.575 193.4 97.895 193.4H99.143C99.767 193.4 100.079 193.696 100.079 194.288V201.776C100.079 202.592 100.279 203.192 100.679 203.576C101.095 203.944 101.719 204.128 102.551 204.128C103.127 204.128 103.671 204.008 104.183 203.768C104.695 203.528 105.103 203.216 105.407 202.832C105.711 202.448 105.863 202.048 105.863 201.632V194.288C105.863 193.984 105.927 193.76 106.055 193.616C106.199 193.472 106.431 193.4 106.751 193.4H108.023C108.343 193.4 108.575 193.472 108.719 193.616C108.863 193.76 108.935 193.984 108.935 194.288V205.208C108.935 205.48 108.879 205.68 108.767 205.808C108.655 205.936 108.455 206 108.167 206H106.991C106.751 206 106.583 205.96 106.487 205.88C106.391 205.784 106.335 205.632 106.319 205.424V204.464C105.263 205.728 103.711 206.36 101.663 206.36ZM116.788 206.36C115.844 206.36 114.932 206.272 114.052 206.096C113.172 205.936 112.404 205.696 111.748 205.376C111.46 205.232 111.316 205.088 111.316 204.944C111.316 204.88 111.34 204.8 111.388 204.704L112.012 203.48C112.108 203.32 112.204 203.24 112.3 203.24C112.332 203.24 112.444 203.272 112.636 203.336C113.132 203.576 113.732 203.784 114.436 203.96C115.156 204.12 115.836 204.2 116.476 204.2C117.324 204.2 117.972 204.096 118.42 203.888C118.884 203.664 119.116 203.296 119.116 202.784C119.116 202.464 119.036 202.208 118.876 202.016C118.716 201.824 118.476 201.664 118.156 201.536C117.852 201.392 117.34 201.192 116.62 200.936C116.364 200.824 116.036 200.704 115.636 200.576C114.34 200.096 113.356 199.568 112.684 198.992C112.028 198.4 111.7 197.624 111.7 196.664C111.7 195.48 112.18 194.584 113.14 193.976C114.116 193.352 115.452 193.04 117.148 193.04C118.044 193.04 118.836 193.12 119.524 193.28C120.212 193.424 120.876 193.656 121.516 193.976C121.788 194.12 121.924 194.272 121.924 194.432C121.924 194.512 121.892 194.608 121.828 194.72L121.276 195.752C121.196 195.944 121.092 196.04 120.964 196.04C120.868 196.04 120.764 196.008 120.652 195.944C120.22 195.72 119.7 195.544 119.092 195.416C118.5 195.288 117.884 195.224 117.244 195.224C116.38 195.224 115.732 195.336 115.3 195.56C114.884 195.768 114.676 196.136 114.676 196.664C114.676 197.016 114.796 197.312 115.036 197.552C115.276 197.776 115.588 197.976 115.972 198.152C116.372 198.312 116.98 198.528 117.796 198.8C117.972 198.848 118.172 198.912 118.396 198.992C119.388 199.328 120.148 199.664 120.676 200C121.22 200.32 121.604 200.696 121.828 201.128C122.052 201.56 122.164 202.112 122.164 202.784C122.164 203.872 121.692 204.744 120.748 205.4C119.804 206.04 118.484 206.36 116.788 206.36ZM117.491 190.952C116.867 190.952 116.435 190.816 116.195 190.544C115.939 190.272 115.811 189.824 115.811 189.2V187.832C115.811 187.496 115.875 187.272 116.003 187.16C116.115 187.032 116.339 186.968 116.675 186.968H117.539C117.843 186.968 118.059 187.032 118.187 187.16C118.299 187.272 118.355 187.496 118.355 187.832V189.032C119.171 188.952 120.155 188.88 121.307 188.816C122.443 188.752 123.283 188.72 123.827 188.72C124.147 188.72 124.355 188.776 124.451 188.888C124.563 188.984 124.619 189.176 124.619 189.464V190.184C124.619 190.472 124.563 190.672 124.451 190.784C124.355 190.896 124.147 190.952 123.827 190.952H117.491ZM125.411 206C125.091 206 124.859 205.928 124.715 205.784C124.587 205.64 124.523 205.424 124.523 205.136V197.912C124.523 196.408 125.035 195.224 126.059 194.36C127.083 193.48 128.571 193.04 130.523 193.04C131.563 193.04 132.435 193.176 133.139 193.448C133.555 193.176 133.995 192.92 134.459 192.68C134.923 192.44 135.283 192.288 135.539 192.224C135.747 192.16 135.931 192.128 136.091 192.128C136.315 192.128 136.467 192.24 136.547 192.464L137.003 193.688C137.035 193.752 137.051 193.832 137.051 193.928C137.051 194.088 136.947 194.216 136.739 194.312L135.395 194.888C136.147 195.64 136.523 196.648 136.523 197.912V205.136C136.523 205.424 136.451 205.64 136.307 205.784C136.163 205.928 135.923 206 135.587 206H134.363C134.043 206 133.811 205.928 133.667 205.784C133.523 205.64 133.451 205.424 133.451 205.136V197.864C133.451 197.032 133.203 196.408 132.707 195.992C132.211 195.56 131.483 195.344 130.523 195.344C128.571 195.344 127.595 196.184 127.595 197.864V200.552C128.107 199.72 128.899 199.304 129.971 199.304H130.739C130.915 199.304 131.035 199.344 131.099 199.424C131.179 199.488 131.219 199.608 131.219 199.784V201.104C131.219 201.312 131.179 201.456 131.099 201.536C131.019 201.616 130.891 201.656 130.715 201.656H129.899C129.147 201.656 128.571 201.904 128.171 202.4C127.787 202.896 127.595 203.544 127.595 204.344V205.136C127.595 205.424 127.523 205.64 127.379 205.784C127.251 205.928 127.019 206 126.683 206H125.411ZM146.677 206.36C144.661 206.36 143.109 205.728 142.021 204.464V205.424C142.021 205.632 141.965 205.784 141.853 205.88C141.757 205.96 141.597 206 141.373 206H140.173C139.901 206 139.709 205.936 139.597 205.808C139.485 205.68 139.429 205.48 139.429 205.208V194.288C139.429 193.984 139.501 193.76 139.645 193.616C139.789 193.472 140.021 193.4 140.341 193.4H141.589C141.909 193.4 142.141 193.472 142.285 193.616C142.429 193.76 142.501 193.984 142.501 194.288V201.632C142.501 202.048 142.645 202.448 142.933 202.832C143.237 203.216 143.637 203.528 144.133 203.768C144.645 204.008 145.197 204.128 145.789 204.128C146.685 204.128 147.325 203.944 147.709 203.576C148.093 203.208 148.285 202.608 148.285 201.776V194.288C148.285 193.984 148.357 193.76 148.501 193.616C148.645 193.472 148.877 193.4 149.197 193.4H150.469C150.789 193.4 151.013 193.472 151.141 193.616C151.285 193.76 151.357 193.984 151.357 194.288V201.824C151.357 203.296 150.925 204.424 150.061 205.208C149.213 205.976 148.085 206.36 146.677 206.36ZM141.762 190.952C141.442 190.952 141.218 190.888 141.09 190.76C140.962 190.632 140.898 190.416 140.898 190.112V189.56C140.898 189.256 140.962 189.04 141.09 188.912C141.218 188.768 141.442 188.696 141.762 188.696H148.842V186.872C148.842 186.616 148.898 186.44 149.01 186.344C149.122 186.232 149.306 186.176 149.562 186.176H150.666C150.922 186.176 151.106 186.232 151.218 186.344C151.33 186.44 151.386 186.616 151.386 186.872V189.728C151.386 190.192 151.306 190.512 151.146 190.688C150.97 190.864 150.642 190.952 150.162 190.952H141.762Z" fill="black"/>
<rect x="171.676" y="190.034" width="88.6414" height="88.6414" stroke="#F85900" stroke-width="4" stroke-dasharray="5 5"/>
</svg>
