<svg width="319" height="288" viewBox="0 0 319 288" fill="none" xmlns="http://www.w3.org/2000/svg">
<g style="mix-blend-mode:multiply">
<circle cx="96" cy="96" r="96" fill="#F8D105"/>
</g>
<g style="mix-blend-mode:multiply">
<circle cx="223" cy="96" r="96" fill="#F8D105"/>
</g>
<g style="mix-blend-mode:multiply">
<circle cx="161" cy="192" r="96" fill="#F8D105"/>
</g>
<path d="M24.5481 82.08L23.3281 80.48V79.04C24.8481 77.9733 26.5215 77.44 28.3481 77.44C29.2681 77.44 30.0348 77.5733 30.6481 77.84C31.2615 78.1067 31.7081 78.4533 31.9881 78.88C32.2681 79.3067 32.4081 79.7533 32.4081 80.22V88H30.2281V79.84C29.6681 79.56 28.9615 79.42 28.1081 79.42C26.9215 79.42 25.9948 79.62 25.3281 80.02V80.1L26.3681 81.34C26.5815 81.5933 26.6881 81.8933 26.6881 82.24C26.6881 82.3333 26.6748 82.4867 26.6481 82.7L25.8681 88H23.7081L24.5481 82.08ZM38.7325 79.68C38.2925 79.5067 37.7325 79.42 37.0525 79.42C36.5858 79.42 36.1725 79.4467 35.8125 79.5C35.4658 79.54 35.0792 79.62 34.6525 79.74L34.2525 77.96C34.7192 77.8 35.2325 77.6733 35.7925 77.58C36.3525 77.4867 36.8992 77.44 37.4325 77.44C38.4992 77.44 39.3458 77.6467 39.9725 78.06C40.5992 78.4733 40.9125 79.0333 40.9125 79.74V88H38.7325V79.68ZM46.8486 88.2C45.2619 88.2 44.0086 87.8867 43.0886 87.26L43.6686 85.5C44.2019 85.78 44.7153 85.9867 45.2086 86.12C45.7019 86.24 46.2753 86.3 46.9286 86.3C47.6753 86.3 48.2753 86.2267 48.7286 86.08C48.8753 85.8 48.9486 85.4867 48.9486 85.14C48.9486 84.7267 48.8019 84.4267 48.5086 84.24C48.2286 84.04 47.6953 83.8933 46.9086 83.8C45.7886 83.6667 44.8819 83.3533 44.1886 82.86C43.5086 82.3667 43.1686 81.6933 43.1686 80.84C43.1686 79.8 43.5153 78.9733 44.2086 78.36C44.9019 77.7467 45.9419 77.44 47.3286 77.44C48.7019 77.44 49.8619 77.6733 50.8086 78.14L49.8886 79.88C49.0619 79.52 48.1153 79.34 47.0486 79.34C46.4619 79.34 45.9819 79.4 45.6086 79.52C45.4486 79.8 45.3686 80.12 45.3686 80.48C45.3686 80.8 45.4286 81.04 45.5486 81.2C45.6819 81.36 45.8886 81.4867 46.1686 81.58C46.4619 81.66 46.9086 81.7333 47.5086 81.8C48.6686 81.9467 49.5619 82.2533 50.1886 82.72C50.8153 83.1733 51.1286 83.86 51.1286 84.78C51.1286 85.7933 50.7686 86.62 50.0486 87.26C49.3419 87.8867 48.2753 88.2 46.8486 88.2ZM55.8956 88.2C55.4956 88.2 55.089 88.0867 54.6756 87.86C54.2756 87.62 53.9423 87.3067 53.6756 86.92C53.4223 86.5333 53.2956 86.1067 53.2956 85.64V77.64H55.4556V85.46C55.4556 85.8067 55.4756 86.0467 55.5156 86.18C55.7423 86.2333 56.0423 86.26 56.4156 86.26H57.3156V87.88C56.8623 88.0933 56.389 88.2 55.8956 88.2ZM62.7861 88.2C61.1994 88.2 59.9461 87.8867 59.0261 87.26L59.6061 85.5C60.1394 85.78 60.6528 85.9867 61.1461 86.12C61.6394 86.24 62.2128 86.3 62.8661 86.3C63.6128 86.3 64.2128 86.2267 64.6661 86.08C64.8128 85.8 64.8861 85.4867 64.8861 85.14C64.8861 84.7267 64.7394 84.4267 64.4461 84.24C64.1661 84.04 63.6328 83.8933 62.8461 83.8C61.7261 83.6667 60.8194 83.3533 60.1261 82.86C59.4461 82.3667 59.1061 81.6933 59.1061 80.84C59.1061 79.8 59.4528 78.9733 60.1461 78.36C60.8394 77.7467 61.8794 77.44 63.2661 77.44C64.6394 77.44 65.7994 77.6733 66.7461 78.14L65.8261 79.88C64.9994 79.52 64.0528 79.34 62.9861 79.34C62.3994 79.34 61.9194 79.4 61.5461 79.52C61.3861 79.8 61.3061 80.12 61.3061 80.48C61.3061 80.8 61.3661 81.04 61.4861 81.2C61.6194 81.36 61.8261 81.4867 62.1061 81.58C62.3994 81.66 62.8461 81.7333 63.4461 81.8C64.6061 81.9467 65.4994 82.2533 66.1261 82.72C66.7528 83.1733 67.0661 83.86 67.0661 84.78C67.0661 85.7933 66.7061 86.62 65.9861 87.26C65.2794 87.8867 64.2128 88.2 62.7861 88.2ZM59.0531 74.74L61.2131 74.46H64.6131V73.28H66.5531V76.18H59.0531V74.74ZM73.4531 88.32C72.0398 88.32 70.9265 88.0667 70.1131 87.56C69.3131 87.04 68.9131 86.2133 68.9131 85.08C68.9131 83.6667 69.5531 82.8 70.8331 82.48V82.36C70.2465 82.1733 69.8065 81.8933 69.5131 81.52C69.2331 81.1467 69.0931 80.66 69.0931 80.06C69.0931 79.26 69.3731 78.6267 69.9331 78.16C70.4931 77.68 71.2531 77.44 72.2131 77.44C72.7465 77.44 73.3065 77.5133 73.8931 77.66L73.6331 79.42C73.1665 79.3533 72.7665 79.32 72.4331 79.32C72.0865 79.32 71.7198 79.3467 71.3331 79.4C71.2665 79.76 71.2331 80.06 71.2331 80.3C71.2331 80.74 71.3531 81.0733 71.5931 81.3C71.8465 81.5133 72.2331 81.62 72.7531 81.62H73.9531V83.42H72.6531C71.5865 83.42 71.0531 83.8933 71.0531 84.84C71.0531 85.3867 71.2398 85.78 71.6131 86.02C71.9998 86.2467 72.5998 86.36 73.4131 86.36C74.3731 86.36 75.1198 86.24 75.6531 86V77.64H77.8331V84.7C77.8331 85.98 77.4598 86.9067 76.7131 87.48C75.9665 88.04 74.8798 88.32 73.4531 88.32ZM83.6022 88.2C82.6422 88.2 81.9089 87.9933 81.4022 87.58C80.8955 87.1667 80.6422 86.5467 80.6422 85.72V77.64H82.8222V86C83.2089 86.1333 83.6755 86.2 84.2222 86.2C85.3955 86.2 86.4022 85.84 87.2422 85.12V77.64H89.4222V88H87.4622L87.3622 86.58H87.2022C86.2822 87.66 85.0822 88.2 83.6022 88.2ZM93.0442 82.08L91.8242 80.48V79.04C93.3442 77.9733 95.0176 77.44 96.8442 77.44C97.7642 77.44 98.5309 77.5733 99.1442 77.84C99.7576 78.1067 100.204 78.4533 100.484 78.88C100.764 79.3067 100.904 79.7533 100.904 80.22V88H98.7242V79.84C98.1642 79.56 97.4576 79.42 96.6042 79.42C95.4176 79.42 94.4909 79.62 93.8242 80.02V80.1L94.8642 81.34C95.0776 81.5933 95.1842 81.8933 95.1842 82.24C95.1842 82.3333 95.1709 82.4867 95.1442 82.7L94.3642 88H92.2042L93.0442 82.08ZM107.229 79.68C106.789 79.5067 106.229 79.42 105.549 79.42C105.082 79.42 104.669 79.4467 104.309 79.5C103.962 79.54 103.575 79.62 103.149 79.74L102.749 77.96C103.215 77.8 103.729 77.6733 104.289 77.58C104.849 77.4867 105.395 77.44 105.929 77.44C106.995 77.44 107.842 77.6467 108.469 78.06C109.095 78.4733 109.409 79.0333 109.409 79.74V88H107.229V79.68ZM115.345 88.2C113.758 88.2 112.505 87.8867 111.585 87.26L112.165 85.5C112.698 85.78 113.211 85.9867 113.705 86.12C114.198 86.24 114.771 86.3 115.425 86.3C116.171 86.3 116.771 86.2267 117.225 86.08C117.371 85.8 117.445 85.4867 117.445 85.14C117.445 84.7267 117.298 84.4267 117.005 84.24C116.725 84.04 116.191 83.8933 115.405 83.8C114.285 83.6667 113.378 83.3533 112.685 82.86C112.005 82.3667 111.665 81.6933 111.665 80.84C111.665 79.8 112.011 78.9733 112.705 78.36C113.398 77.7467 114.438 77.44 115.825 77.44C117.198 77.44 118.358 77.6733 119.305 78.14L118.385 79.88C117.558 79.52 116.611 79.34 115.545 79.34C114.958 79.34 114.478 79.4 114.105 79.52C113.945 79.8 113.865 80.12 113.865 80.48C113.865 80.8 113.925 81.04 114.045 81.2C114.178 81.36 114.385 81.4867 114.665 81.58C114.958 81.66 115.405 81.7333 116.005 81.8C117.165 81.9467 118.058 82.2533 118.685 82.72C119.311 83.1733 119.625 83.86 119.625 84.78C119.625 85.7933 119.265 86.62 118.545 87.26C117.838 87.8867 116.771 88.2 115.345 88.2ZM124.512 88.2C123.472 88.2 122.665 87.9467 122.092 87.44C121.518 86.9333 121.232 86.22 121.232 85.3C121.232 84.14 121.572 83.2933 122.252 82.76C122.932 82.2133 124.018 81.94 125.512 81.94C125.938 81.94 126.325 81.96 126.672 82C127.018 82.04 127.405 82.1133 127.832 82.22V81.2C127.832 80.5067 127.678 80.0333 127.372 79.78C127.078 79.5267 126.532 79.4 125.732 79.4C125.078 79.4 124.452 79.46 123.852 79.58V80.78H122.152C121.965 80.2333 121.872 79.6 121.872 78.88V78.16C122.592 77.92 123.272 77.74 123.912 77.62C124.552 77.5 125.232 77.44 125.952 77.44C127.165 77.44 128.105 77.68 128.772 78.16L129.672 77.34L131.472 76.98L131.852 78.94L129.772 79.48C129.945 79.9333 130.032 80.4133 130.032 80.92V88H127.852V84C127.158 83.84 126.412 83.76 125.612 83.76C124.852 83.76 124.185 83.8267 123.612 83.96C123.478 84.32 123.412 84.7 123.412 85.1C123.412 85.5533 123.518 85.8733 123.732 86.06C123.945 86.2467 124.265 86.34 124.692 86.34C125.252 86.34 125.712 86.2667 126.072 86.12L126.532 87.86C125.852 88.0867 125.178 88.2 124.512 88.2ZM137.409 88.2C134.582 88.2 133.169 87.0533 133.169 84.76V83.12C133.169 82.9733 133.356 82.7533 133.729 82.46C134.116 82.1667 134.402 82.02 134.589 82.02H137.869V83.78H135.309V84.76C135.309 85.3333 135.456 85.7267 135.749 85.94C136.056 86.14 136.596 86.24 137.369 86.24C138.102 86.24 138.642 86.1533 138.989 85.98C139.349 85.8067 139.596 85.5 139.729 85.06C139.876 84.6067 139.949 83.9267 139.949 83.02C139.949 82.06 139.876 81.3267 139.729 80.82C139.582 80.3 139.349 79.94 139.029 79.74C138.722 79.54 138.289 79.44 137.729 79.44C137.289 79.44 136.909 79.4533 136.589 79.48C136.269 79.5067 135.902 79.56 135.489 79.64V80.84H133.789C133.722 80.5733 133.662 80.2667 133.609 79.92C133.569 79.56 133.549 79.2467 133.549 78.98V78.34C135.002 77.74 136.402 77.44 137.749 77.44C138.856 77.44 139.729 77.6467 140.369 78.06C141.009 78.4733 141.462 79.0867 141.729 79.9C141.996 80.7 142.129 81.74 142.129 83.02C142.129 84.7533 141.762 86.0533 141.029 86.92C140.296 87.7733 139.089 88.2 137.409 88.2ZM147.45 88.2C146.49 88.2 145.757 87.9933 145.25 87.58C144.743 87.1667 144.49 86.5467 144.49 85.72V77.64H146.67V86C147.057 86.1333 147.523 86.2 148.07 86.2C149.243 86.2 150.25 85.84 151.09 85.12V77.64H153.27V88H151.31L151.21 86.58H151.05C150.13 87.66 148.93 88.2 147.45 88.2ZM46.9908 100.64H48.9508L49.0508 102.18H49.2108C49.6774 101.633 50.2174 101.207 50.8308 100.9C51.4441 100.593 52.1241 100.44 52.8708 100.44C53.8308 100.44 54.5574 100.653 55.0508 101.08C55.5574 101.493 55.8108 102.113 55.8108 102.94V111H53.6308V102.64C53.2574 102.507 52.7841 102.44 52.2108 102.44C51.6374 102.44 51.1041 102.54 50.6108 102.74C50.1174 102.94 49.6374 103.227 49.1708 103.6V111H46.9908V100.64ZM48.3109 97.74L50.4709 97.46H53.8709V96.28H55.8109V99.18H48.3109V97.74ZM53.8319 92.4H55.7719V95.14H53.8319V92.4ZM64.3309 111.2C63.6243 111.2 62.9843 111.08 62.4109 110.84C61.8509 110.587 61.3376 110.193 60.8709 109.66H60.7109L60.6109 111H58.6509V100.64H60.8309V108.2C61.2576 108.56 61.6909 108.82 62.1309 108.98C62.5709 109.127 63.0843 109.2 63.6709 109.2C64.2576 109.2 64.7309 109.133 65.0909 109V100.64H67.2709V108.72C67.2709 109.547 67.0176 110.167 66.5109 110.58C66.0043 110.993 65.2776 111.2 64.3309 111.2ZM59.7758 97.74L61.9358 97.46H65.3358V96.28H67.2758V99.18H59.7758V97.74ZM70.7558 108.28C70.3424 107.68 70.0291 107.093 69.8158 106.52C69.6024 105.933 69.4958 105.293 69.4958 104.6C69.4958 103.253 69.9424 102.227 70.8358 101.52C71.7424 100.8 73.0358 100.44 74.7158 100.44C76.0491 100.44 77.1224 100.707 77.9358 101.24C78.7491 101.773 79.1558 102.48 79.1558 103.36V111H76.9758V102.76C76.7091 102.667 76.3624 102.593 75.9358 102.54C75.5091 102.473 75.0758 102.44 74.6358 102.44C73.5958 102.44 72.8358 102.613 72.3558 102.96C71.8891 103.307 71.6558 103.907 71.6558 104.76C71.6558 105.413 71.7624 106.02 71.9758 106.58H72.0958C72.7891 105.82 73.5824 105.3 74.4758 105.02L75.8958 105.36L75.9158 105.86C75.9291 106.14 75.9158 106.453 75.8758 106.8C75.8491 107.147 75.7958 107.447 75.7158 107.7H74.2358L74.0958 106.94C73.7358 106.98 73.3424 107.153 72.9158 107.46L71.9958 111H69.6958L70.7558 108.28ZM77.2108 114.78C77.2108 114.54 77.1841 114.313 77.1308 114.1C76.9708 114.073 76.8374 114.06 76.7308 114.06L76.4108 114.08C76.1841 114.093 75.9308 114.14 75.6508 114.22L75.3308 112.82C75.5708 112.687 75.8641 112.58 76.2108 112.5C76.5574 112.42 76.8974 112.38 77.2308 112.38C77.8708 112.38 78.3441 112.533 78.6508 112.84C78.9441 113.16 79.0908 113.667 79.0908 114.36V116.78H77.2108V114.78ZM84.2308 111.2C83.6041 111.2 83.1108 111.04 82.7508 110.72C82.4041 110.4 82.2308 109.953 82.2308 109.38C82.2308 109.3 82.2441 109.153 82.2708 108.94L82.8908 105.08L81.6308 103.48V102.04C83.1508 100.973 84.8174 100.44 86.6308 100.44C87.9641 100.44 88.9574 100.713 89.6108 101.26C90.2641 101.793 90.5908 102.447 90.5908 103.22V109.04C91.0041 109.147 91.4108 109.2 91.8108 109.2C92.3041 109.2 92.7508 109.12 93.1508 108.96C93.5508 108.787 93.9708 108.52 94.4108 108.16V100.68H96.5908V111H94.6108L94.5108 109.58H94.3508C93.8441 110.127 93.3508 110.533 92.8708 110.8C92.4041 111.067 91.8174 111.2 91.1108 111.2C90.2308 111.2 89.5641 110.987 89.1108 110.56C88.6708 110.12 88.4508 109.487 88.4508 108.66V102.82C87.9174 102.567 87.2374 102.44 86.4108 102.44C85.3708 102.44 84.4441 102.633 83.6308 103.02V103.1L84.6708 104.34C84.8574 104.567 84.9508 104.84 84.9508 105.16C84.9508 105.253 84.9374 105.433 84.9108 105.7L84.4108 108.58C84.3974 108.633 84.3908 108.7 84.3908 108.78C84.3908 109.14 84.6041 109.32 85.0308 109.32H86.3108V110.86C85.6841 111.087 84.9908 111.2 84.2308 111.2ZM100.312 111.2C100.046 111.2 99.7589 111.167 99.4522 111.1C99.1589 111.033 98.9122 110.953 98.7122 110.86V109.34H99.6322C99.8855 109.34 100.066 109.307 100.172 109.24C100.292 109.16 100.366 109.033 100.392 108.86L100.912 105.08L99.5922 103.48V102.04C101.112 100.973 102.719 100.44 104.412 100.44C105.332 100.44 106.092 100.573 106.692 100.84C107.306 101.107 107.746 101.453 108.012 101.88C108.292 102.293 108.432 102.74 108.432 103.22V111H106.252V102.82C105.759 102.553 105.072 102.42 104.192 102.42C103.192 102.42 102.319 102.62 101.572 103.02V103.1L102.672 104.34C102.859 104.567 102.952 104.833 102.952 105.14C102.952 105.22 102.939 105.407 102.912 105.7L102.352 109.62C102.192 110.673 101.512 111.2 100.312 111.2ZM114.748 102.68C114.308 102.507 113.748 102.42 113.068 102.42C112.601 102.42 112.188 102.447 111.828 102.5C111.481 102.54 111.095 102.62 110.668 102.74L110.268 100.96C110.735 100.8 111.248 100.673 111.808 100.58C112.368 100.487 112.915 100.44 113.448 100.44C114.515 100.44 115.361 100.647 115.988 101.06C116.615 101.473 116.928 102.033 116.928 102.74V111H114.748V102.68ZM120.544 111C120.104 108.16 119.751 104.707 119.484 100.64L121.644 100.44C121.831 104.307 121.978 107.113 122.084 108.86H122.204C122.858 106.9 123.491 104.793 124.104 102.54H125.664C126.184 104.473 126.818 106.58 127.564 108.86H127.684C127.818 106.74 127.958 103.933 128.104 100.44L130.284 100.64C130.031 104.453 129.678 107.907 129.224 111H126.644C126.084 109.333 125.518 107.44 124.944 105.32H124.824C124.331 107.147 123.758 109.04 123.104 111H120.544Z" fill="black"/>
<path d="M22.3281 90H154.67V91H22.3281V90ZM45.5508 113H57.2109V114H45.5508V113ZM57.1719 112.57V113.57V112.57ZM57.2109 113H131.444V114H57.2109V113Z" fill="black"/>
<path d="M106.2 207.2C105.8 207.2 105.394 207.087 104.98 206.86C104.58 206.62 104.247 206.307 103.98 205.92C103.727 205.533 103.6 205.107 103.6 204.64V196.64H105.76V204.46C105.76 204.807 105.78 205.047 105.82 205.18C106.047 205.233 106.347 205.26 106.72 205.26H107.62V206.88C107.167 207.093 106.694 207.2 106.2 207.2ZM108.911 199.02L111.031 198.46L113.231 205.02H114.071C114.591 204.273 114.984 203.493 115.251 202.68C115.517 201.867 115.651 200.973 115.651 200C115.651 199.44 115.564 198.94 115.391 198.5C115.137 198.433 114.817 198.4 114.431 198.4C114.044 198.4 113.637 198.44 113.211 198.52L112.911 196.68C113.337 196.587 113.684 196.527 113.951 196.5C114.217 196.46 114.504 196.44 114.811 196.44C115.797 196.44 116.544 196.74 117.051 197.34C117.571 197.927 117.831 198.807 117.831 199.98C117.831 201.313 117.611 202.547 117.171 203.68C116.731 204.8 116.064 205.907 115.171 207H111.711L108.911 199.02ZM109.885 193.74L112.045 193.46H117.385V195.18H109.885V193.74ZM123.145 207.2C122.185 207.2 121.452 206.993 120.945 206.58C120.438 206.167 120.185 205.547 120.185 204.72V196.64H122.365V205C122.752 205.133 123.218 205.2 123.765 205.2C124.938 205.2 125.945 204.84 126.785 204.12V196.64H128.965V207H127.005L126.905 205.58H126.745C125.825 206.66 124.625 207.2 123.145 207.2ZM130.727 199.02L132.847 198.46L135.047 205.02H135.887C136.407 204.273 136.801 203.493 137.067 202.68C137.334 201.867 137.467 200.973 137.467 200C137.467 199.44 137.381 198.94 137.207 198.5C136.954 198.433 136.634 198.4 136.247 198.4C135.861 198.4 135.454 198.44 135.027 198.52L134.727 196.68C135.154 196.587 135.501 196.527 135.767 196.5C136.034 196.46 136.321 196.44 136.627 196.44C137.614 196.44 138.361 196.74 138.867 197.34C139.387 197.927 139.647 198.807 139.647 199.98C139.647 201.313 139.427 202.547 138.987 203.68C138.547 204.8 137.881 205.907 136.987 207H133.527L130.727 199.02ZM146.422 207.2C143.475 207.2 142.002 206.127 142.002 203.98V196.64H144.182V203.5C144.182 204.14 144.348 204.587 144.682 204.84C145.028 205.08 145.608 205.2 146.422 205.2C146.848 205.2 147.262 205.173 147.662 205.12C148.075 205.053 148.408 204.973 148.662 204.88V196.64H150.842V204.78C150.842 205.553 150.415 206.153 149.562 206.58C148.708 206.993 147.662 207.2 146.422 207.2ZM158.062 207.2C155.116 207.2 153.642 206.127 153.642 203.98V196.64H155.822V203.5C155.822 204.14 155.989 204.587 156.322 204.84C156.669 205.08 157.249 205.2 158.062 205.2C158.489 205.2 158.902 205.173 159.302 205.12C159.716 205.053 160.049 204.973 160.302 204.88V192.96H162.482V204.78C162.482 205.553 162.056 206.153 161.202 206.58C160.349 206.993 159.302 207.2 158.062 207.2ZM168.423 207.2C166.836 207.2 165.583 206.887 164.663 206.26L165.243 204.5C165.776 204.78 166.289 204.987 166.783 205.12C167.276 205.24 167.849 205.3 168.503 205.3C169.249 205.3 169.849 205.227 170.303 205.08C170.449 204.8 170.523 204.487 170.523 204.14C170.523 203.727 170.376 203.427 170.083 203.24C169.803 203.04 169.269 202.893 168.483 202.8C167.363 202.667 166.456 202.353 165.763 201.86C165.083 201.367 164.743 200.693 164.743 199.84C164.743 198.8 165.089 197.973 165.783 197.36C166.476 196.747 167.516 196.44 168.903 196.44C170.276 196.44 171.436 196.673 172.383 197.14L171.463 198.88C170.636 198.52 169.689 198.34 168.623 198.34C168.036 198.34 167.556 198.4 167.183 198.52C167.023 198.8 166.943 199.12 166.943 199.48C166.943 199.8 167.003 200.04 167.123 200.2C167.256 200.36 167.463 200.487 167.743 200.58C168.036 200.66 168.483 200.733 169.083 200.8C170.243 200.947 171.136 201.253 171.763 201.72C172.389 202.173 172.703 202.86 172.703 203.78C172.703 204.793 172.343 205.62 171.623 206.26C170.916 206.887 169.849 207.2 168.423 207.2ZM178.05 200.9C176.743 200.9 175.643 200.693 174.75 200.28V198H176.83V199.02C177.19 199.113 177.637 199.16 178.17 199.16C178.783 199.16 179.317 199.093 179.77 198.96C180.237 198.827 180.697 198.613 181.15 198.32L182.03 199.9C181.43 200.26 180.823 200.52 180.21 200.68C179.597 200.827 178.877 200.9 178.05 200.9ZM178.05 205.74C176.743 205.74 175.643 205.533 174.75 205.12V202.84H176.83V203.86C177.19 203.953 177.637 204 178.17 204C178.783 204 179.317 203.933 179.77 203.8C180.237 203.667 180.697 203.453 181.15 203.16L182.03 204.74C181.43 205.1 180.823 205.36 180.21 205.52C179.597 205.667 178.877 205.74 178.05 205.74ZM190.397 207.2C189.691 207.2 189.051 207.08 188.477 206.84C187.917 206.587 187.404 206.193 186.937 205.66H186.777L186.677 207H184.717V196.64H186.897V204.2C187.324 204.56 187.757 204.82 188.197 204.98C188.637 205.127 189.151 205.2 189.737 205.2C190.324 205.2 190.797 205.133 191.157 205V196.64H193.337V204.72C193.337 205.547 193.084 206.167 192.577 206.58C192.071 206.993 191.344 207.2 190.397 207.2ZM199.662 198.68C199.222 198.507 198.662 198.42 197.982 198.42C197.516 198.42 197.102 198.447 196.742 198.5C196.396 198.54 196.009 198.62 195.582 198.74L195.182 196.96C195.649 196.8 196.162 196.673 196.722 196.58C197.282 196.487 197.829 196.44 198.362 196.44C199.429 196.44 200.276 196.647 200.902 197.06C201.529 197.473 201.842 198.033 201.842 198.74V207H199.662V198.68ZM206.918 207.2C206.292 207.2 205.798 207.04 205.438 206.72C205.092 206.4 204.918 205.953 204.918 205.38C204.918 205.3 204.932 205.153 204.958 204.94L205.578 201.08L204.318 199.48V198.04C205.838 196.973 207.505 196.44 209.318 196.44C210.652 196.44 211.645 196.713 212.298 197.26C212.952 197.793 213.278 198.447 213.278 199.22V205.04C213.692 205.147 214.098 205.2 214.498 205.2C214.992 205.2 215.438 205.12 215.838 204.96C216.238 204.787 216.658 204.52 217.098 204.16V196.68H219.278V207H217.298L217.198 205.58H217.038C216.532 206.127 216.038 206.533 215.558 206.8C215.092 207.067 214.505 207.2 213.798 207.2C212.918 207.2 212.252 206.987 211.798 206.56C211.358 206.12 211.138 205.487 211.138 204.66V198.82C210.605 198.567 209.925 198.44 209.098 198.44C208.058 198.44 207.132 198.633 206.318 199.02V199.1L207.358 200.34C207.545 200.567 207.638 200.84 207.638 201.16C207.638 201.253 207.625 201.433 207.598 201.7L207.098 204.58C207.085 204.633 207.078 204.7 207.078 204.78C207.078 205.14 207.292 205.32 207.718 205.32H208.998V206.86C208.372 207.087 207.678 207.2 206.918 207.2ZM124.708 219.64H126.668L126.768 221.18H126.928C127.394 220.633 127.934 220.207 128.548 219.9C129.161 219.593 129.841 219.44 130.588 219.44C131.548 219.44 132.274 219.653 132.768 220.08C133.274 220.493 133.528 221.113 133.528 221.94V230H131.348V221.64C130.974 221.507 130.501 221.44 129.928 221.44C129.354 221.44 128.821 221.54 128.328 221.74C127.834 221.94 127.354 222.227 126.888 222.6V230H124.708V219.64ZM126.028 216.74L128.188 216.46H131.588V215.28H133.528V218.18H126.028V216.74ZM131.549 211.4H133.489V214.14H131.549V211.4ZM138.808 230.2C138.408 230.2 138.001 230.087 137.588 229.86C137.188 229.62 136.854 229.307 136.588 228.92C136.334 228.533 136.208 228.107 136.208 227.64V219.64H138.368V227.46C138.368 227.807 138.388 228.047 138.428 228.18C138.654 228.233 138.954 228.26 139.328 228.26H140.228V229.88C139.774 230.093 139.301 230.2 138.808 230.2ZM143.378 230C142.938 227.16 142.585 223.707 142.318 219.64L144.478 219.44C144.665 223.307 144.812 226.113 144.918 227.86H145.038C145.692 225.9 146.325 223.793 146.938 221.54H148.498C149.018 223.473 149.652 225.58 150.398 227.86H150.518C150.652 225.74 150.792 222.933 150.938 219.44L153.118 219.64C152.865 223.453 152.512 226.907 152.058 230H149.478C148.918 228.333 148.352 226.44 147.778 224.32H147.658C147.165 226.147 146.592 228.04 145.938 230H143.378ZM145.012 216.74L147.172 216.46H150.572V215.28H152.512V218.18H145.012V216.74ZM159.783 230.32C158.37 230.32 157.257 230.067 156.443 229.56C155.643 229.04 155.243 228.213 155.243 227.08C155.243 225.667 155.883 224.8 157.163 224.48V224.36C156.577 224.173 156.137 223.893 155.843 223.52C155.563 223.147 155.423 222.66 155.423 222.06C155.423 221.26 155.703 220.627 156.263 220.16C156.823 219.68 157.583 219.44 158.543 219.44C159.077 219.44 159.637 219.513 160.223 219.66L159.963 221.42C159.497 221.353 159.097 221.32 158.763 221.32C158.417 221.32 158.05 221.347 157.663 221.4C157.597 221.76 157.563 222.06 157.563 222.3C157.563 222.74 157.683 223.073 157.923 223.3C158.177 223.513 158.563 223.62 159.083 223.62H160.283V225.42H158.983C157.917 225.42 157.383 225.893 157.383 226.84C157.383 227.387 157.57 227.78 157.943 228.02C158.33 228.247 158.93 228.36 159.743 228.36C160.703 228.36 161.45 228.24 161.983 228V219.64H164.163V226.7C164.163 227.98 163.79 228.907 163.043 229.48C162.297 230.04 161.21 230.32 159.783 230.32ZM165.932 222.02L168.052 221.46L170.252 228.02H171.092C171.612 227.273 172.006 226.493 172.272 225.68C172.539 224.867 172.672 223.973 172.672 223C172.672 222.44 172.586 221.94 172.412 221.5C172.159 221.433 171.839 221.4 171.452 221.4C171.066 221.4 170.659 221.44 170.232 221.52L169.932 219.68C170.359 219.587 170.706 219.527 170.972 219.5C171.239 219.46 171.526 219.44 171.832 219.44C172.819 219.44 173.566 219.74 174.072 220.34C174.592 220.927 174.852 221.807 174.852 222.98C174.852 224.313 174.632 225.547 174.192 226.68C173.752 227.8 173.086 228.907 172.192 230H168.732L165.932 222.02ZM178.027 230C177.587 227.16 177.233 223.707 176.967 219.64L179.127 219.44C179.313 223.307 179.46 226.113 179.567 227.86H179.687C180.34 225.9 180.973 223.793 181.587 221.54H183.147C183.667 223.473 184.3 225.58 185.047 227.86H185.167C185.3 225.74 185.44 222.933 185.587 219.44L187.767 219.64C187.513 223.453 187.16 226.907 186.707 230H184.127C183.567 228.333 183 226.44 182.427 224.32H182.307C181.813 226.147 181.24 228.04 180.587 230H178.027ZM194.052 230.2C191.225 230.2 189.812 229.053 189.812 226.76V225.12C189.812 224.973 189.998 224.753 190.372 224.46C190.758 224.167 191.045 224.02 191.232 224.02H194.512V225.78H191.952V226.76C191.952 227.333 192.098 227.727 192.392 227.94C192.698 228.14 193.238 228.24 194.012 228.24C194.745 228.24 195.285 228.153 195.632 227.98C195.992 227.807 196.238 227.5 196.372 227.06C196.518 226.607 196.592 225.927 196.592 225.02C196.592 224.06 196.518 223.327 196.372 222.82C196.225 222.3 195.992 221.94 195.672 221.74C195.365 221.54 194.932 221.44 194.372 221.44C193.932 221.44 193.552 221.453 193.232 221.48C192.912 221.507 192.545 221.56 192.132 221.64V222.84H190.432C190.365 222.573 190.305 222.267 190.252 221.92C190.212 221.56 190.192 221.247 190.192 220.98V220.34C191.645 219.74 193.045 219.44 194.392 219.44C195.498 219.44 196.372 219.647 197.012 220.06C197.652 220.473 198.105 221.087 198.372 221.9C198.638 222.7 198.772 223.74 198.772 225.02C198.772 226.753 198.405 228.053 197.672 228.92C196.938 229.773 195.732 230.2 194.052 230.2Z" fill="black"/>
<path d="M102.32 209H220.678V210H102.32V209ZM123.268 232H134.928V233H123.268V232ZM134.889 231.57V232.57V231.57ZM134.928 232H154.278V233H134.928V232ZM153.912 232.02V233.02V232.02ZM154.283 232H199.732V233H154.283V232Z" fill="black"/>
<path d="M186.885 88.2C185.845 88.2 185.038 87.9467 184.465 87.44C183.891 86.9333 183.605 86.22 183.605 85.3C183.605 84.14 183.945 83.2933 184.625 82.76C185.305 82.2133 186.391 81.94 187.885 81.94C188.311 81.94 188.698 81.96 189.045 82C189.391 82.04 189.778 82.1133 190.205 82.22V81.2C190.205 80.5067 190.051 80.0333 189.745 79.78C189.451 79.5267 188.905 79.4 188.105 79.4C187.451 79.4 186.825 79.46 186.225 79.58V80.78H184.525C184.338 80.2333 184.245 79.6 184.245 78.88V78.16C184.965 77.92 185.645 77.74 186.285 77.62C186.925 77.5 187.605 77.44 188.325 77.44C189.538 77.44 190.478 77.68 191.145 78.16L192.045 77.34L193.845 76.98L194.225 78.94L192.145 79.48C192.318 79.9333 192.405 80.4133 192.405 80.92V88H190.225V84C189.531 83.84 188.785 83.76 187.985 83.76C187.225 83.76 186.558 83.8267 185.985 83.96C185.851 84.32 185.785 84.7 185.785 85.1C185.785 85.5533 185.891 85.8733 186.105 86.06C186.318 86.2467 186.638 86.34 187.065 86.34C187.625 86.34 188.085 86.2667 188.445 86.12L188.905 87.86C188.225 88.0867 187.551 88.2 186.885 88.2ZM199.782 88.2C196.955 88.2 195.542 87.0533 195.542 84.76V83.12C195.542 82.9733 195.729 82.7533 196.102 82.46C196.489 82.1667 196.775 82.02 196.962 82.02H200.242V83.78H197.682V84.76C197.682 85.3333 197.829 85.7267 198.122 85.94C198.429 86.14 198.969 86.24 199.742 86.24C200.475 86.24 201.015 86.1533 201.362 85.98C201.722 85.8067 201.969 85.5 202.102 85.06C202.249 84.6067 202.322 83.9267 202.322 83.02C202.322 82.06 202.249 81.3267 202.102 80.82C201.955 80.3 201.722 79.94 201.402 79.74C201.095 79.54 200.662 79.44 200.102 79.44C199.662 79.44 199.282 79.4533 198.962 79.48C198.642 79.5067 198.275 79.56 197.862 79.64V80.84H196.162C196.095 80.5733 196.035 80.2667 195.982 79.92C195.942 79.56 195.922 79.2467 195.922 78.98V78.34C197.375 77.74 198.775 77.44 200.122 77.44C201.229 77.44 202.102 77.6467 202.742 78.06C203.382 78.4733 203.835 79.0867 204.102 79.9C204.369 80.7 204.502 81.74 204.502 83.02C204.502 84.7533 204.135 86.0533 203.402 86.92C202.669 87.7733 201.462 88.2 199.782 88.2ZM210.343 88.1C208.996 88.1 208.01 87.6867 207.383 86.86C206.77 86.02 206.463 84.7133 206.463 82.94C206.463 81.1933 206.883 79.84 207.723 78.88C208.563 77.92 209.856 77.44 211.603 77.44C213.07 77.44 214.456 77.7133 215.763 78.26V88H213.583V79.68C212.983 79.5067 212.303 79.42 211.543 79.42C210.476 79.42 209.723 79.7067 209.283 80.28C208.856 80.8533 208.643 81.74 208.643 82.94C208.643 84.1 208.783 84.9267 209.063 85.42C209.343 85.9 209.823 86.14 210.503 86.14C210.903 86.14 211.316 86.08 211.743 85.96L212.083 87.76C211.603 87.9867 211.023 88.1 210.343 88.1ZM219.242 85.28C218.829 84.68 218.515 84.0933 218.302 83.52C218.089 82.9333 217.982 82.2933 217.982 81.6C217.982 80.2533 218.429 79.2267 219.322 78.52C220.229 77.8 221.522 77.44 223.202 77.44C224.535 77.44 225.609 77.7067 226.422 78.24C227.235 78.7733 227.642 79.48 227.642 80.36V88H225.462V79.76C225.195 79.6667 224.849 79.5933 224.422 79.54C223.995 79.4733 223.562 79.44 223.122 79.44C222.082 79.44 221.322 79.6133 220.842 79.96C220.375 80.3067 220.142 80.9067 220.142 81.76C220.142 82.4133 220.249 83.02 220.462 83.58H220.582C221.275 82.82 222.069 82.3 222.962 82.02L224.382 82.36L224.402 82.86C224.415 83.14 224.402 83.4533 224.362 83.8C224.335 84.1467 224.282 84.4467 224.202 84.7H222.722L222.582 83.94C222.222 83.98 221.829 84.1533 221.402 84.46L220.482 88H218.182L219.242 85.28ZM233.037 88.2C231.997 88.2 231.19 87.9467 230.617 87.44C230.044 86.9333 229.757 86.22 229.757 85.3C229.757 84.14 230.097 83.2933 230.777 82.76C231.457 82.2133 232.544 81.94 234.037 81.94C234.464 81.94 234.85 81.96 235.197 82C235.544 82.04 235.93 82.1133 236.357 82.22V81.2C236.357 80.5067 236.204 80.0333 235.897 79.78C235.604 79.5267 235.057 79.4 234.257 79.4C233.604 79.4 232.977 79.46 232.377 79.58V80.78H230.677C230.49 80.2067 230.397 79.5733 230.397 78.88V78.16C231.117 77.92 231.797 77.74 232.437 77.62C233.077 77.5 233.757 77.44 234.477 77.44C235.85 77.44 236.87 77.74 237.537 78.34C238.217 78.9267 238.557 79.7867 238.557 80.92V88H236.377V84C235.684 83.84 234.937 83.76 234.137 83.76C233.377 83.76 232.71 83.8267 232.137 83.96C232.004 84.32 231.937 84.7 231.937 85.1C231.937 85.5533 232.044 85.8733 232.257 86.06C232.47 86.2467 232.79 86.34 233.217 86.34C233.777 86.34 234.237 86.2667 234.597 86.12L235.057 87.86C234.377 88.0867 233.704 88.2 233.037 88.2ZM233.995 75.42C234.342 75.14 234.515 74.8467 234.515 74.54C234.515 74.3933 234.488 74.2733 234.435 74.18C234.075 74.2067 233.762 74.2733 233.495 74.38L232.915 72.96C233.488 72.5867 234.108 72.4 234.775 72.4C235.295 72.4 235.688 72.5133 235.955 72.74C236.222 72.9533 236.355 73.26 236.355 73.66C236.355 73.8867 236.328 74.08 236.275 74.24C236.208 74.4 236.102 74.5533 235.955 74.7V74.8L236.955 74.58L240.215 74.46V76.18H234.595L233.995 75.42ZM245.075 88.2C242.248 88.2 240.835 87.0533 240.835 84.76V83.12C240.835 82.9733 241.022 82.7533 241.395 82.46C241.782 82.1667 242.068 82.02 242.255 82.02H245.535V83.78H242.975V84.76C242.975 85.3333 243.122 85.7267 243.415 85.94C243.722 86.14 244.262 86.24 245.035 86.24C245.768 86.24 246.308 86.1533 246.655 85.98C247.015 85.8067 247.262 85.5 247.395 85.06C247.542 84.6067 247.615 83.9267 247.615 83.02C247.615 82.06 247.542 81.3267 247.395 80.82C247.248 80.3 247.015 79.94 246.695 79.74C246.388 79.54 245.955 79.44 245.395 79.44C244.955 79.44 244.575 79.4533 244.255 79.48C243.935 79.5067 243.568 79.56 243.155 79.64V80.84H241.455C241.388 80.5733 241.328 80.2667 241.275 79.92C241.235 79.56 241.215 79.2467 241.215 78.98V78.34C242.668 77.74 244.068 77.44 245.415 77.44C246.522 77.44 247.395 77.6467 248.035 78.06C248.675 78.4733 249.128 79.0867 249.395 79.9C249.662 80.7 249.795 81.74 249.795 83.02C249.795 84.7533 249.428 86.0533 248.695 86.92C247.962 87.7733 246.755 88.2 245.075 88.2ZM251.116 80.02L253.236 79.46L255.436 86.02H256.276C256.796 85.2733 257.189 84.4933 257.456 83.68C257.723 82.8667 257.856 81.9733 257.856 81C257.856 80.44 257.769 79.94 257.596 79.5C257.343 79.4333 257.023 79.4 256.636 79.4C256.249 79.4 255.843 79.44 255.416 79.52L255.116 77.68C255.543 77.5867 255.889 77.5267 256.156 77.5C256.423 77.46 256.709 77.44 257.016 77.44C258.003 77.44 258.749 77.74 259.256 78.34C259.776 78.9267 260.036 79.8067 260.036 80.98C260.036 82.3133 259.816 83.5467 259.376 84.68C258.936 85.8 258.269 86.9067 257.376 88H253.916L251.116 80.02ZM263.21 82.08L261.99 80.48V79.04C263.51 77.9733 265.184 77.44 267.01 77.44C267.93 77.44 268.697 77.5733 269.31 77.84C269.924 78.1067 270.37 78.4533 270.65 78.88C270.93 79.3067 271.07 79.7533 271.07 80.22V88H268.89V79.84C268.33 79.56 267.624 79.42 266.77 79.42C265.584 79.42 264.657 79.62 263.99 80.02V80.1L265.03 81.34C265.244 81.5933 265.35 81.8933 265.35 82.24C265.35 82.3333 265.337 82.4867 265.31 82.7L264.53 88H262.37L263.21 82.08ZM269.455 76.38C268.161 76.38 267.055 76.1733 266.135 75.76V73.52H268.195V74.56C268.528 74.6667 268.995 74.72 269.595 74.72C270.261 74.72 270.908 74.6133 271.535 74.4C272.148 74.1733 272.688 73.88 273.155 73.52L273.995 75.14C272.808 75.9667 271.295 76.38 269.455 76.38ZM278.295 88.2C275.348 88.2 273.875 87.1267 273.875 84.98V77.64H276.055V84.5C276.055 85.14 276.221 85.5867 276.555 85.84C276.901 86.08 277.481 86.2 278.295 86.2C278.721 86.2 279.135 86.1733 279.535 86.12C279.948 86.0533 280.281 85.9733 280.535 85.88V77.64H282.715V85.78C282.715 86.5533 282.288 87.1533 281.435 87.58C280.581 87.9933 279.535 88.2 278.295 88.2ZM179.226 111C178.786 108.16 178.433 104.707 178.166 100.64L180.326 100.44C180.513 104.307 180.659 107.113 180.766 108.86H180.886C181.539 106.9 182.173 104.793 182.786 102.54H184.346C184.866 104.473 185.499 106.58 186.246 108.86H186.366C186.499 106.74 186.639 103.933 186.786 100.44L188.966 100.64C188.713 104.453 188.359 107.907 187.906 111H185.326C184.766 109.333 184.199 107.44 183.626 105.32H183.506C183.013 107.147 182.439 109.04 181.786 111H179.226ZM180.86 97.74L183.02 97.46H183.92V96.26H185.56V97.46H186.7V96.26H188.36V99.18H180.86V97.74ZM184.081 94.44C184.401 94.16 184.561 93.8867 184.561 93.62C184.561 93.4867 184.534 93.3733 184.481 93.28C184.187 93.3067 183.901 93.38 183.621 93.5L183.101 92.16C183.594 91.8133 184.167 91.64 184.821 91.64C185.781 91.64 186.261 92.0267 186.261 92.8C186.261 93.1867 186.141 93.5133 185.901 93.78V93.88L186.841 93.66L189.861 93.54V95.14H184.641L184.081 94.44ZM194.491 111.2C193.531 111.2 192.798 110.993 192.291 110.58C191.784 110.167 191.531 109.547 191.531 108.72V100.64H193.711V109C194.098 109.133 194.564 109.2 195.111 109.2C196.284 109.2 197.291 108.84 198.131 108.12V100.64H200.311V111H198.351L198.251 109.58H198.091C197.171 110.66 195.971 111.2 194.491 111.2ZM203.153 100.64H205.113L205.213 102.18H205.373C205.84 101.633 206.38 101.207 206.993 100.9C207.606 100.593 208.286 100.44 209.033 100.44C209.993 100.44 210.72 100.653 211.213 101.08C211.72 101.493 211.973 102.113 211.973 102.94V111H209.793V102.64C209.42 102.507 208.946 102.44 208.373 102.44C207.8 102.44 207.266 102.54 206.773 102.74C206.28 102.94 205.8 103.227 205.333 103.6V111H203.153V100.64ZM204.473 97.74L206.633 97.46H210.033V96.28H211.973V99.18H204.473V97.74ZM209.994 92.4H211.934V95.14H209.994V92.4ZM217.253 111.2C216.853 111.2 216.446 111.087 216.033 110.86C215.633 110.62 215.3 110.307 215.033 109.92C214.78 109.533 214.653 109.107 214.653 108.64V100.64H216.813V108.46C216.813 108.807 216.833 109.047 216.873 109.18C217.1 109.233 217.4 109.26 217.773 109.26H218.673V110.88C218.22 111.093 217.746 111.2 217.253 111.2ZM222.693 111.2C222.293 111.2 221.886 111.087 221.473 110.86C221.073 110.62 220.74 110.307 220.473 109.92C220.22 109.533 220.093 109.107 220.093 108.64V100.64H222.253V108.46C222.253 108.807 222.273 109.047 222.313 109.18C222.54 109.233 222.84 109.26 223.213 109.26H224.113V110.88C223.66 111.093 223.186 111.2 222.693 111.2ZM229.053 111.2C228.013 111.2 227.206 110.947 226.633 110.44C226.059 109.933 225.773 109.22 225.773 108.3C225.773 107.14 226.113 106.293 226.793 105.76C227.473 105.213 228.559 104.94 230.053 104.94C230.479 104.94 230.866 104.96 231.213 105C231.559 105.04 231.946 105.113 232.373 105.22V104.2C232.373 103.507 232.219 103.033 231.913 102.78C231.619 102.527 231.073 102.4 230.273 102.4C229.619 102.4 228.993 102.46 228.393 102.58V103.78H226.693C226.506 103.207 226.413 102.573 226.413 101.88V101.16C227.133 100.92 227.813 100.74 228.453 100.62C229.093 100.5 229.773 100.44 230.493 100.44C231.866 100.44 232.886 100.74 233.553 101.34C234.233 101.927 234.573 102.787 234.573 103.92V111H232.393V107C231.699 106.84 230.953 106.76 230.153 106.76C229.393 106.76 228.726 106.827 228.153 106.96C228.019 107.32 227.953 107.7 227.953 108.1C227.953 108.553 228.059 108.873 228.273 109.06C228.486 109.247 228.806 109.34 229.233 109.34C229.793 109.34 230.253 109.267 230.613 109.12L231.073 110.86C230.393 111.087 229.719 111.2 229.053 111.2ZM240.431 104.9C239.124 104.9 238.024 104.693 237.131 104.28V102H239.211V103.02C239.571 103.113 240.017 103.16 240.551 103.16C241.164 103.16 241.697 103.093 242.151 102.96C242.617 102.827 243.077 102.613 243.531 102.32L244.411 103.9C243.811 104.26 243.204 104.52 242.591 104.68C241.977 104.827 241.257 104.9 240.431 104.9ZM240.431 109.74C239.124 109.74 238.024 109.533 237.131 109.12V106.84H239.211V107.86C239.571 107.953 240.017 108 240.551 108C241.164 108 241.697 107.933 242.151 107.8C242.617 107.667 243.077 107.453 243.531 107.16L244.411 108.74C243.811 109.1 243.204 109.36 242.591 109.52C241.977 109.667 241.257 109.74 240.431 109.74ZM250.838 111.2C248.078 111.2 246.698 110.04 246.698 107.72V106.46C246.698 106.007 246.772 105.633 246.918 105.34C247.078 105.047 247.305 104.733 247.598 104.4C247.812 104.147 247.965 103.94 248.058 103.78C248.165 103.607 248.218 103.407 248.218 103.18C248.218 102.727 247.998 102.5 247.558 102.5H246.658V100.64H248.138C248.912 100.64 249.478 100.833 249.838 101.22C250.212 101.593 250.398 102.1 250.398 102.74C250.398 103.207 250.325 103.593 250.178 103.9C250.045 104.207 249.845 104.553 249.578 104.94C249.338 105.273 249.158 105.56 249.038 105.8C248.932 106.04 248.878 106.327 248.878 106.66V107.62C248.878 108.153 249.032 108.553 249.338 108.82C249.645 109.073 250.165 109.2 250.898 109.2C251.658 109.2 252.272 109.133 252.738 109V106.04C252.738 105.627 252.632 105.32 252.418 105.12C252.218 104.92 251.898 104.767 251.458 104.66V103.08C251.832 103.08 252.112 103 252.298 102.84C252.485 102.667 252.612 102.427 252.678 102.12C252.692 102.053 252.732 101.86 252.798 101.54C252.865 101.207 252.905 100.84 252.918 100.44L255.178 100.76C255.138 101.373 255.005 101.953 254.778 102.5C254.658 102.807 254.478 103.06 254.238 103.26C254.012 103.447 253.698 103.6 253.298 103.72V103.8C253.872 103.987 254.285 104.247 254.538 104.58C254.792 104.9 254.918 105.367 254.918 105.98V107.78C254.918 108.38 254.765 108.94 254.458 109.46C254.165 109.98 253.705 110.4 253.078 110.72C252.465 111.04 251.718 111.2 250.838 111.2ZM252.963 114.78C252.963 114.54 252.936 114.313 252.883 114.1C252.723 114.073 252.589 114.06 252.483 114.06L252.163 114.08C251.936 114.093 251.683 114.14 251.403 114.22L251.083 112.82C251.323 112.687 251.616 112.58 251.963 112.5C252.309 112.42 252.649 112.38 252.983 112.38C253.623 112.38 254.096 112.533 254.403 112.84C254.696 113.16 254.843 113.667 254.843 114.36V116.78H252.963V114.78ZM263.423 111.2C262.716 111.2 262.076 111.08 261.503 110.84C260.943 110.587 260.429 110.193 259.963 109.66H259.803L259.703 111H257.743V100.64H259.923V108.2C260.349 108.56 260.783 108.82 261.223 108.98C261.663 109.127 262.176 109.2 262.763 109.2C263.349 109.2 263.823 109.133 264.183 109V100.64H266.363V108.72C266.363 109.547 266.109 110.167 265.603 110.58C265.096 110.993 264.369 111.2 263.423 111.2ZM272.948 111.2C270.188 111.2 268.808 110.04 268.808 107.72V106.46C268.808 106.007 268.881 105.633 269.028 105.34C269.188 105.047 269.414 104.733 269.708 104.4C269.921 104.147 270.074 103.94 270.168 103.78C270.274 103.607 270.328 103.407 270.328 103.18C270.328 102.727 270.108 102.5 269.668 102.5H268.768V100.64H270.248C271.021 100.64 271.588 100.833 271.948 101.22C272.321 101.593 272.508 102.1 272.508 102.74C272.508 103.207 272.434 103.593 272.288 103.9C272.154 104.207 271.954 104.553 271.688 104.94C271.448 105.273 271.268 105.56 271.148 105.8C271.041 106.04 270.988 106.327 270.988 106.66V107.62C270.988 108.153 271.141 108.553 271.448 108.82C271.754 109.073 272.274 109.2 273.008 109.2C273.768 109.2 274.381 109.133 274.848 109V106.04C274.848 105.627 274.741 105.32 274.528 105.12C274.328 104.92 274.008 104.767 273.568 104.66V103.08C273.941 103.08 274.221 103 274.408 102.84C274.594 102.667 274.721 102.427 274.788 102.12C274.801 102.053 274.841 101.86 274.908 101.54C274.974 101.207 275.014 100.84 275.028 100.44L277.288 100.76C277.248 101.373 277.114 101.953 276.888 102.5C276.768 102.807 276.588 103.06 276.348 103.26C276.121 103.447 275.808 103.6 275.408 103.72V103.8C275.981 103.987 276.394 104.247 276.648 104.58C276.901 104.9 277.028 105.367 277.028 105.98V107.78C277.028 108.38 276.874 108.94 276.568 109.46C276.274 109.98 275.814 110.4 275.188 110.72C274.574 111.04 273.828 111.2 272.948 111.2ZM282.772 111.2C281.812 111.2 281.079 110.993 280.572 110.58C280.065 110.167 279.812 109.547 279.812 108.72V100.64H281.992V109C282.379 109.133 282.845 109.2 283.392 109.2C284.565 109.2 285.572 108.84 286.412 108.12V100.64H288.592V111H286.632L286.532 109.58H286.372C285.452 110.66 284.252 111.2 282.772 111.2Z" fill="black"/>
<path d="M182.885 90H284.115V91H182.885V90ZM177.006 113H190.126V114H177.006V113ZM189.76 113.02V114.02V113.02ZM189.721 112.59V113.59V112.59ZM190.131 113H213.373V114H190.131V113ZM213.334 112.57V113.57V112.57ZM213.373 113H289.992V114H213.373V113Z" fill="black"/>
</svg>
