<svg width="300" height="243" viewBox="0 0 300 243" fill="none" xmlns="http://www.w3.org/2000/svg">
<path d="M53.167 189.45V172.444H55.167V161.266L61.0553 156.616L59.8158 155.046L69.1242 147.696L70.3637 149.265L83.6613 138.764L82.4218 137.195L91.7302 129.844L92.9696 131.414L106.267 120.913L105.028 119.343L114.336 111.993L115.576 113.562L120.985 109.291L126.394 113.562L127.634 111.993L136.942 119.343L135.703 120.913L149 131.414L150.24 129.844L159.548 137.195L158.309 138.764L171.606 149.265L172.846 147.696L182.154 155.046L180.915 156.616L186.803 161.266V172.444H188.803V189.45H186.803V213.745H188.803V230.751H186.803V240.898H178.83V242.898H164.867V240.898H144.921V242.898H130.958V240.898H111.012V242.898H97.0492V240.898H77.1027V242.898H63.1402V240.898H55.167V230.751H53.167V213.745H55.167V189.45H53.167Z" stroke="#393939" stroke-width="4" stroke-dasharray="20 14"/>
<path d="M25.1555 147.577V133.96H27.1555V127.148L32.7837 122.703L31.5442 121.134L42.7243 112.305L43.9638 113.874L56.7411 103.784L55.5016 102.215L66.6817 93.386L67.9212 94.9556L80.6985 84.8656L79.459 83.296L90.6392 74.4672L91.8787 76.0368L104.656 65.9468L103.416 64.3772L114.597 55.5484L115.836 57.118L120.985 53.0518L126.134 57.118L127.374 55.5484L138.554 64.3772L137.315 65.9468L150.092 76.0368L151.331 74.4672L162.511 83.296L161.272 84.8656L174.049 94.9556L175.289 93.386L186.469 102.215L185.229 103.784L198.007 113.874L199.246 112.305L210.426 121.134L209.187 122.703L214.815 127.148V133.96H216.815V147.577H214.815V163.14H216.815V176.757H214.815V192.319H216.815V205.937H214.815V221.499H216.815V235.117H214.815V240.898H208.297V242.898H193.39V240.898H176.354V242.898H161.447V240.898H144.41V242.898H129.503V240.898H112.467V242.898H97.5602V240.898H80.5238V242.898H65.617V240.898H48.5806V242.898H33.6737V240.898H27.1555V235.117H25.1555V221.499H27.1555V205.937H25.1555V192.319H27.1555V176.757H25.1555V163.14H27.1555V147.577H25.1555Z" stroke="#393939" stroke-width="4" stroke-dasharray="16 14"/>
<path d="M0 117.152V103.399H2V96.5089L7.69204 92.014L6.45255 90.4444L17.7445 81.5273L18.984 83.0969L31.889 72.906L30.6495 71.3364L41.9415 62.4194L43.181 63.989L56.086 53.7981L54.8466 52.2285L66.1385 43.3114L67.378 44.881L80.2831 34.6901L79.0436 33.1205L90.3355 24.2034L91.575 25.773L104.48 15.5821L103.241 14.0125L114.533 5.09546L115.772 6.66506L120.985 2.54841L126.198 6.66507L127.438 5.09547L138.73 14.0125L137.49 15.5821L150.395 25.773L151.635 24.2034L162.927 33.1205L161.687 34.6901L174.592 44.881L175.832 43.3114L187.124 52.2285L185.884 53.7981L198.789 63.989L200.029 62.4194L211.321 71.3364L210.081 72.906L222.986 83.0969L224.226 81.5273L235.518 90.4444L234.278 92.014L239.97 96.5089V103.399H241.97V117.152H239.97V132.871H241.97V146.624H239.97V162.342H241.97V176.096H239.97V191.814H241.97V205.567H239.97V221.285H241.97V235.039H239.97V240.898H233.904V242.898H219.79V240.898H203.658V242.898H189.543V240.898H173.412V242.898H159.297V240.898H143.166V242.898H129.051V240.898H112.919V242.898H98.8045V240.898H82.6731V242.898H68.5582V240.898H52.4269V242.898H38.3119V240.898H22.1806V242.898H8.06567V240.898H2V235.039H0V221.285H2V205.567H0V191.814H2V176.096H0V162.342H2V146.624H0V132.871H2V117.152H0Z" stroke="#393939" stroke-width="4" stroke-dasharray="16 14"/>
<path d="M76.6636 188.915L120.985 153.915L165.306 188.915V242.897H76.6636V188.915Z" fill="#F85900"/>
<path d="M101.609 212.989C101.225 212.989 100.953 212.917 100.793 212.773C100.649 212.613 100.577 212.357 100.577 212.005V211.093C100.577 210.741 100.649 210.485 100.793 210.325C100.953 210.165 101.225 210.085 101.609 210.085H103.673V200.893L101.969 201.949C101.889 202.013 101.785 202.045 101.657 202.045C101.497 202.045 101.377 201.973 101.297 201.829L100.169 200.101C100.105 199.989 100.073 199.885 100.073 199.789C100.073 199.629 100.161 199.501 100.337 199.405L104.489 196.909C104.633 196.813 104.769 196.749 104.897 196.717C105.025 196.685 105.209 196.669 105.449 196.669H106.577C106.961 196.669 107.233 196.757 107.393 196.933C107.569 197.109 107.657 197.373 107.657 197.725V210.085H109.745C110.129 210.085 110.393 210.165 110.537 210.325C110.681 210.469 110.753 210.725 110.753 211.093V212.005C110.753 212.357 110.681 212.613 110.537 212.773C110.393 212.917 110.129 212.989 109.745 212.989H101.609ZM112.776 212.989C112.152 212.989 111.84 212.669 111.84 212.029V210.925C111.84 209.933 112.208 208.973 112.944 208.045C113.696 207.101 114.864 206.141 116.448 205.165C117.568 204.493 118.344 204.005 118.776 203.701C119.224 203.381 119.552 203.037 119.76 202.669C119.984 202.301 120.096 201.837 120.096 201.277C120.096 200.589 119.856 200.069 119.376 199.717C118.896 199.349 118.208 199.165 117.312 199.165C116.032 199.165 114.832 199.469 113.712 200.077C113.552 200.173 113.416 200.221 113.304 200.221C113.192 200.221 113.08 200.133 112.968 199.957L112.128 198.493C112.032 198.349 111.984 198.213 111.984 198.085C111.984 197.925 112.064 197.789 112.224 197.677C112.832 197.261 113.632 196.933 114.624 196.693C115.632 196.437 116.728 196.309 117.912 196.309C119.768 196.309 121.256 196.717 122.376 197.533C123.496 198.349 124.056 199.509 124.056 201.013C124.056 202.229 123.688 203.261 122.952 204.109C122.232 204.941 121.08 205.813 119.496 206.725C118.504 207.269 117.68 207.837 117.024 208.429C116.368 209.005 115.992 209.549 115.896 210.061H123.024C123.408 210.061 123.672 210.141 123.816 210.301C123.96 210.461 124.032 210.725 124.032 211.093V211.981C124.032 212.349 123.96 212.613 123.816 212.773C123.672 212.917 123.408 212.989 123.024 212.989H112.776ZM133.78 213.349C131.076 213.349 129.036 212.621 127.66 211.165C126.3 209.693 125.62 207.581 125.62 204.829C125.62 202.077 126.3 199.973 127.66 198.517C129.036 197.045 131.076 196.309 133.78 196.309C136.468 196.309 138.492 197.045 139.852 198.517C141.228 199.973 141.916 202.077 141.916 204.829C141.916 207.581 141.228 209.693 139.852 211.165C138.492 212.621 136.468 213.349 133.78 213.349ZM135.94 199.717C135.348 199.349 134.628 199.165 133.78 199.165C132.324 199.165 131.252 199.629 130.564 200.557C129.892 201.485 129.556 202.909 129.556 204.829C129.556 206.077 129.78 207.045 130.228 207.733L135.94 199.717ZM133.78 210.493C135.236 210.493 136.3 210.029 136.972 209.101C137.644 208.173 137.98 206.749 137.98 204.829C137.98 203.629 137.764 202.645 137.332 201.877L131.572 209.989C132.148 210.325 132.884 210.493 133.78 210.493Z" fill="white"/>
<path d="M99.3054 215.389H142.66V216.589H99.3054V215.389Z" fill="white"/>
<path d="M110.562 144.278C109.367 144.278 108.397 143.924 107.65 143.214C106.913 142.505 106.544 141.394 106.544 139.882C106.544 138.604 106.749 137.549 107.16 136.718C107.58 135.888 108.121 135.286 108.784 134.912C109.456 134.53 110.179 134.338 110.954 134.338C112.111 134.338 113.068 134.595 113.824 135.108C113.917 135.174 113.964 135.248 113.964 135.332C113.964 135.407 113.936 135.486 113.88 135.57L113.404 136.396C113.339 136.508 113.273 136.564 113.208 136.564C113.161 136.564 113.082 136.532 112.97 136.466C112.709 136.308 112.429 136.191 112.13 136.116C111.841 136.042 111.509 136.004 111.136 136.004C110.473 136.004 109.951 136.172 109.568 136.508C109.195 136.844 108.915 137.372 108.728 138.09C109.045 137.838 109.4 137.666 109.792 137.572C110.193 137.47 110.655 137.418 111.178 137.418C111.897 137.418 112.517 137.554 113.04 137.824C113.572 138.086 113.978 138.454 114.258 138.93C114.538 139.406 114.678 139.943 114.678 140.54C114.678 141.772 114.314 142.706 113.586 143.34C112.867 143.966 111.859 144.278 110.562 144.278ZM110.562 142.612C111.169 142.612 111.621 142.454 111.92 142.136C112.228 141.81 112.382 141.306 112.382 140.624C112.382 140.027 112.223 139.574 111.906 139.266C111.598 138.949 111.164 138.79 110.604 138.79C110.109 138.79 109.694 138.944 109.358 139.252C109.022 139.56 108.854 140.027 108.854 140.652C108.854 141.959 109.423 142.612 110.562 142.612ZM120.3 144.278C118.723 144.278 117.533 143.854 116.73 143.004C115.937 142.146 115.54 140.914 115.54 139.308C115.54 137.703 115.937 136.476 116.73 135.626C117.533 134.768 118.723 134.338 120.3 134.338C121.868 134.338 123.049 134.768 123.842 135.626C124.645 136.476 125.046 137.703 125.046 139.308C125.046 140.914 124.645 142.146 123.842 143.004C123.049 143.854 121.868 144.278 120.3 144.278ZM121.56 136.326C121.215 136.112 120.795 136.004 120.3 136.004C119.451 136.004 118.826 136.275 118.424 136.816C118.032 137.358 117.836 138.188 117.836 139.308C117.836 140.036 117.967 140.601 118.228 141.002L121.56 136.326ZM120.3 142.612C121.15 142.612 121.77 142.342 122.162 141.8C122.554 141.259 122.75 140.428 122.75 139.308C122.75 138.608 122.624 138.034 122.372 137.586L119.012 142.318C119.348 142.514 119.778 142.612 120.3 142.612ZM130.677 144.278C129.1 144.278 127.91 143.854 127.107 143.004C126.314 142.146 125.917 140.914 125.917 139.308C125.917 137.703 126.314 136.476 127.107 135.626C127.91 134.768 129.1 134.338 130.677 134.338C132.245 134.338 133.426 134.768 134.219 135.626C135.022 136.476 135.423 137.703 135.423 139.308C135.423 140.914 135.022 142.146 134.219 143.004C133.426 143.854 132.245 144.278 130.677 144.278ZM131.937 136.326C131.592 136.112 131.172 136.004 130.677 136.004C129.828 136.004 129.202 136.275 128.801 136.816C128.409 137.358 128.213 138.188 128.213 139.308C128.213 140.036 128.344 140.601 128.605 141.002L131.937 136.326ZM130.677 142.612C131.526 142.612 132.147 142.342 132.539 141.8C132.931 141.259 133.127 140.428 133.127 139.308C133.127 138.608 133.001 138.034 132.749 137.586L129.389 142.318C129.725 142.514 130.154 142.612 130.677 142.612Z" fill="#393939"/>
<path d="M106.11 145.468H135.857V146.168H106.11V145.468Z" fill="#393939"/>
<path d="M102.348 89.9575C102.124 89.9575 101.965 89.9155 101.872 89.8315C101.788 89.7382 101.746 89.5889 101.746 89.3835V88.8515C101.746 88.6462 101.788 88.4969 101.872 88.4035C101.965 88.3102 102.124 88.2635 102.348 88.2635H103.552V82.9015L102.558 83.5175C102.511 83.5549 102.45 83.5735 102.376 83.5735C102.282 83.5735 102.212 83.5315 102.166 83.4475L101.508 82.4395C101.47 82.3742 101.452 82.3135 101.452 82.2575C101.452 82.1642 101.503 82.0895 101.606 82.0335L104.028 80.5775C104.112 80.5215 104.191 80.4842 104.266 80.4655C104.34 80.4469 104.448 80.4375 104.588 80.4375H105.246C105.47 80.4375 105.628 80.4889 105.722 80.5915C105.824 80.6942 105.876 80.8482 105.876 81.0535V88.2635H107.094C107.318 88.2635 107.472 88.3102 107.556 88.4035C107.64 88.4875 107.682 88.6369 107.682 88.8515V89.3835C107.682 89.5889 107.64 89.7382 107.556 89.8315C107.472 89.9155 107.318 89.9575 107.094 89.9575H102.348ZM108.582 91.6235C108.376 91.6235 108.274 91.5442 108.274 91.3855C108.274 91.3575 108.283 91.3062 108.302 91.2315L109.03 88.8235C109.086 88.6462 109.151 88.5295 109.226 88.4735C109.31 88.4175 109.445 88.3895 109.632 88.3895H110.556C110.845 88.3895 110.99 88.4735 110.99 88.6415C110.99 88.7255 110.962 88.8375 110.906 88.9775L109.898 91.3435C109.86 91.4369 109.804 91.5069 109.73 91.5535C109.655 91.6002 109.552 91.6235 109.422 91.6235H108.582ZM115.496 90.1675C114.796 90.1675 114.133 90.0929 113.508 89.9435C112.882 89.7849 112.378 89.5702 111.996 89.2995C111.902 89.2342 111.856 89.1595 111.856 89.0755C111.856 89.0009 111.884 88.9215 111.94 88.8375L112.444 87.9695C112.5 87.8669 112.565 87.8155 112.64 87.8155C112.686 87.8155 112.766 87.8482 112.878 87.9135C113.186 88.0909 113.55 88.2355 113.97 88.3475C114.399 88.4502 114.87 88.5015 115.384 88.5015C116.056 88.5015 116.569 88.3615 116.924 88.0815C117.288 87.7922 117.47 87.3629 117.47 86.7935C117.47 86.1589 117.316 85.7155 117.008 85.4635C116.709 85.2115 116.242 85.0855 115.608 85.0855C114.898 85.0855 114.306 85.1929 113.83 85.4075C113.624 85.4822 113.419 85.5195 113.214 85.5195C112.906 85.5195 112.654 85.4402 112.458 85.2815C112.262 85.1135 112.173 84.8755 112.192 84.5675L112.416 80.9835C112.434 80.7969 112.486 80.6615 112.57 80.5775C112.663 80.4842 112.817 80.4375 113.032 80.4375H118.716C118.94 80.4375 119.094 80.4842 119.178 80.5775C119.271 80.6709 119.318 80.8202 119.318 81.0255V81.5435C119.318 81.7582 119.271 81.9122 119.178 82.0055C119.094 82.0989 118.94 82.1455 118.716 82.1455H114.32L114.222 83.7555C114.446 83.6902 114.716 83.6389 115.034 83.6015C115.36 83.5549 115.678 83.5315 115.986 83.5315C117.19 83.5315 118.123 83.7882 118.786 84.3015C119.448 84.8149 119.78 85.6455 119.78 86.7935C119.78 87.4842 119.598 88.0862 119.234 88.5995C118.879 89.1035 118.375 89.4909 117.722 89.7615C117.078 90.0322 116.336 90.1675 115.496 90.1675ZM125.407 90.1675C123.829 90.1675 122.639 89.7429 121.837 88.8935C121.043 88.0349 120.647 86.8029 120.647 85.1975C120.647 83.5922 121.043 82.3649 121.837 81.5155C122.639 80.6569 123.829 80.2275 125.407 80.2275C126.975 80.2275 128.155 80.6569 128.949 81.5155C129.751 82.3649 130.153 83.5922 130.153 85.1975C130.153 86.8029 129.751 88.0349 128.949 88.8935C128.155 89.7429 126.975 90.1675 125.407 90.1675ZM126.667 82.2155C126.321 82.0009 125.901 81.8935 125.407 81.8935C124.557 81.8935 123.932 82.1642 123.531 82.7055C123.139 83.2469 122.943 84.0775 122.943 85.1975C122.943 85.9255 123.073 86.4902 123.335 86.8915L126.667 82.2155ZM125.407 88.5015C126.256 88.5015 126.877 88.2309 127.269 87.6895C127.661 87.1482 127.857 86.3175 127.857 85.1975C127.857 84.4975 127.731 83.9235 127.479 83.4755L124.119 88.2075C124.455 88.4035 124.884 88.5015 125.407 88.5015ZM135.784 90.1675C134.206 90.1675 133.016 89.7429 132.214 88.8935C131.42 88.0349 131.024 86.8029 131.024 85.1975C131.024 83.5922 131.42 82.3649 132.214 81.5155C133.016 80.6569 134.206 80.2275 135.784 80.2275C137.352 80.2275 138.532 80.6569 139.326 81.5155C140.128 82.3649 140.53 83.5922 140.53 85.1975C140.53 86.8029 140.128 88.0349 139.326 88.8935C138.532 89.7429 137.352 90.1675 135.784 90.1675ZM137.044 82.2155C136.698 82.0009 136.278 81.8935 135.784 81.8935C134.934 81.8935 134.309 82.1642 133.908 82.7055C133.516 83.2469 133.32 84.0775 133.32 85.1975C133.32 85.9255 133.45 86.4902 133.712 86.8915L137.044 82.2155ZM135.784 88.5015C136.633 88.5015 137.254 88.2309 137.646 87.6895C138.038 87.1482 138.234 86.3175 138.234 85.1975C138.234 84.4975 138.108 83.9235 137.856 83.4755L134.496 88.2075C134.832 88.4035 135.261 88.5015 135.784 88.5015Z" fill="#393939"/>
<path d="M101.004 91.3575H140.964V92.0575H101.004V91.3575Z" fill="#393939"/>
<path d="M99.0596 39.4541C98.8356 39.4541 98.6769 39.4121 98.5836 39.3281C98.4996 39.2348 98.4576 39.0854 98.4576 38.8801V38.3481C98.4576 38.1428 98.4996 37.9934 98.5836 37.9001C98.6769 37.8068 98.8356 37.7601 99.0596 37.7601H100.264V32.3981L99.2696 33.0141C99.2229 33.0514 99.1622 33.0701 99.0876 33.0701C98.9942 33.0701 98.9242 33.0281 98.8776 32.9441L98.2196 31.9361C98.1822 31.8708 98.1636 31.8101 98.1636 31.7541C98.1636 31.6608 98.2149 31.5861 98.3176 31.5301L100.74 30.0741C100.824 30.0181 100.903 29.9808 100.978 29.9621C101.052 29.9434 101.16 29.9341 101.3 29.9341H101.958C102.182 29.9341 102.34 29.9854 102.434 30.0881C102.536 30.1908 102.588 30.3448 102.588 30.5501V37.7601H103.806C104.03 37.7601 104.184 37.8068 104.268 37.9001C104.352 37.9841 104.394 38.1334 104.394 38.3481V38.8801C104.394 39.0854 104.352 39.2348 104.268 39.3281C104.184 39.4121 104.03 39.4541 103.806 39.4541H99.0596ZM105.294 41.1201C105.088 41.1201 104.986 41.0408 104.986 40.8821C104.986 40.8541 104.995 40.8028 105.014 40.7281L105.742 38.3201C105.798 38.1428 105.863 38.0261 105.938 37.9701C106.022 37.9141 106.157 37.8861 106.344 37.8861H107.268C107.557 37.8861 107.702 37.9701 107.702 38.1381C107.702 38.2221 107.674 38.3341 107.618 38.4741L106.61 40.8401C106.572 40.9334 106.516 41.0034 106.442 41.0501C106.367 41.0968 106.264 41.1201 106.134 41.1201H105.294ZM112.208 39.6641C111.508 39.6641 110.845 39.5894 110.22 39.4401C109.594 39.2814 109.09 39.0668 108.708 38.7961C108.614 38.7308 108.568 38.6561 108.568 38.5721C108.568 38.4974 108.596 38.4181 108.652 38.3341L109.156 37.4661C109.212 37.3634 109.277 37.3121 109.352 37.3121C109.398 37.3121 109.478 37.3448 109.59 37.4101C109.898 37.5874 110.262 37.7321 110.682 37.8441C111.111 37.9468 111.582 37.9981 112.096 37.9981C112.768 37.9981 113.281 37.8581 113.636 37.5781C114 37.2888 114.182 36.8594 114.182 36.2901C114.182 35.6554 114.028 35.2121 113.72 34.9601C113.421 34.7081 112.954 34.5821 112.32 34.5821C111.61 34.5821 111.018 34.6894 110.542 34.9041C110.336 34.9788 110.131 35.0161 109.926 35.0161C109.618 35.0161 109.366 34.9368 109.17 34.7781C108.974 34.6101 108.885 34.3721 108.904 34.0641L109.128 30.4801C109.146 30.2934 109.198 30.1581 109.282 30.0741C109.375 29.9808 109.529 29.9341 109.744 29.9341H115.428C115.652 29.9341 115.806 29.9808 115.89 30.0741C115.983 30.1674 116.03 30.3168 116.03 30.5221V31.0401C116.03 31.2548 115.983 31.4088 115.89 31.5021C115.806 31.5954 115.652 31.6421 115.428 31.6421H111.032L110.934 33.2521C111.158 33.1868 111.428 33.1354 111.746 33.0981C112.072 33.0514 112.39 33.0281 112.698 33.0281C113.902 33.0281 114.835 33.2848 115.498 33.7981C116.16 34.3114 116.492 35.1421 116.492 36.2901C116.492 36.9808 116.31 37.5828 115.946 38.0961C115.591 38.6001 115.087 38.9874 114.434 39.2581C113.79 39.5288 113.048 39.6641 112.208 39.6641ZM122.119 39.6641C120.541 39.6641 119.351 39.2394 118.549 38.3901C117.755 37.5314 117.359 36.2994 117.359 34.6941C117.359 33.0888 117.755 31.8614 118.549 31.0121C119.351 30.1534 120.541 29.7241 122.119 29.7241C123.687 29.7241 124.867 30.1534 125.661 31.0121C126.463 31.8614 126.865 33.0888 126.865 34.6941C126.865 36.2994 126.463 37.5314 125.661 38.3901C124.867 39.2394 123.687 39.6641 122.119 39.6641ZM123.379 31.7121C123.033 31.4974 122.613 31.3901 122.119 31.3901C121.269 31.3901 120.644 31.6608 120.243 32.2021C119.851 32.7434 119.655 33.5741 119.655 34.6941C119.655 35.4221 119.785 35.9868 120.047 36.3881L123.379 31.7121ZM122.119 37.9981C122.968 37.9981 123.589 37.7274 123.981 37.1861C124.373 36.6448 124.569 35.8141 124.569 34.6941C124.569 33.9941 124.443 33.4201 124.191 32.9721L120.831 37.7041C121.167 37.9001 121.596 37.9981 122.119 37.9981ZM132.496 39.6641C130.918 39.6641 129.728 39.2394 128.926 38.3901C128.132 37.5314 127.736 36.2994 127.736 34.6941C127.736 33.0888 128.132 31.8614 128.926 31.0121C129.728 30.1534 130.918 29.7241 132.496 29.7241C134.064 29.7241 135.244 30.1534 136.038 31.0121C136.84 31.8614 137.242 33.0888 137.242 34.6941C137.242 36.2994 136.84 37.5314 136.038 38.3901C135.244 39.2394 134.064 39.6641 132.496 39.6641ZM133.756 31.7121C133.41 31.4974 132.99 31.3901 132.496 31.3901C131.646 31.3901 131.021 31.6608 130.62 32.2021C130.228 32.7434 130.032 33.5741 130.032 34.6941C130.032 35.4221 130.162 35.9868 130.424 36.3881L133.756 31.7121ZM132.496 37.9981C133.345 37.9981 133.966 37.7274 134.358 37.1861C134.75 36.6448 134.946 35.8141 134.946 34.6941C134.946 33.9941 134.82 33.4201 134.568 32.9721L131.208 37.7041C131.544 37.9001 131.973 37.9981 132.496 37.9981ZM140.576 37.7601C140.352 37.7601 140.203 37.7228 140.128 37.6481C140.063 37.5734 140.03 37.4381 140.03 37.2421V36.0941H138.714C138.49 36.0941 138.332 36.0614 138.238 35.9961C138.154 35.9214 138.112 35.7721 138.112 35.5481V34.9321C138.112 34.7081 138.154 34.5634 138.238 34.4981C138.332 34.4234 138.49 34.3861 138.714 34.3861H140.03V33.2241C140.03 33.0281 140.063 32.8928 140.128 32.8181C140.203 32.7434 140.352 32.7061 140.576 32.7061H141.332C141.556 32.7061 141.701 32.7434 141.766 32.8181C141.841 32.8928 141.878 33.0281 141.878 33.2241V34.3861H143.222C143.446 34.3861 143.6 34.4234 143.684 34.4981C143.778 34.5634 143.824 34.7081 143.824 34.9321V35.5481C143.824 35.7721 143.778 35.9214 143.684 35.9961C143.6 36.0614 143.446 36.0941 143.222 36.0941H141.878V37.2421C141.878 37.4381 141.841 37.5734 141.766 37.6481C141.701 37.7228 141.556 37.7601 141.332 37.7601H140.576Z" fill="#393939"/>
<path d="M97.7156 40.8541H144.258V41.5541H97.7156V40.8541Z" fill="#393939"/>
<rect x="253.416" y="235.523" width="30.1425" height="7.47693" fill="#364881"/>
<rect x="272.598" y="175.708" width="59.8154" height="8.22069" transform="rotate(90 272.598 175.708)" fill="#364881"/>
<rect x="300" y="201.129" width="27.4023" height="22.4308" transform="rotate(-180 300 201.129)" fill="#364881"/>
</svg>
