<svg width="424" height="245" viewBox="0 0 424 245" fill="none" xmlns="http://www.w3.org/2000/svg">
<path d="M9.15527e-05 0L0 203H424V104L226 33.5L9.15527e-05 0Z" fill="#FF511A"/>
<path d="M77.5136 85.675C74.3036 85.675 71.9186 85.03 70.3586 83.74C68.8286 82.42 68.0636 80.83 68.0636 78.97V77.98H66.8036C66.1736 77.98 65.7386 77.86 65.4986 77.62C65.2886 77.38 65.1836 76.96 65.1836 76.36V73.165C65.1836 72.595 65.3036 72.19 65.5436 71.95C65.7836 71.68 66.2036 71.545 66.8036 71.545H73.0586C73.9286 71.545 74.5436 71.725 74.9036 72.085C75.2636 72.445 75.4436 73.015 75.4436 73.795V77.26C75.4436 77.92 75.6086 78.415 75.9386 78.745C76.2986 79.045 76.8236 79.195 77.5136 79.195C78.4736 79.195 79.1636 78.76 79.5836 77.89C80.0036 76.99 80.2136 75.475 80.2136 73.345C80.2136 71.125 79.7636 69.55 78.8636 68.62C77.9636 67.66 76.4786 67.18 74.4086 67.18C73.2686 67.18 72.2486 67.3 71.3486 67.54C70.4786 67.78 69.6086 68.11 68.7386 68.53C68.3186 68.74 68.0036 68.845 67.7936 68.845C67.5236 68.845 67.2686 68.65 67.0286 68.26L65.1386 64.975C64.9286 64.555 64.8236 64.24 64.8236 64.03C64.8236 63.73 65.0036 63.445 65.3636 63.175C66.5636 62.365 68.1236 61.75 70.0436 61.33C71.9636 60.91 74.0786 60.7 76.3886 60.7C80.9486 60.7 84.2336 61.795 86.2436 63.985C88.2836 66.175 89.3036 69.295 89.3036 73.345C89.3036 77.455 88.2686 80.545 86.1986 82.615C84.1586 84.655 81.2636 85.675 77.5136 85.675ZM83.8065 59.08C81.9765 59.08 80.5215 58.555 79.4415 57.505C78.3315 56.425 77.7765 55.015 77.7765 53.275C77.7765 51.535 78.3315 50.125 79.4415 49.045C80.5515 47.965 82.0065 47.425 83.8065 47.425C85.6365 47.425 87.1215 47.965 88.2615 49.045C89.3715 50.125 89.9265 51.535 89.9265 53.275C89.9265 55.015 89.3715 56.425 88.2615 57.505C87.1215 58.555 85.6365 59.08 83.8065 59.08ZM83.8065 55.03C84.3165 55.03 84.7515 54.865 85.1115 54.535C85.4415 54.205 85.6065 53.785 85.6065 53.275C85.6065 52.765 85.4415 52.345 85.1115 52.015C84.7515 51.685 84.3165 51.52 83.8065 51.52C83.2965 51.52 82.8615 51.685 82.5015 52.015C82.1415 52.345 81.9615 52.765 81.9615 53.275C81.9615 53.785 82.1415 54.205 82.5015 54.535C82.8615 54.865 83.2965 55.03 83.8065 55.03ZM101.717 85C100.337 85 99.6465 84.34 99.6465 83.02V70.555C99.6465 69.325 99.4065 68.455 98.9265 67.945C98.4465 67.435 97.6665 67.18 96.5865 67.18C95.4465 67.18 94.3965 67.42 93.4365 67.9C93.1365 68.08 92.8665 68.17 92.6265 68.17C92.3265 68.17 92.1315 67.99 92.0415 67.63L90.9165 63.355L90.8265 62.725C90.8265 62.575 90.8565 62.455 90.9165 62.365C91.0065 62.275 91.1415 62.185 91.3215 62.095C93.3315 61.165 95.7015 60.7 98.4315 60.7C101.942 60.7 104.537 61.45 106.217 62.95C107.927 64.45 108.782 66.76 108.782 69.88V83.02C108.782 84.34 108.092 85 106.712 85H101.717ZM121.567 85.675C118.867 85.675 116.707 84.97 115.087 83.56C113.467 82.15 112.657 80.05 112.657 77.26V63.67C112.657 62.89 112.837 62.32 113.197 61.96C113.557 61.57 114.157 61.375 114.997 61.375H119.362C120.232 61.375 120.847 61.57 121.207 61.96C121.567 62.32 121.747 62.89 121.747 63.67V76.9C121.747 78.64 122.692 79.51 124.582 79.51C125.542 79.51 126.337 79.255 126.967 78.745C127.597 78.235 127.912 77.59 127.912 76.81V63.67C127.912 62.89 128.092 62.32 128.452 61.96C128.812 61.57 129.427 61.375 130.297 61.375H134.662C135.532 61.375 136.147 61.57 136.507 61.96C136.867 62.32 137.047 62.89 137.047 63.67V83.02C137.047 84.34 136.372 85 135.022 85H130.972C130.162 85 129.712 84.67 129.622 84.01L129.442 82.66C128.572 83.62 127.522 84.37 126.292 84.91C125.062 85.42 123.487 85.675 121.567 85.675ZM149.914 85.675C147.694 85.675 145.819 85.48 144.289 85.09C142.789 84.7 141.394 84.085 140.104 83.245C139.744 83.035 139.564 82.75 139.564 82.39C139.564 82.09 139.669 81.775 139.879 81.445L141.769 78.205C142.039 77.755 142.309 77.53 142.579 77.53C142.759 77.53 143.044 77.65 143.434 77.89C144.214 78.37 145.009 78.715 145.819 78.925C146.629 79.135 147.544 79.24 148.564 79.24C150.424 79.24 151.834 78.79 152.794 77.89C153.754 76.99 154.234 75.445 154.234 73.255C154.234 71.065 153.769 69.505 152.839 68.575C151.939 67.645 150.574 67.18 148.744 67.18C146.854 67.18 145.144 67.63 143.614 68.53C143.224 68.77 142.924 68.89 142.714 68.89C142.384 68.89 142.114 68.68 141.904 68.26L140.059 64.975C139.849 64.555 139.744 64.24 139.744 64.03C139.744 63.73 139.924 63.445 140.284 63.175C141.544 62.365 142.939 61.75 144.469 61.33C146.029 60.91 147.889 60.7 150.049 60.7C154.399 60.7 157.699 61.765 159.949 63.895C162.199 65.995 163.324 69.115 163.324 73.255C163.324 77.365 162.169 80.47 159.859 82.57C157.579 84.64 154.264 85.675 149.914 85.675ZM175.224 85.675C172.524 85.675 170.364 84.97 168.744 83.56C167.124 82.15 166.314 80.05 166.314 77.26V63.67C166.314 62.89 166.494 62.32 166.854 61.96C167.214 61.57 167.814 61.375 168.654 61.375H173.019C173.889 61.375 174.504 61.57 174.864 61.96C175.224 62.32 175.404 62.89 175.404 63.67V76.9C175.404 78.64 176.349 79.51 178.239 79.51C179.199 79.51 179.994 79.255 180.624 78.745C181.254 78.235 181.569 77.59 181.569 76.81V63.67C181.569 62.89 181.749 62.32 182.109 61.96C182.469 61.57 183.084 61.375 183.954 61.375H188.319C189.189 61.375 189.804 61.57 190.164 61.96C190.524 62.32 190.704 62.89 190.704 63.67V83.02C190.704 84.34 190.029 85 188.679 85H184.629C183.819 85 183.369 84.67 183.279 84.01L183.099 82.66C182.229 83.62 181.179 84.37 179.949 84.91C178.719 85.42 177.144 85.675 175.224 85.675ZM198.891 85C197.061 85 196.146 84.055 196.146 82.165V64.48C196.146 63.61 196.071 62.905 195.921 62.365C195.771 61.825 195.561 61.375 195.291 61.015C195.051 60.655 194.646 60.19 194.076 59.62C193.806 59.41 193.536 59.14 193.266 58.81L192.366 57.82C192.096 57.52 191.916 57.235 191.826 56.965C191.706 56.665 191.646 56.275 191.646 55.795V53.86C191.646 53.17 191.811 52.69 192.141 52.42C192.471 52.12 193.011 51.97 193.761 51.97H207.531C208.161 51.97 208.596 52.105 208.836 52.375C209.076 52.615 209.196 53.035 209.196 53.635V56.92C209.196 57.52 209.076 57.94 208.836 58.18C208.596 58.42 208.161 58.54 207.531 58.54H202.446C203.616 59.47 204.381 60.37 204.741 61.24C205.101 62.11 205.281 63.31 205.281 64.84V77.575C205.281 77.905 205.341 78.13 205.461 78.25C205.581 78.37 205.761 78.43 206.001 78.43H206.856C207.366 78.43 207.696 78.52 207.846 78.7C207.996 78.88 208.071 79.255 208.071 79.825V83.38C208.071 83.92 207.981 84.31 207.801 84.55C207.651 84.76 207.381 84.895 206.991 84.955C206.631 84.985 206.001 85 205.101 85H198.891ZM221.886 85.675C217.566 85.675 214.086 84.94 211.446 83.47C211.116 83.29 210.876 83.125 210.726 82.975C210.606 82.825 210.546 82.645 210.546 82.435C210.546 82.315 210.621 82.105 210.771 81.805L212.661 78.34C212.841 78.01 213.051 77.845 213.291 77.845C213.501 77.845 213.771 77.935 214.101 78.115C214.911 78.535 215.991 78.925 217.341 79.285C218.721 79.645 219.951 79.825 221.031 79.825C221.961 79.825 222.621 79.705 223.011 79.465C223.431 79.225 223.641 78.865 223.641 78.385C223.641 77.815 223.356 77.365 222.786 77.035C222.216 76.675 221.121 76.195 219.501 75.595L218.286 75.145C215.856 74.215 214.086 73.225 212.976 72.175C211.896 71.125 211.356 69.73 211.356 67.99C211.356 65.74 212.316 63.97 214.236 62.68C216.186 61.36 218.781 60.7 222.021 60.7C224.031 60.7 225.756 60.865 227.196 61.195C228.636 61.525 230.016 62.035 231.336 62.725C231.936 63.025 232.236 63.37 232.236 63.76C232.236 63.94 232.131 64.21 231.921 64.57L230.121 67.495C229.881 67.855 229.671 68.035 229.491 68.035C229.341 68.035 229.086 67.945 228.726 67.765C228.006 67.405 227.151 67.12 226.161 66.91C225.201 66.67 224.271 66.55 223.371 66.55C222.261 66.55 221.436 66.655 220.896 66.865C220.386 67.045 220.131 67.375 220.131 67.855C220.131 68.455 220.491 68.965 221.211 69.385C221.961 69.775 223.356 70.345 225.396 71.095C225.516 71.125 225.981 71.29 226.791 71.59C229.011 72.43 230.556 73.36 231.426 74.38C232.326 75.37 232.776 76.705 232.776 78.385C232.776 80.545 231.846 82.3 229.986 83.65C228.126 85 225.426 85.675 221.886 85.675ZM247.988 85.675C244.988 85.675 242.678 85.105 241.058 83.965C239.468 82.825 238.298 81.1 237.548 78.79L235.118 71.095C234.968 70.645 234.893 70.315 234.893 70.105C234.893 69.685 235.208 69.37 235.838 69.16L241.238 67.315C241.628 67.165 241.943 67.09 242.183 67.09C242.693 67.09 243.053 67.48 243.263 68.26L246.008 76.945C246.278 77.785 246.593 78.37 246.953 78.7C247.313 79.03 247.883 79.195 248.663 79.195C249.683 79.195 250.418 78.7 250.868 77.71C251.318 76.69 251.543 75.085 251.543 72.895C251.543 70.885 251.318 69.43 250.868 68.53C250.448 67.63 249.743 67.18 248.753 67.18C248.363 67.18 247.748 67.33 246.908 67.63C246.788 67.69 246.608 67.72 246.368 67.72C246.038 67.72 245.783 67.495 245.603 67.045L244.208 63.4C244.118 63.16 244.073 62.965 244.073 62.815C244.073 62.515 244.253 62.29 244.613 62.14C245.603 61.63 246.563 61.27 247.493 61.06C248.453 60.82 249.563 60.7 250.823 60.7C253.913 60.7 256.298 61.78 257.978 63.94C259.688 66.1 260.543 69.085 260.543 72.895C260.543 77.035 259.448 80.2 257.258 82.39C255.068 84.58 251.978 85.675 247.988 85.675ZM266.266 85C264.436 85 263.521 84.055 263.521 82.165V63.67C263.521 62.86 263.701 62.275 264.061 61.915C264.451 61.555 265.111 61.375 266.041 61.375H270.136C271.066 61.375 271.711 61.555 272.071 61.915C272.461 62.275 272.656 62.86 272.656 63.67V77.575C272.656 77.935 272.701 78.175 272.791 78.295C272.881 78.385 273.046 78.43 273.286 78.43H274.231C274.741 78.43 275.071 78.52 275.221 78.7C275.371 78.88 275.446 79.255 275.446 79.825V83.38C275.446 83.92 275.356 84.31 275.176 84.55C275.026 84.76 274.756 84.895 274.366 84.955C274.006 84.985 273.376 85 272.476 85H266.266ZM288.815 85.675C284.495 85.675 281.015 84.94 278.375 83.47C278.045 83.29 277.805 83.125 277.655 82.975C277.535 82.825 277.475 82.645 277.475 82.435C277.475 82.315 277.55 82.105 277.7 81.805L279.59 78.34C279.77 78.01 279.98 77.845 280.22 77.845C280.43 77.845 280.7 77.935 281.03 78.115C281.84 78.535 282.92 78.925 284.27 79.285C285.65 79.645 286.88 79.825 287.96 79.825C288.89 79.825 289.55 79.705 289.94 79.465C290.36 79.225 290.57 78.865 290.57 78.385C290.57 77.815 290.285 77.365 289.715 77.035C289.145 76.675 288.05 76.195 286.43 75.595L285.215 75.145C282.785 74.215 281.015 73.225 279.905 72.175C278.825 71.125 278.285 69.73 278.285 67.99C278.285 65.74 279.245 63.97 281.165 62.68C283.115 61.36 285.71 60.7 288.95 60.7C290.96 60.7 292.685 60.865 294.125 61.195C295.565 61.525 296.945 62.035 298.265 62.725C298.865 63.025 299.165 63.37 299.165 63.76C299.165 63.94 299.06 64.21 298.85 64.57L297.05 67.495C296.81 67.855 296.6 68.035 296.42 68.035C296.27 68.035 296.015 67.945 295.655 67.765C294.935 67.405 294.08 67.12 293.09 66.91C292.13 66.67 291.2 66.55 290.3 66.55C289.19 66.55 288.365 66.655 287.825 66.865C287.315 67.045 287.06 67.375 287.06 67.855C287.06 68.455 287.42 68.965 288.14 69.385C288.89 69.775 290.285 70.345 292.325 71.095C292.445 71.125 292.91 71.29 293.72 71.59C295.94 72.43 297.485 73.36 298.355 74.38C299.255 75.37 299.705 76.705 299.705 78.385C299.705 80.545 298.775 82.3 296.915 83.65C295.055 85 292.355 85.675 288.815 85.675ZM280.132 58.63C279.232 58.63 278.647 58.495 278.377 58.225C278.107 57.925 277.972 57.31 277.972 56.38V54.67C277.972 53.74 278.107 53.14 278.377 52.87C278.647 52.57 279.232 52.42 280.132 52.42H291.697V50.575C291.697 49.765 291.877 49.21 292.237 48.91C292.567 48.61 293.107 48.46 293.857 48.46H296.647C297.397 48.46 297.952 48.61 298.312 48.91C298.642 49.21 298.807 49.765 298.807 50.575V56.155C298.807 57.055 298.642 57.7 298.312 58.09C297.982 58.45 297.337 58.63 296.377 58.63H280.132ZM314.152 85.675C310.372 85.675 307.357 85.015 305.107 83.695C302.887 82.345 301.777 80.365 301.777 77.755C301.777 75.115 302.737 73.345 304.657 72.445C303.727 71.845 303.037 71.14 302.587 70.33C302.167 69.49 301.957 68.47 301.957 67.27C301.957 65.32 302.647 63.745 304.027 62.545C305.437 61.315 307.237 60.7 309.427 60.7C311.737 60.7 313.672 61.135 315.232 62.005C315.592 62.215 315.772 62.47 315.772 62.77C315.772 62.92 315.727 63.115 315.637 63.355L314.557 66.19C314.407 66.52 314.227 66.685 314.017 66.685C313.897 66.685 313.747 66.64 313.567 66.55C313.387 66.46 313.192 66.385 312.982 66.325C312.802 66.235 312.577 66.19 312.307 66.19C311.797 66.19 311.392 66.37 311.092 66.73C310.822 67.09 310.687 67.555 310.687 68.125C310.687 68.815 310.852 69.325 311.182 69.655C311.542 69.955 312.097 70.105 312.847 70.105H313.747C314.407 70.105 314.737 70.435 314.737 71.095V74.02C314.737 74.71 314.392 75.055 313.702 75.055H312.892C312.142 75.055 311.587 75.22 311.227 75.55C310.867 75.88 310.687 76.405 310.687 77.125C310.687 78.505 311.842 79.195 314.152 79.195C315.472 79.195 316.417 78.895 316.987 78.295C317.587 77.695 317.887 76.705 317.887 75.325V63.67C317.887 62.89 318.067 62.32 318.427 61.96C318.787 61.57 319.387 61.375 320.227 61.375H324.592C325.462 61.375 326.077 61.57 326.437 61.96C326.827 62.32 327.022 62.89 327.022 63.67V74.83C327.022 78.13 326.017 80.77 324.007 82.75C321.997 84.7 318.712 85.675 314.152 85.675ZM339.8 85.675C337.1 85.675 334.94 84.97 333.32 83.56C331.7 82.15 330.89 80.05 330.89 77.26V63.67C330.89 62.89 331.07 62.32 331.43 61.96C331.79 61.57 332.39 61.375 333.23 61.375H337.595C338.465 61.375 339.08 61.57 339.44 61.96C339.8 62.32 339.98 62.89 339.98 63.67V76.9C339.98 78.64 340.925 79.51 342.815 79.51C343.775 79.51 344.57 79.255 345.2 78.745C345.83 78.235 346.145 77.59 346.145 76.81V63.67C346.145 62.89 346.325 62.32 346.685 61.96C347.045 61.57 347.66 61.375 348.53 61.375H352.895C353.765 61.375 354.38 61.57 354.74 61.96C355.1 62.32 355.28 62.89 355.28 63.67V83.02C355.28 84.34 354.605 85 353.255 85H349.205C348.395 85 347.945 84.67 347.855 84.01L347.675 82.66C346.805 83.62 345.755 84.37 344.525 84.91C343.295 85.42 341.72 85.675 339.8 85.675ZM85.8811 139.675C83.4811 139.675 81.5761 139.015 80.1661 137.695C78.7561 136.345 78.0511 134.59 78.0511 132.43C78.0511 129.61 78.9811 127.6 80.8411 126.4C82.7011 125.2 85.3711 124.6 88.8511 124.6H94.2061V124.105C94.2061 123.055 93.8461 122.29 93.1261 121.81C92.4061 121.3 91.1011 121.045 89.2111 121.045C88.1611 121.045 87.1111 121.165 86.0611 121.405C85.0411 121.615 84.1561 121.9 83.4061 122.26C82.9861 122.47 82.6861 122.575 82.5061 122.575C82.2061 122.575 81.9511 122.38 81.7411 121.99L79.7161 118.435C79.5661 118.195 79.4911 117.985 79.4911 117.805C79.4911 117.535 79.7011 117.28 80.1211 117.04C81.3811 116.29 82.9561 115.72 84.8461 115.33C86.7661 114.91 88.8211 114.7 91.0111 114.7C95.1811 114.7 98.2561 115.555 100.236 117.265C102.216 118.975 103.206 121.54 103.206 124.96V136.75C103.206 137.53 103.026 138.1 102.666 138.46C102.306 138.82 101.691 139 100.821 139H96.5911C95.7211 139 95.1061 138.82 94.7461 138.46C94.3861 138.1 94.2061 137.53 94.2061 136.75V130.495H89.2561C88.2961 130.495 87.5911 130.63 87.1411 130.9C86.7211 131.17 86.5111 131.635 86.5111 132.295C86.5111 132.925 86.6611 133.375 86.9611 133.645C87.2911 133.915 87.8161 134.05 88.5361 134.05C89.0461 134.05 89.6311 133.93 90.2911 133.69C90.3811 133.66 90.4861 133.645 90.6061 133.645C90.9361 133.645 91.1461 133.855 91.2361 134.275L91.9111 137.695C91.9411 137.785 91.9561 137.905 91.9561 138.055C91.9561 138.265 91.8961 138.43 91.7761 138.55C91.6561 138.67 91.4461 138.79 91.1461 138.91C89.7061 139.42 87.9511 139.675 85.8811 139.675ZM115.671 139.675C112.641 139.675 110.301 138.655 108.651 136.615C107.001 134.545 106.176 131.71 106.176 128.11C106.176 123.79 107.331 120.475 109.641 118.165C111.981 115.855 115.401 114.7 119.901 114.7C124.251 114.7 127.461 115.645 129.531 117.535C131.601 119.395 132.636 121.915 132.636 125.095V136.75C132.636 137.53 132.456 138.1 132.096 138.46C131.736 138.82 131.121 139 130.251 139H125.886C125.016 139 124.401 138.82 124.041 138.46C123.681 138.1 123.501 137.53 123.501 136.75V125.41C123.501 124.03 123.216 122.98 122.646 122.26C122.106 121.54 121.191 121.18 119.901 121.18C118.311 121.18 117.126 121.75 116.346 122.89C115.596 124 115.221 125.83 115.221 128.38C115.221 130.12 115.431 131.365 115.851 132.115C116.301 132.835 117.006 133.195 117.966 133.195C118.566 133.195 119.136 133.075 119.676 132.835C119.766 132.805 119.871 132.79 119.991 132.79C120.321 132.79 120.531 133 120.621 133.42L121.521 137.65C121.551 137.74 121.566 137.86 121.566 138.01C121.566 138.22 121.506 138.385 121.386 138.505C121.266 138.625 121.056 138.745 120.756 138.865C120.006 139.135 119.256 139.33 118.506 139.45C117.756 139.6 116.811 139.675 115.671 139.675ZM143.449 139.675C141.049 139.675 139.144 139.015 137.734 137.695C136.324 136.345 135.619 134.59 135.619 132.43C135.619 129.61 136.549 127.6 138.409 126.4C140.269 125.2 142.939 124.6 146.419 124.6H151.774V124.105C151.774 123.055 151.414 122.29 150.694 121.81C149.974 121.3 148.669 121.045 146.779 121.045C145.729 121.045 144.679 121.165 143.629 121.405C142.609 121.615 141.724 121.9 140.974 122.26C140.554 122.47 140.254 122.575 140.074 122.575C139.774 122.575 139.519 122.38 139.309 121.99L137.284 118.435C137.134 118.195 137.059 117.985 137.059 117.805C137.059 117.535 137.269 117.28 137.689 117.04C138.949 116.29 140.524 115.72 142.414 115.33C144.334 114.91 146.389 114.7 148.579 114.7C152.749 114.7 155.824 115.555 157.804 117.265C159.784 118.975 160.774 121.54 160.774 124.96V136.75C160.774 137.53 160.594 138.1 160.234 138.46C159.874 138.82 159.259 139 158.389 139H154.159C153.289 139 152.674 138.82 152.314 138.46C151.954 138.1 151.774 137.53 151.774 136.75V130.495H146.824C145.864 130.495 145.159 130.63 144.709 130.9C144.289 131.17 144.079 131.635 144.079 132.295C144.079 132.925 144.229 133.375 144.529 133.645C144.859 133.915 145.384 134.05 146.104 134.05C146.614 134.05 147.199 133.93 147.859 133.69C147.949 133.66 148.054 133.645 148.174 133.645C148.504 133.645 148.714 133.855 148.804 134.275L149.479 137.695C149.509 137.785 149.524 137.905 149.524 138.055C149.524 138.265 149.464 138.43 149.344 138.55C149.224 138.67 149.014 138.79 148.714 138.91C147.274 139.42 145.519 139.675 143.449 139.675ZM176.884 139.675C173.884 139.675 171.574 139.105 169.954 137.965C168.364 136.825 167.194 135.1 166.444 132.79L164.014 125.095C163.864 124.645 163.789 124.315 163.789 124.105C163.789 123.685 164.104 123.37 164.734 123.16L170.134 121.315C170.524 121.165 170.839 121.09 171.079 121.09C171.589 121.09 171.949 121.48 172.159 122.26L174.904 130.945C175.174 131.785 175.489 132.37 175.849 132.7C176.209 133.03 176.779 133.195 177.559 133.195C178.579 133.195 179.314 132.7 179.764 131.71C180.214 130.69 180.439 129.085 180.439 126.895C180.439 124.885 180.214 123.43 179.764 122.53C179.344 121.63 178.639 121.18 177.649 121.18C177.259 121.18 176.644 121.33 175.804 121.63C175.684 121.69 175.504 121.72 175.264 121.72C174.934 121.72 174.679 121.495 174.499 121.045L173.104 117.4C173.014 117.16 172.969 116.965 172.969 116.815C172.969 116.515 173.149 116.29 173.509 116.14C174.499 115.63 175.459 115.27 176.389 115.06C177.349 114.82 178.459 114.7 179.719 114.7C182.809 114.7 185.194 115.78 186.874 117.94C188.584 120.1 189.439 123.085 189.439 126.895C189.439 131.035 188.344 134.2 186.154 136.39C183.964 138.58 180.874 139.675 176.884 139.675ZM201.013 139.675C197.983 139.675 195.643 138.655 193.993 136.615C192.343 134.545 191.518 131.71 191.518 128.11C191.518 125.32 191.893 122.92 192.643 120.91C193.423 118.87 194.503 117.325 195.883 116.275C197.293 115.225 198.928 114.7 200.788 114.7C202.678 114.7 204.148 115.42 205.198 116.86C205.738 116.2 206.488 115.675 207.448 115.285C208.438 114.895 209.488 114.7 210.598 114.7C213.088 114.7 214.933 115.3 216.133 116.5C217.363 117.67 217.978 119.29 217.978 121.36V136.75C217.978 137.53 217.798 138.1 217.438 138.46C217.078 138.82 216.463 139 215.593 139H211.228C210.358 139 209.743 138.82 209.383 138.46C209.023 138.1 208.843 137.53 208.843 136.75V122.845C208.843 121.735 208.393 121.18 207.493 121.18C206.983 121.18 206.518 121.45 206.098 121.99C205.948 122.17 205.798 122.305 205.648 122.395C205.528 122.455 205.363 122.485 205.153 122.485C204.913 122.485 204.718 122.455 204.568 122.395C204.448 122.305 204.313 122.17 204.163 121.99C203.953 121.69 203.758 121.48 203.578 121.36C203.428 121.24 203.203 121.18 202.903 121.18C202.183 121.18 201.613 121.75 201.193 122.89C200.773 124.03 200.563 125.77 200.563 128.11C200.563 129.94 200.773 131.245 201.193 132.025C201.643 132.805 202.348 133.195 203.308 133.195C203.908 133.195 204.478 133.075 205.018 132.835C205.108 132.805 205.213 132.79 205.333 132.79C205.663 132.79 205.873 133 205.963 133.42L206.863 137.65C206.893 137.74 206.908 137.86 206.908 138.01C206.908 138.22 206.848 138.385 206.728 138.505C206.608 138.625 206.398 138.745 206.098 138.865C205.348 139.135 204.598 139.33 203.848 139.45C203.098 139.6 202.153 139.675 201.013 139.675ZM211.781 112.63C210.941 112.63 210.356 112.48 210.026 112.18C209.666 111.88 209.486 111.31 209.486 110.47V105.295C209.486 104.425 209.666 103.84 210.026 103.54C210.356 103.24 210.941 103.09 211.781 103.09H215.606C216.446 103.09 217.046 103.24 217.406 103.54C217.736 103.84 217.901 104.425 217.901 105.295V110.47C217.901 111.31 217.736 111.88 217.406 112.18C217.046 112.48 216.446 112.63 215.606 112.63H211.781ZM232.436 139.675C224.786 139.675 220.961 136.63 220.961 130.54V127.255C220.961 126.505 221.126 125.95 221.456 125.59C221.816 125.23 222.416 125.05 223.256 125.05H230.456C231.056 125.05 231.461 125.17 231.671 125.41C231.911 125.65 232.031 126.07 232.031 126.67V128.875C232.031 129.475 231.911 129.895 231.671 130.135C231.461 130.375 231.041 130.495 230.411 130.495H228.881V131.215C228.881 131.755 229.166 132.22 229.736 132.61C230.306 133 231.206 133.195 232.436 133.195C233.966 133.195 235.001 132.73 235.541 131.8C236.111 130.87 236.396 129.295 236.396 127.075C236.396 124.885 235.976 123.355 235.136 122.485C234.326 121.615 232.871 121.18 230.771 121.18C229.691 121.18 228.641 121.3 227.621 121.54C226.631 121.78 225.746 122.095 224.966 122.485C224.546 122.695 224.246 122.8 224.066 122.8C223.766 122.8 223.511 122.605 223.301 122.215L221.411 118.93C221.201 118.51 221.096 118.18 221.096 117.94C221.096 117.61 221.261 117.34 221.591 117.13C222.821 116.35 224.426 115.75 226.406 115.33C228.416 114.91 230.531 114.7 232.751 114.7C241.241 114.7 245.486 118.825 245.486 127.075C245.486 131.245 244.346 134.395 242.066 136.525C239.786 138.625 236.576 139.675 232.436 139.675ZM251.193 139C249.363 139 248.448 138.055 248.448 136.165V117.67C248.448 116.86 248.628 116.275 248.988 115.915C249.378 115.555 250.038 115.375 250.968 115.375H255.063C255.993 115.375 256.638 115.555 256.998 115.915C257.388 116.275 257.583 116.86 257.583 117.67V131.575C257.583 131.935 257.628 132.175 257.718 132.295C257.808 132.385 257.973 132.43 258.213 132.43H259.158C259.668 132.43 259.998 132.52 260.148 132.7C260.298 132.88 260.373 133.255 260.373 133.825V137.38C260.373 137.92 260.283 138.31 260.103 138.55C259.953 138.76 259.683 138.895 259.293 138.955C258.933 138.985 258.303 139 257.403 139H251.193ZM272.212 139.675C269.512 139.675 267.352 138.97 265.732 137.56C264.112 136.15 263.302 134.05 263.302 131.26V117.67C263.302 116.89 263.482 116.32 263.842 115.96C264.202 115.57 264.802 115.375 265.642 115.375H270.007C270.877 115.375 271.492 115.57 271.852 115.96C272.212 116.32 272.392 116.89 272.392 117.67V130.9C272.392 132.64 273.337 133.51 275.227 133.51C276.187 133.51 276.982 133.255 277.612 132.745C278.242 132.235 278.557 131.59 278.557 130.81V117.67C278.557 116.89 278.737 116.32 279.097 115.96C279.457 115.57 280.072 115.375 280.942 115.375H285.307C286.177 115.375 286.792 115.57 287.152 115.96C287.512 116.32 287.692 116.89 287.692 117.67V137.02C287.692 138.34 287.017 139 285.667 139H281.617C280.807 139 280.357 138.67 280.267 138.01L280.087 136.66C279.217 137.62 278.167 138.37 276.937 138.91C275.707 139.42 274.132 139.675 272.212 139.675ZM269.014 112.63C268.084 112.63 267.484 112.495 267.214 112.225C266.944 111.925 266.809 111.31 266.809 110.38V108.67C266.809 107.74 266.944 107.14 267.214 106.87C267.484 106.57 268.084 106.42 269.014 106.42H273.964V104.575C273.964 103.765 274.144 103.21 274.504 102.91C274.834 102.61 275.374 102.46 276.124 102.46H277.654C278.404 102.46 278.959 102.61 279.319 102.91C279.649 103.21 279.814 103.765 279.814 104.575V106.42H281.839V104.575C281.839 103.765 282.019 103.21 282.379 102.91C282.709 102.61 283.249 102.46 283.999 102.46H285.529C286.279 102.46 286.834 102.61 287.194 102.91C287.524 103.21 287.689 103.765 287.689 104.575V110.155C287.689 111.055 287.524 111.7 287.194 112.09C286.864 112.45 286.219 112.63 285.259 112.63H269.014ZM282.919 100.93C282.109 100.93 281.539 100.78 281.209 100.48C280.849 100.18 280.669 99.595 280.669 98.725V95.17C280.669 94.3 280.849 93.715 281.209 93.415C281.539 93.115 282.109 92.965 282.919 92.965H285.304C286.114 92.965 286.699 93.115 287.059 93.415C287.419 93.715 287.599 94.3 287.599 95.17V98.725C287.599 99.595 287.419 100.18 287.059 100.48C286.699 100.78 286.114 100.93 285.304 100.93H282.919ZM302.134 139.675C294.484 139.675 290.659 136.63 290.659 130.54V127.255C290.659 126.505 290.824 125.95 291.154 125.59C291.514 125.23 292.114 125.05 292.954 125.05H300.154C300.754 125.05 301.159 125.17 301.369 125.41C301.609 125.65 301.729 126.07 301.729 126.67V128.875C301.729 129.475 301.609 129.895 301.369 130.135C301.159 130.375 300.739 130.495 300.109 130.495H298.579V131.215C298.579 131.755 298.864 132.22 299.434 132.61C300.004 133 300.904 133.195 302.134 133.195C303.664 133.195 304.699 132.73 305.239 131.8C305.809 130.87 306.094 129.295 306.094 127.075C306.094 124.885 305.674 123.355 304.834 122.485C304.024 121.615 302.569 121.18 300.469 121.18C299.389 121.18 298.339 121.3 297.319 121.54C296.329 121.78 295.444 122.095 294.664 122.485C294.244 122.695 293.944 122.8 293.764 122.8C293.464 122.8 293.209 122.605 292.999 122.215L291.109 118.93C290.899 118.51 290.794 118.18 290.794 117.94C290.794 117.61 290.959 117.34 291.289 117.13C292.519 116.35 294.124 115.75 296.104 115.33C298.114 114.91 300.229 114.7 302.449 114.7C310.939 114.7 315.184 118.825 315.184 127.075C315.184 131.245 314.044 134.395 311.764 136.525C309.484 138.625 306.274 139.675 302.134 139.675ZM330.385 139.675C327.385 139.675 325.075 139.105 323.455 137.965C321.865 136.825 320.695 135.1 319.945 132.79L317.515 125.095C317.365 124.645 317.29 124.315 317.29 124.105C317.29 123.685 317.605 123.37 318.235 123.16L323.635 121.315C324.025 121.165 324.34 121.09 324.58 121.09C325.09 121.09 325.45 121.48 325.66 122.26L328.405 130.945C328.675 131.785 328.99 132.37 329.35 132.7C329.71 133.03 330.28 133.195 331.06 133.195C332.08 133.195 332.815 132.7 333.265 131.71C333.715 130.69 333.94 129.085 333.94 126.895C333.94 124.885 333.715 123.43 333.265 122.53C332.845 121.63 332.14 121.18 331.15 121.18C330.76 121.18 330.145 121.33 329.305 121.63C329.185 121.69 329.005 121.72 328.765 121.72C328.435 121.72 328.18 121.495 328 121.045L326.605 117.4C326.515 117.16 326.47 116.965 326.47 116.815C326.47 116.515 326.65 116.29 327.01 116.14C328 115.63 328.96 115.27 329.89 115.06C330.85 114.82 331.96 114.7 333.22 114.7C336.31 114.7 338.695 115.78 340.375 117.94C342.085 120.1 342.94 123.085 342.94 126.895C342.94 131.035 341.845 134.2 339.655 136.39C337.465 138.58 334.375 139.675 330.385 139.675Z" fill="black"/>
<path d="M63.7886 89.5H357.215V91.75H63.7886V89.5ZM77.0161 143.5H343.975V145.75H77.0161V143.5Z" fill="black"/>
<path d="M4.944 231.24C3.67467 231.24 2.70933 230.968 2.048 230.424C1.39733 229.869 1.072 229.117 1.072 228.168V223.08C1.072 222.76 1.232 222.6 1.552 222.6H2.048C2.21867 222.6 2.34133 222.643 2.416 222.728C2.49067 222.803 2.528 222.92 2.528 223.08V228.312C2.528 228.909 2.736 229.363 3.152 229.672C3.568 229.971 4.16533 230.12 4.944 230.12C5.72267 230.12 6.32 229.971 6.736 229.672C7.152 229.363 7.36 228.909 7.36 228.312V220.28C7.36 220.12 7.39733 220.003 7.472 219.928C7.54667 219.843 7.66933 219.8 7.84 219.8H8.32C8.65067 219.8 8.816 219.96 8.816 220.28V228.168C8.816 229.117 8.48533 229.869 7.824 230.424C7.17333 230.968 6.21333 231.24 4.944 231.24ZM1.22987 220.968C1.05921 220.968 0.941875 220.936 0.877874 220.872C0.803208 220.808 0.765875 220.691 0.765875 220.52V220.28C0.765875 220.12 0.803208 220.003 0.877874 219.928C0.941875 219.853 1.05921 219.816 1.22987 219.816H4.74987V218.328C4.74987 218.104 4.86187 217.992 5.08587 217.992H5.69387C5.91787 217.992 6.02987 218.104 6.02987 218.328V220.184C6.02987 220.483 5.97654 220.691 5.86987 220.808C5.76321 220.915 5.55521 220.968 5.24587 220.968H1.22987ZM17.8254 231C17.5267 231 17.3774 230.845 17.3774 230.536V230.024C17.3774 229.331 17.6547 228.637 18.2094 227.944C18.7747 227.24 19.5854 226.611 20.6414 226.056C21.4307 225.64 22.0227 225.293 22.4174 225.016C22.8227 224.728 23.116 224.424 23.2974 224.104C23.4894 223.784 23.5854 223.389 23.5854 222.92C23.5854 222.28 23.3614 221.8 22.9134 221.48C22.4654 221.16 21.852 221 21.0734 221C20.54 221 20.0334 221.064 19.5534 221.192C19.0734 221.32 18.6734 221.485 18.3534 221.688C18.3 221.731 18.2467 221.752 18.1934 221.752C18.1294 221.752 18.076 221.709 18.0334 221.624L17.6974 221.032C17.6654 220.968 17.6494 220.915 17.6494 220.872C17.6494 220.797 17.692 220.733 17.7774 220.68C18.1294 220.435 18.6094 220.243 19.2174 220.104C19.8254 219.955 20.4867 219.88 21.2014 219.88C22.332 219.88 23.2494 220.147 23.9534 220.68C24.668 221.213 25.0254 221.96 25.0254 222.92C25.0254 223.763 24.7587 224.472 24.2254 225.048C23.692 225.613 22.8654 226.179 21.7454 226.744C20.8174 227.224 20.1027 227.725 19.6014 228.248C19.1 228.76 18.8494 229.288 18.8494 229.832H24.4654C24.636 229.832 24.7534 229.869 24.8174 229.944C24.892 230.008 24.9294 230.125 24.9294 230.296V230.568C24.9294 230.728 24.892 230.84 24.8174 230.904C24.7534 230.968 24.636 231 24.4654 231H17.8254ZM30.2769 231.24C29.5622 231.24 28.8742 231.16 28.2129 231C27.5622 230.851 27.0555 230.653 26.6929 230.408C26.6075 230.355 26.5649 230.291 26.5649 230.216C26.5649 230.173 26.5809 230.12 26.6129 230.056L26.9649 229.464C27.0075 229.389 27.0555 229.352 27.1089 229.352C27.1622 229.352 27.2155 229.373 27.2689 229.416C27.5995 229.619 28.0262 229.789 28.5489 229.928C29.0822 230.056 29.6582 230.12 30.2769 230.12C31.3009 230.12 32.0742 229.907 32.5969 229.48C33.1195 229.043 33.3809 228.392 33.3809 227.528C33.3809 226.557 33.1569 225.88 32.7089 225.496C32.2609 225.101 31.5195 224.904 30.4849 224.904C29.5355 224.904 28.7302 225.064 28.0689 225.384C27.9302 225.437 27.7969 225.464 27.6689 225.464C27.4449 225.464 27.2582 225.4 27.1089 225.272C26.9702 225.133 26.9062 224.952 26.9169 224.728L27.1889 220.568C27.1995 220.419 27.2369 220.307 27.3009 220.232C27.3755 220.157 27.4982 220.12 27.6689 220.12H33.8449C34.0155 220.12 34.1382 220.152 34.2129 220.216C34.2875 220.28 34.3249 220.392 34.3249 220.552V220.824C34.3249 220.995 34.2875 221.117 34.2129 221.192C34.1382 221.256 34.0155 221.288 33.8449 221.288H28.4689L28.2769 224.2C28.9595 223.955 29.7809 223.832 30.7409 223.832C33.4609 223.832 34.8209 225.064 34.8209 227.528C34.8209 228.275 34.6342 228.931 34.2609 229.496C33.8982 230.051 33.3755 230.483 32.6929 230.792C32.0102 231.091 31.2049 231.24 30.2769 231.24ZM40.0581 231.24C39.3435 231.24 38.6555 231.16 37.9941 231C37.3435 230.851 36.8368 230.653 36.4741 230.408C36.3888 230.355 36.3461 230.291 36.3461 230.216C36.3461 230.173 36.3621 230.12 36.3941 230.056L36.7461 229.464C36.7888 229.389 36.8368 229.352 36.8901 229.352C36.9435 229.352 36.9968 229.373 37.0501 229.416C37.3808 229.619 37.8075 229.789 38.3301 229.928C38.8635 230.056 39.4395 230.12 40.0581 230.12C41.0821 230.12 41.8555 229.907 42.3781 229.48C42.9008 229.043 43.1621 228.392 43.1621 227.528C43.1621 226.557 42.9381 225.88 42.4901 225.496C42.0421 225.101 41.3008 224.904 40.2661 224.904C39.3168 224.904 38.5115 225.064 37.8501 225.384C37.7115 225.437 37.5781 225.464 37.4501 225.464C37.2261 225.464 37.0395 225.4 36.8901 225.272C36.7515 225.133 36.6875 224.952 36.6981 224.728L36.9701 220.568C36.9808 220.419 37.0181 220.307 37.0821 220.232C37.1568 220.157 37.2795 220.12 37.4501 220.12H43.6261C43.7968 220.12 43.9195 220.152 43.9941 220.216C44.0688 220.28 44.1061 220.392 44.1061 220.552V220.824C44.1061 220.995 44.0688 221.117 43.9941 221.192C43.9195 221.256 43.7968 221.288 43.6261 221.288H38.2501L38.0581 224.2C38.7408 223.955 39.5621 223.832 40.5221 223.832C43.2421 223.832 44.6021 225.064 44.6021 227.528C44.6021 228.275 44.4155 228.931 44.0421 229.496C43.6795 230.051 43.1568 230.483 42.4741 230.792C41.7915 231.091 40.9861 231.24 40.0581 231.24ZM50.4154 231.24C49.1354 231.24 48.0954 230.851 47.2954 230.072C46.506 229.293 46.1114 228.04 46.1114 226.312C46.1114 224.733 46.3354 223.469 46.7834 222.52C47.2314 221.56 47.8074 220.883 48.5114 220.488C49.2154 220.083 49.994 219.88 50.8474 219.88C52.0634 219.88 53.0394 220.136 53.7754 220.648C53.8607 220.701 53.9034 220.765 53.9034 220.84C53.9034 220.883 53.8874 220.936 53.8554 221L53.5354 221.544C53.4927 221.64 53.4394 221.688 53.3754 221.688C53.3434 221.688 53.29 221.661 53.2154 221.608C52.906 221.395 52.5647 221.24 52.1914 221.144C51.8287 221.048 51.3807 221 50.8474 221C49.898 221 49.1514 221.304 48.6074 221.912C48.074 222.509 47.722 223.411 47.5514 224.616C47.914 224.2 48.362 223.896 48.8954 223.704C49.4287 223.501 50.0687 223.4 50.8154 223.4C51.5834 223.4 52.2714 223.555 52.8794 223.864C53.4874 224.163 53.962 224.595 54.3034 225.16C54.6554 225.715 54.8314 226.36 54.8314 227.096C54.8314 228.451 54.442 229.48 53.6634 230.184C52.8847 230.888 51.802 231.24 50.4154 231.24ZM50.4154 230.12C52.41 230.12 53.4074 229.112 53.4074 227.096C53.4074 226.264 53.1354 225.613 52.5914 225.144C52.058 224.675 51.3594 224.44 50.4954 224.44C50.026 224.44 49.5674 224.536 49.1194 224.728C48.6714 224.92 48.298 225.219 47.9994 225.624C47.7114 226.029 47.5674 226.541 47.5674 227.16C47.5674 228.195 47.8287 228.947 48.3514 229.416C48.874 229.885 49.562 230.12 50.4154 230.12Z" fill="black"/>
<path d="M17.74 23.3C15.58 23.3 13.9867 22.9533 12.96 22.26C12.84 22.18 12.78 22.0867 12.78 21.98C12.78 21.9 12.8133 21.8067 12.88 21.7L13.46 20.72C13.54 20.5867 13.6133 20.52 13.68 20.52C13.7333 20.52 13.8267 20.5533 13.96 20.62C14.4 20.86 14.9067 21.0533 15.48 21.2C16.0667 21.3467 16.7 21.42 17.38 21.42C18.4733 21.42 19.2733 21.2133 19.78 20.8C20.3 20.3733 20.56 19.7867 20.56 19.04C20.56 17.6533 19.7133 16.96 18.02 16.96H16.34C16.0733 16.96 15.88 16.9067 15.76 16.8C15.6533 16.68 15.6 16.4933 15.6 16.24V15.72C15.6 15.48 15.6533 15.3067 15.76 15.2C15.88 15.0933 16.0733 15.04 16.34 15.04H17.98C18.7 15.04 19.24 14.8533 19.6 14.48C19.96 14.0933 20.14 13.6067 20.14 13.02C20.14 11.6733 19.1933 11 17.3 11C16.1267 11 15.0933 11.2467 14.2 11.74C14.0667 11.8067 13.9733 11.84 13.92 11.84C13.8533 11.84 13.78 11.78 13.7 11.66L13.14 10.72C13.0733 10.6133 13.04 10.52 13.04 10.44C13.04 10.3333 13.1 10.24 13.22 10.16C13.6867 9.82667 14.3067 9.56667 15.08 9.38C15.8533 9.19333 16.7133 9.1 17.66 9.1C18.6867 9.1 19.5733 9.26 20.32 9.58C21.08 9.9 21.66 10.3533 22.06 10.94C22.4733 11.5133 22.68 12.1867 22.68 12.96C22.68 13.5867 22.5267 14.1667 22.22 14.7C21.9267 15.2333 21.5 15.6467 20.94 15.94C21.66 16.2067 22.1933 16.62 22.54 17.18C22.9 17.7267 23.08 18.3733 23.08 19.12C23.08 20.3733 22.6133 21.3867 21.68 22.16C20.76 22.92 19.4467 23.3 17.74 23.3ZM31.2555 23.3C29.0688 23.3 27.4155 22.6933 26.2955 21.48C25.1888 20.2533 24.6355 18.4933 24.6355 16.2C24.6355 13.9067 25.1888 12.1533 26.2955 10.94C27.4155 9.71333 29.0688 9.1 31.2555 9.1C33.4288 9.1 35.0755 9.71333 36.1955 10.94C37.3155 12.1667 37.8755 13.92 37.8755 16.2C37.8755 18.48 37.3155 20.2333 36.1955 21.46C35.0755 22.6867 33.4288 23.3 31.2555 23.3ZM33.5155 11.6C32.9421 11.2 32.1888 11 31.2555 11C29.8688 11 28.8355 11.4333 28.1555 12.3C27.4888 13.1667 27.1555 14.4667 27.1555 16.2C27.1555 17.5733 27.4355 18.6333 27.9955 19.38L33.5155 11.6ZM31.2555 21.42C32.6421 21.42 33.6688 20.9867 34.3355 20.12C35.0021 19.2533 35.3355 17.9467 35.3355 16.2C35.3355 14.8533 35.0688 13.8 34.5355 13.04L28.9955 20.86C29.5955 21.2333 30.3488 21.42 31.2555 21.42ZM44.6402 23.3C43.8135 23.3 43.0602 23.2067 42.3802 23.02C41.7135 22.8467 41.1468 22.6067 40.6802 22.3C40.5602 22.22 40.5002 22.1267 40.5002 22.02C40.5002 21.94 40.5335 21.8467 40.6002 21.74L41.1602 20.78C41.2402 20.66 41.3135 20.6 41.3802 20.6C41.4335 20.6 41.5268 20.6333 41.6602 20.7C42.4602 21.18 43.4068 21.42 44.5002 21.42C45.6335 21.42 46.5068 21.12 47.1202 20.52C47.7335 19.92 48.1135 19 48.2602 17.76C47.8068 18.1867 47.2735 18.4933 46.6602 18.68C46.0602 18.8533 45.3468 18.94 44.5202 18.94C43.4802 18.94 42.5735 18.7533 41.8002 18.38C41.0402 17.9933 40.4535 17.4533 40.0402 16.76C39.6402 16.0667 39.4402 15.2733 39.4402 14.38C39.4402 12.62 39.9335 11.3 40.9202 10.42C41.9068 9.54 43.3135 9.1 45.1402 9.1C46.7935 9.1 48.1135 9.61333 49.1002 10.64C50.1002 11.6533 50.6002 13.22 50.6002 15.34C50.6002 18.1667 50.0402 20.2 48.9202 21.44C47.8135 22.68 46.3868 23.3 44.6402 23.3ZM45.0802 17.3C45.5868 17.3 46.0602 17.1933 46.5002 16.98C46.9535 16.7533 47.3202 16.4267 47.6002 16C47.8802 15.56 48.0202 15.0333 48.0202 14.42C48.0202 13.2867 47.7668 12.4333 47.2602 11.86C46.7535 11.2867 46.0402 11 45.1202 11C44.0668 11 43.2735 11.2667 42.7402 11.8C42.2202 12.3333 41.9602 13.18 41.9602 14.34C41.9602 15.3267 42.2202 16.0667 42.7402 16.56C43.2735 17.0533 44.0535 17.3 45.0802 17.3ZM52.855 23C52.415 23 52.195 22.7733 52.195 22.32V21.54C52.195 20.6867 52.5217 19.8467 53.175 19.02C53.8417 18.1933 54.835 17.4067 56.155 16.66C57.1017 16.1267 57.795 15.7067 58.235 15.4C58.675 15.08 58.995 14.7467 59.195 14.4C59.4083 14.04 59.515 13.6 59.515 13.08C59.515 12.4 59.275 11.8867 58.795 11.54C58.315 11.18 57.6417 11 56.775 11C56.1483 11 55.555 11.08 54.995 11.24C54.4483 11.3867 53.975 11.5733 53.575 11.8C53.4417 11.8667 53.355 11.9 53.315 11.9C53.235 11.9 53.155 11.84 53.075 11.72L52.515 10.74C52.4483 10.6333 52.415 10.54 52.415 10.46C52.415 10.3533 52.475 10.26 52.595 10.18C53.0617 9.84667 53.695 9.58667 54.495 9.4C55.295 9.2 56.1683 9.1 57.115 9.1C58.595 9.1 59.7883 9.44 60.695 10.12C61.6017 10.7867 62.055 11.7333 62.055 12.96C62.055 13.9867 61.735 14.8533 61.095 15.56C60.4683 16.2667 59.475 16.9933 58.115 17.74C57.115 18.26 56.3217 18.8067 55.735 19.38C55.1483 19.9533 54.835 20.5133 54.795 21.06H61.275C61.5417 21.06 61.7283 21.12 61.835 21.24C61.9417 21.3467 61.995 21.5267 61.995 21.78V22.32C61.995 22.56 61.9417 22.7333 61.835 22.84C61.7283 22.9467 61.5417 23 61.275 23H52.855ZM68.8589 23.3C68.0322 23.3 67.2789 23.2067 66.5989 23.02C65.9322 22.8467 65.3656 22.6067 64.8989 22.3C64.7789 22.22 64.7189 22.1267 64.7189 22.02C64.7189 21.94 64.7522 21.8467 64.8189 21.74L65.3789 20.78C65.4589 20.66 65.5322 20.6 65.5989 20.6C65.6522 20.6 65.7456 20.6333 65.8789 20.7C66.6789 21.18 67.6256 21.42 68.7189 21.42C69.8522 21.42 70.7256 21.12 71.3389 20.52C71.9522 19.92 72.3322 19 72.4789 17.76C72.0256 18.1867 71.4922 18.4933 70.8789 18.68C70.2789 18.8533 69.5656 18.94 68.7389 18.94C67.6989 18.94 66.7922 18.7533 66.0189 18.38C65.2589 17.9933 64.6722 17.4533 64.2589 16.76C63.8589 16.0667 63.6589 15.2733 63.6589 14.38C63.6589 12.62 64.1522 11.3 65.1389 10.42C66.1256 9.54 67.5322 9.1 69.3589 9.1C71.0122 9.1 72.3322 9.61333 73.3189 10.64C74.3189 11.6533 74.8189 13.22 74.8189 15.34C74.8189 18.1667 74.2589 20.2 73.1389 21.44C72.0322 22.68 70.6056 23.3 68.8589 23.3ZM69.2989 17.3C69.8056 17.3 70.2789 17.1933 70.7189 16.98C71.1722 16.7533 71.5389 16.4267 71.8189 16C72.0989 15.56 72.2389 15.0333 72.2389 14.42C72.2389 13.2867 71.9856 12.4333 71.4789 11.86C70.9722 11.2867 70.2589 11 69.3389 11C68.2856 11 67.4922 11.2667 66.9589 11.8C66.4389 12.3333 66.1789 13.18 66.1789 14.34C66.1789 15.3267 66.4389 16.0667 66.9589 16.56C67.4922 17.0533 68.2722 17.3 69.2989 17.3Z" fill="black"/>
<path d="M12 25H75.5989V26H12V25Z" fill="black"/>
<path d="M354.046 184C353.606 184 353.386 183.773 353.386 183.32V182.54C353.386 181.687 353.713 180.847 354.366 180.02C355.033 179.193 356.026 178.407 357.346 177.66C358.293 177.127 358.986 176.707 359.426 176.4C359.866 176.08 360.186 175.747 360.386 175.4C360.6 175.04 360.706 174.6 360.706 174.08C360.706 173.4 360.466 172.887 359.986 172.54C359.506 172.18 358.833 172 357.966 172C357.34 172 356.746 172.08 356.186 172.24C355.64 172.387 355.166 172.573 354.766 172.8C354.633 172.867 354.546 172.9 354.506 172.9C354.426 172.9 354.346 172.84 354.266 172.72L353.706 171.74C353.64 171.633 353.606 171.54 353.606 171.46C353.606 171.353 353.666 171.26 353.786 171.18C354.253 170.847 354.886 170.587 355.686 170.4C356.486 170.2 357.36 170.1 358.306 170.1C359.786 170.1 360.98 170.44 361.886 171.12C362.793 171.787 363.246 172.733 363.246 173.96C363.246 174.987 362.926 175.853 362.286 176.56C361.66 177.267 360.666 177.993 359.306 178.74C358.306 179.26 357.513 179.807 356.926 180.38C356.34 180.953 356.026 181.513 355.986 182.06H362.466C362.733 182.06 362.92 182.12 363.026 182.24C363.133 182.347 363.186 182.527 363.186 182.78V183.32C363.186 183.56 363.133 183.733 363.026 183.84C362.92 183.947 362.733 184 362.466 184H354.046ZM370.05 184.3C369.224 184.3 368.47 184.207 367.79 184.02C367.124 183.847 366.557 183.607 366.09 183.3C365.97 183.22 365.91 183.127 365.91 183.02C365.91 182.94 365.944 182.847 366.01 182.74L366.57 181.78C366.65 181.66 366.724 181.6 366.79 181.6C366.844 181.6 366.937 181.633 367.07 181.7C367.87 182.18 368.817 182.42 369.91 182.42C371.044 182.42 371.917 182.12 372.53 181.52C373.144 180.92 373.524 180 373.67 178.76C373.217 179.187 372.684 179.493 372.07 179.68C371.47 179.853 370.757 179.94 369.93 179.94C368.89 179.94 367.984 179.753 367.21 179.38C366.45 178.993 365.864 178.453 365.45 177.76C365.05 177.067 364.85 176.273 364.85 175.38C364.85 173.62 365.344 172.3 366.33 171.42C367.317 170.54 368.724 170.1 370.55 170.1C372.204 170.1 373.524 170.613 374.51 171.64C375.51 172.653 376.01 174.22 376.01 176.34C376.01 179.167 375.45 181.2 374.33 182.44C373.224 183.68 371.797 184.3 370.05 184.3ZM370.49 178.3C370.997 178.3 371.47 178.193 371.91 177.98C372.364 177.753 372.73 177.427 373.01 177C373.29 176.56 373.43 176.033 373.43 175.42C373.43 174.287 373.177 173.433 372.67 172.86C372.164 172.287 371.45 172 370.53 172C369.477 172 368.684 172.267 368.15 172.8C367.63 173.333 367.37 174.18 367.37 175.34C367.37 176.327 367.63 177.067 368.15 177.56C368.684 178.053 369.464 178.3 370.49 178.3ZM379.265 184C379.078 184 378.985 183.92 378.985 183.76C378.985 183.68 379.012 183.593 379.065 183.5L384.885 172.36H378.025C377.772 172.36 377.598 172.307 377.505 172.2C377.412 172.093 377.365 171.913 377.365 171.66V171.06C377.365 170.82 377.412 170.653 377.505 170.56C377.598 170.453 377.772 170.4 378.025 170.4H387.205C387.525 170.4 387.745 170.453 387.865 170.56C387.998 170.667 388.065 170.853 388.065 171.12C388.065 171.293 388.018 171.487 387.925 171.7C387.845 171.913 387.752 172.113 387.645 172.3C387.538 172.487 387.472 172.613 387.445 172.68L381.705 183.72C381.652 183.827 381.585 183.9 381.505 183.94C381.438 183.98 381.338 184 381.205 184H379.265ZM391.121 184C390.934 184 390.841 183.92 390.841 183.76C390.841 183.68 390.867 183.593 390.921 183.5L396.741 172.36H389.881C389.627 172.36 389.454 172.307 389.361 172.2C389.267 172.093 389.221 171.913 389.221 171.66V171.06C389.221 170.82 389.267 170.653 389.361 170.56C389.454 170.453 389.627 170.4 389.881 170.4H399.061C399.381 170.4 399.601 170.453 399.721 170.56C399.854 170.667 399.921 170.853 399.921 171.12C399.921 171.293 399.874 171.487 399.781 171.7C399.701 171.913 399.607 172.113 399.501 172.3C399.394 172.487 399.327 172.613 399.301 172.68L393.561 183.72C393.507 183.827 393.441 183.9 393.361 183.94C393.294 183.98 393.194 184 393.061 184H391.121ZM401.976 184C401.536 184 401.316 183.773 401.316 183.32V182.54C401.316 181.687 401.643 180.847 402.296 180.02C402.963 179.193 403.956 178.407 405.276 177.66C406.223 177.127 406.916 176.707 407.356 176.4C407.796 176.08 408.116 175.747 408.316 175.4C408.529 175.04 408.636 174.6 408.636 174.08C408.636 173.4 408.396 172.887 407.916 172.54C407.436 172.18 406.763 172 405.896 172C405.269 172 404.676 172.08 404.116 172.24C403.569 172.387 403.096 172.573 402.696 172.8C402.563 172.867 402.476 172.9 402.436 172.9C402.356 172.9 402.276 172.84 402.196 172.72L401.636 171.74C401.569 171.633 401.536 171.54 401.536 171.46C401.536 171.353 401.596 171.26 401.716 171.18C402.183 170.847 402.816 170.587 403.616 170.4C404.416 170.2 405.289 170.1 406.236 170.1C407.716 170.1 408.909 170.44 409.816 171.12C410.723 171.787 411.176 172.733 411.176 173.96C411.176 174.987 410.856 175.853 410.216 176.56C409.589 177.267 408.596 177.993 407.236 178.74C406.236 179.26 405.443 179.807 404.856 180.38C404.269 180.953 403.956 181.513 403.916 182.06H410.396C410.663 182.06 410.849 182.12 410.956 182.24C411.063 182.347 411.116 182.527 411.116 182.78V183.32C411.116 183.56 411.063 183.733 410.956 183.84C410.849 183.947 410.663 184 410.396 184H401.976Z" fill="black"/>
<path d="M352.566 186H411.996V187H352.566V186Z" fill="black"/>
<path d="M373.96 231.24C372.69 231.24 371.725 230.968 371.064 230.424C370.413 229.869 370.088 229.117 370.088 228.168V223.08C370.088 222.76 370.248 222.6 370.568 222.6H371.064C371.234 222.6 371.357 222.643 371.432 222.728C371.506 222.803 371.544 222.92 371.544 223.08V228.312C371.544 228.909 371.752 229.363 372.168 229.672C372.584 229.971 373.181 230.12 373.96 230.12C374.738 230.12 375.336 229.971 375.752 229.672C376.168 229.363 376.376 228.909 376.376 228.312V220.28C376.376 220.12 376.413 220.003 376.488 219.928C376.562 219.843 376.685 219.8 376.856 219.8H377.336C377.666 219.8 377.832 219.96 377.832 220.28V228.168C377.832 229.117 377.501 229.869 376.84 230.424C376.189 230.968 375.229 231.24 373.96 231.24ZM370.245 220.968C370.075 220.968 369.957 220.936 369.893 220.872C369.819 220.808 369.781 220.691 369.781 220.52V220.28C369.781 220.12 369.819 220.003 369.893 219.928C369.957 219.853 370.075 219.816 370.245 219.816H373.765V218.328C373.765 218.104 373.877 217.992 374.101 217.992H374.709C374.933 217.992 375.045 218.104 375.045 218.328V220.184C375.045 220.483 374.992 220.691 374.885 220.808C374.779 220.915 374.571 220.968 374.261 220.968H370.245ZM386.841 231C386.542 231 386.393 230.845 386.393 230.536V230.024C386.393 229.331 386.67 228.637 387.225 227.944C387.79 227.24 388.601 226.611 389.657 226.056C390.446 225.64 391.038 225.293 391.433 225.016C391.838 224.728 392.132 224.424 392.313 224.104C392.505 223.784 392.601 223.389 392.601 222.92C392.601 222.28 392.377 221.8 391.929 221.48C391.481 221.16 390.868 221 390.089 221C389.556 221 389.049 221.064 388.569 221.192C388.089 221.32 387.689 221.485 387.369 221.688C387.316 221.731 387.262 221.752 387.209 221.752C387.145 221.752 387.092 221.709 387.049 221.624L386.713 221.032C386.681 220.968 386.665 220.915 386.665 220.872C386.665 220.797 386.708 220.733 386.793 220.68C387.145 220.435 387.625 220.243 388.233 220.104C388.841 219.955 389.502 219.88 390.217 219.88C391.348 219.88 392.265 220.147 392.969 220.68C393.684 221.213 394.041 221.96 394.041 222.92C394.041 223.763 393.774 224.472 393.241 225.048C392.708 225.613 391.881 226.179 390.761 226.744C389.833 227.224 389.118 227.725 388.617 228.248C388.116 228.76 387.865 229.288 387.865 229.832H393.481C393.652 229.832 393.769 229.869 393.833 229.944C393.908 230.008 393.945 230.125 393.945 230.296V230.568C393.945 230.728 393.908 230.84 393.833 230.904C393.769 230.968 393.652 231 393.481 231H386.841ZM399.293 231.24C398.578 231.24 397.89 231.16 397.229 231C396.578 230.851 396.071 230.653 395.709 230.408C395.623 230.355 395.581 230.291 395.581 230.216C395.581 230.173 395.597 230.12 395.629 230.056L395.981 229.464C396.023 229.389 396.071 229.352 396.125 229.352C396.178 229.352 396.231 229.373 396.285 229.416C396.615 229.619 397.042 229.789 397.565 229.928C398.098 230.056 398.674 230.12 399.293 230.12C400.317 230.12 401.09 229.907 401.613 229.48C402.135 229.043 402.397 228.392 402.397 227.528C402.397 226.557 402.173 225.88 401.725 225.496C401.277 225.101 400.535 224.904 399.501 224.904C398.551 224.904 397.746 225.064 397.085 225.384C396.946 225.437 396.813 225.464 396.685 225.464C396.461 225.464 396.274 225.4 396.125 225.272C395.986 225.133 395.922 224.952 395.933 224.728L396.205 220.568C396.215 220.419 396.253 220.307 396.317 220.232C396.391 220.157 396.514 220.12 396.685 220.12H402.861C403.031 220.12 403.154 220.152 403.229 220.216C403.303 220.28 403.341 220.392 403.341 220.552V220.824C403.341 220.995 403.303 221.117 403.229 221.192C403.154 221.256 403.031 221.288 402.861 221.288H397.485L397.293 224.2C397.975 223.955 398.797 223.832 399.757 223.832C402.477 223.832 403.837 225.064 403.837 227.528C403.837 228.275 403.65 228.931 403.277 229.496C402.914 230.051 402.391 230.483 401.709 230.792C401.026 231.091 400.221 231.24 399.293 231.24ZM409.65 231.24C408.37 231.24 407.33 230.851 406.53 230.072C405.74 229.293 405.346 228.04 405.346 226.312C405.346 224.733 405.57 223.469 406.018 222.52C406.466 221.56 407.042 220.883 407.746 220.488C408.45 220.083 409.228 219.88 410.082 219.88C411.298 219.88 412.274 220.136 413.01 220.648C413.095 220.701 413.138 220.765 413.138 220.84C413.138 220.883 413.122 220.936 413.09 221L412.77 221.544C412.727 221.64 412.674 221.688 412.61 221.688C412.578 221.688 412.524 221.661 412.45 221.608C412.14 221.395 411.799 221.24 411.426 221.144C411.063 221.048 410.615 221 410.082 221C409.132 221 408.386 221.304 407.842 221.912C407.308 222.509 406.956 223.411 406.786 224.616C407.148 224.2 407.596 223.896 408.13 223.704C408.663 223.501 409.303 223.4 410.05 223.4C410.818 223.4 411.506 223.555 412.114 223.864C412.722 224.163 413.196 224.595 413.538 225.16C413.89 225.715 414.066 226.36 414.066 227.096C414.066 228.451 413.676 229.48 412.898 230.184C412.119 230.888 411.036 231.24 409.65 231.24ZM409.65 230.12C411.644 230.12 412.642 229.112 412.642 227.096C412.642 226.264 412.37 225.613 411.826 225.144C411.292 224.675 410.594 224.44 409.73 224.44C409.26 224.44 408.802 224.536 408.354 224.728C407.906 224.92 407.532 225.219 407.234 225.624C406.946 226.029 406.802 226.541 406.802 227.16C406.802 228.195 407.063 228.947 407.586 229.416C408.108 229.885 408.796 230.12 409.65 230.12ZM416.029 231C415.73 231 415.581 230.845 415.581 230.536V230.024C415.581 229.331 415.858 228.637 416.413 227.944C416.978 227.24 417.789 226.611 418.845 226.056C419.634 225.64 420.226 225.293 420.621 225.016C421.026 224.728 421.319 224.424 421.501 224.104C421.693 223.784 421.789 223.389 421.789 222.92C421.789 222.28 421.565 221.8 421.117 221.48C420.669 221.16 420.055 221 419.277 221C418.743 221 418.237 221.064 417.757 221.192C417.277 221.32 416.877 221.485 416.557 221.688C416.503 221.731 416.45 221.752 416.397 221.752C416.333 221.752 416.279 221.709 416.237 221.624L415.901 221.032C415.869 220.968 415.853 220.915 415.853 220.872C415.853 220.797 415.895 220.733 415.981 220.68C416.333 220.435 416.813 220.243 417.421 220.104C418.029 219.955 418.69 219.88 419.405 219.88C420.535 219.88 421.453 220.147 422.157 220.68C422.871 221.213 423.229 221.96 423.229 222.92C423.229 223.763 422.962 224.472 422.429 225.048C421.895 225.613 421.069 226.179 419.949 226.744C419.021 227.224 418.306 227.725 417.805 228.248C417.303 228.76 417.053 229.288 417.053 229.832H422.669C422.839 229.832 422.957 229.869 423.021 229.944C423.095 230.008 423.133 230.125 423.133 230.296V230.568C423.133 230.728 423.095 230.84 423.021 230.904C422.957 230.968 422.839 231 422.669 231H416.029Z" fill="black"/>
</svg>
